<svg width="24" height="24" viewBox="0 0 24 24" fill="none" xmlns="http://www.w3.org/2000/svg">
<path d="M22 12C22 17.5228 17.5228 22 12 22C6.47715 22 2 17.5228 2 12C2 6.47715 6.47715 2 12 2C17.5228 2 22 6.47715 22 12Z" fill="#158939"/>
<path fill-rule="evenodd" clip-rule="evenodd" d="M11.425 6.25976C11.715 5.96981 12.1851 5.96981 12.4751 6.25976L17.2348 11.0191C17.5248 11.3091 17.5248 11.7792 17.2348 12.0692C16.9448 12.3592 16.4747 12.3592 16.1847 12.0693L12.6926 8.5774L12.6926 17.3157C12.6926 17.7258 12.3601 18.0583 11.95 18.0583C11.54 18.0583 11.2075 17.7258 11.2075 17.3157L11.2075 8.57738L7.71533 12.0693C7.42533 12.3592 6.95518 12.3592 6.66522 12.0692C6.37525 11.7792 6.37527 11.3091 6.66526 11.0191L11.425 6.25976Z" fill="white"/>
</svg>
