<svg width="24" height="24" viewBox="0 0 24 24" fill="none" xmlns="http://www.w3.org/2000/svg">
<path d="M22 12C22 17.5228 17.5228 22 12 22C6.47715 22 2 17.5228 2 12C2 6.47715 6.47715 2 12 2C17.5228 2 22 6.47715 22 12Z" fill="#E12E3A"/>
<path fill-rule="evenodd" clip-rule="evenodd" d="M11.95 6.04175C12.3601 6.04175 12.6925 6.37419 12.6925 6.78429L12.6925 15.5226L16.1847 12.0307C16.4747 11.7408 16.9448 11.7408 17.2348 12.0308C17.5248 12.3208 17.5248 12.7909 17.2348 13.0809L12.475 17.8402C12.185 18.1302 11.7149 18.1302 11.4249 17.8402L6.66526 13.0809C6.37527 12.7909 6.37525 12.3208 6.66522 12.0308C6.95519 11.7408 7.42534 11.7408 7.71533 12.0307L11.2074 15.5226L11.2074 6.78429C11.2074 6.37419 11.5399 6.04175 11.95 6.04175Z" fill="white"/>
</svg>
