<svg width="24" height="24" viewBox="0 0 24 24" fill="none" xmlns="http://www.w3.org/2000/svg">
<path d="M21.548 21.4754C21.548 21.6839 21.379 21.8528 21.1705 21.8528H4.56309C4.35463 21.8528 4.18565 21.6839 4.18565 21.4754V19.1238C4.18565 18.9154 4.35463 18.7464 4.56309 18.7464H21.1705C21.379 18.7464 21.548 18.9154 21.548 19.1238V21.4754Z" fill="#003770"/>
<path d="M21.3068 7.34015C21.4516 7.39668 21.547 7.53626 21.547 7.69176V9.85822C21.547 10.0667 21.378 10.2357 21.1695 10.2357H19.3346C19.1261 10.2357 18.9571 10.4046 18.9571 10.6131V17.0926C18.9571 17.301 18.7882 17.47 18.5797 17.47H17.3385C17.13 17.47 16.961 17.301 16.961 17.0926V10.6131C16.961 10.4046 16.7921 10.2357 16.5836 10.2357H14.2418C14.0333 10.2357 13.8644 10.4046 13.8644 10.6131V17.0926C13.8644 17.301 13.6954 17.47 13.4869 17.47H12.2457C12.0373 17.47 11.8683 17.301 11.8683 17.0926V10.6131C11.8683 10.4046 11.6993 10.2357 11.4908 10.2357H9.15C8.94155 10.2357 8.77257 10.4046 8.77257 10.6131V17.0926C8.77257 17.301 8.60358 17.47 8.39513 17.47H7.15391C6.94545 17.47 6.77647 17.301 6.77647 17.0926V10.6131C6.77647 10.4046 6.60749 10.2357 6.39904 10.2357H4.56309C4.35463 10.2357 4.18565 10.0667 4.18565 9.85822V7.74304C4.18565 7.58827 4.28014 7.44918 4.42402 7.39216L12.7283 4.10089C12.817 4.06574 12.9157 4.06548 13.0046 4.10017L21.3068 7.34015Z" fill="#003770"/>
<path d="M2.14282 20.1209L4.37128 21.7998L4.60805 21.407L4.792 20.7731V19.8298L3.81338 19.309L2.14282 20.1209Z" fill="#003770"/>
<path d="M2.17075 8.52434L4.35879 10.1762L4.59556 9.78333L4.77951 9.14943V8.20612L3.80089 7.68539L2.17075 8.52434Z" fill="#003770"/>
<path d="M21.4554 7.44734L19.8958 5.24307L19.3711 5.63928L19.055 6.2158L18.8517 7.13577L19.6939 7.86549L21.4554 7.44734Z" fill="#003770"/>
<path d="M21.4554 18.8773L19.9068 16.709L19.3711 17.0692L19.055 17.6457L18.8517 18.5657L19.6939 19.2954L21.4554 18.8773Z" fill="#003770"/>
<path d="M10.7439 1.97339C10.8949 1.9136 11.0633 1.91337 11.2146 1.97241L19.4656 5.19214C19.7123 5.2884 19.8747 5.52597 19.8748 5.79077V7.86987C19.8748 8.22491 19.5872 8.51343 19.2322 8.51343H17.4988C17.3805 8.51343 17.284 8.60901 17.2839 8.72729V16.3816C17.2839 16.4999 17.3804 16.5964 17.4988 16.5964H19.2322C19.5872 16.5964 19.8747 16.884 19.8748 17.239V19.488C19.8748 19.8431 19.5872 20.1316 19.2322 20.1316H2.72729C2.37225 20.1316 2.08472 19.8431 2.08472 19.488V17.239C2.08479 16.884 2.3723 16.5964 2.72729 16.5964H4.46069C4.57904 16.5964 4.67554 16.4999 4.67554 16.3816V8.72729C4.67546 8.60901 4.57899 8.51343 4.46069 8.51343H2.72729C2.37225 8.51343 2.08472 8.22491 2.08472 7.86987V5.84155C2.08488 5.57815 2.24512 5.341 2.48999 5.2439L10.7439 1.97339ZM7.31421 8.51343C7.19591 8.51343 7.09944 8.60901 7.09937 8.72729V16.3816C7.09937 16.4999 7.19586 16.5964 7.31421 16.5964H9.55249C9.67084 16.5964 9.76733 16.4999 9.76733 16.3816V8.72729C9.76726 8.60901 9.67079 8.51343 9.55249 8.51343H7.31421ZM12.406 8.51343C12.2877 8.51343 12.1912 8.60901 12.1912 8.72729V16.3816C12.1912 16.4999 12.2877 16.5964 12.406 16.5964H14.6453C14.7636 16.5964 14.8601 16.4999 14.8601 16.3816V8.72729C14.86 8.60901 14.7636 8.51343 14.6453 8.51343H12.406Z" fill="url(#paint0_linear_3053_636)" stroke="#005DBF" stroke-width="0.428571"/>
<path d="M10.9792 4.04968C11.6076 4.04968 12.1168 4.55905 12.1169 5.18738C12.1169 5.81581 11.6077 6.32507 10.9792 6.32507C10.3509 6.32495 9.84155 5.81573 9.84155 5.18738C9.84168 4.55913 10.351 4.04981 10.9792 4.04968Z" fill="#005DBF" stroke="#005DBF" stroke-width="0.39854"/>
<defs>
<linearGradient id="paint0_linear_3053_636" x1="10.9797" y1="2.73334" x2="10.9797" y2="19.917" gradientUnits="userSpaceOnUse">
<stop stop-color="#BFEDFF"/>
<stop offset="0.129808" stop-color="#8CDEFF"/>
<stop offset="1" stop-color="#1690F4"/>
</linearGradient>
</defs>
</svg>
