<svg width="24" height="24" viewBox="0 0 24 24" fill="none" xmlns="http://www.w3.org/2000/svg">
<path fill-rule="evenodd" clip-rule="evenodd" d="M7.02791 5.80475L7.02011 5.81334C7.01738 5.8167 7.01465 5.82006 7.01232 5.82267C7.00959 5.82603 7.00608 5.82865 7.00335 5.83201C7.00062 5.83537 6.99789 5.83873 6.99555 5.84134L6.98659 5.85142C6.98386 5.85403 6.98113 5.85739 6.97762 5.86001C6.97489 5.86337 6.97333 5.86598 6.9706 5.86934L6.96086 5.87867L6.95384 5.88801C6.95033 5.89062 6.9476 5.89398 6.94488 5.89734C6.94215 5.89995 6.93864 5.90331 6.93708 5.90593C6.93435 5.90929 6.93084 5.9119 6.92811 5.91526C6.9246 5.91862 6.92188 5.92198 6.91915 5.92534C6.91642 5.92795 6.91369 5.93056 6.91213 5.9328C6.90862 5.93616 6.90511 5.94027 6.90238 5.944C6.89966 5.94662 6.89693 5.94923 6.89459 5.95259C6.89186 5.95595 6.88835 5.95931 6.88562 5.96267C6.88289 5.96454 6.88016 5.9679 6.8786 5.97014C6.8751 5.9735 6.87237 5.97686 6.86886 5.98022C6.86613 5.98283 6.8634 5.98619 6.86106 5.9888C6.85833 5.99216 6.85561 5.99552 6.85327 5.99888L6.8443 6.00822C6.84157 6.01158 6.83884 6.01419 6.8365 6.0168C6.83299 6.02016 6.83027 6.02352 6.82754 6.02614C6.82481 6.0295 6.82208 6.03286 6.81974 6.03547C6.81701 6.03808 6.8135 6.04144 6.81077 6.0448C6.80805 6.04816 6.80532 6.05078 6.80298 6.05339C6.80025 6.05675 6.79674 6.06011 6.79323 6.06347L6.78622 6.07206C6.78349 6.07542 6.77998 6.07878 6.77725 6.08214C6.77452 6.08475 6.77179 6.08811 6.76945 6.09072C6.76672 6.09408 6.76322 6.09744 6.76049 6.10006C6.75776 6.10342 6.75503 6.10603 6.75269 6.10939C6.74996 6.11275 6.74723 6.11536 6.74372 6.11872L6.73476 6.1288C6.73281 6.13142 6.73047 6.13403 6.72774 6.13627C6.72423 6.13963 6.7215 6.14299 6.718 6.14635C6.71527 6.14971 6.71371 6.15232 6.7102 6.15568C6.70747 6.15829 6.70474 6.16165 6.7024 6.16427L6.69344 6.17435C6.69071 6.17696 6.68798 6.17957 6.68564 6.18293C6.68291 6.18629 6.6794 6.18891 6.67667 6.19301C6.67394 6.19563 6.67122 6.19824 6.66888 6.2016C6.66615 6.20496 6.66264 6.20832 6.65991 6.21093C6.65718 6.21355 6.65445 6.21691 6.65211 6.22027C6.49813 6.38901 6.39093 6.58352 6.33129 6.79482C6.01669 6.78213 5.70327 6.76943 5.39999 6.75487C5.40076 6.63877 5.40349 6.37893 5.40622 6.10827L5.41402 6.05974L5.41324 5.97163C5.61868 6.01083 5.82802 6.0463 6.04398 6.0631C6.2771 6.08251 6.50554 6.01046 6.66966 5.86635C6.78388 5.76555 6.86106 5.63377 6.89186 5.49228C6.89264 5.48817 6.89459 5.48481 6.89537 5.48108C6.89615 5.47697 6.8981 5.47361 6.89888 5.46988C6.89966 5.46577 6.9016 5.46241 6.90238 5.45793C6.90316 5.45457 6.90511 5.45046 6.90589 5.44673C6.90667 5.44337 6.90862 5.43927 6.9094 5.43479C6.91018 5.43217 6.91135 5.42881 6.91213 5.42545C6.91564 5.56022 6.96086 5.68678 7.0361 5.79542C7.03298 5.7999 7.03064 5.80251 7.02791 5.80475ZM15.7074 12.512L15.7047 12.5093C15.702 12.5067 15.6993 12.5041 15.6957 12.5019C15.693 12.4985 15.6895 12.4959 15.686 12.4925C15.6833 12.4899 15.6805 12.4873 15.677 12.4851L15.6681 12.4757C15.6646 12.4724 15.6603 12.469 15.6564 12.4657C15.6536 12.4631 15.6501 12.4604 15.6474 12.4582C15.6447 12.4548 15.6412 12.4522 15.6377 12.4489C15.6349 12.4463 15.6314 12.4429 15.6279 12.4403C15.626 12.4369 15.6225 12.4343 15.6201 12.4328C15.6166 12.4287 15.6123 12.4253 15.6096 12.4216C15.6061 12.419 15.6034 12.4164 15.5998 12.4141C15.5971 12.4108 15.5936 12.4082 15.5901 12.4048L15.5811 12.3962C15.5776 12.3929 15.5749 12.3903 15.5722 12.3876C15.5687 12.3843 15.5644 12.3809 15.5605 12.3776C15.5577 12.3742 15.5542 12.3723 15.5515 12.369C15.5488 12.3664 15.5453 12.363 15.5418 12.3604C15.5383 12.357 15.5347 12.3537 15.5312 12.3503C15.5285 12.3477 15.5258 12.3462 15.5234 12.3436C15.5199 12.3402 15.5172 12.3376 15.5137 12.3343C15.5102 12.3309 15.5075 12.3283 15.504 12.3257C15.5012 12.3223 15.4985 12.3197 15.495 12.3171C15.4915 12.3137 15.488 12.3104 15.4845 12.3078C15.3987 12.2211 15.2779 12.1644 15.1426 12.1558C14.9219 12.1405 14.6986 12.1278 14.4744 12.1151V11.4551C14.8865 11.4603 15.2966 11.4651 15.7067 11.473V12.512H15.7074ZM19.9601 12.366C20.4969 11.7067 20.9959 11.0679 21.4796 10.4195C21.6391 10.2328 21.68 9.97147 21.579 9.73291C21.5365 9.6336 21.4726 9.54699 21.3931 9.47494C21.5135 9.36369 21.5985 9.21884 21.6262 9.05233L21.634 3.93699L21.6313 3.88958C21.6137 3.69172 21.5089 3.50879 21.3451 3.38895C21.3007 3.35572 21.252 3.32884 21.2009 3.30682C21.1954 3.3042 21.1912 3.30084 21.1857 3.29823C21.1802 3.29562 21.1752 3.293 21.1689 3.29076C21.1635 3.28815 21.1584 3.28479 21.153 3.28218C21.1475 3.28031 21.1424 3.27695 21.137 3.27546C21.1315 3.27284 21.1272 3.26948 21.121 3.26687C21.1155 3.26426 21.1105 3.26164 21.105 3.2594C21.0995 3.25679 21.0945 3.25418 21.0898 3.25194C21.0836 3.24858 21.0781 3.24596 21.073 3.24335C21.0676 3.24074 21.0625 3.23812 21.0571 3.23588C21.0516 3.23364 21.0465 3.23066 21.0411 3.22842C21.0356 3.22618 21.0313 3.22319 21.0251 3.22095C21.0196 3.21834 21.0146 3.21498 21.0091 3.21236C21.0029 3.20975 20.9986 3.20639 20.9923 3.2049C20.9869 3.20228 20.9818 3.19893 20.9771 3.19631C20.9709 3.1937 20.9654 3.19109 20.9604 3.18885C20.9549 3.18623 20.9499 3.18362 20.9444 3.18138C20.9389 3.17877 20.9347 3.17541 20.9292 3.17391C20.9237 3.1713 20.9187 3.16794 20.9124 3.16533C20.907 3.16271 20.9019 3.1601 20.8964 3.15786C20.891 3.15525 20.8867 3.15263 20.8805 3.15039C20.875 3.14778 20.8707 3.14442 20.8645 3.14181C20.8582 3.13919 20.8528 3.13658 20.8477 3.13322C20.8423 3.13135 20.838 3.12799 20.8337 3.1265C20.8274 3.12389 20.822 3.12053 20.8169 3.11791C20.8115 3.1153 20.8064 3.11269 20.8002 3.11045C20.7947 3.10783 20.7896 3.10447 20.7842 3.10186C20.7787 3.09999 20.7744 3.09663 20.769 3.09514C20.7635 3.09253 20.7592 3.08917 20.753 3.08655C20.7475 3.08394 20.7413 3.08133 20.7362 3.07909C20.7308 3.07573 20.7257 3.07311 20.7202 3.0705C20.7148 3.06789 20.7105 3.06527 20.705 3.06378C20.6996 3.06042 20.6933 3.05706 20.6875 3.05445C20.6832 3.05258 20.6785 3.04922 20.6735 3.04773C20.668 3.04511 20.6629 3.04175 20.6567 3.03914C20.6512 3.03653 20.6462 3.03391 20.6407 3.03167C20.6353 3.02906 20.631 3.02645 20.6255 3.02421C20.6193 3.02159 20.6138 3.01823 20.608 3.01562C20.6025 3.01301 20.5982 3.01039 20.5928 3.00815C20.5873 3.00554 20.5822 3.00218 20.5768 3.00069C20.5713 2.99733 20.5663 2.99471 20.56 2.9921C20.5557 2.98949 20.5503 2.98687 20.544 2.98463C20.5398 2.98202 20.5351 2.97866 20.53 2.97717C20.5238 2.97455 20.5183 2.9712 20.5132 2.96858C20.507 2.96597 20.5016 2.96261 20.4965 2.96112C20.491 2.9585 20.486 2.95589 20.4813 2.95365C20.4758 2.95104 20.4708 2.94768 20.4653 2.94506C20.4598 2.9432 20.4548 2.93984 20.4493 2.9376C20.4439 2.93498 20.4388 2.93237 20.4326 2.93013C20.4283 2.92752 20.4228 2.9249 20.4173 2.92266C20.4111 2.92005 20.4068 2.91669 20.4006 2.91408C20.3951 2.91146 20.3901 2.9081 20.3846 2.90661C20.3791 2.904 20.3749 2.90138 20.3694 2.89914C20.3632 2.89653 20.3577 2.89317 20.3526 2.89056C20.3472 2.88794 20.3421 2.88533 20.3367 2.88309C20.3312 2.88085 20.3261 2.87712 20.3199 2.8745C20.3156 2.87264 20.3101 2.86928 20.3047 2.86778C20.2992 2.86517 20.2942 2.86181 20.2887 2.8592C20.2832 2.85658 20.2782 2.85397 20.2727 2.85173C20.2673 2.84912 20.2622 2.84576 20.2575 2.84426C20.2513 2.8409 20.2458 2.83829 20.24 2.83568C20.2345 2.83306 20.2302 2.83045 20.2248 2.82821C20.2193 2.8256 20.2142 2.82224 20.2088 2.82074C20.2033 2.81813 20.1983 2.81477 20.1928 2.81216C20.1873 2.80954 20.1831 2.80693 20.1776 2.80469C20.1714 2.80208 20.1659 2.79872 20.1601 2.7961C20.1546 2.79424 20.1503 2.79088 20.1449 2.78864C20.1394 2.78602 20.1343 2.78341 20.1281 2.78117C20.1226 2.77856 20.1183 2.77594 20.1129 2.7737C20.1074 2.77109 20.1024 2.76773 20.0961 2.76624C20.0918 2.76362 20.0864 2.76026 20.0801 2.75765C20.0759 2.75504 20.0704 2.75168 20.0649 2.75018C20.0587 2.74757 20.0544 2.74421 20.0482 2.7416C20.0427 2.73899 20.0384 2.73637 20.033 2.73413C20.0267 2.73152 20.0213 2.72891 20.0162 2.72667C20.0108 2.72405 20.0065 2.72144 20.001 2.7192C19.9956 2.71696 19.9905 2.71323 19.9842 2.71061C19.9788 2.708 19.9737 2.70539 19.9683 2.70315C19.9628 2.70053 19.9585 2.69792 19.9531 2.69568C19.9468 2.69307 19.9425 2.68971 19.9363 2.68709C19.9308 2.68448 19.9266 2.68187 19.9211 2.68037C19.9149 2.67776 19.9106 2.6744 19.9043 2.67179C19.8989 2.66917 19.8938 2.66581 19.8884 2.6632C19.8829 2.66133 19.8786 2.65797 19.8731 2.65648C19.8677 2.65387 19.8626 2.65051 19.8564 2.64789C19.8509 2.64528 19.8459 2.64192 19.8404 2.64043C19.8349 2.63781 19.8299 2.63445 19.8244 2.63184C19.819 2.62923 19.8147 2.62661 19.8084 2.62437C19.803 2.62176 19.7979 2.61915 19.7925 2.61691C19.7012 2.57435 19.5968 2.56016 19.4923 2.58032C19.1812 2.64043 18.8686 2.69755 18.5559 2.75018C18.3017 2.79274 18.1096 3.00741 18.1103 3.24746V3.81417H18.1096C18.1088 3.81342 18.1076 3.8123 18.1061 3.81156C18.1033 3.80894 18.0998 3.80745 18.0971 3.80484C18.0963 3.80484 18.0951 3.80409 18.0944 3.80297C18.0916 3.80036 18.0881 3.79886 18.0846 3.797L18.0827 3.79438C18.0792 3.79177 18.0756 3.79102 18.0721 3.78841C18.0714 3.78766 18.0714 3.78654 18.0702 3.7858C18.0667 3.78318 18.0632 3.78169 18.0597 3.77908C18.0589 3.77908 18.0589 3.77833 18.0577 3.77721C18.055 3.77534 18.0515 3.77385 18.0488 3.77198C18.0468 3.77124 18.0468 3.77012 18.046 3.76937C18.0433 3.76676 18.0398 3.76601 18.0363 3.7634L18.0335 3.76078C18.0308 3.75817 18.0273 3.75742 18.0238 3.75481C18.023 3.75406 18.0219 3.75294 18.0211 3.7522C18.0176 3.74958 18.0141 3.74809 18.0105 3.74548C18.0098 3.74473 18.0098 3.74361 18.0086 3.74361C18.0059 3.741 18.0024 3.74025 17.9996 3.73838L17.9969 3.73577C17.9934 3.73316 17.9899 3.73166 17.9872 3.72905C17.9864 3.7283 17.9864 3.7283 17.9852 3.72718C17.9817 3.72457 17.9782 3.72308 17.9755 3.72121L17.9727 3.7186C17.9692 3.71598 17.9657 3.71449 17.963 3.71262C17.961 3.71188 17.961 3.71001 17.9603 3.71001C17.9568 3.7074 17.9532 3.7059 17.9513 3.70404C17.9493 3.70329 17.9493 3.70217 17.9486 3.70142C17.9451 3.69956 17.9415 3.69806 17.9388 3.69545L17.9361 3.69284C17.9334 3.69022 17.9291 3.68948 17.9263 3.68686L17.9236 3.685C17.9201 3.68238 17.9166 3.68089 17.9139 3.67828C17.9131 3.67753 17.9119 3.67641 17.9111 3.67641C17.9084 3.6738 17.9049 3.6723 17.9022 3.67044L17.8994 3.66782C17.8967 3.66521 17.8924 3.66446 17.8897 3.66185L17.887 3.65924C17.8842 3.65662 17.8807 3.65588 17.878 3.65326C17.8772 3.65252 17.8761 3.6514 17.8753 3.65065C17.8718 3.64878 17.8683 3.64729 17.8655 3.64543C17.8648 3.64468 17.8636 3.64281 17.8628 3.64207C17.8593 3.63945 17.8558 3.63796 17.8523 3.63609C17.8515 3.63535 17.8515 3.63423 17.8503 3.63348C17.8468 3.63161 17.8433 3.63012 17.8406 3.62825C17.8406 3.62751 17.8398 3.62639 17.8386 3.62564C17.8359 3.62377 17.8324 3.62228 17.8289 3.61967C17.8281 3.61892 17.8269 3.6178 17.8262 3.61631C17.8226 3.61444 17.8191 3.61295 17.8156 3.61033L17.8137 3.60847C17.811 3.60585 17.8074 3.60511 17.8039 3.60249C17.8039 3.60175 17.8032 3.60063 17.8012 3.59988C17.7985 3.59727 17.795 3.59652 17.7922 3.59391C17.7915 3.59391 17.7903 3.59316 17.7895 3.59204C17.7868 3.58943 17.7833 3.58868 17.7805 3.58607L17.7778 3.58345C17.7743 3.58084 17.7708 3.57935 17.7673 3.57748C17.7665 3.57673 17.7665 3.57561 17.7653 3.57487C17.7626 3.57225 17.7583 3.57151 17.7556 3.56889C17.7548 3.56815 17.7537 3.56703 17.7529 3.56628C17.7494 3.56367 17.7466 3.56217 17.7431 3.56031C17.7423 3.55956 17.7423 3.55844 17.7412 3.55769C17.7377 3.55583 17.7342 3.55433 17.7314 3.55172C17.7306 3.55172 17.7295 3.54985 17.7287 3.54985C17.726 3.54724 17.7225 3.54575 17.719 3.54313L17.7162 3.54127C17.7135 3.53865 17.71 3.53716 17.7065 3.53455C17.7057 3.53455 17.7057 3.5338 17.7045 3.53268C17.701 3.53007 17.6975 3.52857 17.6948 3.52596C17.6928 3.52596 17.6928 3.52521 17.6921 3.52409C17.6893 3.52148 17.685 3.52073 17.6823 3.51812C17.6815 3.51737 17.6804 3.51625 17.6796 3.51551C17.6769 3.51289 17.6733 3.51215 17.6698 3.50953C17.6691 3.50879 17.6691 3.50767 17.6679 3.50767C17.6644 3.50505 17.6609 3.50356 17.6581 3.50169C17.6574 3.50095 17.6562 3.49908 17.6554 3.49833C17.6527 3.49572 17.6484 3.49497 17.6457 3.49236C17.6449 3.49161 17.6437 3.49049 17.6429 3.48975C17.6402 3.48788 17.6367 3.48713 17.634 3.48452L17.6312 3.48191C17.6285 3.47929 17.6242 3.4778 17.6207 3.47593C17.6199 3.47519 17.6199 3.47407 17.6188 3.47332C17.616 3.47145 17.6125 3.46996 17.609 3.46735C17.6082 3.4666 17.6071 3.46548 17.6063 3.46473C17.6028 3.46212 17.5993 3.46063 17.5965 3.45801C17.5958 3.45801 17.5946 3.45727 17.5938 3.45615C17.5911 3.45353 17.5876 3.45279 17.5849 3.45092C17.5841 3.45017 17.5841 3.44905 17.5829 3.44831C17.5794 3.44569 17.5759 3.4442 17.5724 3.44159C17.5716 3.44159 17.5716 3.44084 17.5704 3.43972C17.5669 3.43711 17.5634 3.43561 17.5607 3.43375C17.5599 3.433 17.5587 3.43188 17.558 3.43113C17.5544 3.42852 17.5509 3.42703 17.5474 3.42442C17.5467 3.42367 17.5455 3.42255 17.5447 3.42255C17.5428 3.41994 17.5392 3.41919 17.5369 3.41732L17.5342 3.41471C17.5314 3.4121 17.5272 3.4106 17.5244 3.40799L17.5217 3.40538C17.519 3.40276 17.5147 3.40202 17.512 3.3994C17.5112 3.3994 17.51 3.39866 17.5092 3.39754C17.5065 3.39492 17.503 3.39343 17.4995 3.39156C17.4987 3.39082 17.4987 3.3897 17.4975 3.38895C17.494 3.38634 17.4905 3.38484 17.4878 3.38298L17.4851 3.38036C17.4823 3.3785 17.4788 3.377 17.4761 3.37439L17.4734 3.37178C17.4699 3.36916 17.4663 3.36842 17.4628 3.3658C17.4621 3.36506 17.4621 3.36394 17.4609 3.36319C17.4574 3.36132 17.4539 3.35983 17.4504 3.35722C17.4504 3.35647 17.4496 3.35535 17.4484 3.35535C17.4457 3.35274 17.4422 3.35124 17.4387 3.34863C17.4379 3.34863 17.4379 3.34788 17.4367 3.34676C17.4332 3.34415 17.4305 3.3434 17.427 3.34079C17.4262 3.34004 17.425 3.33892 17.4242 3.33818C17.4207 3.33556 17.4172 3.33407 17.4145 3.3322L17.4118 3.32959C17.409 3.32772 17.4055 3.32623 17.4028 3.32362C17.4009 3.32287 17.4009 3.32175 17.3993 3.321C17.3966 3.31839 17.3931 3.3169 17.3896 3.31503C17.3888 3.31428 17.3888 3.31316 17.3876 3.31242C17.3849 3.31055 17.3814 3.3098 17.3779 3.30719L17.3759 3.30458C17.3724 3.30196 17.3689 3.30047 17.3662 3.2986C17.3654 3.29786 17.3642 3.29674 17.3634 3.29599C17.3599 3.29338 17.3564 3.29263 17.3529 3.29002C17.3521 3.28927 17.3521 3.28815 17.351 3.2874C17.3474 3.28479 17.3439 3.28404 17.3412 3.28143C17.3404 3.28068 17.3393 3.27956 17.3385 3.27882C17.3358 3.2762 17.3322 3.27471 17.3295 3.27284L17.3268 3.27098C17.3241 3.26836 17.3206 3.26687 17.3178 3.265C17.3159 3.26426 17.3159 3.26239 17.3143 3.26164C17.3116 3.25903 17.3073 3.25828 17.3046 3.25567C17.3038 3.25567 17.3026 3.25492 17.3018 3.2538C17.2991 3.25119 17.2956 3.2497 17.2929 3.24783C17.2909 3.24708 17.2901 3.24522 17.2894 3.24447C17.2866 3.2426 17.2831 3.24111 17.2804 3.2385C17.2796 3.2385 17.2784 3.23775 17.2784 3.23775C17.2749 3.23514 17.2714 3.23364 17.2687 3.23103C17.2668 3.23028 17.2668 3.22916 17.2652 3.22842C17.2625 3.2258 17.259 3.22506 17.2562 3.22244C17.2555 3.2217 17.2543 3.22058 17.2535 3.22058C17.25 3.21796 17.2465 3.21647 17.2438 3.21386C17.243 3.21311 17.2418 3.21199 17.241 3.21199C17.2383 3.20938 17.2348 3.20788 17.2321 3.20602L17.2293 3.2034C17.2266 3.20079 17.2231 3.20004 17.2196 3.19743C17.2188 3.19669 17.2176 3.19557 17.2169 3.19482C17.2141 3.19221 17.2106 3.19146 17.2079 3.18885C17.2071 3.1881 17.2059 3.18698 17.2044 3.18623C17.2017 3.18362 17.1981 3.18287 17.1946 3.18026C17.1939 3.17951 17.1939 3.17839 17.1927 3.17765C17.1892 3.17578 17.1865 3.17429 17.1829 3.17167L17.1802 3.16906C17.1775 3.16719 17.174 3.16645 17.1705 3.16383C17.1705 3.16309 17.1697 3.16197 17.1685 3.16122C17.165 3.15861 17.1615 3.15711 17.1588 3.15525L17.156 3.15263C17.1525 3.15002 17.149 3.14853 17.1463 3.14666L17.1436 3.14405C17.1401 3.14143 17.1366 3.13994 17.1338 3.13807C17.133 3.13733 17.133 3.13621 17.1319 3.13546C17.1284 3.13285 17.1249 3.1321 17.1221 3.13023C17.1213 3.12949 17.1202 3.12762 17.1194 3.12762C17.1167 3.12501 17.1132 3.12351 17.1104 3.1209C17.1097 3.1209 17.1085 3.12015 17.1077 3.11903C17.1042 3.11642 17.1007 3.11493 17.0972 3.11306L17.0952 3.11045C17.0917 3.10783 17.0882 3.10634 17.0855 3.10447C17.0847 3.10373 17.0835 3.10186 17.0828 3.10111C16.9818 3.02383 16.8516 2.98986 16.7179 3.00703C16.4033 3.04511 16.0887 3.07983 15.7733 3.11157C15.5102 3.1377 15.3055 3.34564 15.3055 3.58495V3.82425C15.3055 3.8235 15.3047 3.8235 15.3047 3.8235C15.302 3.82089 15.3005 3.81828 15.2985 3.81678C15.2977 3.81604 15.2958 3.81492 15.295 3.81417C15.2931 3.8123 15.2915 3.81006 15.2895 3.8082C15.2888 3.80745 15.2876 3.80745 15.2868 3.80633C15.2849 3.80372 15.2833 3.8011 15.2806 3.79961C15.2798 3.79886 15.2786 3.79774 15.2779 3.79774C15.2759 3.79513 15.2743 3.79252 15.2716 3.79102C15.2708 3.79028 15.2697 3.78916 15.2689 3.78841C15.2669 3.78654 15.2654 3.7843 15.2634 3.78244C15.2626 3.78169 15.2615 3.78169 15.2607 3.78057C15.2587 3.77796 15.2572 3.77534 15.2545 3.7731C15.2537 3.7731 15.2525 3.77236 15.2517 3.77236C15.2498 3.76974 15.2482 3.76713 15.2463 3.76564C15.2455 3.76489 15.2435 3.76377 15.2428 3.76302C15.2408 3.76116 15.2393 3.75892 15.2365 3.75705C15.2365 3.7563 15.2357 3.75518 15.2346 3.75518C15.2318 3.75257 15.2311 3.74996 15.2283 3.74846C15.2276 3.74772 15.2264 3.7466 15.2256 3.7466C15.2237 3.74398 15.2221 3.74137 15.2194 3.73988C15.2186 3.73913 15.2174 3.73801 15.2166 3.73726C15.2147 3.7354 15.2131 3.73316 15.2112 3.73129C15.2104 3.73054 15.2092 3.73054 15.2085 3.72942C15.2057 3.72681 15.2042 3.7242 15.2022 3.72196C15.2014 3.72196 15.2003 3.72121 15.1995 3.72009C15.1968 3.71822 15.1952 3.71598 15.1933 3.71412C15.1925 3.71337 15.1913 3.71337 15.1913 3.71225C15.1886 3.70964 15.187 3.70702 15.1843 3.70478C15.1835 3.70404 15.1823 3.70404 15.1816 3.70292C15.1788 3.7003 15.1781 3.69769 15.1753 3.6962C15.1745 3.6962 15.1745 3.69545 15.1734 3.69433C15.1706 3.69246 15.1691 3.69022 15.1671 3.68761C15.1664 3.68761 15.1652 3.68686 15.1644 3.68686C15.1617 3.68425 15.1609 3.68164 15.1582 3.6794C15.1574 3.67865 15.1562 3.67865 15.1554 3.67753C15.1527 3.67566 15.1519 3.67342 15.1492 3.67081C15.1484 3.67081 15.1484 3.67006 15.1473 3.67006C15.1445 3.66745 15.143 3.66484 15.1402 3.6626C15.1395 3.66185 15.1383 3.66185 15.1375 3.66073C15.1356 3.65886 15.1348 3.65662 15.1321 3.65401C15.1313 3.65401 15.1301 3.65326 15.1293 3.65214C15.1274 3.65028 15.1258 3.64804 15.1231 3.64543C15.1223 3.64468 15.1211 3.64468 15.1204 3.64356C15.1184 3.64169 15.1169 3.63945 15.1141 3.63684C15.1133 3.63609 15.1122 3.63609 15.1114 3.63497C15.1094 3.63236 15.1079 3.62975 15.1052 3.62825C15.1044 3.62751 15.1032 3.62751 15.1032 3.62639C15.1005 3.62452 15.0997 3.62228 15.097 3.61967C15.0962 3.61892 15.095 3.6178 15.0942 3.6178C15.0915 3.61519 15.09 3.61257 15.088 3.61108C15.0872 3.61033 15.0861 3.61033 15.0861 3.60921C15.0833 3.60735 15.0818 3.60511 15.0798 3.60249C15.079 3.60175 15.0779 3.60175 15.0771 3.60063C15.0744 3.59876 15.0728 3.5954 15.0709 3.59391C15.0701 3.59316 15.0689 3.59316 15.0681 3.59204C15.0654 3.58943 15.0646 3.58793 15.0619 3.58532C15.0611 3.58457 15.0599 3.58457 15.0592 3.58345C15.0572 3.58084 15.0556 3.57823 15.0529 3.57673C15.0521 3.57599 15.051 3.57487 15.0502 3.57412C15.0475 3.57225 15.0467 3.57001 15.044 3.56815L15.0432 3.5674C15.0404 3.56479 15.0389 3.56217 15.0362 3.55993C15.0354 3.55919 15.0342 3.55807 15.0334 3.55732C15.0307 3.55545 15.0291 3.55321 15.0272 3.55135C15.0264 3.5506 15.0252 3.5506 15.0245 3.54948C15.0225 3.54687 15.021 3.54425 15.0182 3.54276C15.0182 3.54201 15.0174 3.54201 15.0163 3.54089C15.0135 3.53903 15.012 3.53567 15.0093 3.53417C15.0085 3.53343 15.0073 3.53231 15.0065 3.53231C15.0046 3.52969 15.003 3.52708 15.0011 3.52559C15.0003 3.52484 14.9991 3.52484 14.9991 3.52372C14.9964 3.52111 14.9948 3.51849 14.9921 3.517C14.9913 3.51625 14.9902 3.51513 14.9894 3.51439C14.9874 3.51252 14.9859 3.51028 14.9831 3.50841C14.9831 3.50767 14.9824 3.50767 14.9812 3.50655C14.9785 3.50393 14.9769 3.50132 14.975 3.49983C14.9742 3.49908 14.973 3.49908 14.9722 3.49796C14.9695 3.49535 14.9687 3.49273 14.966 3.49124C14.9652 3.49049 14.964 3.48937 14.9633 3.48863C14.9605 3.48676 14.959 3.48452 14.957 3.48265C14.9562 3.48191 14.9551 3.48191 14.9543 3.48079C14.9523 3.47817 14.9508 3.47556 14.9488 3.47407C14.9481 3.47332 14.9461 3.4722 14.9453 3.47145C14.9434 3.46959 14.9418 3.46735 14.9391 3.46473C14.9391 3.46473 14.9383 3.46399 14.9371 3.46399C14.9344 3.46137 14.9329 3.45876 14.9309 3.45727C14.9301 3.45652 14.929 3.4554 14.929 3.4554C14.9262 3.45279 14.9247 3.45017 14.9219 3.44793C14.9212 3.44793 14.92 3.44719 14.92 3.44719C14.9173 3.44457 14.9157 3.44196 14.913 3.44047C14.913 3.43972 14.9122 3.4386 14.911 3.4386C14.9091 3.43599 14.9075 3.43337 14.9048 3.43113C14.904 3.43039 14.9028 3.43039 14.9021 3.42927C14.8993 3.4274 14.8985 3.42516 14.8958 3.4233C14.895 3.42255 14.8939 3.42143 14.8939 3.42143C14.8911 3.41882 14.8896 3.4162 14.8876 3.41396C14.7882 3.3266 14.651 3.28143 14.513 3.29188C13.9813 3.32735 13.4418 3.35311 12.9112 3.3673C12.6656 3.37476 12.4372 3.41658 12.229 3.49273L12.174 3.51327C11.6762 3.70852 11.3492 4.08334 11.2552 4.54179C11.2474 4.51379 11.24 4.48504 11.2314 4.45704C11.2306 4.45368 11.2287 4.45032 11.2279 4.44696C11.2271 4.4436 11.226 4.44024 11.2244 4.43763L11.2217 4.42829C11.2209 4.42493 11.2197 4.42157 11.219 4.41896C11.2182 4.4156 11.2162 4.41149 11.2154 4.40776C11.2147 4.40403 11.2127 4.40179 11.2119 4.39843C11.2112 4.39507 11.21 4.39245 11.2092 4.38909C11.2084 4.38648 11.2073 4.38312 11.2057 4.37976C11.2049 4.3764 11.2038 4.37304 11.2022 4.36856C11.2022 4.36595 11.2002 4.36259 11.1995 4.35923C11.1987 4.35661 11.1975 4.35325 11.1967 4.34989C11.196 4.34728 11.194 4.34392 11.1932 4.34131C11.0365 3.84142 10.5812 3.38074 9.45771 3.32138C9.02266 3.29748 8.5806 3.26612 8.14399 3.22804C7.99975 3.21535 7.86136 3.25866 7.76118 3.34527C7.7374 3.36655 7.71674 3.38932 7.69841 3.41322C7.69646 3.41583 7.69413 3.41919 7.6914 3.42255C7.68867 3.42516 7.68594 3.42852 7.6836 3.43113C7.68165 3.43375 7.67814 3.43711 7.67658 3.44047C7.67385 3.44308 7.67113 3.44644 7.66879 3.44905C7.66684 3.45241 7.66333 3.45503 7.66177 3.45839C7.65904 3.461 7.65631 3.46436 7.65397 3.46697C7.65125 3.47033 7.64852 3.47295 7.64696 3.47631C7.64423 3.47967 7.64072 3.48228 7.63916 3.48489C7.63721 3.48825 7.6337 3.49087 7.63214 3.49423C7.62941 3.49759 7.62591 3.5002 7.62435 3.50281C7.62162 3.50617 7.61889 3.50879 7.61733 3.51215C7.6146 3.51551 7.61187 3.51812 7.60953 3.52073C7.6068 3.52409 7.60408 3.52671 7.60174 3.53007C7.59979 3.53343 7.59628 3.53604 7.59472 3.5394C7.59199 3.54201 7.58926 3.54463 7.58692 3.54799C7.58497 3.55135 7.58264 3.55396 7.57991 3.55732C7.57718 3.55993 7.57445 3.56255 7.57211 3.56591C7.57016 3.56927 7.56782 3.57188 7.56509 3.57449C7.56236 3.57785 7.55964 3.58121 7.5573 3.58457C7.55535 3.58719 7.55301 3.5898 7.55028 3.59129C7.54833 3.59465 7.54599 3.59727 7.54326 3.60063C7.54053 3.60399 7.53702 3.60735 7.5343 3.61071C7.53235 3.61332 7.53079 3.61481 7.52884 3.61743C7.52611 3.62079 7.52338 3.62415 7.52104 3.62676C7.51831 3.63012 7.5148 3.63348 7.51208 3.63796C7.50935 3.64132 7.50662 3.64319 7.50428 3.64654C7.50233 3.6499 7.49999 3.65252 7.49726 3.65513C7.49375 3.66036 7.48947 3.66521 7.48479 3.67044C7.48206 3.67454 7.47777 3.67716 7.47504 3.68164C7.47075 3.68686 7.46725 3.69172 7.46257 3.69694C7.45984 3.7003 7.45633 3.70366 7.4536 3.70702C7.44814 3.71225 7.44386 3.71822 7.44035 3.72308L7.43957 3.72382C7.43255 3.73241 7.42553 3.74062 7.41813 3.74921C7.41462 3.75444 7.40916 3.75854 7.40565 3.76377C7.4037 3.76638 7.40136 3.76788 7.39942 3.77049C7.39396 3.77646 7.38967 3.78169 7.38538 3.78654C7.3846 3.78841 7.3846 3.78916 7.38343 3.7899L7.38265 3.79065C7.37642 3.79812 7.3694 3.80521 7.36316 3.81268C7.36238 3.81454 7.36121 3.81529 7.36043 3.81678C7.35342 3.82425 7.34718 3.83134 7.34094 3.83881C7.34016 3.84068 7.33899 3.84142 7.33821 3.84292C7.3312 3.85038 7.32496 3.85748 7.31872 3.86494C7.31677 3.86756 7.31521 3.87017 7.31326 3.87166C7.30976 3.87764 7.30352 3.88286 7.30001 3.88771C7.29728 3.89107 7.29455 3.89369 7.29221 3.89705C7.29026 3.89966 7.28676 3.90302 7.2852 3.90638C7.28169 3.90974 7.27818 3.9131 7.27545 3.91758C7.27194 3.92281 7.26648 3.92691 7.2622 3.93289C7.25947 3.93625 7.25596 3.94035 7.25323 3.94409C7.24894 3.94931 7.24348 3.95417 7.2392 3.96014C7.23647 3.9635 7.23374 3.96686 7.23023 3.97134C7.22594 3.97657 7.22048 3.98067 7.21698 3.98665C7.21425 3.99075 7.21074 3.99411 7.20723 3.99785C7.20372 4.00382 7.19826 4.00793 7.19398 4.0139C7.19125 4.01651 7.18852 4.01987 7.18618 4.02323C7.1854 3.99934 7.1854 3.97657 7.18423 3.95379C7.18072 3.80782 7.17721 3.66185 7.17721 3.52521C7.17721 3.40911 7.13472 3.12911 6.74061 3.04847L6.63769 3.02645C6.35273 2.97008 5.65532 2.82336 5.20624 2.7513C4.77314 2.67925 4.37513 2.74794 4.0695 2.9432L4.06053 2.94917C4.05625 2.95178 4.05274 2.95514 4.04806 2.95776C4.0426 2.96037 4.03831 2.96298 4.03403 2.96634C4.02974 2.96896 4.02506 2.97232 4.02077 2.97493C4.01648 2.97754 4.01181 2.98015 4.00752 2.98351C4.00206 2.98613 3.99777 2.98949 3.99348 2.99285C3.9892 2.99471 3.98452 2.99695 3.98101 3.00031C3.97555 3.00293 3.97126 3.00629 3.96698 3.0089C3.96269 3.01226 3.95723 3.01487 3.95294 3.01823C3.94865 3.02085 3.94515 3.02346 3.94047 3.0257C3.93618 3.02831 3.93072 3.03167 3.92643 3.03429C3.92215 3.0369 3.91747 3.04026 3.91318 3.04287C3.90889 3.04549 3.90421 3.04885 3.89915 3.05146C3.89486 3.05482 3.89018 3.05743 3.88667 3.06005C3.88238 3.06266 3.8777 3.06602 3.87342 3.06863C3.86913 3.07125 3.86445 3.07386 3.85938 3.07722C3.85509 3.08058 3.85042 3.08319 3.84535 3.08655L3.83365 3.09402C3.8282 3.09663 3.82391 3.09999 3.81845 3.10261C3.81416 3.10597 3.80948 3.10858 3.8052 3.11194C3.80091 3.11455 3.7974 3.11717 3.79272 3.11866C3.78726 3.12202 3.78298 3.12538 3.77752 3.12874C3.77401 3.13135 3.76972 3.13397 3.76504 3.13621C3.76076 3.13882 3.75608 3.14218 3.75101 3.14479C3.74672 3.14815 3.74204 3.15077 3.73776 3.15413C3.73347 3.15599 3.72879 3.15935 3.7245 3.16159C3.72021 3.16495 3.71554 3.16757 3.71047 3.17093C3.70618 3.17354 3.7015 3.17615 3.69721 3.17839C3.69293 3.18175 3.68825 3.18437 3.68396 3.18773C3.67967 3.18959 3.67499 3.19295 3.67071 3.19519C3.66642 3.1978 3.66174 3.20116 3.65745 3.20452L3.64342 3.21311C3.63913 3.21572 3.63445 3.21834 3.63016 3.2217C3.62588 3.22431 3.6212 3.22692 3.61769 3.22916C3.61223 3.23178 3.60794 3.23514 3.60249 3.2385C3.5982 3.24111 3.59469 3.24372 3.59001 3.24596L3.57598 3.2553C3.57169 3.25791 3.56701 3.26052 3.56272 3.26276C3.55844 3.26612 3.55376 3.26874 3.54869 3.2721C3.5444 3.27471 3.53972 3.27732 3.53544 3.27956C3.53115 3.28292 3.52764 3.28554 3.52296 3.28815C3.5175 3.29151 3.51322 3.29487 3.50776 3.29748C3.50425 3.3001 3.49996 3.30271 3.49606 3.30495L3.48203 3.31354C3.47657 3.3169 3.47228 3.32026 3.46683 3.32287C3.46332 3.32548 3.45903 3.3281 3.45435 3.33034C3.45006 3.3337 3.44538 3.33631 3.4411 3.33967C3.43564 3.34228 3.43135 3.34564 3.42784 3.34714C3.42239 3.3505 3.4181 3.35311 3.41381 3.35647C3.40952 3.35908 3.40484 3.36244 3.40055 3.36506C3.39627 3.36767 3.39159 3.37028 3.3873 3.37252C3.38301 3.37588 3.37755 3.37924 3.37327 3.38186C3.36898 3.38447 3.36547 3.38708 3.36079 3.38932L3.34559 3.3994C3.3413 3.40127 3.33779 3.40351 3.33389 3.40612C3.32844 3.40948 3.32337 3.41284 3.31869 3.4162C3.3144 3.41807 3.30972 3.42143 3.30544 3.42367C3.29998 3.42628 3.29647 3.42964 3.29218 3.43225C3.28789 3.43487 3.28322 3.43748 3.27893 3.44084C3.27464 3.44345 3.26996 3.44607 3.26489 3.44943C3.26061 3.45204 3.25593 3.45465 3.25164 3.45801C3.24735 3.46063 3.24267 3.46399 3.23839 3.4666C3.2341 3.46921 3.22864 3.47183 3.22513 3.47519L3.20993 3.48377C3.20642 3.48713 3.20213 3.489 3.19745 3.49236C3.192 3.49497 3.18849 3.49833 3.18342 3.50095C3.17913 3.50431 3.17445 3.50692 3.17017 3.51028C3.16588 3.51289 3.1612 3.51551 3.15691 3.51775C3.15262 3.52036 3.14912 3.52297 3.14444 3.52521C3.13898 3.52857 3.13391 3.53193 3.12923 3.53455C3.12495 3.53791 3.12027 3.54052 3.11598 3.54313L3.10195 3.55172C3.09766 3.55508 3.09415 3.55769 3.08947 3.56031C3.08401 3.56292 3.07973 3.56628 3.07544 3.56889C3.07115 3.57225 3.06647 3.57487 3.06218 3.57748C3.0579 3.58009 3.05322 3.58345 3.04893 3.58607C3.04347 3.58868 3.03996 3.59204 3.03568 3.59465C3.03022 3.59727 3.02593 3.60063 3.02164 3.60324L3.00761 3.61257C3.00332 3.61519 2.99981 3.6178 2.99513 3.62004L2.9811 3.62937C2.97564 3.63199 2.97135 3.6346 2.96707 3.63796C2.96356 3.64057 2.95927 3.64319 2.95459 3.64543L2.94056 3.65401C2.93627 3.65737 2.93159 3.65998 2.9273 3.66334C2.92185 3.66596 2.91756 3.66857 2.91327 3.67081C2.90976 3.67417 2.90547 3.67604 2.90157 3.6794C2.83686 3.71934 2.7741 3.76153 2.71641 3.80932C2.34529 4.1132 2.14258 4.56008 2.14258 5.06855V7.88531C2.14258 8.42738 2.37024 8.92055 2.78229 9.2726C2.81074 9.29537 2.83998 9.31665 2.86922 9.33867C2.86727 9.33942 2.86649 9.34054 2.86493 9.34129C2.86064 9.3439 2.85713 9.34726 2.85246 9.34987C2.847 9.35249 2.84271 9.35585 2.83842 9.35846C2.83413 9.36107 2.82946 9.36443 2.82517 9.36705C2.82088 9.36966 2.81737 9.37302 2.81269 9.37563C2.80802 9.37825 2.80373 9.38086 2.80022 9.3831C2.79476 9.38571 2.79047 9.38907 2.78502 9.39243C2.78151 9.3943 2.77722 9.39766 2.77254 9.3999C2.76786 9.40214 2.76357 9.40587 2.75929 9.40849C2.755 9.4111 2.75032 9.41371 2.74603 9.41595C2.74174 9.41931 2.73707 9.42193 2.73278 9.42454C2.72849 9.4279 2.72381 9.43051 2.71874 9.43387C2.71446 9.43649 2.71095 9.4391 2.70705 9.44134C2.70159 9.44395 2.6973 9.44657 2.69302 9.44993C2.68873 9.45254 2.68405 9.4559 2.67976 9.45851C2.3562 9.64928 2.14258 9.97072 2.14258 10.334V14.7221C2.14258 15.0013 2.26498 15.2533 2.48719 15.4333C2.68483 15.5938 2.94524 15.6785 3.2224 15.6785C3.29686 15.6785 3.37288 15.6726 3.4485 15.6599C4.08977 15.5572 4.74468 15.4639 5.3957 15.384C6.1773 15.2854 6.79128 14.9401 7.12965 14.4507C7.17215 14.5007 7.21737 14.5492 7.26804 14.5948C7.61967 14.9102 8.11865 15.076 8.71821 15.076C8.78448 15.076 8.8527 15.0734 8.92092 15.0693C9.57466 15.0327 10.2358 15.0092 10.886 14.9965C11.484 14.9853 11.9659 14.6452 12.0723 14.1931C12.4383 14.6784 13.1026 14.9938 13.931 15.0263C14.5212 15.0491 15.1172 15.0816 15.702 15.123C15.7234 15.1249 15.7464 15.1256 15.7683 15.1256C15.9792 15.1256 16.1795 15.0536 16.3273 14.9222C16.3335 14.9162 16.339 14.9087 16.346 14.9016C16.4824 15.0622 16.6879 15.1742 16.9288 15.1969C17.2886 15.2309 17.648 15.269 18.0063 15.3097C18.3306 15.3489 18.628 15.2089 18.7805 14.9703L18.7832 14.9737L18.7859 14.9763L18.7929 14.9864L18.7949 14.9882L18.8038 15.0002L18.8046 15.0021L18.8136 15.014L18.8155 15.0159L18.8233 15.0278L18.8253 15.0297L18.8331 15.0409L18.8358 15.0427L18.8436 15.0547L18.8444 15.0566L18.8534 15.0685L18.8553 15.0693L18.8631 15.0812L18.8639 15.0819L18.8736 15.0946L18.8756 15.0965L18.8834 15.1085L18.8853 15.1103L18.8931 15.1223L18.8951 15.123L18.9029 15.135L18.9048 15.1368L18.9138 15.1488L18.9157 15.1506L18.9235 15.1626L18.9243 15.1633L18.9333 15.176L18.9352 15.1768L18.9442 15.1887L18.9972 15.2346C19.1414 15.3578 19.3153 15.4773 19.6007 15.5199L19.8061 15.5497C20.0852 15.5923 20.5768 15.6692 20.6602 15.6856C20.7257 15.6957 20.7877 15.7017 20.8473 15.7017C21.1927 15.7017 21.4278 15.5243 21.5385 15.3384C21.6792 15.1025 21.6632 14.8117 21.5015 14.5959C21.0056 13.8406 20.5008 13.11 19.9601 12.366Z" fill="#012A72"/>
<path fill-rule="evenodd" clip-rule="evenodd" d="M5.15742 8.28088C5.67316 8.28424 6.18968 8.2876 6.70777 8.29021C6.82393 8.29096 6.91788 8.20957 6.91788 8.10765V7.27625C6.91788 7.17545 6.82315 7.08959 6.70777 7.08623C6.24426 7.06831 5.78192 7.0489 5.32037 7.02762C5.31491 7.02687 5.30984 7.02575 5.30438 7.02426C5.19523 7.00746 5.11142 6.91823 5.11142 6.8137C5.11142 6.77039 5.11493 6.41573 5.11843 6.05696C5.12038 6.04576 5.12545 6.03494 5.12545 6.02224C5.12545 6.02224 5.12467 5.86358 5.12194 5.64892C5.12467 5.435 5.12545 5.27559 5.12545 5.27559C5.12545 5.26289 5.11999 5.25169 5.11843 5.24012C5.11493 4.88135 5.11142 4.52557 5.11142 4.48152C5.11142 4.37811 5.19562 4.30344 5.30438 4.30419C5.30984 4.30419 5.31491 4.30344 5.32037 4.30344C5.78192 4.35683 6.24426 4.52333 6.70777 4.56552C6.82276 4.5756 6.91788 4.50205 6.91788 4.40013C6.91788 4.1235 6.90385 3.80878 6.90385 3.53215C6.90385 3.43135 6.85317 3.35668 6.69295 3.32346C6.53351 3.29023 5.67316 3.10543 5.15742 3.02293C4.34229 2.88629 3.76573 3.32756 3.76573 4.11902V6.92644C3.76573 7.71678 4.34229 8.28088 5.15742 8.28088Z" fill="white"/>
<path fill-rule="evenodd" clip-rule="evenodd" d="M14.3246 8.18669C14.7951 8.00339 15.0945 7.60542 15.0945 7.10666V6.52128C15.0945 6.1767 14.9518 5.88849 14.7074 5.68988C14.5975 5.5999 14.47 5.53047 14.3246 5.47932C14.1589 5.41996 13.973 5.38785 13.771 5.38785C13.7445 5.38524 13.7153 5.38599 13.6888 5.38711C13.4841 5.39308 13.2795 5.39383 13.0748 5.39719C12.9793 5.38449 12.9037 5.32439 12.8924 5.2445C12.8904 5.23703 12.8904 5.22994 12.8904 5.22247C12.8904 5.20978 12.8904 5.16311 12.8924 5.09853C12.8904 5.05783 12.8924 5.00781 12.8924 4.95442C12.9041 4.87117 12.9844 4.80322 13.0853 4.78978C13.0896 4.78978 13.0943 4.78717 13.1013 4.78717C13.5843 4.77448 14.0661 4.75506 14.548 4.72856C14.6649 4.72258 14.7597 4.63784 14.7589 4.54003V3.73513C14.7589 3.63769 14.6649 3.56527 14.548 3.57311C14.0112 3.60857 13.4732 3.63433 12.9356 3.64964C12.7025 3.65636 12.4881 3.69892 12.2994 3.77433H12.2975C11.827 3.95913 11.5268 4.33955 11.5256 4.82488V5.39495C11.5256 5.7302 11.6691 6.01691 11.9135 6.2215C12.0234 6.31408 12.1517 6.38688 12.2971 6.44139C12.4636 6.50485 12.6499 6.54218 12.8518 6.54592C12.8783 6.54928 12.9076 6.54928 12.9353 6.54853C13.092 6.54666 13.2491 6.54256 13.4058 6.53994C13.4448 6.5392 13.4837 6.5392 13.5219 6.5392C13.529 6.54106 13.5336 6.54106 13.5379 6.53994C13.6389 6.54928 13.7196 6.61461 13.7309 6.69861C13.7328 6.70608 13.7336 6.71392 13.7336 6.72063C13.7328 6.73407 13.7328 6.77999 13.7309 6.84533C13.7336 6.88677 13.7309 6.93679 13.7309 6.99055C13.7192 7.07455 13.6389 7.14324 13.5379 7.15519C13.5336 7.15519 13.529 7.1578 13.5219 7.1578C13.0401 7.16452 12.5563 7.169 12.0733 7.17124C11.9572 7.17124 11.8624 7.24927 11.8624 7.34447V8.13256C11.8624 8.22776 11.9572 8.30579 12.0733 8.30579C12.6121 8.30579 13.1497 8.30504 13.6884 8.30317C13.9207 8.30205 14.1367 8.26248 14.3246 8.18669Z" fill="white"/>
<path fill-rule="evenodd" clip-rule="evenodd" d="M8.76136 6.52295C8.76136 6.50765 8.76136 6.49234 8.76136 6.47816C8.76136 6.4509 8.76136 6.42402 8.76136 6.39677C8.76214 6.29933 8.86233 6.22355 8.98629 6.22691C9.11844 6.23101 9.25137 6.23549 9.38314 6.23885C9.5071 6.24221 9.60924 6.32285 9.60924 6.4188V7.09863C9.60846 7.10871 9.60729 7.11916 9.60495 7.12849C9.60222 7.13708 9.59949 7.14529 9.59598 7.15388C9.56597 7.22332 9.48254 7.27185 9.38353 7.2711C9.25137 7.26849 9.11844 7.267 8.98668 7.26513C8.86272 7.26252 8.76175 7.18113 8.76175 7.08444C8.76175 7.03367 8.76175 6.98364 8.76175 6.9325C8.76175 6.92988 8.76175 6.92914 8.76175 6.92727C8.76136 6.79175 8.76136 6.65773 8.76136 6.52295ZM10.4298 8.30373C10.7409 8.30448 10.9931 8.11109 10.9931 7.87179V4.84111C10.9931 4.11499 10.5386 3.6599 9.45681 3.60316C9.01475 3.57852 8.57346 3.54716 8.13335 3.50908C8.0164 3.499 7.92167 3.56583 7.92167 3.65916V3.97574C7.92167 3.97761 7.92167 3.97985 7.92245 3.98171C7.92245 3.98433 7.92167 3.98582 7.92167 3.98582V4.45995C7.92167 4.55925 8.02186 4.64661 8.14582 4.6552C8.56567 4.6832 8.9859 4.70597 9.40653 4.72464C9.50593 4.74143 9.58468 4.80527 9.59598 4.9001V5.04868C9.58429 5.13791 9.50632 5.20063 9.41159 5.20473C9.20343 5.19727 8.99526 5.18793 8.78709 5.1786C7.95675 5.1353 7.36694 5.56649 7.36694 6.23736V7.15687C7.36694 7.82363 7.87372 8.29888 8.6986 8.29888C9.27515 8.30224 9.8521 8.30298 10.4298 8.30373Z" fill="white"/>
<path fill-rule="evenodd" clip-rule="evenodd" d="M15.1235 8.82725C14.6042 8.82464 14.0834 8.82314 13.5622 8.82128C12.7401 8.81941 12.1518 9.30138 12.1526 9.97785V12.2992C12.1518 12.9772 12.7401 13.4591 13.5622 13.4957C14.083 13.5185 14.6042 13.5517 15.1235 13.5943C15.2396 13.6036 15.3344 13.5323 15.3344 13.433V12.6229C15.3344 12.5236 15.2396 12.437 15.1235 12.4302C14.6592 12.3989 14.1933 12.3742 13.7271 12.3556C13.7216 12.3548 13.7174 12.3537 13.7111 12.353C13.602 12.3369 13.5162 12.257 13.5162 12.1629V10.1156C13.5162 10.0215 13.602 9.94499 13.7111 9.93566C13.7174 9.93491 13.7216 9.93379 13.7271 9.93305C14.193 9.93827 14.6592 9.94499 15.1235 9.95433C15.2396 9.95769 15.3344 9.87966 15.3344 9.78036V9.00757C15.3344 8.90864 15.2392 8.82725 15.1235 8.82725Z" fill="white"/>
<path fill-rule="evenodd" clip-rule="evenodd" d="M10.0568 12.294C10.0568 12.304 10.0548 12.3134 10.0533 12.3227C10.0506 12.3313 10.0478 12.3406 10.0443 12.3481C10.0143 12.4175 9.9301 12.4709 9.83186 12.4754C9.69893 12.4806 9.56678 12.4855 9.43424 12.4915C9.31027 12.4974 9.20931 12.4235 9.20931 12.3268V12.1756C9.20931 12.1738 9.20931 12.1723 9.20853 12.1704C9.20931 12.0364 9.20931 11.9031 9.20931 11.7691V11.6436C9.21009 11.5477 9.31027 11.4648 9.43424 11.4603C9.56717 11.4562 9.69932 11.4517 9.83186 11.4484C9.95583 11.445 10.0568 11.5204 10.0568 11.6164V12.294ZM9.90437 8.82128C9.46309 8.82314 9.0218 8.82464 8.57973 8.8265C8.46279 8.82725 8.36806 8.90303 8.36806 8.99525V9.30921C8.36806 9.31108 8.36884 9.31332 8.36884 9.31593C8.36884 9.3178 8.36806 9.32004 8.36806 9.32004V9.79006C8.36806 9.88937 8.46902 9.96553 8.59299 9.96328C9.01283 9.95395 9.43307 9.94649 9.85369 9.94126C9.9531 9.95321 10.0326 10.0118 10.0443 10.1059V10.2534C10.0326 10.3433 9.95466 10.4094 9.85915 10.4187C9.65098 10.4221 9.44281 10.4262 9.23465 10.4314C8.40431 10.4482 7.81372 10.944 7.81372 11.6082V12.5195C7.81372 13.1814 8.32128 13.5954 9.14615 13.5401C9.7231 13.5028 10.3004 13.4782 10.8782 13.4662C11.1892 13.4595 11.4415 13.265 11.4415 13.0257V9.99912C11.4415 9.27599 10.9869 8.81978 9.90437 8.82128Z" fill="white"/>
<path fill-rule="evenodd" clip-rule="evenodd" d="M5.97288 12.5794C5.97288 12.6813 5.8727 12.7761 5.74873 12.7914C5.61775 12.8067 5.48638 12.822 5.35539 12.8388C5.25794 12.8508 5.17568 12.8067 5.14372 12.7343C5.14177 12.7268 5.13748 12.7164 5.13592 12.7063C5.13319 12.6969 5.13319 12.6869 5.13319 12.6764V12.0119C5.13319 11.9051 5.2326 11.8092 5.35539 11.798C5.48638 11.7853 5.61775 11.7733 5.74873 11.7614C5.8727 11.7502 5.97093 11.826 5.97288 11.9294V12.5794ZM5.13319 10.1721C5.13319 10.1609 5.13319 10.1516 5.13592 10.1408C5.13865 10.1307 5.14216 10.1202 5.14372 10.112C5.17568 10.0347 5.25716 9.97614 5.35539 9.97203C5.41192 9.96942 5.46961 9.96792 5.52653 9.96531C5.65049 9.96008 5.75068 10.0407 5.75068 10.1426V10.4346C5.74873 10.5391 5.65049 10.6287 5.52653 10.6366C5.46883 10.6399 5.41231 10.6433 5.35539 10.6466C5.23299 10.6541 5.13319 10.5753 5.13319 10.4686V10.1721ZM6.79074 11.0801C7.00944 10.8647 7.14081 10.5906 7.14081 10.2808V9.9795C7.14081 9.31497 6.63208 8.84346 5.81266 8.84682C5.31368 8.85093 4.81587 8.85615 4.31962 8.86138C4.01399 8.86399 3.76489 9.09135 3.76489 9.36799V13.7423C3.76489 14.0189 4.01477 14.1936 4.31962 14.1361C4.89033 14.0316 5.46182 13.9394 6.03564 13.858C6.85428 13.7408 7.36457 13.2181 7.36379 12.5555V11.9861C7.36379 11.5829 7.1451 11.2615 6.79074 11.0801Z" fill="white"/>
<path fill-rule="evenodd" clip-rule="evenodd" d="M18.2886 11.5497C18.2769 11.5329 18.2441 11.4675 18.2441 11.3705C18.2441 11.273 18.2769 11.2323 18.2886 11.217C18.7696 10.5443 19.2507 9.84691 19.729 9.11183C19.7945 9.04239 19.7512 8.8337 19.4959 8.83109C19.4257 8.83034 18.5603 8.82175 18.5603 8.82175C18.4461 8.82101 18.3794 8.85498 18.2909 8.92703C17.9818 9.37428 17.6726 9.80958 17.3623 10.2355V8.98564C17.3545 8.88895 17.2657 8.81167 17.1549 8.81093C16.8388 8.80831 16.5215 8.80682 16.2042 8.80495C16.088 8.80421 15.994 8.88485 15.994 8.98564V13.4648C15.994 13.5649 16.088 13.6567 16.2042 13.6694C16.5215 13.7034 16.8384 13.7407 17.1549 13.7833C17.2614 13.7967 17.3471 13.7385 17.3623 13.6493V12.3867C17.6722 12.8574 17.9818 13.3405 18.2909 13.8408C18.3806 13.9274 18.4468 13.9722 18.5603 13.992C18.5611 13.9894 19.4249 14.1432 19.4959 14.1592C19.7512 14.2085 19.7945 14.0091 19.729 13.9259C19.2507 13.0915 18.7696 12.303 18.2886 11.5497Z" fill="white"/>
<path fill-rule="evenodd" clip-rule="evenodd" d="M16.9706 8.04732C16.9706 7.51794 16.9706 6.98931 16.9706 6.46067C16.9706 6.37742 17.0467 6.30612 17.1406 6.30126C17.5039 6.28073 17.8661 6.2587 18.2278 6.23518C18.3218 6.22846 18.397 6.2938 18.3978 6.38041V8.00214C18.3978 8.10817 18.4917 8.19403 18.6067 8.19291C18.9221 8.18955 19.2359 8.18619 19.5501 8.18283C19.6546 8.18209 19.7408 8.10481 19.7548 8.00625L19.7567 2.99096C19.7478 2.8883 19.6593 2.82371 19.5501 2.84499C19.2355 2.9051 18.921 2.96222 18.6067 3.0156C18.4906 3.03502 18.3966 3.13694 18.3978 3.24296V4.81168C18.3978 4.8983 18.3218 4.97632 18.2278 4.98566C17.8665 5.02299 17.5039 5.05771 17.1418 5.08832C17.047 5.09579 16.9718 5.03568 16.9706 4.95243C16.9714 4.44433 16.9714 3.93698 16.9714 3.42925C16.9636 3.33405 16.874 3.27059 16.7633 3.28328C16.4471 3.32248 16.1298 3.35795 15.8117 3.38931C15.6967 3.40051 15.6016 3.48936 15.6016 3.58941V8.03537C15.6016 8.13467 15.6963 8.21531 15.8125 8.21457C16.1298 8.2127 16.4467 8.21121 16.7633 8.20859C16.8697 8.20822 16.9566 8.13803 16.9706 8.04732Z" fill="white"/>
<path d="M20.279 20.6705H3.49764C3.1446 20.6705 2.83862 20.4 2.83862 20.0394V16.1869C2.83862 15.8488 3.12106 15.5558 3.49764 15.5558H20.279C20.6321 15.5558 20.9381 15.8263 20.9381 16.1869V20.0168C20.9381 20.3775 20.6556 20.6705 20.279 20.6705Z" fill="#1576DB"/>
<path d="M3.87402 16.9422H4.93316C5.40388 16.8971 5.804 17.2352 5.85107 17.686C5.85107 17.7085 5.85107 17.7536 5.85107 17.7761C5.85107 18.2946 5.47449 18.6101 4.90962 18.6101H4.53304V19.3089H3.87402V16.9422ZM4.79194 18.1142C4.98023 18.1368 5.14498 18.0015 5.14498 17.8212C5.14498 17.7987 5.14498 17.7987 5.14498 17.7761C5.14498 17.5733 5.00377 17.4606 4.7684 17.4606H4.53304V18.1142H4.79194Z" fill="white"/>
<path d="M7.82828 19.3314C7.14573 19.3314 6.62793 18.9032 6.62793 18.1143C6.62793 17.3254 7.14573 16.8971 7.82828 16.8971C8.51084 16.8971 9.02864 17.3254 9.02864 18.1143C9.02864 18.9032 8.4873 19.3314 7.82828 19.3314ZM7.82828 17.4606C7.49878 17.4606 7.31049 17.686 7.31049 18.1143C7.31049 18.5425 7.49878 18.7679 7.82828 18.7679C8.15779 18.7679 8.34609 18.5425 8.34609 18.1143C8.34609 17.686 8.15779 17.4606 7.82828 17.4606Z" fill="white"/>
<path d="M10.7469 19.3086H10.0879V16.9419H10.7469V19.3086Z" fill="white"/>
<path d="M14.1589 19.3086H13.594L12.6996 18.0689H12.6761V19.3086H12.0171V16.9419H12.582L13.4528 18.1816H13.4763V16.9419H14.1354V19.3086H14.1589Z" fill="white"/>
<path d="M15.0303 16.9419H17.1721V17.4603H16.4425V19.3086H15.7834V17.4603H15.0303V16.9419Z" fill="white"/>
<path d="M19.1254 17.8892L18.9135 17.8441C18.6782 17.799 18.584 17.7314 18.584 17.6187C18.584 17.506 18.6782 17.4384 18.89 17.4384C19.0077 17.4159 19.1254 17.4835 19.196 17.5736L19.7373 17.2806C19.549 17.0101 19.2195 16.8749 18.8665 16.8974C18.278 16.8974 17.8779 17.1905 17.8779 17.6413C17.8779 18.0019 18.1368 18.2273 18.584 18.3175L18.8194 18.3625C19.1018 18.4302 19.196 18.4978 19.196 18.5879C19.196 18.6781 19.0783 18.7908 18.8665 18.7908C18.6782 18.8133 18.5134 18.7006 18.4663 18.5429L17.9015 18.8359C18.0427 19.1514 18.3957 19.3092 18.89 19.3092C19.5255 19.3092 19.9021 19.0613 19.9021 18.5879C19.9021 18.2498 19.6667 18.0019 19.1254 17.8892Z" fill="white"/>
</svg>
