<svg width="24" height="24" viewBox="0 0 24 24" fill="none" xmlns="http://www.w3.org/2000/svg">
<path fill-rule="evenodd" clip-rule="evenodd" d="M23.1282 13.2325C22.582 14.0547 22.0199 14.8649 21.4138 15.702C22.0232 16.6464 22.5941 17.5737 23.153 18.5291C23.335 18.8019 23.3537 19.1715 23.1948 19.4707C23.0699 19.7066 22.8048 19.9316 22.4143 19.9316C22.3477 19.9316 22.2779 19.9244 22.2042 19.9107C22.1101 19.8909 21.5552 19.7935 21.24 19.7391L21.0079 19.7011C20.6856 19.6478 20.4898 19.496 20.3265 19.3398L20.2665 19.2815L20.2572 19.2666L20.2555 19.265L20.2451 19.2485L20.244 19.2474L20.2346 19.2331L20.233 19.2309L20.2231 19.2155L20.2209 19.2133L20.2115 19.1984L20.2099 19.1968L20.2011 19.1825L20.1983 19.1803L20.189 19.1654L20.1873 19.1632L20.1769 19.1467L20.1758 19.1456L20.1664 19.1313L20.1648 19.1291L20.1554 19.1143L20.1532 19.1121L20.1439 19.0972L20.1422 19.0956L20.1334 19.0807L20.1307 19.0785L20.1213 19.0637L20.1197 19.0615L20.1103 19.0466L20.1081 19.045L20.0982 19.029L20.0971 19.0274L20.0889 19.0142L20.0856 19.0114L20.0828 19.007C19.9106 19.3101 19.5751 19.4866 19.2088 19.4377C18.8046 19.3854 18.3987 19.3376 17.9928 19.2947C17.7205 19.2661 17.4884 19.1236 17.3339 18.9201C17.3298 18.9242 17.3265 18.9287 17.3232 18.9332C17.3202 18.9374 17.3171 18.9415 17.3135 18.9454C17.1469 19.1121 16.9202 19.2039 16.6821 19.2039C16.6573 19.2039 16.632 19.2028 16.6073 19.2012C15.9478 19.1478 15.2752 19.1066 14.6091 19.0774C13.6735 19.0367 12.9239 18.6363 12.5108 18.0208C12.3909 18.5945 11.847 19.0257 11.1721 19.04C10.4378 19.056 9.69148 19.0873 8.95391 19.133C8.87636 19.1385 8.79936 19.1412 8.72456 19.1412C8.0475 19.1412 7.48484 18.9322 7.08773 18.5307C7.03108 18.473 6.97993 18.4108 6.93153 18.3476C6.54982 18.9685 5.85681 19.4074 4.97405 19.5323C4.23868 19.634 3.50057 19.7512 2.77621 19.8826C2.69096 19.8986 2.60571 19.9063 2.52155 19.9063C2.20805 19.9063 1.91489 19.7979 1.69159 19.595C1.44079 19.3667 1.30273 19.0466 1.30273 18.693V13.1236C1.30273 12.6621 1.54364 12.254 1.90829 12.0114C1.91177 12.0094 1.91502 12.0071 1.91819 12.0048C1.92004 12.0035 1.92187 12.0022 1.92369 12.001C1.92552 11.9998 1.92735 11.9985 1.92921 11.9972C1.93238 11.9949 1.93563 11.9926 1.9391 11.9905C1.94148 11.989 1.94361 11.9872 1.94567 11.9856C1.94789 11.9838 1.95002 11.9821 1.9523 11.9806C1.95633 11.9781 1.95987 11.9755 1.96342 11.9729C1.96519 11.9717 1.96696 11.9704 1.9688 11.9691C1.97127 11.9674 1.97374 11.9657 1.97621 11.9639C1.97869 11.9621 1.98117 11.9603 1.98365 11.9586C1.98612 11.957 1.98846 11.9552 1.99079 11.9534C1.99313 11.9516 1.99547 11.9498 1.99795 11.9482C2.00182 11.9459 2.00543 11.9433 2.00914 11.9406C2.0107 11.9395 2.01227 11.9383 2.0139 11.9372C2.0183 11.9339 2.0227 11.9306 2.0282 11.9273C2.03095 11.9254 2.03342 11.9234 2.0359 11.9215C2.03837 11.9196 2.04085 11.9177 2.0436 11.9157C2.0469 11.9139 2.05019 11.9116 2.05349 11.9093C2.05515 11.9081 2.0568 11.9069 2.05845 11.9058C2.06028 11.9045 2.06221 11.9031 2.06419 11.9017C2.06697 11.8997 2.06986 11.8976 2.07275 11.8954C2.07769 11.8921 2.08266 11.8888 2.08705 11.8849C2.09092 11.8826 2.09452 11.88 2.09824 11.8773C2.0998 11.8762 2.10137 11.8751 2.103 11.8739C2.10465 11.8728 2.10624 11.8717 2.10783 11.8706C2.11101 11.8684 2.11418 11.8662 2.11785 11.864C2.11867 11.8635 2.11936 11.8628 2.12005 11.8621C2.12073 11.8614 2.12142 11.8607 2.12225 11.8602C2.11215 11.8515 2.10195 11.8429 2.09174 11.8343C2.06913 11.8153 2.04649 11.7963 2.0249 11.7755C1.55904 11.3294 1.30273 10.7041 1.30273 10.0149V6.4404C1.30273 5.79524 1.53209 5.22763 1.9479 4.84262C2.0139 4.78212 2.0843 4.72767 2.1569 4.67707C2.15962 4.67503 2.16256 4.67319 2.16557 4.67131C2.16743 4.67015 2.16931 4.66898 2.1712 4.66772C2.1756 4.66387 2.18055 4.66057 2.18605 4.65727C2.19155 4.65342 2.1965 4.64957 2.20145 4.64572C2.2042 4.64379 2.20695 4.64201 2.2097 4.64022C2.21245 4.63843 2.2152 4.63664 2.21795 4.63472C2.2218 4.63142 2.22675 4.62812 2.2317 4.62482C2.23375 4.62322 2.2359 4.62172 2.23802 4.62023C2.24102 4.61814 2.24397 4.61607 2.24655 4.61382L2.26305 4.60227C2.26745 4.59897 2.2724 4.59567 2.27735 4.59237L2.2933 4.58082L2.30925 4.56982C2.31121 4.56834 2.3134 4.56687 2.31565 4.56535C2.31845 4.56346 2.32136 4.5615 2.3241 4.55937C2.32905 4.55607 2.33455 4.55222 2.33895 4.54892L2.35435 4.53847C2.35795 4.53526 2.36185 4.53264 2.36582 4.52997C2.36731 4.52897 2.36881 4.52796 2.3703 4.52692L2.3846 4.51647L2.4011 4.50547C2.40362 4.50326 2.40632 4.50142 2.4091 4.49952C2.41117 4.4981 2.41329 4.49666 2.4154 4.49502L2.4319 4.48347C2.43685 4.47962 2.4418 4.47632 2.4473 4.47302C2.45115 4.46972 2.4561 4.46642 2.46105 4.46312C2.466 4.45927 2.4715 4.45542 2.47645 4.45212C2.47808 4.45098 2.47965 4.44984 2.48121 4.44872C2.48493 4.44604 2.48853 4.44344 2.4924 4.44112C2.4968 4.43726 2.50175 4.43396 2.50725 4.43066C2.50973 4.42874 2.51234 4.42681 2.51495 4.42489C2.51757 4.42296 2.52018 4.42104 2.52266 4.41911C2.52395 4.41821 2.52521 4.41734 2.52645 4.41648C2.53048 4.41368 2.53427 4.41106 2.53806 4.40811L2.55346 4.39766C2.55593 4.39574 2.55854 4.39395 2.56116 4.39216C2.56377 4.39038 2.56638 4.38859 2.56886 4.38666C2.57381 4.38336 2.57931 4.37951 2.58426 4.37566C2.58921 4.37236 2.59416 4.36906 2.59911 4.36521C2.6002 4.36449 2.60132 4.36376 2.60244 4.36302C2.60643 4.36043 2.61053 4.35776 2.61396 4.35476C2.61891 4.35091 2.62385 4.34761 2.6288 4.34432C2.6343 4.33992 2.64036 4.33606 2.64641 4.33221C2.64803 4.33099 2.64966 4.32985 2.65126 4.32872C2.65399 4.3268 2.65663 4.32494 2.65906 4.32286C2.66511 4.31846 2.67061 4.31461 2.67666 4.31076C2.68106 4.30746 2.68546 4.30416 2.69041 4.30086C2.69591 4.29701 2.70141 4.29316 2.70636 4.28931L2.72176 4.27886L2.73606 4.26841C2.73771 4.26726 2.73935 4.26616 2.74097 4.26507C2.74475 4.26254 2.74838 4.26011 2.75146 4.25741C2.75421 4.25576 2.75682 4.25397 2.75943 4.25219C2.76205 4.2504 2.76466 4.24861 2.76741 4.24696C2.77181 4.24311 2.77731 4.23926 2.78281 4.23541C2.78776 4.23211 2.79216 4.22881 2.79656 4.22551L2.81306 4.21396L2.82901 4.20296C2.83396 4.19966 2.83836 4.19636 2.84276 4.19306L2.85926 4.18151C2.86109 4.18014 2.86302 4.17876 2.865 4.17735C2.86778 4.17537 2.87067 4.17331 2.87356 4.17106C2.87906 4.16776 2.88401 4.16446 2.88841 4.16061C2.89391 4.15676 2.89941 4.15291 2.90546 4.14906L2.91976 4.13861C2.92224 4.13669 2.92485 4.1349 2.92746 4.13311C2.93007 4.13132 2.93269 4.12953 2.93516 4.12761L2.95001 4.11771C2.95361 4.11451 2.95751 4.11189 2.96148 4.10921C2.96297 4.10821 2.96446 4.10721 2.96596 4.10616C2.96885 4.10391 2.97174 4.10185 2.97452 4.09987C2.97651 4.09846 2.97843 4.09708 2.98026 4.09571C2.98209 4.09449 2.98392 4.0932 2.98577 4.09188C2.98894 4.08964 2.99219 4.08734 2.99566 4.08526C2.99773 4.08381 2.99964 4.08236 3.00152 4.08095C3.00463 4.07859 3.00763 4.07632 3.01106 4.07426L3.02701 4.06271C3.02949 4.06106 3.03183 4.05941 3.03416 4.05776C3.0365 4.05611 3.03884 4.05446 3.04131 4.05281L3.05671 4.04181C3.05919 4.04016 3.06166 4.03837 3.06414 4.03658C3.06661 4.0348 3.06909 4.03301 3.07156 4.03136C3.07706 4.02751 3.08257 4.02366 3.08751 4.01981C3.09246 4.01651 3.09741 4.01321 3.10236 4.00936C3.10786 4.00606 3.11281 4.00221 3.11776 3.99836C3.12326 3.99451 3.12877 3.99066 3.13427 3.98736L3.14747 3.97746C3.15352 3.97361 3.15902 3.96976 3.16452 3.96536C3.16672 3.96371 3.16905 3.96219 3.17139 3.96068C3.17373 3.95917 3.17607 3.95766 3.17827 3.95601C3.18033 3.95456 3.18225 3.95311 3.18412 3.95169C3.18723 3.94934 3.19023 3.94707 3.19367 3.94501L3.21017 3.93346C3.21457 3.93016 3.21897 3.92686 3.22337 3.92411C3.22887 3.91971 3.23437 3.91586 3.23987 3.91201C3.24116 3.9111 3.24242 3.91023 3.24366 3.90937C3.2477 3.90657 3.25148 3.90395 3.25527 3.90101L3.27012 3.89056C3.27272 3.889 3.27507 3.88732 3.27735 3.88569C3.2799 3.88386 3.28236 3.88211 3.28497 3.88066C3.29047 3.87626 3.29597 3.87241 3.30092 3.86911C3.30339 3.86746 3.30573 3.86567 3.30807 3.86388C3.31041 3.86209 3.31274 3.86031 3.31522 3.85866C3.31705 3.85737 3.31882 3.85609 3.3206 3.8548C3.32414 3.85224 3.32769 3.84967 3.33172 3.8471C3.33482 3.84516 3.3382 3.84268 3.34128 3.84041C3.34256 3.83947 3.34379 3.83856 3.34492 3.83775C3.34767 3.83583 3.35042 3.83377 3.35317 3.8317C3.35592 3.82964 3.35867 3.82758 3.36142 3.82565C3.36692 3.82235 3.37187 3.8185 3.37682 3.81465C3.38123 3.81221 3.38563 3.80889 3.38965 3.80586C3.39015 3.80548 3.39064 3.80512 3.39112 3.80475C3.39295 3.80347 3.39472 3.80219 3.3965 3.8009C3.40004 3.79834 3.40359 3.79577 3.40762 3.7932L3.42192 3.78275C3.42674 3.77986 3.43114 3.77654 3.43512 3.77354C3.43568 3.77312 3.43623 3.77271 3.43677 3.7723L3.45327 3.76075C3.45822 3.75745 3.46262 3.75416 3.46702 3.75086C3.46926 3.74957 3.47133 3.74791 3.47331 3.74631C3.47472 3.74518 3.4761 3.74407 3.47747 3.74315C3.82288 3.4951 4.27113 3.4082 4.76064 3.5006C5.25881 3.58975 6.02661 3.77073 6.37212 3.85217L6.50692 3.88396C6.95133 3.98681 6.99973 4.34156 6.99973 4.48952C6.99973 4.66277 7.00358 4.84757 7.00798 5.03237L7.00963 5.12148C7.01077 5.11948 7.01235 5.11749 7.01399 5.11542C7.01552 5.11349 7.0171 5.1115 7.01843 5.10938C7.02123 5.10534 7.02438 5.10165 7.02748 5.09801C7.02987 5.09521 7.03223 5.09245 7.03438 5.08958C7.03583 5.08696 7.03759 5.0845 7.03941 5.08196C7.04104 5.07968 7.04272 5.07732 7.04428 5.07473C7.04639 5.07192 7.04869 5.06921 7.05098 5.06652C7.05408 5.06288 7.05715 5.05927 7.05968 5.05548C7.06133 5.053 7.06298 5.05066 7.06463 5.04832C7.06628 5.04599 7.06793 5.04365 7.06958 5.04118C7.07206 5.03787 7.07467 5.03457 7.07729 5.03127C7.0799 5.02797 7.08251 5.02467 7.08498 5.02137C7.08675 5.01873 7.08867 5.01624 7.09066 5.01366C7.0924 5.01141 7.09419 5.00908 7.09598 5.00652C7.09853 5.00271 7.10144 4.99926 7.1044 4.99575C7.10656 4.99319 7.10875 4.99061 7.11083 4.98782C7.11277 4.98459 7.1149 4.98174 7.117 4.97893C7.11847 4.97696 7.11992 4.97501 7.12128 4.97297C7.1222 4.97169 7.12312 4.97047 7.12403 4.96924C7.12587 4.9668 7.1277 4.96436 7.12953 4.96142C7.13091 4.9595 7.13242 4.95771 7.13393 4.95592C7.13545 4.95414 7.13696 4.95235 7.13833 4.95042C7.14107 4.94597 7.14445 4.94195 7.1478 4.93795C7.14984 4.93553 7.15186 4.93312 7.15373 4.93062C7.15538 4.92732 7.15758 4.92402 7.15978 4.92127C7.16255 4.91765 7.16524 4.91394 7.16794 4.91022C7.17221 4.90433 7.17652 4.8984 7.18123 4.89267L7.18453 4.88827C7.19168 4.87837 7.19883 4.86902 7.20653 4.85967L7.20983 4.85472C7.21423 4.84812 7.21912 4.84201 7.22401 4.8359C7.22646 4.83284 7.2289 4.82979 7.23128 4.82667C7.23183 4.82612 7.23183 4.82557 7.23238 4.82557C7.23293 4.82392 7.23348 4.82282 7.23458 4.82172C7.23706 4.81815 7.23967 4.81471 7.24228 4.81127C7.2449 4.80783 7.24751 4.8044 7.24998 4.80082C7.25136 4.79917 7.25274 4.79766 7.25411 4.79614C7.25549 4.79463 7.25686 4.79312 7.25823 4.79147C7.26058 4.78779 7.26333 4.78431 7.26612 4.78078C7.26791 4.77852 7.26971 4.77624 7.27143 4.77387C7.27913 4.76287 7.28738 4.75187 7.29563 4.74088C7.30058 4.73428 7.30609 4.72657 7.31104 4.71942C7.31261 4.7169 7.31473 4.71455 7.31688 4.71219C7.31847 4.71042 7.32008 4.70865 7.32149 4.70677C7.32644 4.70017 7.33084 4.69357 7.33524 4.68697C7.33667 4.68506 7.33841 4.68315 7.3402 4.6812C7.34252 4.67865 7.34492 4.67602 7.34679 4.67322C7.35119 4.66662 7.35559 4.66057 7.36054 4.65397C7.3617 4.65234 7.36296 4.65091 7.3642 4.6495C7.36588 4.64759 7.36752 4.64574 7.36879 4.64352C7.37016 4.64159 7.37168 4.6398 7.37319 4.63802C7.3747 4.63623 7.37621 4.63444 7.37759 4.63252C7.37919 4.62964 7.38116 4.62713 7.38317 4.62457C7.38463 4.62272 7.38611 4.62084 7.38749 4.61877C7.38924 4.61596 7.39122 4.61337 7.39314 4.61087C7.39423 4.60945 7.39529 4.60806 7.39629 4.60667C7.39681 4.60601 7.39734 4.60539 7.39785 4.60477C7.39951 4.60281 7.40108 4.60093 7.40234 4.59842C7.40399 4.59622 7.40577 4.59402 7.40756 4.59182C7.40935 4.58962 7.41114 4.58742 7.41279 4.58522C7.41416 4.58329 7.41554 4.58151 7.41691 4.57972C7.41829 4.57793 7.41966 4.57614 7.42104 4.57422C7.42271 4.57129 7.4247 4.569 7.42676 4.56663C7.42741 4.56587 7.42808 4.56511 7.42874 4.56432C7.43011 4.56212 7.43163 4.56019 7.43314 4.55827C7.43465 4.55634 7.43616 4.55442 7.43754 4.55222C7.43891 4.55029 7.44042 4.54851 7.44194 4.54672C7.44345 4.54493 7.44496 4.54314 7.44634 4.54122C7.44854 4.53737 7.45129 4.53352 7.45404 4.53022C7.45567 4.52761 7.45749 4.52539 7.45927 4.52322C7.4605 4.52172 7.46172 4.52024 7.46284 4.51867C7.46408 4.51693 7.46543 4.5152 7.46674 4.51352C7.46834 4.51146 7.46988 4.50948 7.47109 4.50767C7.47272 4.50506 7.47454 4.50284 7.47632 4.50067C7.47755 4.49917 7.47877 4.49769 7.47989 4.49612C7.48126 4.49392 7.48278 4.49199 7.48429 4.49007C7.4858 4.48814 7.48731 4.48622 7.48869 4.48402C7.49144 4.48017 7.49419 4.47687 7.49694 4.47357C7.49857 4.47096 7.50039 4.46874 7.50217 4.46657C7.5034 4.46507 7.50462 4.46359 7.50574 4.46202C7.50737 4.45941 7.50919 4.45719 7.51097 4.45502C7.5122 4.45352 7.51342 4.45204 7.51454 4.45047C7.51674 4.44662 7.51949 4.44276 7.52224 4.43946C7.52387 4.43686 7.52569 4.43464 7.52747 4.43246C7.5287 4.43096 7.52992 4.42949 7.53104 4.42791C7.53196 4.42663 7.53293 4.42535 7.53391 4.42406C7.53587 4.4215 7.53782 4.41893 7.53929 4.41636C7.54066 4.41444 7.54218 4.41251 7.54369 4.41059C7.5452 4.40866 7.54671 4.40674 7.54809 4.40481C7.54947 4.40289 7.55098 4.4011 7.55249 4.39931C7.554 4.39753 7.55551 4.39574 7.55689 4.39381L7.56514 4.38226C7.56651 4.38034 7.56803 4.37841 7.56954 4.37649C7.57105 4.37456 7.57257 4.37264 7.57394 4.37071C7.57531 4.36879 7.57683 4.367 7.57834 4.36521C7.57985 4.36343 7.58137 4.36164 7.58274 4.35971C7.58421 4.35715 7.58616 4.35458 7.58812 4.35201C7.5891 4.35073 7.59007 4.34945 7.59099 4.34816C7.61134 4.31736 7.63444 4.28876 7.66139 4.26236C7.77359 4.15181 7.93035 4.09736 8.09315 4.11331C8.58651 4.16171 9.08537 4.20131 9.57652 4.23211C10.8443 4.30801 11.3591 4.89212 11.5357 5.52573C11.5363 5.52826 11.5371 5.5306 11.5379 5.53286C11.5385 5.53455 11.539 5.53619 11.5395 5.53783L11.5428 5.54883L11.5461 5.56148C11.5478 5.56588 11.5489 5.57028 11.55 5.57468L11.5533 5.58733L11.5566 5.59833C11.5579 5.6015 11.5589 5.60503 11.5598 5.60833C11.56 5.60905 11.5602 5.60975 11.5604 5.61043C11.5618 5.61411 11.5628 5.61818 11.5637 5.62199C11.5639 5.62273 11.5641 5.62347 11.5643 5.62418C11.5656 5.62735 11.5666 5.63088 11.5675 5.63418C11.5677 5.63489 11.5679 5.6356 11.5681 5.63629L11.5714 5.64729C11.572 5.65169 11.5731 5.65554 11.5747 5.65939C11.5752 5.66129 11.5758 5.6632 11.5764 5.66515C11.5771 5.6677 11.5779 5.67033 11.5786 5.67314C11.5873 5.70293 11.5941 5.73272 11.6009 5.76251C11.6022 5.76847 11.6036 5.77443 11.605 5.78039C11.7117 5.19848 12.0802 4.72272 12.6423 4.47522L12.7044 4.44882C12.9393 4.35256 13.1983 4.29921 13.4739 4.29041C14.0739 4.27171 14.6823 4.23926 15.2829 4.19416C15.4385 4.18151 15.5942 4.23871 15.7053 4.34981C15.7067 4.35119 15.7078 4.3527 15.7089 4.35421C15.71 4.35573 15.7111 4.35724 15.7124 4.35861C15.7135 4.35971 15.7141 4.36026 15.7152 4.36081C15.7174 4.36301 15.7196 4.36631 15.7212 4.36906L15.7245 4.37126C15.7259 4.37264 15.727 4.37415 15.7281 4.37566C15.7292 4.37718 15.7303 4.37869 15.7317 4.38006C15.7323 4.38071 15.733 4.38116 15.7335 4.38154C15.7339 4.38181 15.7342 4.38204 15.7344 4.38226C15.7358 4.38364 15.7369 4.38515 15.738 4.38667C15.7391 4.38818 15.7402 4.38969 15.7416 4.39106C15.7423 4.39143 15.7426 4.3918 15.7428 4.39216C15.7426 4.39198 15.7429 4.39235 15.7428 4.39216C15.7449 4.39395 15.7468 4.39652 15.7483 4.39863C15.7491 4.39976 15.75 4.40091 15.7509 4.40206C15.7515 4.40261 15.7526 4.40316 15.7537 4.40371C15.7544 4.40463 15.7551 4.40561 15.7559 4.40659C15.7573 4.40854 15.7588 4.4105 15.7603 4.41196C15.7608 4.41251 15.7614 4.41293 15.7619 4.41334C15.7625 4.41375 15.763 4.41416 15.7636 4.41471C15.7649 4.416 15.766 4.41765 15.7671 4.41936C15.7679 4.42058 15.7687 4.42182 15.7696 4.42296C15.7707 4.42406 15.7718 4.42461 15.7729 4.42516C15.7749 4.42709 15.7765 4.42928 15.7781 4.43136C15.7788 4.43226 15.7794 4.43314 15.7801 4.43396C15.7806 4.43451 15.781 4.43479 15.7815 4.43506C15.7819 4.43534 15.7823 4.43561 15.7828 4.43616C15.7856 4.43891 15.7872 4.44166 15.7889 4.44441C15.7893 4.44487 15.7899 4.44524 15.7904 4.44558C15.7912 4.44607 15.7919 4.44652 15.7922 4.44717C15.7943 4.44885 15.7961 4.45119 15.7978 4.45343C15.7983 4.45411 15.7988 4.45478 15.7993 4.45542C15.8004 4.45597 15.8015 4.45652 15.8026 4.45762C15.804 4.45899 15.8051 4.4605 15.8062 4.46202C15.8073 4.46353 15.8084 4.46504 15.8098 4.46642C15.8101 4.46697 15.8105 4.46724 15.8109 4.46752C15.8113 4.46779 15.8117 4.46807 15.812 4.46862C15.8126 4.46935 15.8131 4.47008 15.8137 4.47081C15.8151 4.47279 15.8166 4.4747 15.8186 4.47632C15.8197 4.47742 15.8208 4.47797 15.8219 4.47907C15.8233 4.48044 15.8245 4.48209 15.8257 4.48374C15.827 4.48539 15.8282 4.48704 15.8296 4.48842C15.8301 4.48897 15.8312 4.48952 15.8318 4.49007C15.8327 4.49121 15.8335 4.49246 15.8343 4.49367C15.8355 4.49538 15.8365 4.49703 15.8378 4.49832C15.8389 4.49942 15.84 4.49997 15.8411 4.50052C15.8425 4.50216 15.8437 4.50381 15.845 4.50546C15.8462 4.50711 15.8475 4.50876 15.8488 4.51042C15.8485 4.51028 15.849 4.51062 15.8488 4.51042C15.8493 4.51065 15.8507 4.51138 15.851 4.51207C15.8534 4.51392 15.8549 4.51657 15.8563 4.519C15.8566 4.51945 15.8568 4.51989 15.8571 4.52032C15.8582 4.52087 15.8593 4.52142 15.8604 4.52252C15.8618 4.52389 15.8629 4.52527 15.864 4.52664C15.8651 4.52802 15.8662 4.52939 15.8675 4.53077C15.8679 4.53141 15.8685 4.53186 15.8693 4.53235C15.8698 4.53269 15.8704 4.53306 15.8708 4.53352C15.8724 4.53509 15.8736 4.53685 15.8749 4.53869C15.8758 4.54005 15.8768 4.54146 15.878 4.54287C15.8778 4.54278 15.8782 4.54299 15.878 4.54287C15.8787 4.54317 15.8798 4.54366 15.8802 4.54452C15.8816 4.54591 15.8827 4.54752 15.884 4.54922C15.8847 4.5502 15.8854 4.55121 15.8862 4.55222C15.8868 4.55277 15.8875 4.55318 15.8882 4.55359C15.8888 4.554 15.8895 4.55442 15.8901 4.55497C15.8915 4.55634 15.8926 4.55785 15.8937 4.55937C15.8948 4.56088 15.8959 4.56239 15.8972 4.56377C15.8978 4.56432 15.8989 4.56487 15.9 4.56597C15.9014 4.56714 15.9024 4.56878 15.9035 4.57048C15.9044 4.57196 15.9053 4.57348 15.9066 4.57477C15.9077 4.57532 15.9088 4.57587 15.9093 4.57697C15.9109 4.5782 15.9121 4.57978 15.9133 4.58141C15.9143 4.58269 15.9153 4.58401 15.9165 4.58522C15.917 4.58577 15.9181 4.58632 15.9192 4.58742C15.922 4.59017 15.9242 4.59347 15.9264 4.59677C15.9261 4.59661 15.9266 4.597 15.9264 4.59677C15.9268 4.59699 15.9279 4.59777 15.9286 4.59842C15.9296 4.59946 15.9305 4.60062 15.9315 4.60184C15.9326 4.60321 15.9337 4.60467 15.9352 4.60612L15.9385 4.60887C15.9399 4.61024 15.941 4.61176 15.9421 4.61327C15.9432 4.61478 15.9443 4.61629 15.9456 4.61767C15.9467 4.61822 15.9473 4.61877 15.9484 4.61987C15.9497 4.62115 15.9508 4.62281 15.9519 4.62451C15.9527 4.62573 15.9535 4.62697 15.9544 4.62812C15.9555 4.62867 15.9572 4.62977 15.9577 4.63032C15.9591 4.63169 15.9602 4.63321 15.9613 4.63472C15.9624 4.63623 15.9635 4.63774 15.9649 4.63912C15.966 4.63967 15.9671 4.64022 15.9676 4.64132C15.9695 4.64286 15.9706 4.64457 15.9718 4.64626C15.9727 4.64759 15.9736 4.64891 15.9748 4.65012C15.975 4.65035 15.9753 4.65057 15.9757 4.65084C15.9762 4.65122 15.9769 4.65167 15.9775 4.65232C15.9783 4.65324 15.979 4.65421 15.9797 4.65519C15.9812 4.65715 15.9827 4.6591 15.9841 4.66057C15.9852 4.66167 15.9863 4.66222 15.9874 4.66277C15.9887 4.66402 15.9897 4.66549 15.9907 4.66693C15.9919 4.66867 15.9931 4.67037 15.9946 4.67157C15.9948 4.67209 15.9951 4.67249 15.9954 4.67282C15.9958 4.67319 15.9962 4.67348 15.9968 4.67377C15.9975 4.67469 15.9982 4.6756 15.9989 4.67652C16.0002 4.67835 16.0015 4.68019 16.0034 4.68202L16.0067 4.68422C16.0081 4.68559 16.0092 4.68724 16.0103 4.68889C16.0114 4.69054 16.0125 4.69219 16.0138 4.69357L16.0166 4.69522C16.0174 4.69628 16.0182 4.69742 16.019 4.69858C16.0202 4.70043 16.0215 4.70233 16.0232 4.70402C16.0237 4.70512 16.0248 4.70567 16.0259 4.70622C16.0268 4.70714 16.0277 4.70824 16.0285 4.70938C16.0297 4.71098 16.0309 4.71264 16.0325 4.71392C16.0336 4.71502 16.0353 4.71612 16.0364 4.71722C16.0381 4.71861 16.0394 4.72066 16.0407 4.72268C16.0414 4.72385 16.0422 4.72501 16.043 4.72602C16.0432 4.72625 16.0435 4.72648 16.0439 4.72674C16.0444 4.72712 16.0451 4.72758 16.0457 4.72822C16.0472 4.72969 16.0487 4.73164 16.0501 4.7336C16.0509 4.73458 16.0516 4.73555 16.0523 4.73647C16.0534 4.73702 16.0545 4.73757 16.0556 4.73867C16.057 4.74005 16.0581 4.74156 16.0592 4.74307C16.0603 4.74458 16.0614 4.7461 16.0628 4.74747C16.0631 4.74815 16.0635 4.74841 16.0639 4.74877C16.0642 4.74899 16.0646 4.74925 16.065 4.74967C16.0665 4.7509 16.0677 4.75248 16.069 4.75411C16.0699 4.7554 16.0709 4.75671 16.0721 4.75792C16.0727 4.75902 16.0738 4.75957 16.0749 4.76012C16.0763 4.76149 16.0774 4.76301 16.0785 4.76452C16.0796 4.76603 16.0807 4.76754 16.082 4.76892C16.0826 4.76947 16.0837 4.77002 16.0848 4.77112C16.0856 4.77218 16.0864 4.77332 16.0872 4.77448C16.0884 4.77633 16.0897 4.77823 16.0914 4.77992C16.0925 4.78047 16.0936 4.78102 16.0941 4.78212C16.0961 4.78373 16.0976 4.78564 16.0991 4.78763C16.0996 4.78835 16.1001 4.78909 16.1007 4.78982C16.1013 4.79037 16.102 4.79078 16.1027 4.7912C16.1033 4.79161 16.104 4.79202 16.1046 4.79257C16.1063 4.79426 16.1076 4.79616 16.1088 4.79801C16.1096 4.79917 16.1103 4.80031 16.1112 4.80137C16.1117 4.80192 16.1128 4.80247 16.1134 4.80302L16.1211 4.81237C16.1214 4.81265 16.1218 4.81292 16.1222 4.8132C16.1226 4.81347 16.123 4.81375 16.1233 4.81402C16.1247 4.8154 16.1258 4.81691 16.1269 4.81842C16.128 4.81993 16.1291 4.82145 16.1304 4.82282C16.1315 4.82337 16.1321 4.82392 16.1326 4.82502C16.1338 4.82623 16.1348 4.82754 16.1358 4.82883C16.137 4.83046 16.1382 4.83204 16.1398 4.83327C16.1409 4.83437 16.142 4.83492 16.1425 4.83547C16.1442 4.83689 16.1455 4.8386 16.1467 4.84022C16.1478 4.84175 16.1489 4.8432 16.1502 4.84427C16.1508 4.84537 16.1519 4.84592 16.153 4.84647C16.1539 4.84757 16.1546 4.84867 16.1553 4.84977C16.1563 4.85142 16.1574 4.85307 16.159 4.85472C16.1596 4.85527 16.1612 4.85637 16.1623 4.85692C16.1637 4.8583 16.1648 4.85995 16.1659 4.8616C16.167 4.86325 16.1681 4.8649 16.1695 4.86627C16.1692 4.86613 16.1698 4.86627 16.1695 4.86627C16.1698 4.86641 16.1709 4.86682 16.1711 4.86682V4.56377C16.17 4.26016 16.4021 3.99561 16.6986 3.96261C17.0545 3.92301 17.4098 3.87901 17.7645 3.83005C17.9158 3.80915 18.0626 3.85206 18.1765 3.95051L18.1798 3.95381C18.1821 3.95579 18.1848 3.95748 18.1873 3.95909C18.1883 3.95972 18.1893 3.96034 18.1902 3.96096L18.1935 3.96426C18.1951 3.96615 18.1972 3.9675 18.1995 3.96894C18.2011 3.97 18.2029 3.9711 18.2045 3.97251C18.2052 3.97286 18.2057 3.97345 18.2063 3.97411C18.2066 3.97448 18.2069 3.97487 18.2073 3.97526C18.2089 3.97663 18.2107 3.97773 18.2125 3.97883C18.2143 3.97993 18.2161 3.98103 18.2177 3.98241C18.2183 3.98296 18.2187 3.98351 18.2191 3.98406C18.2195 3.98461 18.2199 3.98516 18.2205 3.98571C18.2221 3.98708 18.2239 3.98818 18.2257 3.98928C18.2275 3.99038 18.2293 3.99148 18.2309 3.99286C18.232 3.99395 18.2331 3.99506 18.2342 3.99561C18.2362 3.99759 18.2382 3.99897 18.2402 4.00036C18.2415 4.00128 18.2428 4.00221 18.2441 4.00331C18.2452 4.00441 18.2463 4.00551 18.2469 4.00661C18.2485 4.00776 18.2502 4.00872 18.2519 4.00968C18.2543 4.01103 18.2567 4.01239 18.259 4.01431C18.2595 4.01486 18.2599 4.01541 18.2603 4.01596C18.2608 4.01651 18.2612 4.01706 18.2617 4.01761C18.2632 4.0191 18.2652 4.02027 18.2672 4.02146C18.2689 4.02247 18.2707 4.0235 18.2722 4.02476C18.2733 4.02586 18.2744 4.02751 18.2755 4.02806C18.2769 4.02925 18.2785 4.03023 18.2802 4.03123C18.2824 4.03254 18.2846 4.03389 18.2865 4.03576C18.287 4.03631 18.2876 4.03741 18.2887 4.03851C18.2905 4.04006 18.2926 4.04126 18.2947 4.04251C18.2963 4.04347 18.298 4.04446 18.2997 4.04566C18.3002 4.04676 18.3013 4.04786 18.3024 4.04896C18.3041 4.05033 18.3059 4.05143 18.3076 4.05253C18.3094 4.05363 18.3112 4.05473 18.3129 4.05611C18.3134 4.05666 18.314 4.05735 18.3145 4.05803C18.3151 4.05872 18.3156 4.05941 18.3162 4.05996C18.3178 4.06133 18.3197 4.06243 18.3217 4.06353C18.3236 4.06463 18.3255 4.06573 18.3272 4.06711C18.3277 4.06766 18.3281 4.06821 18.3285 4.06876C18.329 4.06931 18.3294 4.06986 18.3299 4.07041C18.3317 4.07217 18.3341 4.0737 18.3366 4.0753C18.3381 4.0762 18.3395 4.07712 18.3409 4.07811C18.3407 4.07783 18.3411 4.07826 18.3409 4.07811C18.3415 4.07882 18.3429 4.08046 18.3437 4.08086C18.346 4.08284 18.3487 4.08453 18.3512 4.08615C18.3522 4.08678 18.3532 4.08739 18.3541 4.08801C18.3547 4.08856 18.3549 4.08911 18.3552 4.08966C18.3555 4.09021 18.3558 4.09076 18.3563 4.09131C18.3582 4.09268 18.3602 4.09378 18.3621 4.09488C18.364 4.09598 18.3659 4.09708 18.3679 4.09846C18.3683 4.09892 18.3687 4.09947 18.369 4.1C18.3695 4.10074 18.37 4.10144 18.3706 4.10176C18.3723 4.10348 18.3744 4.10476 18.3763 4.10598C18.3781 4.10709 18.3798 4.10815 18.3811 4.10946L18.3844 4.11276C18.386 4.11413 18.3879 4.11537 18.3899 4.11661C18.3918 4.11785 18.3937 4.11908 18.3954 4.12046C18.3952 4.12022 18.3955 4.12063 18.3954 4.12046C18.3958 4.121 18.3968 4.12228 18.3976 4.12266C18.3991 4.12393 18.4006 4.12497 18.4022 4.12604C18.404 4.12729 18.406 4.12859 18.408 4.13036L18.4113 4.13366C18.413 4.13503 18.4149 4.13627 18.4168 4.13751C18.4187 4.13875 18.4207 4.13998 18.4223 4.14136C18.4234 4.14191 18.424 4.14301 18.424 4.14356C18.4259 4.14521 18.428 4.14645 18.43 4.14768C18.4321 4.14892 18.4341 4.15016 18.4361 4.15181L18.4394 4.15511C18.4408 4.15627 18.4422 4.15723 18.4437 4.1582C18.4458 4.15954 18.4479 4.1609 18.4498 4.16281C18.4504 4.16336 18.4515 4.16446 18.452 4.16556C18.4532 4.16634 18.4545 4.16711 18.4558 4.16791C18.4583 4.16938 18.4609 4.17093 18.463 4.17271L18.4663 4.17601C18.468 4.17739 18.4696 4.17849 18.4713 4.17959C18.4729 4.18069 18.4746 4.18179 18.4762 4.18316C18.4766 4.18355 18.4769 4.18394 18.4772 4.18431C18.4778 4.18497 18.4783 4.18556 18.479 4.18591C18.4809 4.18756 18.483 4.1888 18.485 4.19004C18.4871 4.19127 18.4892 4.19251 18.4911 4.19416C18.4922 4.19526 18.4927 4.19636 18.4933 4.19746C18.4949 4.19884 18.4968 4.19994 18.4988 4.20104C18.5007 4.20214 18.5026 4.20324 18.5043 4.20461C18.5046 4.20498 18.5049 4.20534 18.5053 4.20571C18.5059 4.20644 18.5065 4.20718 18.5076 4.20791C18.509 4.20914 18.5106 4.21014 18.5122 4.21113C18.5141 4.21235 18.516 4.21354 18.5175 4.21506C18.5177 4.21529 18.5179 4.21561 18.5182 4.21599C18.5186 4.21652 18.519 4.21717 18.5197 4.21781C18.5216 4.21941 18.5239 4.22082 18.5262 4.22226C18.5279 4.2233 18.5296 4.22436 18.5312 4.22551L18.5345 4.22881C18.5364 4.23072 18.5385 4.23208 18.5406 4.23342C18.5421 4.23439 18.5436 4.23535 18.545 4.23651C18.5461 4.23706 18.5466 4.23816 18.5477 4.23926C18.5494 4.24064 18.5513 4.24187 18.5532 4.24311C18.5552 4.24435 18.5571 4.24559 18.5587 4.24696C18.5598 4.24751 18.5609 4.24916 18.5615 4.25026C18.5629 4.25145 18.5645 4.25243 18.5662 4.25344C18.5684 4.25475 18.5706 4.25609 18.5725 4.25796C18.5732 4.25832 18.5737 4.2589 18.5742 4.25957C18.5745 4.25993 18.5748 4.26032 18.5752 4.26071C18.5765 4.26181 18.578 4.26274 18.5795 4.26366C18.5818 4.26505 18.584 4.26643 18.5857 4.26841C18.5862 4.26869 18.5866 4.2691 18.587 4.26951C18.5875 4.26992 18.5879 4.27034 18.5884 4.27061C18.5901 4.27226 18.592 4.2735 18.5939 4.27474C18.5958 4.27597 18.5978 4.27721 18.5994 4.27886C18.6001 4.27922 18.6006 4.2798 18.6012 4.28047C18.6015 4.28084 18.6018 4.28122 18.6022 4.28161C18.6036 4.28265 18.6051 4.2836 18.6065 4.28454C18.6088 4.28609 18.6111 4.2876 18.6132 4.28931C18.613 4.28917 18.6133 4.28944 18.6132 4.28931C18.6141 4.29038 18.6155 4.29213 18.6165 4.29261C18.6181 4.29399 18.6199 4.29509 18.6217 4.29619C18.6235 4.29729 18.6253 4.29839 18.6269 4.29976L18.6302 4.30306C18.6317 4.3045 18.6334 4.30564 18.6353 4.30688C18.637 4.308 18.6388 4.30919 18.6407 4.31076C18.6412 4.31132 18.6423 4.31242 18.6429 4.31351C18.6442 4.31449 18.6456 4.31533 18.647 4.31616C18.6494 4.31765 18.6518 4.31909 18.6539 4.32121C18.6546 4.32157 18.6551 4.32215 18.6556 4.32282C18.6559 4.32318 18.6562 4.32357 18.6566 4.32396C18.6581 4.32515 18.6597 4.32614 18.6614 4.32714C18.6635 4.32845 18.6658 4.32979 18.6676 4.33166C18.6684 4.33203 18.6691 4.33288 18.6698 4.33374C18.6702 4.33417 18.6706 4.3346 18.6709 4.33496C18.6723 4.33612 18.6738 4.33708 18.6753 4.33805C18.6774 4.33939 18.6795 4.34075 18.6814 4.34266C18.6825 4.34303 18.6831 4.34388 18.6837 4.34474C18.684 4.34517 18.6843 4.3456 18.6847 4.34596C18.6863 4.34706 18.688 4.34803 18.6896 4.34899C18.6913 4.34995 18.6929 4.35091 18.6946 4.35201C18.6949 4.35265 18.6954 4.35328 18.6959 4.35381C18.6962 4.3542 18.6965 4.35453 18.6968 4.35476C18.699 4.35696 18.7017 4.35868 18.7044 4.36039C18.7057 4.36124 18.707 4.3621 18.7083 4.36301L18.7116 4.36631C18.7134 4.36804 18.7154 4.36931 18.7173 4.37053C18.7191 4.37164 18.7208 4.3727 18.7221 4.37401C18.7228 4.37437 18.7233 4.37495 18.7238 4.37562C18.7241 4.37598 18.7244 4.37637 18.7248 4.37676C18.7266 4.37828 18.7285 4.37945 18.7303 4.3806C18.7325 4.38193 18.7346 4.38323 18.7364 4.38501C18.7371 4.38537 18.7376 4.38596 18.7381 4.38662C18.7384 4.38699 18.7387 4.38738 18.7391 4.38776C18.7408 4.38914 18.7424 4.39024 18.7441 4.39134C18.7457 4.39244 18.7474 4.39354 18.749 4.39491C18.7496 4.39546 18.7501 4.39656 18.7512 4.39711C18.753 4.39863 18.7549 4.3998 18.7567 4.40095C18.7589 4.40228 18.761 4.40358 18.7628 4.40536C18.7639 4.4061 18.7645 4.40683 18.7651 4.40756C18.7654 4.40793 18.7657 4.4083 18.7661 4.40866C18.7675 4.40982 18.769 4.41078 18.7705 4.41176C18.7725 4.41309 18.7746 4.41445 18.7765 4.41636C18.7772 4.41672 18.7777 4.4173 18.7783 4.41797C18.7786 4.41833 18.7789 4.41872 18.7793 4.41911C18.7806 4.42003 18.7819 4.42089 18.7833 4.42174C18.7859 4.42346 18.7886 4.42517 18.7908 4.42736L18.7936 4.43011C18.7952 4.43149 18.797 4.43259 18.7988 4.43369C18.8006 4.43479 18.8024 4.43589 18.804 4.43726C18.8046 4.43754 18.805 4.43809 18.8054 4.43864C18.8058 4.43919 18.8062 4.43974 18.8068 4.44001C18.8082 4.44117 18.8097 4.44213 18.8112 4.44311C18.8132 4.44444 18.8153 4.4458 18.8172 4.44772L18.8205 4.45102C18.822 4.4522 18.8236 4.45319 18.8253 4.45419C18.8274 4.4555 18.8297 4.45684 18.8315 4.45872C18.8322 4.45907 18.8327 4.45965 18.8333 4.46032C18.8336 4.46069 18.8339 4.46108 18.8343 4.46147C18.8356 4.46278 18.8373 4.46384 18.839 4.46495C18.841 4.46617 18.843 4.46744 18.8447 4.46917C18.8454 4.46952 18.8459 4.4701 18.8465 4.47077C18.8468 4.47114 18.8471 4.47153 18.8475 4.47192C18.849 4.47302 18.8506 4.47394 18.8521 4.47487C18.8544 4.47625 18.8567 4.47764 18.859 4.47962C18.8596 4.48017 18.8601 4.48182 18.8612 4.48237C18.8631 4.48424 18.8653 4.48558 18.8675 4.48689C18.8692 4.48789 18.8708 4.48888 18.8722 4.49007C18.8726 4.49046 18.8729 4.49085 18.8732 4.49121C18.8738 4.49188 18.8743 4.49246 18.875 4.49282C18.8774 4.49491 18.8796 4.49634 18.8819 4.49781C18.8832 4.49865 18.8846 4.49951 18.886 4.50052C18.8863 4.50088 18.8867 4.50131 18.887 4.50174C18.8876 4.50259 18.8882 4.50345 18.8893 4.50382C18.8914 4.50594 18.8938 4.50738 18.8962 4.50887C18.8975 4.5097 18.8989 4.51054 18.9003 4.51152C18.9008 4.51262 18.9019 4.51372 18.903 4.51427C18.9047 4.51631 18.9069 4.51772 18.909 4.51915C18.9103 4.52003 18.9117 4.52092 18.9129 4.52197C18.914 4.52252 18.9151 4.52362 18.9157 4.52472C18.9171 4.52575 18.9186 4.5267 18.92 4.52764C18.9223 4.5292 18.9246 4.5307 18.9267 4.53242C18.9272 4.53297 18.9276 4.53352 18.9281 4.53407C18.9285 4.53462 18.9289 4.53517 18.9294 4.53572C18.9309 4.53691 18.9325 4.53789 18.9342 4.53889C18.9363 4.5402 18.9386 4.54154 18.9404 4.54342C18.9412 4.5438 18.9417 4.54445 18.9421 4.54499C18.9419 4.54483 18.9423 4.54523 18.9421 4.54499C18.9439 4.54651 18.9463 4.54831 18.9481 4.54945C18.9503 4.55079 18.9524 4.55209 18.9542 4.55387L18.9575 4.55717C18.9589 4.55836 18.9605 4.55934 18.9622 4.56034C18.9644 4.56165 18.9666 4.56299 18.9685 4.56487C18.969 4.56542 18.9696 4.56652 18.9707 4.56707C18.9723 4.56844 18.974 4.56954 18.9756 4.57064C18.9773 4.57174 18.9789 4.57284 18.9806 4.57422C18.9816 4.57489 18.9822 4.57578 18.9828 4.57661C18.9831 4.57714 18.9835 4.57764 18.9839 4.57807C18.9877 4.58027 18.9916 4.58247 18.9949 4.58522C18.996 4.58577 18.9965 4.58687 18.9971 4.58797C18.9986 4.58926 19.0004 4.59031 19.0023 4.5914C19.0044 4.59263 19.0066 4.59392 19.0086 4.59567C19.009 4.59602 19.0093 4.59642 19.0097 4.59684C19.0105 4.59776 19.0114 4.59877 19.0125 4.59952C19.0137 4.60057 19.0151 4.60145 19.0164 4.60233C19.0186 4.60376 19.0207 4.60517 19.0224 4.60722C19.0235 4.60777 19.024 4.60887 19.0246 4.60942C19.0263 4.61062 19.0279 4.61161 19.0296 4.61257C19.0317 4.61382 19.0337 4.61502 19.0356 4.61657C19.036 4.61696 19.0363 4.61735 19.0366 4.61771C19.0371 4.61838 19.0376 4.61896 19.0383 4.61932C19.0401 4.62113 19.0421 4.62245 19.0442 4.62381C19.0459 4.62493 19.0476 4.62608 19.0493 4.62757L19.0526 4.63087C19.0543 4.63224 19.0562 4.63334 19.0581 4.63444C19.0601 4.63554 19.062 4.63664 19.0636 4.63802C19.0647 4.63912 19.0653 4.64022 19.0658 4.64132C19.0675 4.64269 19.0694 4.64379 19.0713 4.64489C19.0733 4.64599 19.0752 4.64709 19.0768 4.64847C19.0774 4.64902 19.0778 4.64957 19.0782 4.65012C19.0786 4.65067 19.079 4.65122 19.0796 4.65177C19.081 4.65296 19.0826 4.65394 19.0843 4.65494C19.0865 4.65625 19.0887 4.6576 19.0906 4.65947C19.0912 4.65979 19.0917 4.66048 19.0922 4.66123C19.0925 4.66176 19.0929 4.66231 19.0933 4.66277C19.095 4.66414 19.0968 4.66524 19.0986 4.66634C19.1003 4.66744 19.1021 4.66854 19.1038 4.66992C19.1049 4.67102 19.1054 4.67157 19.1065 4.67212C19.1086 4.6739 19.1107 4.67536 19.1127 4.67676C19.1144 4.67796 19.116 4.6791 19.1175 4.68037C19.1186 4.68147 19.1192 4.68257 19.1203 4.68312C19.1218 4.6844 19.1236 4.68556 19.1254 4.68677C19.1276 4.68815 19.1298 4.6896 19.1318 4.69137C19.1324 4.69164 19.1328 4.69219 19.1332 4.69274C19.1336 4.69329 19.134 4.69384 19.1346 4.69412C19.136 4.69528 19.1375 4.69624 19.139 4.69721C19.141 4.69855 19.1431 4.69991 19.145 4.70182C19.1461 4.70292 19.1472 4.70402 19.1483 4.70457C19.1498 4.7058 19.1514 4.7068 19.1529 4.70779C19.1549 4.70901 19.1567 4.7102 19.1582 4.71172C19.1593 4.71282 19.1599 4.71392 19.161 4.71502C19.1626 4.71617 19.1643 4.71723 19.166 4.71828C19.1683 4.71971 19.1706 4.72112 19.1725 4.72272C19.1736 4.72382 19.1747 4.72547 19.1758 4.72657C19.1791 4.72877 19.183 4.73097 19.1863 4.73372C19.1861 4.73348 19.1865 4.73389 19.1863 4.73372C19.1867 4.73427 19.1877 4.73554 19.1885 4.73592C19.1904 4.73757 19.1923 4.73881 19.1943 4.74005C19.1962 4.74128 19.1981 4.74252 19.2 4.74417L19.2033 4.74747C19.2046 4.74904 19.2064 4.75007 19.2083 4.75117C19.2097 4.75201 19.2113 4.75289 19.2127 4.75407C19.2138 4.75462 19.2143 4.75572 19.2149 4.75682C19.2165 4.75797 19.2182 4.75903 19.2199 4.76007C19.2222 4.76151 19.2245 4.76292 19.2264 4.76452C19.227 4.76507 19.2274 4.76562 19.2278 4.76617C19.2282 4.76672 19.2286 4.76727 19.2292 4.76782C19.2311 4.76947 19.2332 4.77071 19.2352 4.77195C19.2373 4.77318 19.2394 4.77442 19.2413 4.77607C19.2411 4.77586 19.2415 4.7762 19.2413 4.77607C19.242 4.77679 19.2432 4.7784 19.244 4.77882C19.2459 4.78073 19.248 4.78209 19.2501 4.78343C19.2516 4.7844 19.2531 4.78536 19.2545 4.78652C19.2556 4.78762 19.2561 4.78872 19.2572 4.78982C19.2585 4.79065 19.2598 4.79141 19.2612 4.79218C19.2634 4.79343 19.2656 4.79471 19.2677 4.79642C19.2682 4.79752 19.2688 4.79807 19.2699 4.79862C19.2717 4.80046 19.2739 4.80195 19.2761 4.80349C19.2779 4.80471 19.2797 4.80596 19.2814 4.80742C19.282 4.8077 19.2824 4.80811 19.2828 4.80852C19.2832 4.80893 19.2836 4.80935 19.2842 4.80962C19.2857 4.81115 19.2875 4.81233 19.2892 4.81348C19.2912 4.81481 19.2932 4.8161 19.2946 4.81787C19.2954 4.81864 19.2962 4.81941 19.2969 4.81999C19.2973 4.82024 19.2976 4.82045 19.2979 4.82062C19.3001 4.82274 19.3024 4.82419 19.3048 4.82567C19.3062 4.8265 19.3076 4.82734 19.3089 4.82832C19.3095 4.82942 19.3106 4.83052 19.3111 4.83107C19.3126 4.8321 19.314 4.83306 19.3154 4.83399C19.3178 4.83555 19.3201 4.83705 19.3221 4.83877C19.3227 4.83932 19.3232 4.84001 19.3238 4.8407C19.3243 4.84138 19.3249 4.84207 19.3254 4.84262C19.326 4.84262 19.3265 4.84317 19.3265 4.84317V4.12376C19.326 3.8185 19.5427 3.5468 19.8298 3.4918C20.1835 3.4247 20.5355 3.3532 20.8869 3.27675C21.0041 3.25089 21.1229 3.26905 21.2252 3.32295C21.2288 3.32444 21.2322 3.32643 21.2355 3.32837C21.2383 3.32999 21.2411 3.33159 21.2439 3.33285C21.2469 3.3345 21.2499 3.33628 21.2529 3.33807C21.256 3.33986 21.259 3.34165 21.262 3.3433C21.265 3.34467 21.2679 3.34632 21.2708 3.34797C21.2737 3.34962 21.2766 3.35127 21.2796 3.35265C21.2834 3.35456 21.2869 3.35666 21.2903 3.35872C21.2928 3.36022 21.2952 3.36171 21.2978 3.3631C21.302 3.36487 21.306 3.36732 21.31 3.36972C21.3122 3.37105 21.3143 3.37237 21.3165 3.37355C21.3209 3.37557 21.3251 3.37789 21.3294 3.3803C21.3309 3.38116 21.3325 3.38203 21.3341 3.3829C21.3396 3.38619 21.3456 3.38947 21.3516 3.39276L21.3704 3.40325C21.3739 3.40487 21.3771 3.40688 21.3804 3.40893C21.3827 3.41035 21.3849 3.4118 21.3874 3.41315C21.3915 3.41485 21.3956 3.41718 21.3994 3.41936C21.4018 3.4207 21.404 3.422 21.4061 3.42305L21.4237 3.43295C21.4278 3.43478 21.4318 3.43711 21.4358 3.43943C21.4378 3.44059 21.4399 3.44175 21.4419 3.44285C21.4452 3.4445 21.4482 3.44629 21.4512 3.44807C21.4543 3.44986 21.4573 3.45165 21.4606 3.4533C21.4666 3.4566 21.4721 3.4599 21.4776 3.4632C21.4834 3.46559 21.4887 3.4688 21.4936 3.47177L21.4958 3.4731C21.5002 3.47493 21.5041 3.47725 21.508 3.47958C21.51 3.48074 21.5119 3.4819 21.5139 3.483C21.5167 3.48425 21.5194 3.48585 21.5223 3.48748C21.5256 3.48942 21.529 3.4914 21.5326 3.4929C21.5349 3.49416 21.5372 3.49549 21.5394 3.49682C21.5429 3.49897 21.5465 3.5011 21.5502 3.5028C21.5541 3.50471 21.5575 3.50681 21.5609 3.50888C21.5634 3.51038 21.5658 3.51186 21.5684 3.51325C21.5724 3.51508 21.5764 3.5174 21.5805 3.51973C21.5825 3.52089 21.5845 3.52205 21.5865 3.52315C21.5903 3.52485 21.5938 3.52698 21.5974 3.52913C21.5996 3.53046 21.6018 3.53179 21.6041 3.53305L21.6228 3.5435C21.6268 3.54529 21.6302 3.54731 21.6338 3.54941C21.6358 3.55054 21.6378 3.5517 21.6399 3.55285C21.6448 3.5551 21.6491 3.55761 21.6533 3.56003C21.6553 3.56115 21.6572 3.56225 21.6591 3.5633C21.6616 3.56467 21.6641 3.56613 21.6666 3.56756C21.6701 3.5696 21.6735 3.57159 21.6767 3.5732C21.6787 3.5743 21.6808 3.57546 21.6828 3.57662C21.6868 3.57894 21.6908 3.58127 21.6949 3.5831C21.6979 3.58475 21.7008 3.58654 21.7037 3.58833C21.7066 3.59011 21.7095 3.5919 21.7125 3.59355C21.7185 3.5963 21.724 3.59959 21.7295 3.60289C21.7367 3.60619 21.7433 3.61005 21.7493 3.6139C21.7538 3.61593 21.7579 3.61825 21.7622 3.62065C21.7638 3.62151 21.7653 3.62238 21.7669 3.62325C21.7724 3.62655 21.7785 3.62985 21.7845 3.63315C21.7878 3.6348 21.7909 3.63659 21.7939 3.63838C21.7969 3.64016 21.7999 3.64195 21.8032 3.6436C21.8066 3.64515 21.8099 3.64705 21.813 3.64891C21.8155 3.65035 21.8179 3.65175 21.8203 3.65295C21.8241 3.65486 21.8276 3.65696 21.831 3.65903C21.8334 3.66053 21.8359 3.66201 21.8384 3.6634C21.8425 3.66524 21.8465 3.66756 21.8505 3.66988C21.8526 3.67104 21.8546 3.6722 21.8566 3.6733C21.8599 3.67481 21.8634 3.67681 21.8669 3.67886C21.8699 3.68054 21.8728 3.68226 21.8758 3.68375C21.8789 3.68513 21.8815 3.68678 21.8841 3.68843C21.8867 3.69008 21.8893 3.69173 21.8923 3.6931C21.8964 3.69512 21.9002 3.69735 21.904 3.69953C21.9063 3.70091 21.9087 3.70227 21.911 3.70355C21.9176 3.70685 21.9237 3.71015 21.9297 3.714C21.9342 3.71603 21.9383 3.71835 21.9426 3.72075C21.9442 3.72161 21.9457 3.72248 21.9473 3.72335C21.9499 3.72474 21.9523 3.72623 21.9548 3.72773C21.9582 3.72979 21.9617 3.73189 21.9655 3.7338C21.9692 3.73551 21.9728 3.73763 21.9763 3.73978C21.9785 3.74111 21.9808 3.74245 21.9831 3.7437C21.9879 3.7457 21.9924 3.74858 21.9966 3.75127C21.9982 3.75227 21.9997 3.75325 22.0012 3.75415C22.0051 3.75556 22.0088 3.75765 22.0123 3.75969C22.0143 3.76084 22.0163 3.76197 22.0183 3.76295C22.0216 3.7646 22.0247 3.76639 22.0279 3.76818C22.0311 3.76996 22.0342 3.77175 22.0375 3.7734C22.0408 3.77505 22.0439 3.77684 22.0469 3.77863C22.0499 3.78041 22.0529 3.7822 22.0562 3.78385C22.0623 3.78714 22.0677 3.79043 22.0732 3.79372C22.0783 3.79602 22.0834 3.79913 22.0881 3.802C22.0891 3.80256 22.09 3.80312 22.0909 3.80365C22.0938 3.8051 22.0966 3.80665 22.0993 3.80817C22.1028 3.81012 22.1062 3.81201 22.1096 3.81355C22.1126 3.8152 22.1156 3.81699 22.1187 3.81878C22.1217 3.82057 22.1247 3.82235 22.1277 3.824C22.1317 3.82579 22.1351 3.82781 22.1387 3.82992C22.1407 3.83105 22.1427 3.8322 22.1448 3.83335C22.1519 3.83665 22.158 3.8405 22.164 3.84435C22.1677 3.84587 22.171 3.84771 22.1742 3.84952C22.1768 3.851 22.1795 3.85247 22.1822 3.85371C22.1877 3.85701 22.1937 3.86031 22.2003 3.86361C22.2014 3.86425 22.2025 3.86492 22.2036 3.8656C22.2082 3.86839 22.2132 3.8714 22.2185 3.87406C22.2206 3.87521 22.2226 3.87636 22.2245 3.8775C22.2281 3.8796 22.2316 3.88162 22.2355 3.88341C22.2388 3.88506 22.242 3.88698 22.2452 3.88891C22.2483 3.89083 22.2515 3.89276 22.2548 3.89441C22.2583 3.89616 22.2618 3.89815 22.2655 3.90021C22.2675 3.90138 22.2697 3.90257 22.2718 3.90376C22.2745 3.90507 22.2772 3.90663 22.2801 3.90827C22.2832 3.91006 22.2865 3.91193 22.29 3.91366C22.2933 3.91531 22.2963 3.9171 22.2993 3.91888C22.3024 3.92067 22.3054 3.92246 22.3087 3.92411C22.3125 3.92602 22.316 3.92812 22.3194 3.93018C22.3218 3.93168 22.3243 3.93317 22.3268 3.93456C22.3329 3.93731 22.3384 3.94061 22.3433 3.94391C22.3474 3.94562 22.3513 3.94775 22.3553 3.94992C22.3577 3.95123 22.3601 3.95256 22.3626 3.95381C22.3646 3.95491 22.3666 3.95607 22.3686 3.95723C22.3727 3.95955 22.3767 3.96187 22.3807 3.96371C22.3839 3.96527 22.3867 3.96707 22.3895 3.96884C22.3927 3.9708 22.3957 3.97271 22.3989 3.97416C22.4028 3.97595 22.4065 3.97821 22.41 3.98033C22.4119 3.98146 22.4137 3.98255 22.4154 3.98351C22.42 3.98579 22.4245 3.98835 22.4289 3.9908C22.4309 3.99188 22.4328 3.99294 22.4346 3.99396C22.4379 3.99561 22.441 3.9974 22.444 3.99919C22.447 4.00097 22.45 4.00276 22.4533 4.00441C22.4566 4.00602 22.46 4.00801 22.4635 4.01005C22.4659 4.01148 22.4684 4.01294 22.4709 4.01431C22.4742 4.01596 22.4771 4.01761 22.48 4.01925C22.4829 4.02091 22.4858 4.02256 22.4891 4.02421C22.4944 4.02686 22.4993 4.02987 22.5039 4.03266C22.5051 4.03334 22.5062 4.03401 22.5072 4.03466C22.5103 4.03603 22.5132 4.03768 22.516 4.03933C22.5189 4.04098 22.5218 4.04263 22.5248 4.04401C22.5269 4.04511 22.5289 4.04627 22.5309 4.04743C22.5349 4.04975 22.539 4.05208 22.543 4.05391C22.546 4.05556 22.549 4.05735 22.5521 4.05913C22.5551 4.06092 22.5581 4.06271 22.5611 4.06436C22.5651 4.06634 22.5685 4.06832 22.5718 4.0703C22.5741 4.07162 22.5763 4.07294 22.5787 4.07426C22.5828 4.07628 22.5866 4.07851 22.5904 4.08069C22.5928 4.08207 22.5951 4.08343 22.5974 4.08471C22.6022 4.08669 22.6067 4.08924 22.6111 4.09174C22.6128 4.09272 22.6145 4.09369 22.6161 4.09461L22.6337 4.10451C22.6381 4.10671 22.6421 4.10891 22.646 4.11111C22.6479 4.11221 22.6499 4.11331 22.6519 4.11441C22.6579 4.1177 22.6634 4.12099 22.6689 4.12427C22.6735 4.12656 22.6781 4.12915 22.6825 4.1316C22.6844 4.13269 22.6863 4.13375 22.6882 4.13476C22.6919 4.13646 22.6955 4.13859 22.6991 4.14074C22.7013 4.14206 22.7035 4.1434 22.7058 4.14466C22.7098 4.14649 22.7139 4.14882 22.7179 4.15114C22.7199 4.1523 22.7219 4.15346 22.7239 4.15456C22.728 4.15626 22.7317 4.15859 22.7353 4.1609C22.7376 4.16233 22.7398 4.16375 22.7421 4.16501C22.7481 4.16776 22.7536 4.17106 22.7591 4.17436L22.7784 4.18426C22.7814 4.18591 22.7844 4.1877 22.7875 4.18949C22.7905 4.19127 22.7935 4.19306 22.7965 4.19471C22.802 4.19801 22.8081 4.20131 22.8141 4.20461C22.8713 4.23321 22.9263 4.26731 22.9769 4.30911C23.1623 4.46202 23.28 4.69412 23.2998 4.94492L23.3026 5.00542L23.2938 11.4966C23.263 11.7084 23.1673 11.8926 23.0303 12.0334C23.1205 12.1253 23.1931 12.2342 23.241 12.3612C23.3543 12.6627 23.3086 12.9954 23.1282 13.2325ZM6.8252 7.11959C6.739 6.98163 6.68842 6.82172 6.68457 6.65084L6.67773 6.67818C6.67727 6.68016 6.67662 6.682 6.67598 6.68383C6.67505 6.68643 6.67414 6.68901 6.67383 6.69185C6.67328 6.69426 6.67234 6.69667 6.67141 6.69909C6.67045 6.70157 6.66949 6.70404 6.66895 6.7065L6.66602 6.72017C6.66537 6.72309 6.66451 6.72612 6.66369 6.72903L6.66211 6.73482C6.62632 6.91507 6.53973 7.08192 6.41113 7.20943C6.22578 7.39258 5.96743 7.48363 5.70508 7.45943C5.46032 7.43743 5.22472 7.39272 4.99316 7.34322L4.99414 7.45455L4.98438 7.51607C4.98123 7.84364 4.97886 8.15967 4.9777 8.31545L4.97754 8.33639C5.32011 8.35453 5.6731 8.3722 6.02832 8.38814C6.09542 8.11974 6.21628 7.87272 6.39062 7.65767L6.39196 7.6558C6.39427 7.65253 6.39665 7.64918 6.39941 7.64596C6.40264 7.64219 6.40595 7.63846 6.40918 7.63521C6.41083 7.63258 6.41277 7.63014 6.41466 7.62778L6.41797 7.62349L6.42871 7.6108C6.43045 7.60906 6.4321 7.60714 6.43368 7.6053L6.4375 7.60103C6.44018 7.59675 6.44355 7.59211 6.44727 7.58834C6.45001 7.58449 6.45374 7.57992 6.45703 7.57662C6.46033 7.57222 6.46307 7.5682 6.46582 7.5649L6.47656 7.55221C6.47931 7.54891 6.48217 7.54476 6.48438 7.54146C6.48672 7.53835 6.48957 7.53511 6.49219 7.53212L6.49512 7.52877C6.49827 7.52506 6.50173 7.5212 6.50488 7.51803C6.50752 7.5138 6.5105 7.50903 6.51367 7.50533L6.52344 7.49361L6.52512 7.49165C6.52765 7.48871 6.53007 7.48588 6.53223 7.48287L6.54199 7.47017L6.54526 7.46665L6.54688 7.4648C6.54849 7.46295 6.55011 7.46108 6.55176 7.45943C6.55428 7.45506 6.55728 7.4512 6.56066 7.44687L6.56152 7.44576L6.57031 7.43599L6.58008 7.4233L6.58984 7.41158L6.59863 7.39986C6.60028 7.39821 6.60189 7.39636 6.60351 7.3945C6.60512 7.39264 6.60675 7.39077 6.6084 7.38912L6.61816 7.37642L6.6377 7.35299C6.64092 7.34871 6.6438 7.34459 6.64648 7.34029C6.64976 7.33701 6.65254 7.33381 6.65527 7.33053L6.66504 7.31783L6.6748 7.30709L6.68555 7.29342L6.68671 7.29203C6.68891 7.2894 6.69117 7.2867 6.69336 7.28365C6.69423 7.28263 6.6951 7.28153 6.69596 7.28039C6.69672 7.27938 6.69748 7.27835 6.69824 7.27731C6.69985 7.27511 6.70148 7.27288 6.70312 7.27096L6.71387 7.25826C6.71559 7.25572 6.71797 7.2529 6.7202 7.25026L6.72168 7.24849C6.72493 7.24416 6.72865 7.24011 6.73242 7.2358L6.73535 7.23208C6.73717 7.22969 6.73907 7.2272 6.74121 7.22506L6.74488 7.21975C6.74675 7.21691 6.74867 7.21402 6.75098 7.21139L6.75329 7.20866C6.75546 7.20613 6.75779 7.20341 6.75977 7.20064L6.79883 7.15377C6.80212 7.14993 6.80542 7.14589 6.80762 7.14205L6.81121 7.13753C6.8129 7.13534 6.81454 7.13321 6.81641 7.13131L6.81774 7.12944C6.82005 7.12617 6.82243 7.12282 6.8252 7.11959ZM16.6143 15.8872V14.5678C16.1517 14.559 15.6874 14.5518 15.2227 14.5463V15.3842C15.4751 15.3991 15.728 15.4163 15.9766 15.435C16.13 15.446 16.2655 15.5185 16.3623 15.6274C16.3667 15.6313 16.3712 15.6347 16.375 15.6391C16.3781 15.6422 16.3822 15.6463 16.3848 15.6499C16.3873 15.6521 16.3898 15.6547 16.3922 15.6572L16.3955 15.6606C16.3994 15.665 16.4034 15.6694 16.4072 15.6733L16.4277 15.6938L16.4385 15.7055C16.4417 15.7088 16.4459 15.712 16.4492 15.7153C16.452 15.7181 16.4544 15.721 16.4568 15.724L16.4609 15.729L16.4824 15.7504L16.489 15.7574L16.4932 15.7622L16.4973 15.7659C16.4992 15.7678 16.501 15.7697 16.5029 15.7719L16.5041 15.7731C16.5081 15.7771 16.5121 15.7811 16.5156 15.7856C16.5188 15.7888 16.5217 15.7922 16.5244 15.7954L16.5566 15.8276C16.561 15.832 16.5655 15.8369 16.5693 15.8413C16.5713 15.8436 16.5736 15.846 16.5759 15.8484L16.5801 15.853C16.5814 15.8543 16.5829 15.8556 16.5845 15.8568C16.5867 15.8587 16.5889 15.8605 16.5908 15.8628L16.5946 15.8671C16.5966 15.8694 16.5986 15.8718 16.6006 15.8745L16.6032 15.8767L16.6081 15.8809L16.6113 15.8842L16.6143 15.8872Z" fill="#004299"/>
<path fill-rule="evenodd" clip-rule="evenodd" d="M4.7051 9.99957C5.28701 10.004 5.87002 10.0078 6.45523 10.0111C6.58559 10.0117 6.69174 9.91541 6.69174 9.79606V8.8165C6.69174 8.69659 6.58559 8.59594 6.45523 8.59099C5.93162 8.57119 5.40967 8.54809 4.88936 8.52224C4.88276 8.52114 4.87726 8.52004 4.87121 8.51894C4.74855 8.49804 4.65285 8.39354 4.65285 8.27089C4.65285 8.22029 4.6567 7.80118 4.66055 7.37932C4.66385 7.36502 4.6699 7.35292 4.6699 7.33807C4.6699 7.33807 4.6677 7.15052 4.6655 6.89751C4.6677 6.64506 4.6699 6.45806 4.6699 6.45806C4.6699 6.44321 4.66385 6.42946 4.66055 6.41516C4.6567 5.99275 4.65285 5.57309 4.65285 5.52194C4.65285 5.39929 4.74855 5.31184 4.87121 5.31239C4.87726 5.31184 4.88276 5.31184 4.88936 5.31129C5.40967 5.37454 5.93162 5.57089 6.45523 5.62039C6.58559 5.63304 6.69174 5.54559 6.69174 5.42569C6.69174 5.09898 6.67579 4.72883 6.67579 4.40267C6.67579 4.28277 6.61859 4.19532 6.43818 4.15627C6.25833 4.11777 5.28701 3.89996 4.7051 3.80261C3.78494 3.64201 3.13373 4.16177 3.13428 5.09403V8.40344C3.13373 9.33516 3.78494 9.99957 4.7051 9.99957Z" fill="white"/>
<path fill-rule="evenodd" clip-rule="evenodd" d="M15.0522 9.88912C15.583 9.67352 15.9212 9.20436 15.9218 8.6164V7.92669C15.9212 7.51968 15.7601 7.18033 15.4845 6.94602C15.3613 6.84042 15.2166 6.75792 15.0522 6.69797C14.8652 6.62812 14.6551 6.58962 14.4274 6.59017C14.3977 6.58687 14.3647 6.58797 14.3339 6.58907C14.1029 6.59622 13.8719 6.59677 13.6414 6.60172C13.5336 6.58632 13.4484 6.51482 13.4363 6.42131C13.4335 6.41251 13.4335 6.40371 13.4335 6.39491C13.4335 6.38006 13.4335 6.32561 13.4363 6.24916C13.4335 6.20131 13.4363 6.14246 13.4363 6.07976C13.4484 5.98131 13.5397 5.90101 13.6535 5.88506C13.6585 5.88451 13.6634 5.88231 13.6711 5.88231C14.2156 5.86691 14.7607 5.8438 15.3052 5.813C15.4367 5.8064 15.5434 5.70685 15.5428 5.59135V4.64258C15.5428 4.52708 15.4367 4.44183 15.3052 4.45118C14.6985 4.49353 14.0913 4.52323 13.4836 4.54138C13.2218 4.54908 12.9787 4.59913 12.7669 4.68879H12.7647C12.2334 4.90604 11.894 5.3543 11.894 5.92631V6.59842C11.894 6.99387 12.0563 7.33158 12.3319 7.57193C12.4556 7.68029 12.6008 7.76719 12.7647 7.83099C12.9523 7.90634 13.1624 7.95034 13.3906 7.95419C13.4203 7.95859 13.4533 7.95804 13.4836 7.95749C13.6618 7.95529 13.8383 7.95034 14.016 7.94704C14.0594 7.94649 14.1029 7.94649 14.1469 7.94539C14.1546 7.94759 14.1595 7.94759 14.1645 7.94759C14.2789 7.95859 14.3696 8.03559 14.3823 8.13459C14.3845 8.14284 14.3845 8.15164 14.3845 8.16044C14.3845 8.17584 14.3845 8.23084 14.3823 8.30785C14.3845 8.3557 14.3823 8.4151 14.3823 8.4789C14.3696 8.5779 14.2789 8.6582 14.1645 8.6725C14.1595 8.6725 14.1546 8.6747 14.1469 8.6747C13.6018 8.68295 13.0568 8.68845 12.5117 8.6912C12.3803 8.6912 12.2735 8.7825 12.2735 8.89581V9.82367C12.2735 9.93642 12.3803 10.0277 12.5117 10.0277C13.1189 10.0277 13.7272 10.0266 14.3339 10.0255C14.5968 10.025 14.8399 9.97822 15.0522 9.88912Z" fill="white"/>
<path fill-rule="evenodd" clip-rule="evenodd" d="M8.77334 7.92792V7.77887C8.77444 7.66447 8.88719 7.57482 9.02744 7.57922C9.17649 7.58417 9.3261 7.58857 9.47515 7.59297C9.6154 7.59682 9.72925 7.69197 9.72925 7.80527V8.60608C9.72925 8.61819 9.7276 8.62973 9.72485 8.64074C9.72265 8.65119 9.71935 8.66109 9.7155 8.67099C9.68085 8.75184 9.5868 8.81014 9.47515 8.80904C9.3261 8.80629 9.17649 8.80409 9.02744 8.80134C8.88719 8.79859 8.77334 8.70344 8.77334 8.58848V8.40973C8.77334 8.40753 8.77279 8.40533 8.77279 8.40313C8.77279 8.24473 8.77334 8.08633 8.77334 7.92792ZM10.6566 10.0267C11.0075 10.0273 11.2918 9.79904 11.2918 9.51798V5.94567C11.2918 5.08931 10.7792 4.5547 9.55821 4.4865C9.0599 4.45789 8.56104 4.42104 8.06383 4.37594C7.93238 4.36384 7.82458 4.44249 7.82458 4.5525V4.9254C7.82513 4.92815 7.82513 4.93035 7.82568 4.9331C7.82568 4.93585 7.82458 4.93805 7.82458 4.93805V5.49741C7.82458 5.61401 7.93788 5.71687 8.07813 5.72677C8.55224 5.76032 9.02635 5.78727 9.50101 5.80872C9.61266 5.82962 9.70231 5.90387 9.71551 6.01607V6.19042C9.70176 6.29603 9.61431 6.37028 9.50706 6.37523C9.27165 6.36588 9.0368 6.35543 8.8025 6.34333C7.86528 6.29273 7.19922 6.80038 7.19922 7.5924V8.67537C7.19922 9.46188 7.77123 10.0218 8.70184 10.0223C9.35251 10.0245 10.0043 10.0256 10.6566 10.0267Z" fill="white"/>
<path fill-rule="evenodd" clip-rule="evenodd" d="M15.9545 11.7081C15.3682 11.7054 14.7802 11.7026 14.1928 11.701C13.2638 11.6993 12.6005 12.2675 12.6011 13.065V15.8002C12.6005 16.5988 13.2638 17.1681 14.1928 17.211C14.7802 17.2379 15.3682 17.2764 15.9545 17.3265C16.0854 17.338 16.1926 17.2533 16.1926 17.1367V16.1813C16.1926 16.0642 16.0854 15.9624 15.9545 15.9536C15.4298 15.9173 14.9045 15.8887 14.3787 15.8667C14.3727 15.8656 14.3666 15.8645 14.3611 15.8629C14.2368 15.8447 14.1405 15.7507 14.1405 15.6396C14.14 15.5906 14.14 13.2767 14.1405 13.2261C14.1405 13.1156 14.2368 13.0259 14.3611 13.0138L14.3787 13.0111C14.9045 13.0166 15.4298 13.0254 15.9545 13.0364C16.0854 13.0391 16.1926 12.9478 16.1926 12.8312V11.9204C16.1926 11.8038 16.0854 11.7087 15.9545 11.7081Z" fill="white"/>
<path fill-rule="evenodd" clip-rule="evenodd" d="M10.2353 15.7936C10.2353 15.8057 10.2337 15.8173 10.2309 15.8283C10.2287 15.8387 10.2249 15.8486 10.2216 15.8591C10.1875 15.9416 10.0929 16.0037 9.98123 16.0081C9.83163 16.0142 9.68203 16.0202 9.53297 16.0274C9.39217 16.034 9.27887 15.9471 9.27887 15.8327V15.6556C9.27887 15.6534 9.27832 15.6512 9.27832 15.649C9.27832 15.4917 9.27887 15.3338 9.27887 15.1765V15.0275C9.27942 14.9136 9.39272 14.8168 9.53297 14.8124C9.68203 14.8069 9.83163 14.802 9.98123 14.7981C10.1215 14.7943 10.2353 14.8828 10.2353 14.9961V15.7936ZM10.0638 11.7015C9.56491 11.7026 9.0666 11.7048 8.56884 11.707C8.43629 11.7076 8.32959 11.7972 8.32959 11.9062V12.2763C8.33014 12.2791 8.33014 12.2813 8.33069 12.2835C8.33069 12.2862 8.32959 12.289 8.32959 12.289V12.8434C8.32959 12.9594 8.44289 13.0502 8.58314 13.0469C9.05725 13.0364 9.53246 13.0276 10.0066 13.021C10.1188 13.0348 10.2079 13.1041 10.2216 13.2157V13.389C10.2084 13.4946 10.1204 13.5732 10.0126 13.5842C9.77776 13.5886 9.54236 13.5936 9.3075 13.5991C8.36974 13.6194 7.70367 14.203 7.70312 14.9862V16.0604C7.70367 16.8408 8.27568 17.3287 9.2074 17.2632C9.85806 17.2198 10.5104 17.1906 11.1627 17.1763C11.5136 17.1681 11.7985 16.9387 11.7985 16.6571V13.0892C11.7985 12.2367 11.2859 11.6988 10.0638 11.7015Z" fill="white"/>
<path fill-rule="evenodd" clip-rule="evenodd" d="M5.62644 16.129C5.62644 16.2489 5.51314 16.3611 5.37288 16.3782C5.22493 16.3963 5.07698 16.4156 4.92848 16.4348C4.81847 16.4491 4.72552 16.3963 4.69087 16.3122C4.68812 16.3023 4.68317 16.2913 4.68097 16.2797C4.67822 16.2676 4.67822 16.2555 4.67822 16.2434V15.4608C4.67822 15.3354 4.78987 15.2221 4.92848 15.2089C5.07698 15.194 5.22493 15.1797 5.37288 15.166C5.51314 15.1533 5.62369 15.2419 5.62644 15.364V16.129ZM4.67822 13.2916C4.67822 13.2795 4.67822 13.2674 4.68097 13.2552C4.68372 13.2431 4.68812 13.2305 4.69087 13.2211C4.72552 13.1298 4.81847 13.0611 4.92848 13.0567C4.99338 13.0534 5.05773 13.0506 5.12208 13.0479C5.26233 13.0424 5.37563 13.137 5.37563 13.2575V13.6007C5.37288 13.7239 5.26233 13.83 5.12208 13.8388L4.92848 13.8509C4.79042 13.8603 4.67822 13.7668 4.67822 13.6414V13.2916ZM6.54929 14.3619C6.79624 14.1083 6.94419 13.7855 6.94419 13.4197V13.065C6.94419 12.2818 6.36998 11.7257 5.44597 11.7296C4.88221 11.7351 4.32065 11.7406 3.76019 11.7472C3.41478 11.7505 3.13373 12.0178 3.13428 12.3445V17.5002C3.13373 17.8264 3.41533 18.0321 3.76019 17.9645C4.4037 17.8407 5.04941 17.7318 5.69677 17.6367C6.62134 17.4981 7.19665 16.8826 7.1961 16.1016V15.43C7.1961 14.9554 6.94859 14.5764 6.54929 14.3619Z" fill="white"/>
<path fill-rule="evenodd" clip-rule="evenodd" d="M18.4824 13.8735V13.8212C18.5011 13.8399 18.5198 13.8581 18.5385 13.8768C18.5198 13.8757 18.5011 13.8746 18.4824 13.8735ZM19.5267 14.9169C19.5146 14.8966 19.4778 14.8195 19.4778 14.7051C19.4778 14.5907 19.5146 14.5429 19.5267 14.5247C20.0707 13.7322 20.613 12.9099 21.1536 12.0442C21.2274 11.9617 21.1784 11.7158 20.8896 11.7131C20.8104 11.712 19.8342 11.7021 19.8342 11.7021C19.7055 11.701 19.6307 11.7411 19.5306 11.8258C19.1813 12.3533 18.8326 12.8654 18.4828 13.3681V11.8946C18.4735 11.7802 18.3728 11.6894 18.248 11.6883C17.891 11.6856 17.5329 11.6834 17.1754 11.6812C17.0445 11.6806 16.9378 11.7758 16.9378 11.894V17.1741C16.9373 17.2924 17.0445 17.3996 17.1754 17.4145C17.5329 17.4546 17.891 17.4997 18.248 17.5487C18.3679 17.5652 18.4658 17.4959 18.4817 17.3903V15.9025C18.8321 16.458 19.1813 17.0273 19.5306 17.6163C19.6312 17.7192 19.706 17.7725 19.8342 17.7945C19.8347 17.7918 20.8099 17.9722 20.8896 17.9915C21.1784 18.0498 21.2274 17.8154 21.1536 17.7164C20.613 16.7341 20.0707 15.8052 19.5267 14.9169Z" fill="white"/>
<path fill-rule="evenodd" clip-rule="evenodd" d="M18.0397 9.7248C18.0397 9.10164 18.0402 8.47793 18.0402 7.85477C18.0402 7.75687 18.1266 7.67272 18.2327 7.66667C18.6419 7.64302 19.0511 7.61662 19.4587 7.58857C19.5643 7.58086 19.6506 7.65732 19.6506 7.75907V9.67145C19.6506 9.79685 19.7562 9.89805 19.8866 9.8964C20.2425 9.8931 20.5967 9.8887 20.9514 9.88485C21.0702 9.8832 21.1676 9.793 21.183 9.6764C21.1835 7.70627 21.1841 5.73613 21.1841 3.766C21.1747 3.64445 21.0752 3.56855 20.9514 3.59385C20.5967 3.6648 20.2419 3.7319 19.886 3.7946C19.7562 3.8177 19.6506 3.9376 19.6506 4.06301V5.91159C19.6506 6.01334 19.5648 6.10519 19.4587 6.11674C19.0511 6.16074 18.6419 6.20089 18.2327 6.23774C18.126 6.24709 18.0408 6.17504 18.0402 6.07769C18.0408 5.47928 18.0408 4.88087 18.0408 4.28246C18.0314 4.17081 17.9308 4.09491 17.8059 4.11086C17.4484 4.15651 17.0904 4.19831 16.7317 4.23516C16.6014 4.24891 16.4941 4.35396 16.4941 4.47111V9.71215C16.4947 9.8293 16.6014 9.9239 16.7328 9.92335C17.0904 9.9206 17.4484 9.9184 17.8059 9.91565C17.9258 9.9151 18.0243 9.8315 18.0397 9.7248Z" fill="white"/>
</svg>
