<svg width="24" height="24" viewBox="0 0 24 24" fill="none" xmlns="http://www.w3.org/2000/svg">
<path d="M8.82706 19.7693C8.88732 19.666 8.89852 19.5412 8.85762 19.4288L4.6904 7.97949C4.61437 7.77062 4.72207 7.53966 4.93095 7.46363L7.82974 6.40856C7.83024 6.40838 7.8308 6.40864 7.83099 6.40914C8.24628 7.54942 9.50775 8.13713 10.6482 7.72205C11.7881 7.3067 12.3761 6.04599 11.9614 4.90579C11.8714 4.6585 11.7407 4.43808 11.5803 4.24793C11.4377 4.07887 11.4094 3.82888 11.5492 3.65746L13.092 1.76544C13.2523 1.56875 13.5525 1.56779 13.7142 1.76345L15.26 3.63461C15.2892 3.67001 15.3122 3.71015 15.3279 3.75329L20.9922 19.3159C21.0682 19.5247 20.9605 19.7557 20.7516 19.8317L18.1649 20.7732C17.9561 20.8492 17.7282 20.7387 17.6156 20.5471C17.089 19.6507 15.982 19.2287 14.9702 19.5967C13.901 19.9859 13.3165 21.1196 13.5896 22.1995C13.627 22.3197 13.5633 22.4481 13.445 22.4911L10.5972 23.5277C10.4618 23.5769 10.3105 23.5501 10.2004 23.4574L8.09538 21.686C7.94558 21.5599 7.90823 21.3444 8.00688 21.1752L8.82706 19.7693Z" fill="#651FA2"/>
<path d="M12.7603 1.53235C13.0803 1.41586 13.4347 1.58048 13.5513 1.90051L19.1011 17.1505C19.2175 17.4705 19.0527 17.8239 18.7329 17.9406L16.146 18.882C15.8187 19.0011 15.491 18.8232 15.3384 18.5636C14.8631 17.7546 13.8645 17.3742 12.9517 17.7062C12.0387 18.0385 11.5166 18.9723 11.6724 19.8976C11.7224 20.1945 11.5866 20.5421 11.2593 20.6613L8.73779 21.5782C8.41771 21.6947 8.06328 21.5302 7.94678 21.2101L2.39697 5.96008C2.28072 5.64015 2.4453 5.28659 2.76514 5.17004L5.66455 4.11536L5.70654 4.10461C5.80548 4.08997 5.90428 4.14577 5.93994 4.24329C6.31466 5.27233 7.45359 5.80342 8.48291 5.42883C9.51164 5.05405 10.0417 3.91589 9.66748 2.88684L9.59424 2.68567L9.79541 2.61243L12.7603 1.53235Z" fill="url(#paint0_linear_3053_635)" stroke="#651FA2" stroke-width="0.428571"/>
<path fill-rule="evenodd" clip-rule="evenodd" d="M12.706 8.63227L9.76722 14.9345C9.64157 15.204 9.32129 15.3206 9.05184 15.1949C8.78239 15.0693 8.66582 14.749 8.79146 14.4795L11.7302 8.17727C11.8559 7.90783 12.1762 7.79125 12.4456 7.9169C12.7151 8.04254 12.8316 8.36282 12.706 8.63227Z" fill="#651FA2"/>
<path d="M9.4746 10.0995C9.67796 10.6582 9.38987 11.276 8.83113 11.4794C8.27239 11.6828 7.65457 11.3947 7.45121 10.8359C7.24784 10.2772 7.53593 9.65937 8.09468 9.45601C8.65342 9.25264 9.27123 9.54073 9.4746 10.0995Z" fill="#651FA2"/>
<path d="M14.0274 12.172C14.2308 12.7307 13.9427 13.3485 13.384 13.5519C12.8252 13.7553 12.2074 13.4672 12.004 12.9084C11.8007 12.3497 12.0888 11.7319 12.6475 11.5285C13.2063 11.3251 13.8241 11.6132 14.0274 12.172Z" fill="#651FA2"/>
<defs>
<linearGradient id="paint0_linear_3053_635" x1="7.83614" y1="3.55244" x2="13.6618" y2="19.5584" gradientUnits="userSpaceOnUse">
<stop stop-color="#F8D9FF"/>
<stop offset="0.0913462" stop-color="#F3BFFF"/>
<stop offset="1" stop-color="#BE99FF"/>
</linearGradient>
</defs>
</svg>
