<svg width="24" height="24" viewBox="0 0 24 24" fill="none" xmlns="http://www.w3.org/2000/svg">
<path d="M12 22C13.9778 22 15.9112 21.4135 17.5557 20.3147C19.2002 19.2159 20.4819 17.6541 21.2388 15.8268C21.9957 13.9996 22.1937 11.9889 21.8079 10.0491C21.422 8.10929 20.4696 6.32746 19.0711 4.92894C17.6725 3.53041 15.8907 2.578 13.9509 2.19215C12.0111 1.8063 10.0004 2.00433 8.17317 2.76121C6.3459 3.51809 4.78412 4.79981 3.6853 6.4443C2.58649 8.08879 2 10.0222 2 12C2 14.6522 3.05357 17.1957 4.92893 19.0711C5.85752 19.9997 6.95991 20.7363 8.17317 21.2388C9.38642 21.7413 10.6868 22 12 22Z" fill="#E12E3A"/>
<path d="M12 13.7001C11.8019 13.6975 11.6126 13.6177 11.4725 13.4776C11.3324 13.3375 11.2526 13.1482 11.25 12.9501V8.3501C11.25 8.15119 11.329 7.96042 11.4697 7.81977C11.6103 7.67912 11.8011 7.6001 12 7.6001C12.1989 7.6001 12.3897 7.67912 12.5303 7.81977C12.671 7.96042 12.75 8.15119 12.75 8.3501V13.0001C12.735 13.1894 12.6497 13.3662 12.5109 13.4957C12.3721 13.6253 12.1899 13.6982 12 13.7001Z" fill="white"/>
<path d="M12 16.3999C11.8011 16.3999 11.6103 16.3209 11.4697 16.1802C11.329 16.0396 11.25 15.8488 11.25 15.6499C11.25 15.451 11.329 15.2602 11.4697 15.1196C11.6103 14.9789 11.8011 14.8999 12 14.8999C12.1989 14.8999 12.3897 14.9789 12.5303 15.1196C12.671 15.2602 12.75 15.451 12.75 15.6499C12.75 15.8488 12.671 16.0396 12.5303 16.1802C12.3897 16.3209 12.1989 16.3999 12 16.3999Z" fill="white"/>
</svg>
