<svg width="24" height="24" viewBox="0 0 24 24" fill="none" xmlns="http://www.w3.org/2000/svg">
<path d="M12.0216 5.24465C12.6806 4.54228 13.7962 4.54235 14.4552 5.24465L15.4161 6.27004C15.7419 6.61733 16.2009 6.80891 16.6769 6.79641L17.7042 6.76906L17.5128 6.57278L17.671 4.94582L19.2013 6.34133C19.5798 6.68656 19.8032 7.17018 19.8204 7.68215L19.7892 8.44582C19.7891 8.45426 19.7904 8.46275 19.7902 8.47121L19.7531 9.855C19.7478 10.0555 19.7804 10.2523 19.8439 10.438L19.88 9.96828L21.382 11.7954C21.6723 12.1485 21.8383 12.5876 21.8536 13.0445L21.8566 13.1402L21.8322 13.314L21.8292 13.312C21.8229 13.7494 21.6477 14.1845 21.2999 14.5083L20.2892 15.4507C19.9359 15.7797 19.7426 16.2456 19.7589 16.728L19.8058 18.1079C19.8385 19.073 19.0472 19.8649 18.0822 19.8325L16.6847 19.7847C16.2044 19.7685 15.74 19.9605 15.4113 20.3111L14.4552 21.3306C13.891 21.932 12.9936 22.0167 12.3331 21.5884L12.2462 21.5386L11.3908 20.8823L10.2501 19.9488V19.8355C10.102 19.7987 9.9487 19.7795 9.7931 19.7847L8.39466 19.8325C8.0668 19.8435 7.76036 19.7567 7.49818 19.603V19.6079L7.47474 19.5894C7.35645 19.5174 7.24713 19.4326 7.15052 19.3345L5.41517 17.9712C5.2901 17.8728 5.21693 17.7222 5.21693 17.563V16.6626L6.69349 17.4478L6.71888 16.728C6.73524 16.2456 6.54088 15.7797 6.18763 15.4507L5.17689 14.5083C4.46854 13.8486 4.46854 12.7267 5.17689 12.0669L6.18763 11.1245C6.54088 10.7955 6.73524 10.3296 6.71888 9.84719L6.67201 8.46731C6.63928 7.50229 7.42969 6.71141 8.39466 6.74367L9.7931 6.79055C10.2733 6.80661 10.7369 6.61463 11.0656 6.26418L12.0216 5.24465Z" fill="#00650E"/>
<path d="M10.124 3.31262C10.8773 2.50946 12.153 2.50946 12.9062 3.31262L13.8369 4.30481C14.1282 4.61535 14.5393 4.78496 14.9648 4.77063L16.3252 4.72473C17.4283 4.68758 18.3323 5.59233 18.2949 6.69543L18.25 8.03918C18.2356 8.46655 18.4068 8.87957 18.7197 9.17102L19.7041 10.087C20.5137 10.8411 20.5137 12.124 19.7041 12.8781L18.7197 13.795C18.4068 14.0866 18.2355 14.4994 18.25 14.9269L18.2949 16.2706C18.3321 17.3735 17.4282 18.2775 16.3252 18.2404L14.9648 18.1945C14.5394 18.1801 14.1282 18.3499 13.8369 18.6603L12.9062 19.6534C12.153 20.4566 10.8773 20.4566 10.124 19.6534L9.19336 18.6603C8.90209 18.3499 8.49083 18.1801 8.06543 18.1945L6.70508 18.2404C5.60212 18.2775 4.69821 17.3735 4.73535 16.2706L4.78027 14.9269C4.79477 14.4994 4.62353 14.0866 4.31055 13.795L3.32617 12.8781C2.51665 12.124 2.5166 10.8411 3.32617 10.087L4.31055 9.17102C4.62347 8.87957 4.79468 8.46655 4.78027 8.03918L4.73535 6.69543C4.69794 5.59233 5.60196 4.68758 6.70508 4.72473L8.06543 4.77063C8.49095 4.78496 8.90207 4.61533 9.19336 4.30481L10.124 3.31262Z" fill="url(#paint0_linear_3053_639)" stroke="#159A1D" stroke-width="0.428571"/>
<path fill-rule="evenodd" clip-rule="evenodd" d="M15.0421 8.90138L8.93362 15.0099C8.67245 15.271 8.24903 15.271 7.98787 15.0099C7.7267 14.7487 7.7267 14.3253 7.98786 14.0641L14.0963 7.95564C14.3575 7.69448 14.7809 7.69447 15.0421 7.95563C15.3032 8.2168 15.3032 8.64022 15.0421 8.90138Z" fill="#00650E"/>
<path d="M10.6466 9.24167C10.6466 9.98034 10.0477 10.5792 9.30907 10.5792C8.57039 10.5792 7.97158 9.98034 7.97158 9.24167C7.97158 8.50299 8.57039 7.90418 9.30907 7.90418C10.0477 7.90418 10.6466 8.50299 10.6466 9.24167Z" fill="#00650E"/>
<path d="M15.0806 13.5949C15.0806 14.3335 14.4818 14.9324 13.7432 14.9324C13.0045 14.9324 12.4057 14.3335 12.4057 13.5949C12.4057 12.8562 13.0045 12.2574 13.7432 12.2574C14.4818 12.2574 15.0806 12.8562 15.0806 13.5949Z" fill="#00650E"/>
<defs>
<linearGradient id="paint0_linear_3053_639" x1="11.5152" y1="2.76382" x2="11.5152" y2="20.8229" gradientUnits="userSpaceOnUse">
<stop stop-color="#EEFFC6"/>
<stop offset="0.129808" stop-color="#D5FD77"/>
<stop offset="1" stop-color="#8BE13C"/>
</linearGradient>
</defs>
</svg>
