<svg width="24" height="24" viewBox="0 0 24 24" fill="none" xmlns="http://www.w3.org/2000/svg">
<path fill-rule="evenodd" clip-rule="evenodd" d="M12 22C17.5228 22 22 17.5228 22 12C22 6.47715 17.5228 2 12 2C6.47715 2 2 6.47715 2 12C2 17.5228 6.47715 22 12 22Z" fill="#004299"/>
<path fill-rule="evenodd" clip-rule="evenodd" d="M12.9424 8.04712C12.733 8.04712 12.5759 8.04712 12.5759 7.94241V7.99476C12.7853 8.09948 12.9424 8.20419 13.1518 8.41361C13.3613 8.57068 13.466 8.83246 13.5707 9.1466H14.5655C14.7749 9.1466 14.8796 9.19895 14.9843 9.30366C15.089 9.40838 15.1414 9.51309 15.1414 9.67016C15.1414 9.82722 15.089 9.93194 14.9843 10.0366C14.8796 10.1414 14.7749 10.1937 14.5655 10.1937H13.6754C13.623 10.6126 13.5183 11.0314 13.3089 11.2932C13.0995 11.555 12.8901 11.8168 12.6283 12.0262C12.3665 12.2356 12.0524 12.3927 11.7382 12.4974C11.4241 12.6021 11.11 12.6545 10.7958 12.7068L13.9372 15.7958C14.0942 15.9529 14.1466 16.1099 14.1466 16.3194C14.1466 16.5288 14.0942 16.6335 13.9895 16.7906C13.8848 16.9476 13.7278 17 13.5183 17C13.4136 17 13.3089 17 13.2042 16.9476C13.0995 16.8953 12.9948 16.8429 12.8901 16.7382L9.22514 13.0733C9.12042 12.9686 9.06807 12.8639 9.01571 12.7592C8.96336 12.6545 8.96336 12.5497 8.96336 12.445C8.96336 12.2356 9.01571 12.0785 9.12042 11.9738C9.22513 11.8691 9.3822 11.8168 9.53927 11.8168H9.69634C9.95812 11.8168 10.2723 11.8168 10.534 11.7644C10.8482 11.712 11.11 11.6073 11.3194 11.5026C11.5288 11.3979 11.7382 11.2408 11.8953 11.0314C12.0524 10.8743 12.1571 10.6126 12.2094 10.2984H9.3822C9.17278 10.2984 9.06807 10.2461 8.96336 10.1414C8.911 10.0366 8.85864 9.93194 8.85864 9.77487C8.85864 9.6178 8.85864 9.51309 8.96336 9.40838C9.06807 9.30366 9.17278 9.25131 9.3822 9.25131H12.1047C11.8953 8.46597 11.1623 8.04712 10.0105 8.04712H9.3822C9.17278 8.04712 9.06807 7.99476 8.96336 7.89005C8.911 7.78534 8.85864 7.68063 8.85864 7.52356C8.85864 7.36649 8.85864 7.26178 8.96336 7.15707C9.06807 7.05236 9.17278 7 9.3822 7H14.5131C14.7225 7 14.8272 7.05236 14.9319 7.15707C15.0367 7.26178 15.089 7.36649 15.089 7.52356C15.089 7.68063 15.0367 7.78534 14.9319 7.89005C14.8272 7.99476 14.7225 8.04712 14.5131 8.04712H12.9424Z" fill="white"/>
</svg>
