<svg width="24" height="24" viewBox="0 0 24 24" fill="none" xmlns="http://www.w3.org/2000/svg">
<path fill-rule="evenodd" clip-rule="evenodd" d="M11.5609 1.60289C11.7929 1.46693 12.08 1.46563 12.3133 1.59949L14.6847 2.9603C15.918 3.67156 17.2735 4.14572 18.6813 4.3583L20.0813 4.5683C20.4484 4.62337 20.72 4.93875 20.72 5.31V11.15C20.7198 11.7321 20.677 12.3137 20.592 12.8896L20.5911 12.8956L20.4217 13.9816C20.4216 13.9823 20.4215 13.9829 20.4214 13.9836C20.2342 15.2256 19.776 16.4111 19.0793 17.4562C18.3822 18.5018 17.4635 19.3811 16.3883 20.0317L16 19.39L16.3811 20.036L12.3811 22.396C12.1456 22.5349 11.853 22.5347 11.6177 22.3952L7.6177 20.0252L7.61614 20.0243C6.53409 19.3797 5.60763 18.5042 4.90285 17.4603C4.19808 16.4164 3.73235 15.2298 3.53891 13.9852L3.53831 13.9813L3.38889 12.9852C3.29566 12.4046 3.24922 11.8175 3.25001 11.2295C3.25001 11.2297 3.25001 11.2293 3.25001 11.2295V5.31C3.25001 4.93967 3.52031 4.62477 3.88637 4.56866L5.2556 4.35878C6.67816 4.13915 8.04744 3.65525 9.29206 2.93219L9.29087 2.93289L9.67001 3.58L9.29319 2.93154L11.5609 1.60289ZM15.6152 18.7462C16.5005 18.2099 17.257 17.4854 17.8312 16.6241C18.4061 15.7617 18.7841 14.7833 18.9384 13.7584L18.939 13.7544L19.1085 12.6675C19.1826 12.1651 19.2198 11.6579 19.22 11.15C19.22 11.1499 19.22 11.1501 19.22 11.15V5.95589L18.4588 5.8417C16.866 5.60128 15.3316 5.06481 13.9362 4.26019C13.9359 4.26003 13.9365 4.26036 13.9362 4.26019L11.9439 3.11696L10.0468 4.22847C8.63997 5.046 7.09253 5.593 5.48442 5.84122L4.75001 5.9538L4.75001 11.231C4.7493 11.74 4.78959 12.2483 4.87048 12.7508L4.87175 12.7587L5.02111 13.7548C5.02121 13.7555 5.02131 13.7561 5.02141 13.7567C5.18114 14.7825 5.56514 15.7605 6.14604 16.6209C6.72714 17.4816 7.49095 18.2035 8.38304 18.7352C8.38276 18.735 8.38332 18.7353 8.38304 18.7352L12.0008 20.8787L15.6152 18.7462Z" fill="#004299"/>
<path fill-rule="evenodd" clip-rule="evenodd" d="M11.5678 2.6915C11.7689 2.57184 12.0188 2.56952 12.2221 2.68542L14.3617 3.90518C15.4922 4.54862 16.734 4.97317 18.0218 5.15659L18.0321 5.15805L19.2921 5.35813C19.6077 5.40825 19.8402 5.68045 19.8402 6.0001V11.2501L19.8402 11.253C19.8378 11.7723 19.7988 12.2908 19.7232 12.8046L19.723 12.8065L19.572 13.8128C19.3944 14.923 18.9742 15.9804 18.3414 16.9097C17.7086 17.8391 16.8788 18.6175 15.9109 19.1896L12.3314 21.3094C12.1271 21.4303 11.8732 21.4303 11.669 21.3094L8.08993 19.19C8.08973 19.1898 8.09013 19.1901 8.08993 19.19C7.11644 18.6156 6.28169 17.8324 5.64689 16.8972C5.01196 15.9618 4.59225 14.8973 4.41793 13.7803L4.41711 13.7751L4.28781 12.8997C4.20263 12.3741 4.15994 11.8425 4.16016 11.3101V6.0001C4.16016 5.68068 4.39225 5.40859 4.70767 5.35823L5.90106 5.16769C7.19367 4.96829 8.43821 4.53141 9.5718 3.87911L11.5678 2.6915ZM11.9072 4.00229L10.2246 5.0034C8.95132 5.73682 7.55317 6.22801 6.10097 6.45223L5.46016 6.55455V11.3101C5.45995 11.7742 5.49727 12.2378 5.57173 12.6958L5.57325 12.7051L5.70278 13.5824C5.84772 14.5087 6.19595 15.3914 6.7225 16.1671C7.24953 16.9435 7.9421 17.5935 8.75038 18.0702L8.75136 18.0708L12.0002 19.9947L15.249 18.0708C16.0523 17.5959 16.7416 16.9495 17.2669 16.1781C17.7915 15.4075 18.1401 14.5309 18.2878 13.6105L18.4371 12.6156C18.437 12.6159 18.4371 12.6153 18.4371 12.6156C18.5035 12.1632 18.5381 11.7057 18.5402 11.2484V6.55506L17.8333 6.44286C16.3856 6.236 14.9897 5.75841 13.7186 5.03501L11.9072 4.00229Z" fill="#1576DB"/>
<path fill-rule="evenodd" clip-rule="evenodd" d="M15.2904 9.21967C15.5833 9.51256 15.5833 9.98744 15.2904 10.2803L11.8604 13.7103C11.7194 13.8513 11.5282 13.9303 11.3289 13.93C11.1296 13.9297 10.9386 13.85 10.7981 13.7087L9.21806 12.1187C8.92609 11.8248 8.92759 11.35 9.22141 11.058C9.51522 10.766 9.99009 10.7675 10.2821 11.0613L11.3317 12.1177L14.2297 9.21967C14.5226 8.92678 14.9975 8.92678 15.2904 9.21967Z" fill="#1576DB"/>
</svg>
