<svg width="24" height="24" viewBox="0 0 24 24" fill="none" xmlns="http://www.w3.org/2000/svg">
<path fill-rule="evenodd" clip-rule="evenodd" d="M18 4.5H6C5.17157 4.5 4.5 5.17157 4.5 6V18C4.5 18.8284 5.17157 19.5 6 19.5H18C18.8284 19.5 19.5 18.8284 19.5 18V6C19.5 5.17157 18.8284 4.5 18 4.5ZM6 3C4.34315 3 3 4.34315 3 6V18C3 19.6569 4.34315 21 6 21H18C19.6569 21 21 19.6569 21 18V6C21 4.34315 19.6569 3 18 3H6Z" fill="#49A25A"/>
<path d="M16.0498 12C16.0498 14.2091 14.2589 16 12.0498 16C9.84067 16 8.0498 14.2091 8.0498 12C8.0498 9.79086 9.84067 8 12.0498 8C14.2589 8 16.0498 9.79086 16.0498 12Z" fill="#49A25A"/>
</svg>
