<svg width="24" height="24" viewBox="0 0 24 24" fill="none" xmlns="http://www.w3.org/2000/svg">
<path d="M11.9002 12.1496C15.8299 12.1497 18.8504 15.302 18.8504 19.2004V21.3C18.8504 21.7141 18.5144 22.0498 18.1004 22.05C17.6862 22.05 17.3504 21.7142 17.3504 21.3V19.2004C17.3504 16.0989 14.9703 13.6497 11.9002 13.6496C8.92221 13.6496 6.45001 16.1068 6.45001 19.2004V21.3C6.45001 21.7142 6.11423 22.05 5.70001 22.05C5.2858 22.05 4.95001 21.7142 4.95001 21.3V19.2004C4.95001 15.294 8.0782 12.1496 11.9002 12.1496Z" fill="currentColor"/>
<path d="M8.70001 18.05C9.11423 18.05 9.45001 18.3858 9.45001 18.8V21.3C9.45001 21.7142 9.11423 22.05 8.70001 22.05C8.2858 22.05 7.95001 21.7142 7.95001 21.3V18.8C7.95001 18.3858 8.2858 18.05 8.70001 18.05Z" fill="currentColor"/>
<path d="M15.2996 18.05C15.7138 18.05 16.0496 18.3858 16.0496 18.8V21.3C16.0496 21.7142 15.7138 22.05 15.2996 22.05C14.8856 22.0498 14.5496 21.7141 14.5496 21.3V18.8C14.5496 18.3859 14.8856 18.0502 15.2996 18.05Z" fill="currentColor"/>
<path fill-rule="evenodd" clip-rule="evenodd" d="M11.9002 2.04999C14.4129 2.0501 16.4499 4.08706 16.45 6.59979C16.45 9.11262 14.413 11.1495 11.9002 11.1496C9.38731 11.1496 7.3504 9.11269 7.3504 6.59979C7.35051 4.08699 9.38737 2.04999 11.9002 2.04999ZM11.9002 3.54999C10.2158 3.54999 8.85051 4.91541 8.8504 6.59979C8.8504 8.28426 10.2157 9.6496 11.9002 9.6496C13.5846 9.64948 14.95 8.28419 14.95 6.59979C14.9499 4.91549 13.5845 3.5501 11.9002 3.54999Z" fill="currentColor"/>
</svg>
