<svg width="24" height="24" viewBox="0 0 24 24" fill="none" xmlns="http://www.w3.org/2000/svg">
<path d="M21.1997 18.55C21.6139 18.55 21.9497 18.8858 21.9497 19.3C21.9497 19.7142 21.6139 20.05 21.1997 20.05H2.69972C2.28563 20.0498 1.94973 19.7141 1.94972 19.3C1.94972 18.8858 2.28562 18.5501 2.69972 18.55H21.1997Z" fill="currentColor"/>
<path d="M17.6939 5.81559C19.0959 5.18053 20.7921 5.55275 21.7144 6.87028L21.7241 6.88395C22.1766 7.56269 21.9255 8.41802 21.3159 8.82438C21.2814 8.84736 21.2453 8.86796 21.2075 8.88493L8.50734 14.5841C8.49797 14.5884 8.48855 14.593 8.47902 14.5968C7.25298 15.0873 5.86857 14.9692 4.74171 14.0939L4.73976 14.092L2.14308 12.0949C1.95724 11.9519 1.84868 11.7297 1.85011 11.4953C1.85165 11.2611 1.96262 11.0412 2.14992 10.9006L2.54152 10.6066C3.19134 10.0914 4.09811 9.82262 4.92335 9.96013L4.938 9.96306L7.89015 10.5168L8.11769 10.4025L5.56007 8.67106L11.648 6.74333L12.9907 7.30876C13.0057 7.31508 13.0211 7.32198 13.0357 7.32927C13.4245 7.52366 13.8763 7.52368 14.2652 7.32927C14.2758 7.32396 14.2865 7.31844 14.2974 7.31364L17.6939 5.81559Z" fill="currentColor"/>
<path d="M3.46437 5.02946C4.67407 4.42461 6.0995 4.43176 7.27882 4.90349L7.29152 4.90934L9.51515 5.84489L3.97706 7.59977L2.67921 6.72087C2.46506 6.57564 2.34127 6.33005 2.35109 6.07145C2.36102 5.81282 2.50334 5.57784 2.72804 5.44938L3.42824 5.04899C3.44013 5.0422 3.45212 5.03559 3.46437 5.02946Z" fill="currentColor"/>
</svg>
