<svg width="24" height="24" viewBox="0 0 24 24" fill="none" xmlns="http://www.w3.org/2000/svg">
<path d="M21.25 19.5998C21.664 19.5998 21.9997 19.9359 22 20.3498C22 20.764 21.6642 21.0998 21.25 21.0998H2.75C2.33579 21.0998 2 20.764 2 20.3498C2.00034 19.9359 2.336 19.5998 2.75 19.5998H21.25Z" fill="currentColor"/>
<path d="M3.34961 6.30002C4.23253 6.30002 5.15772 6.67035 5.72363 7.36643L7.75098 9.67112L8.04785 9.73655L7.1543 6.87913L13.373 9.05881L14.1064 10.3879C14.1113 10.3967 14.1166 10.4063 14.1211 10.4153C14.3285 10.8297 14.7361 11.1482 15.1562 11.2082C15.1831 11.2121 15.21 11.2171 15.2363 11.2239L19.1318 12.2229H19.1338L19.416 12.3069C20.7984 12.7815 21.7997 14.1039 21.7998 15.6506C21.7996 16.5678 20.9142 17.1856 20.0732 16.9787L5.77637 13.5803C5.76847 13.5784 5.76076 13.5756 5.75293 13.5735C4.42155 13.2103 3.29592 12.2239 2.92285 10.7317L2.91895 10.717L2.11914 7.21702C2.06846 6.99462 2.12147 6.76062 2.26367 6.58225C2.40591 6.40415 2.62167 6.30013 2.84961 6.30002H3.34961Z" fill="currentColor"/>
<path d="M6.09766 2.24241C6.27873 2.04556 6.55138 1.95988 6.8125 2.0178L7.69922 2.21506C9.02055 2.46002 10.2037 3.3009 10.9072 4.58909L10.9082 4.59104L12.2861 7.08909L6.59668 5.09495L5.93457 2.97385C5.85483 2.71842 5.91657 2.43942 6.09766 2.24241Z" fill="currentColor"/>
</svg>
