<svg width="24" height="24" viewBox="0 0 24 24" fill="none" xmlns="http://www.w3.org/2000/svg">
<path d="M21.2 19.5498C21.614 19.5498 21.9497 19.8859 21.95 20.2998C21.95 20.7141 21.6142 21.0498 21.2 21.0498H2.70001C2.2858 21.0498 1.95001 20.7141 1.95001 20.2998C1.95035 19.8859 2.28601 19.5498 2.70001 19.5498H21.2Z" fill="currentColor"/>
<path fill-rule="evenodd" clip-rule="evenodd" d="M6.04767 2.19242C6.22874 1.99557 6.5014 1.90989 6.76251 1.96781L7.64923 2.16507C8.97056 2.41004 10.1538 3.25091 10.8572 4.5391L10.8582 4.54105L14.0565 10.3379C14.0613 10.3467 14.0666 10.3563 14.0711 10.3653C14.2785 10.7797 14.6862 11.0982 15.1063 11.1582C15.1332 11.1621 15.16 11.1671 15.1863 11.1739L19.0818 12.1729H19.0838L19.366 12.2569C20.7484 12.7315 21.7497 14.0539 21.7498 15.6006C21.7496 16.5178 20.8642 17.1356 20.0233 16.9287L5.72638 13.5303C5.71849 13.5284 5.71077 13.5256 5.70294 13.5235C4.37157 13.1603 3.24593 12.1739 2.87286 10.6817L2.86896 10.667L2.06915 7.16703C2.01847 6.94463 2.07148 6.71063 2.21368 6.53226C2.35592 6.35416 2.57169 6.25015 2.79962 6.25004H3.29962C4.18254 6.25004 5.10773 6.62036 5.67365 7.31644L7.70099 9.62113L7.99786 9.68656L5.88458 2.92386C5.80485 2.66843 5.86658 2.38944 6.04767 2.19242ZM9.81622 10.4766C9.89597 10.732 9.83317 11.011 9.65216 11.208C9.47104 11.405 9.19853 11.4907 8.93732 11.4327L7.13751 11.0323C6.98247 10.9978 6.84209 10.9151 6.73712 10.7959L4.53693 8.29593C4.52922 8.28717 4.52175 8.2777 4.51447 8.26859C4.37201 8.09062 4.14379 7.93835 3.87286 7.84574L3.7547 7.80961L4.32892 10.3252C4.5565 11.2251 5.225 11.8347 6.08575 12.0733L20.244 15.4395C20.1744 14.5616 19.5413 13.8339 18.7186 13.628L18.7137 13.627L14.8504 12.6358C13.897 12.483 13.1253 11.8173 12.7361 11.0498L11.2029 8.27054L8.86993 7.45121L9.81622 10.4766ZM8.31232 5.66507L10.1151 6.29789L9.54181 5.2598C9.11255 4.47294 8.44452 3.94849 7.7049 3.72074L8.31232 5.66507Z" fill="currentColor"/>
</svg>
