<svg width="24" height="24" viewBox="0 0 24 24" fill="none" xmlns="http://www.w3.org/2000/svg">
<path fill-rule="evenodd" clip-rule="evenodd" d="M18.7302 3.01953C19.0147 3.01963 19.2753 3.18186 19.4021 3.43652L20.8943 6.44043C20.9305 6.50914 20.956 6.58481 20.9695 6.66406C20.9772 6.70963 20.9809 6.7563 20.9802 6.80176V20.2305C20.9799 20.6444 20.6441 20.9803 20.2302 20.9805H3.77024C3.35683 20.9797 3.02051 20.644 3.02024 20.2305V6.80859C3.01832 6.73151 3.0287 6.6526 3.05149 6.57617C3.06481 6.53156 3.08325 6.48701 3.10423 6.44629L4.59837 3.43652C4.72491 3.18199 4.98605 3.02002 5.27024 3.01953H18.7302ZM11.99 9.60938C11.5765 9.60999 11.2403 9.94583 11.24 10.3594V14.9043L10.0886 13.7578C9.79502 13.4667 9.31996 13.4677 9.02806 13.7607C8.73676 14.054 8.73855 14.5292 9.03099 14.8213L11.4909 17.2705C11.6323 17.4113 11.8247 17.4901 12.0242 17.4893C12.2239 17.488 12.4155 17.4072 12.5554 17.2646L14.9558 14.8145C15.2455 14.5186 15.2406 14.0438 14.945 13.7539C14.6492 13.4649 14.1741 13.4693 13.8845 13.7646L12.74 14.9326V10.3594C12.7396 9.94553 12.4039 9.60951 11.99 9.60938ZM4.98021 6.04004H19.0202L18.2654 4.52051H5.73509L4.98021 6.04004Z" fill="currentColor"/>
</svg>
