<svg width="24" height="24" viewBox="0 0 24 24" fill="none" xmlns="http://www.w3.org/2000/svg">
<path d="M11.9905 9.60984C12.4045 9.60998 12.7404 9.94578 12.7405 10.3598V14.9331L13.885 13.7651C14.1749 13.4695 14.6497 13.4646 14.9455 13.7544C15.2411 14.0442 15.246 14.5191 14.9563 14.8149L12.5559 17.2651C12.416 17.4078 12.2245 17.4885 12.0246 17.4897C11.8248 17.4909 11.6331 17.412 11.4914 17.271L9.03148 14.8218C8.73812 14.5296 8.73665 14.0547 9.02855 13.7612C9.32072 13.4678 9.79558 13.4664 10.0891 13.7583L11.2405 14.9048V10.3598C11.2405 9.9457 11.5763 9.60984 11.9905 9.60984Z" fill="currentColor"/>
<path fill-rule="evenodd" clip-rule="evenodd" d="M18.72 3.02L18.8254 3.02781C19.0677 3.06213 19.2809 3.21296 19.3918 3.43602L20.884 6.43992C20.9204 6.50874 20.9457 6.58414 20.9592 6.66356C20.967 6.70926 20.9707 6.75564 20.97 6.80125V20.23C20.97 20.6442 20.6342 20.98 20.22 20.98H3.76C3.34589 20.9798 3.01 20.6441 3.01 20.23V6.80809C3.00806 6.73074 3.01829 6.65234 3.04125 6.57566C3.05465 6.53071 3.0728 6.48676 3.09398 6.44578L4.58812 3.43602C4.71481 3.18109 4.97532 3.02006 5.26 3.02H18.72ZM4.51 7.53953V19.48H19.47V7.53953H4.51ZM4.96996 6.03953H19.01L18.2551 4.52H5.72484L4.96996 6.03953Z" fill="currentColor"/>
</svg>
