<svg width="24" height="24" viewBox="0 0 24 24" fill="none" xmlns="http://www.w3.org/2000/svg">
<path d="M11.7591 3.04907C16.4684 3.29 20.2503 7.21849 20.2503 12.05C20.2501 17.0315 16.326 21.0618 11.3001 21.0618C7.69536 21.0617 4.53779 18.8899 3.12039 15.8499C2.94596 15.4757 3.10896 15.0314 3.48465 14.8577C3.86029 14.6841 4.30635 14.8469 4.48074 15.2209C5.66339 17.7574 8.30512 19.5685 11.3001 19.5686C15.4739 19.5686 18.7501 16.2302 18.7503 12.05C18.7503 8.0063 15.5877 4.74156 11.6809 4.54126L11.3001 4.53149C9.54692 4.53154 7.91827 5.15968 6.62137 6.20239L7.92313 7.50415C8.39568 7.97659 8.06108 8.78442 7.39285 8.78442H3.80008C3.38587 8.78442 3.05008 8.44864 3.05008 8.03442V4.44263C3.05014 3.77455 3.85787 3.44001 4.33035 3.91235L5.55789 5.13989C7.12386 3.83629 9.12324 3.0374 11.3001 3.03735L11.7591 3.04907Z" fill="currentColor"/>
</svg>
