<svg width="24" height="24" viewBox="0 0 24 24" fill="none" xmlns="http://www.w3.org/2000/svg">
<path d="M12.4065 3.04712C14.4254 3.13973 16.2744 3.91782 17.7424 5.13989L18.97 3.91235C19.4425 3.44001 20.2502 3.77455 20.2502 4.44263V8.03442C20.2502 8.44863 19.9144 8.78441 19.5002 8.78442H15.9075C15.2392 8.78442 14.9046 7.97659 15.3772 7.50415L16.679 6.20239C15.4631 5.22484 13.9557 4.61123 12.3274 4.53833L12.0002 4.53149C7.92036 4.53149 4.55005 7.87573 4.55005 12.05C4.55018 16.2302 7.82637 19.5686 12.0002 19.5686C14.9952 19.5685 17.6369 17.7574 18.8196 15.2209C18.994 14.8469 19.44 14.6841 19.8157 14.8577C20.1914 15.0314 20.3544 15.4757 20.1799 15.8499C18.7625 18.8899 15.605 21.0617 12.0002 21.0618C6.97428 21.0618 3.05018 17.0315 3.05005 12.05C3.05005 7.06255 7.08013 3.03735 12.0002 3.03735L12.4065 3.04712Z" fill="currentColor"/>
</svg>
