<svg width="24" height="24" viewBox="0 0 24 24" fill="none" xmlns="http://www.w3.org/2000/svg">
<path d="M12.0002 2C12.4143 2.00015 12.7502 2.33588 12.7502 2.75V19.458L17.7492 14.4502C18.0418 14.1572 18.5166 14.1567 18.8097 14.4492C19.1028 14.7418 19.1032 15.2167 18.8107 15.5098L12.551 21.7803C12.4103 21.9211 12.2187 21.9999 12.0197 22C11.8209 21.9999 11.63 21.9209 11.4894 21.7803L5.18963 15.4805C4.89674 15.1876 4.89676 14.7128 5.18963 14.4199C5.48252 14.127 5.95728 14.127 6.25018 14.4199L11.2502 19.4199V2.75C11.2502 2.33579 11.586 2 12.0002 2Z" fill="currentColor"/>
</svg>
