<svg width="24" height="24" viewBox="0 0 24 24" fill="none" xmlns="http://www.w3.org/2000/svg">
<path d="M8.51953 5.18962C8.81239 4.89676 9.28718 4.89683 9.58008 5.18962C9.87297 5.48252 9.87297 5.95728 9.58008 6.25017L4.58105 11.2502H21.25L21.3271 11.2541C21.7052 11.2926 22 11.612 22 12.0002C21.9999 12.4143 21.6641 12.7502 21.25 12.7502H4.54199L9.5498 17.7492C9.84286 18.0418 9.84337 18.5166 9.55078 18.8097C9.25814 19.1028 8.78334 19.1032 8.49023 18.8107L2.21973 12.551C2.07891 12.4103 2.00007 12.2187 2 12.0197C2.00005 11.8209 2.07912 11.63 2.21973 11.4894L8.51953 5.18962Z" fill="currentColor"/>
</svg>
