<svg width="24" height="24" viewBox="0 0 24 24" fill="none" xmlns="http://www.w3.org/2000/svg">
<path d="M14.4199 5.21966C14.7128 4.92679 15.1876 4.92677 15.4805 5.21966L21.7803 11.5195C21.9209 11.6601 21.9999 11.8509 22 12.0497C21.9999 12.2487 21.9211 12.4404 21.7803 12.581L15.5098 18.8408C15.2167 19.1332 14.7418 19.1328 14.4492 18.8398C14.1567 18.5467 14.1572 18.0719 14.4502 17.7792L19.458 12.7802H2.75C2.33588 12.7802 2.00015 12.4443 2 12.0302C2 11.616 2.33579 11.2802 2.75 11.2802H19.4199L14.4199 6.28021C14.127 5.98731 14.127 5.51255 14.4199 5.21966Z" fill="currentColor"/>
</svg>
