<svg width="24" height="24" viewBox="0 0 24 24" fill="none" xmlns="http://www.w3.org/2000/svg">
<path d="M12.04 6.06348C12.1843 6.09089 12.3184 6.16033 12.4248 6.26465L17.4189 11.1641C17.8983 11.6343 17.5659 12.4498 16.8945 12.4502H12.7734V19.251C12.7732 19.665 12.4375 20.0009 12.0234 20.001C11.6094 20.001 11.2737 19.665 11.2734 19.251V12.4502H7.10156C6.43716 12.4502 6.10056 11.6495 6.56543 11.1748L11.3643 6.27539C11.5035 6.13328 11.6936 6.05183 11.8926 6.0498L12.04 6.06348Z" fill="currentColor"/>
<path d="M19.25 3C19.6642 3 20 3.33579 20 3.75C20 4.16421 19.6642 4.5 19.25 4.5H4.75C4.33579 4.5 4 4.16421 4 3.75C4 3.33579 4.33579 3 4.75 3H19.25Z" fill="currentColor"/>
</svg>
