<svg width="24" height="24" viewBox="0 0 24 24" fill="none" xmlns="http://www.w3.org/2000/svg">
<path d="M12.4983 3.05103C14.975 3.19045 17.1898 4.3618 18.7502 6.1145V4.78052C18.7502 4.36802 19.086 4.03345 19.5002 4.03345L19.5764 4.03735C19.9547 4.07554 20.2502 4.39375 20.2502 4.78052V8.36548C20.2501 8.77771 19.9142 9.11139 19.5002 9.11157H15.8997C15.4857 9.11144 15.1498 8.77774 15.1497 8.36548C15.1497 7.95306 15.4856 7.61854 15.8997 7.61841H18.0471C16.7359 5.87065 14.7177 4.68626 12.4553 4.54517L12.0002 4.53149C7.92036 4.53149 4.55005 7.87573 4.55005 12.05C4.55018 16.2302 7.82637 19.5686 12.0002 19.5686C14.9952 19.5685 17.6369 17.7574 18.8196 15.2209C18.994 14.8469 19.44 14.6841 19.8157 14.8577C20.1914 15.0314 20.3544 15.4757 20.1799 15.8499C18.7625 18.8899 15.605 21.0617 12.0002 21.0618C6.97428 21.0618 3.05018 17.0315 3.05005 12.05C3.05005 7.06255 7.08013 3.03735 12.0002 3.03735L12.4983 3.05103Z" fill="currentColor"/>
</svg>
