<svg width="24" height="24" viewBox="0 0 24 24" fill="none" xmlns="http://www.w3.org/2000/svg">
<path d="M12.0197 1.99985C12.2187 1.99992 12.4103 2.07876 12.551 2.21957L18.8107 8.49008C19.1032 8.78319 19.1028 9.25799 18.8097 9.55063C18.5166 9.84321 18.0418 9.84271 17.7492 9.54965L12.7502 4.54184V21.2498C12.7502 21.664 12.4143 21.9997 12.0002 21.9998C11.586 21.9998 11.2502 21.6641 11.2502 21.2498V4.5809L6.25017 9.57993C5.95728 9.87282 5.48252 9.87282 5.18962 9.57993C4.89683 9.28702 4.89676 8.81224 5.18962 8.51938L11.4894 2.21957C11.63 2.07897 11.8209 1.9999 12.0197 1.99985Z" fill="currentColor"/>
</svg>
