<svg width="24" height="24" viewBox="0 0 24 24" fill="none" xmlns="http://www.w3.org/2000/svg">
<path d="M11.8923 6.0498C12.0912 6.04777 12.2825 6.12547 12.4246 6.26465L17.4246 11.1641C17.7204 11.454 17.7252 11.9288 17.4353 12.2246C17.1454 12.5204 16.6706 12.5253 16.3748 12.2354L12.7498 8.68262V19.2998C12.7498 19.714 12.414 20.0498 11.9998 20.0498C11.5857 20.0497 11.2498 19.7139 11.2498 19.2998V8.53516L7.6355 12.2246C7.34564 12.5205 6.87083 12.5252 6.57495 12.2354C6.27944 11.9455 6.27448 11.4706 6.56421 11.1748L11.364 6.27539C11.5032 6.1333 11.6934 6.05186 11.8923 6.0498Z" fill="currentColor"/>
<path d="M19.2 3C19.6142 3 19.95 3.33579 19.95 3.75C19.95 4.16421 19.6142 4.5 19.2 4.5H4.69995C4.28574 4.5 3.94995 4.16421 3.94995 3.75C3.94995 3.33579 4.28574 3 4.69995 3H19.2Z" fill="currentColor"/>
</svg>
