<svg width="24" height="24" viewBox="0 0 24 24" fill="none" xmlns="http://www.w3.org/2000/svg">
<path fill-rule="evenodd" clip-rule="evenodd" d="M9.86827 2.95847C11.0374 1.78455 12.929 1.73189 14.046 2.97311L21.0314 9.98679C22.1989 11.1591 22.2509 13.0524 21.0167 14.1723L14.0314 21.187C12.9222 22.3006 11.067 22.2582 9.9005 21.2173C9.88955 21.2075 9.87862 21.1974 9.86827 21.187L2.86827 14.1587C1.70074 12.9864 1.64862 11.0931 2.88292 9.97311L9.86827 2.95847ZM13.4191 9.27292C13.1203 8.986 12.6454 8.99566 12.3585 9.2944C12.0721 9.59306 12.0817 10.0672 12.38 10.354L13.2316 11.1723H10.0001C8.88306 11.1723 7.95038 12.1129 7.9503 13.227V14.2309C7.9503 14.6451 8.28609 14.9809 8.7003 14.9809C9.11429 14.9807 9.4503 14.645 9.4503 14.2309V13.227C9.45038 12.9355 9.71724 12.6723 10.0001 12.6723H13.4942L12.3683 13.8022C12.0761 14.0956 12.0771 14.5704 12.3702 14.8628C12.6637 15.155 13.1385 15.1542 13.4308 14.8608L15.7316 12.5512C15.8733 12.4087 15.9515 12.2152 15.9493 12.0141C15.9471 11.8129 15.864 11.6213 15.7189 11.4819L13.4191 9.27292Z" fill="currentColor"/>
</svg>
