<svg width="24" height="24" viewBox="0 0 24 24" fill="none" xmlns="http://www.w3.org/2000/svg">
<path d="M12.3585 9.2944C12.6454 8.99566 13.1203 8.986 13.4191 9.27292L15.7189 11.4819C15.864 11.6213 15.9471 11.8129 15.9493 12.0141C15.9515 12.2152 15.8733 12.4087 15.7316 12.5512L13.4308 14.8608C13.1385 15.1542 12.6637 15.155 12.3702 14.8628C12.0771 14.5704 12.0761 14.0956 12.3683 13.8022L13.4942 12.6723H10.0001C9.71724 12.6723 9.45039 12.9356 9.4503 13.227V14.2309C9.4503 14.645 9.11429 14.9807 8.7003 14.9809C8.28609 14.9809 7.9503 14.6451 7.9503 14.2309V13.227C7.95038 12.1129 8.88306 11.1723 10.0001 11.1723H13.2316L12.38 10.354C12.0817 10.0672 12.0721 9.59306 12.3585 9.2944Z" fill="currentColor"/>
<path fill-rule="evenodd" clip-rule="evenodd" d="M9.86827 2.95847C11.0374 1.78455 12.929 1.73189 14.046 2.97311L21.0314 9.98679C22.1989 11.1591 22.2509 13.0524 21.0167 14.1723L14.0314 21.187C12.9222 22.3006 11.067 22.2582 9.9005 21.2173C9.88955 21.2075 9.87862 21.1974 9.86827 21.187L2.86827 14.1587C1.70074 12.9864 1.64862 11.0931 2.88292 9.97311L9.86827 2.95847ZM12.9386 3.98483C12.4535 3.43685 11.5561 3.38918 10.9308 4.01706L3.93077 11.0454C3.92053 11.0557 3.91034 11.066 3.89952 11.0757C3.35202 11.5643 3.30389 12.4706 3.93077 13.1001L10.9142 20.1108C11.5474 20.6622 12.4808 20.6171 12.9679 20.1284L19.9679 13.1001C19.9782 13.0897 19.9892 13.0795 20.0001 13.0698C20.5476 12.5811 20.5948 11.6748 19.9679 11.0454L12.9679 4.01706C12.9576 4.00677 12.9482 3.9957 12.9386 3.98483Z" fill="currentColor"/>
</svg>
