<svg width="24" height="24" viewBox="0 0 24 24" fill="none" xmlns="http://www.w3.org/2000/svg">
<path fill-rule="evenodd" clip-rule="evenodd" d="M11.835 2.84668C12.0201 2.7706 12.2278 2.77166 12.4121 2.84961L20.7295 6.36719C21.007 6.48457 21.1875 6.7563 21.1875 7.05762V9.50293C21.1873 9.91697 20.8516 10.2529 20.4375 10.2529H18.8701V19.6875H20.4375C20.8517 19.6875 21.1875 20.0233 21.1875 20.4375C21.1875 20.8517 20.8517 21.1875 20.4375 21.1875H3.5625C3.14829 21.1875 2.8125 20.8517 2.8125 20.4375C2.8125 20.0233 3.14829 19.6875 3.5625 19.6875H5.24219V10.2529H3.5625C3.14842 10.2529 2.81271 9.91697 2.8125 9.50293V7.05762C2.8125 6.75359 2.99618 6.47991 3.27734 6.36426L11.835 2.84668ZM6.74219 10.2529V19.6875H11.3701V10.2529H6.74219ZM12.8701 10.2529V19.6875H17.3701V10.2529H12.8701ZM12.1201 5.7002C11.4988 5.7002 10.9951 6.20388 10.9951 6.8252C10.9952 7.44641 11.4989 7.9502 12.1201 7.9502C12.7413 7.95013 13.245 7.44637 13.2451 6.8252C13.2451 6.20392 12.7414 5.70027 12.1201 5.7002Z" fill="currentColor"/>
</svg>
