<svg width="24" height="24" viewBox="0 0 24 24" fill="none" xmlns="http://www.w3.org/2000/svg">
<path d="M12.9284 19.9404C13.1584 19.5904 13.6284 19.5005 13.9684 19.7305C14.3182 19.9604 14.4081 20.4196 14.1784 20.7695C13.9184 21.1495 13.6482 21.4197 13.2682 21.6797C12.7783 21.9996 12.2986 22 11.9586 22C11.5387 22 11.1589 21.8795 10.819 21.7695C10.7991 21.7596 10.7775 21.7502 10.7565 21.7402C10.7143 21.7202 10.6717 21.6997 10.6383 21.6797C10.2585 21.4198 9.9881 21.1494 9.72817 20.7695C9.49871 20.4198 9.58873 19.9605 9.93813 19.7305C10.2781 19.5005 10.7482 19.5904 10.9782 19.9404C11.1081 20.1303 11.2184 20.2502 11.3883 20.3701C11.6083 20.4401 11.7986 20.5 11.9586 20.5C12.2285 20.5 12.3382 20.4996 12.4381 20.4297C12.658 20.2798 12.7785 20.1502 12.9284 19.9404Z" fill="currentColor"/>
<path d="M11.9586 2C12.6785 2.00004 13.2584 2.49987 13.3786 3.17969C14.5086 3.44969 15.5886 4.03031 16.3786 4.82031C16.4385 4.88024 16.4888 4.93029 16.5387 4.99023C16.7686 5.24017 16.9789 5.50035 17.1588 5.78027L18.7184 4.21973C19.0184 3.9298 19.4887 3.9298 19.7887 4.21973C20.0787 4.50973 20.0787 4.99027 19.7887 5.28027L4.58852 20.4805C4.43856 20.6203 4.24814 20.7002 4.05825 20.7002C3.86854 20.7001 3.6788 20.6201 3.52895 20.4805C3.23895 20.1805 3.23895 19.7099 3.52895 19.4199L3.94887 19H3.65883C3.35883 19 3.0984 18.8296 2.9684 18.5596C2.964 18.5549 2.96187 18.5461 2.95961 18.5381C2.95696 18.5287 2.95405 18.5198 2.94887 18.5195C2.83905 18.2296 2.91896 17.9004 3.15883 17.6904L3.15981 17.6885C3.23006 17.6204 5.70864 15.2181 5.70864 9.25C5.70864 7.64016 6.3984 5.94032 7.51821 4.82031C8.33821 4.01031 9.38895 3.42992 10.529 3.16992C10.649 2.49999 11.2387 2 11.9586 2Z" fill="currentColor"/>
<path d="M18.1383 8.33984C18.1883 8.63984 18.2086 8.94001 18.2086 9.25C18.2086 15.08 20.5089 17.4004 20.7389 17.6104C20.9587 17.7404 21.0983 17.9802 21.0983 18.25C21.0983 18.67 20.7683 19 20.3483 19H7.47817L18.1383 8.33984Z" fill="currentColor"/>
</svg>
