<svg width="24" height="24" viewBox="0 0 24 24" fill="none" xmlns="http://www.w3.org/2000/svg">
<path d="M12.9287 20.3301C13.1586 19.9902 13.6188 19.9002 13.9687 20.1299C14.3087 20.3599 14.3989 20.8199 14.1689 21.1699C13.919 21.5499 13.6494 21.8203 13.2695 22.0703C12.7697 22.4002 12.2795 22.4004 11.9795 22.4004H11.9492C11.6343 22.4004 11.325 22.3271 11.0762 22.2441L10.8496 22.1602H10.8096C10.7496 22.1402 10.6889 22.1103 10.6289 22.0703C10.2489 21.8203 9.97946 21.5499 9.72948 21.1699C9.49954 20.82 9.58891 20.3599 9.9287 20.1299C10.2787 19.8999 10.7387 19.9902 10.9687 20.3301C11.0986 20.5199 11.219 20.6496 11.3887 20.7695C11.6487 20.8595 11.8092 20.9004 11.9492 20.9004C12.2587 20.9004 12.3488 20.8899 12.4287 20.8301C12.6486 20.6801 12.7788 20.5499 12.9287 20.3301Z" fill="currentColor"/>
<path d="M11.9492 1.5C12.6592 1.50002 13.2491 1.99998 13.3691 2.66992C14.4991 2.93992 15.5689 3.51031 16.3789 4.32031C17.5189 5.46031 18.1992 7.05001 18.1992 8.75C18.1992 11.8898 18.8793 14.0196 19.5293 15.3496C19.8693 16.0196 20.1887 16.4903 20.4287 16.7803C20.5487 16.9302 20.649 17.0301 20.709 17.0801L20.7392 17.1104C20.9491 17.2404 21.0996 17.4801 21.0996 17.75C21.0996 18.1599 20.7594 18.4998 20.3496 18.5H3.6494C3.3394 18.5 3.05921 18.3095 2.94921 18.0195C2.83944 17.7297 2.91957 17.4003 3.1494 17.1904H3.15917C3.15917 17.1904 3.18949 17.1503 3.22948 17.1104C3.27341 17.0664 3.33308 16.995 3.40917 16.9053C3.43696 16.8725 3.46694 16.8372 3.49901 16.7998C3.72897 16.4999 4.04898 16.0301 4.3789 15.3604C4.94889 14.1704 5.5487 12.35 5.6787 9.75C5.6787 9.59243 5.68354 9.42953 5.68847 9.26465C5.69354 9.09483 5.69921 8.92242 5.69921 8.75C5.69921 7.16 6.36952 5.46031 7.51952 4.32031C8.32952 3.51032 9.3793 2.93015 10.5293 2.66016C10.6593 1.99016 11.2392 1.5 11.9492 1.5Z" fill="currentColor"/>
</svg>
