<svg width="24" height="24" viewBox="0 0 24 24" fill="none" xmlns="http://www.w3.org/2000/svg">
<path d="M12.9398 19.9404C13.1698 19.5904 13.6398 19.5005 13.9798 19.7305C14.3297 19.9604 14.4196 20.4196 14.1898 20.7695C13.9298 21.1495 13.6596 21.4197 13.2796 21.6797C12.7897 21.9996 12.31 22 11.9701 22C11.5502 22 11.1703 21.8795 10.8304 21.7695C10.7704 21.7395 10.6997 21.7097 10.6497 21.6797C10.2699 21.4198 9.99951 21.1494 9.73958 20.7695C9.51012 20.4198 9.60014 19.9605 9.94954 19.7305C10.2895 19.5005 10.7596 19.5904 10.9896 19.9404C11.1195 20.1303 11.2298 20.2502 11.3997 20.3701C11.6197 20.4401 11.8101 20.5 11.9701 20.5C12.2399 20.5 12.3496 20.4996 12.4495 20.4297C12.6694 20.2798 12.7899 20.1502 12.9398 19.9404Z" fill="currentColor"/>
<path fill-rule="evenodd" clip-rule="evenodd" d="M11.9701 2C12.6899 2.00004 13.2699 2.49987 13.39 3.17969C14.52 3.44969 15.6 4.03031 16.39 4.82031C16.4499 4.88024 16.5002 4.93029 16.5501 4.99023C16.7801 5.24017 16.9903 5.50035 17.1702 5.78027L18.7298 4.21973C19.0298 3.9298 19.5001 3.9298 19.8001 4.21973C20.0901 4.50973 20.0901 4.99027 19.8001 5.28027L4.59993 20.4805C4.44997 20.6203 4.25955 20.7002 4.06966 20.7002C3.87995 20.7001 3.69021 20.6201 3.54036 20.4805C3.25036 20.1805 3.25036 19.7099 3.54036 19.4199L3.96029 19H3.67025C3.37025 19 3.10982 18.8296 2.97982 18.5596C2.9702 18.5494 2.96991 18.5201 2.96029 18.5195C2.85047 18.2296 2.93038 17.9004 3.17025 17.6904C3.19025 17.6704 5.72005 15.28 5.72005 9.25C5.72005 7.64016 6.40982 5.94032 7.52962 4.82031C8.34962 4.01031 9.40036 3.42992 10.5404 3.16992C10.6604 2.49999 11.2501 2 11.9701 2ZM11.9701 4.5C10.7001 4.5 9.44017 5.02997 8.59017 5.87988C7.74017 6.72988 7.22005 8.02 7.22005 9.25C7.22005 11.8198 6.79979 13.7996 6.26986 15.2695C5.92986 16.2095 5.53954 16.95 5.19954 17.5H5.46029L16.0804 6.87012C15.9204 6.58012 15.7196 6.30957 15.4896 6.05957C15.4496 5.99978 15.3902 5.93967 15.3304 5.87988C14.4804 5.0299 13.24 4.50002 11.9701 4.5Z" fill="currentColor"/>
<path d="M18.1497 8.33984C18.1997 8.63984 18.2201 8.94 18.2201 9.25C18.2201 15.08 20.5203 17.4004 20.7503 17.6104C20.9701 17.7404 21.1097 17.9802 21.1097 18.25C21.1097 18.67 20.7797 19 20.3597 19H7.48958L8.98958 17.5H18.7503C17.8003 16.05 16.8098 13.5098 16.7298 9.75977L18.1497 8.33984Z" fill="currentColor"/>
</svg>
