<svg width="24" height="24" viewBox="0 0 24 24" fill="none" xmlns="http://www.w3.org/2000/svg">
<path d="M12.7764 19.8838C13.0062 19.5393 13.4719 19.4461 13.8164 19.6758C14.1608 19.9056 14.254 20.3713 14.0245 20.7158C13.7695 21.0982 13.4986 21.3691 13.1163 21.624C12.6249 21.9516 12.1253 21.9508 11.834 21.9502H11.7998C11.3759 21.9502 10.9748 21.8155 10.7002 21.7236L10.6631 21.7109C10.6 21.6899 10.5398 21.6609 10.4844 21.624C10.1021 21.3691 9.83112 21.0982 9.57621 20.7158C9.34645 20.3712 9.43957 19.9055 9.78422 19.6758C10.1289 19.4461 10.5945 19.5392 10.8243 19.8838C10.9511 20.074 11.0661 20.1965 11.2383 20.3213C11.5015 20.4072 11.6605 20.4502 11.7998 20.4502C12.1146 20.4502 12.1953 20.4352 12.2842 20.376C12.5018 20.2309 12.6314 20.1014 12.7764 19.8838Z" fill="currentColor"/>
<path fill-rule="evenodd" clip-rule="evenodd" d="M11.7998 1.0498C12.5187 1.0498 13.0987 1.54533 13.2246 2.22168C14.3472 2.49033 15.4246 3.06329 16.2305 3.86914C17.3706 5.00922 18.0498 6.60008 18.0498 8.2998C18.0498 11.4385 18.7255 13.574 19.3848 14.9043C19.7154 15.5713 20.0437 16.0389 20.2842 16.3311C20.4049 16.4776 20.5005 16.5773 20.5606 16.6338C20.5705 16.6431 20.5793 16.6503 20.586 16.6562C20.8042 16.7874 20.9502 17.0267 20.9502 17.2998C20.9502 17.7139 20.6144 18.0497 20.2002 18.0498H3.50004C3.18899 18.0498 2.90977 17.858 2.79887 17.5674C2.68856 17.2782 2.76777 16.9505 2.99711 16.7432L5.52641 9.2959C5.5417 8.97571 5.54985 8.64377 5.54985 8.2998C5.54985 6.70724 6.22508 5.01422 7.37016 3.86914C8.18438 3.05506 9.22863 2.47553 10.378 2.21094C10.5081 1.5402 11.085 1.04994 11.7998 1.0498ZM3.00102 16.7402L3.00883 16.7314C3.02169 16.719 3.04469 16.6974 3.07524 16.665C3.13646 16.6002 3.23053 16.4944 3.34672 16.3457C3.57895 16.0485 3.90021 15.5774 4.22563 14.9092C4.80351 13.7224 5.40175 11.8987 5.52641 9.2998L3.00102 16.7402ZM11.7998 3.5498C10.4998 3.54985 9.29056 4.07004 8.4307 4.92969C7.57578 5.78461 7.04985 7.09237 7.04985 8.2998C7.04985 11.6615 6.32488 14.0239 5.57426 15.5654C5.39045 15.9429 5.20546 16.2702 5.03031 16.5498H18.5938C18.414 16.2704 18.2257 15.9447 18.0401 15.5703C17.2745 14.0256 16.5498 11.661 16.5498 8.2998C16.5498 6.99953 16.0299 5.78961 15.17 4.92969C14.315 4.07482 13.0072 3.5498 11.7998 3.5498ZM5.52641 9.2959V9.2998L7.37016 3.86914L5.52641 9.2959Z" fill="currentColor"/>
</svg>
