<svg width="24" height="24" viewBox="0 0 24 24" fill="none" xmlns="http://www.w3.org/2000/svg">
<path fill-rule="evenodd" clip-rule="evenodd" d="M15.6006 2.0498C15.8847 2.0498 16.1444 2.21076 16.2715 2.46484L17.0645 4.0498H19.3008C19.715 4.0498 20.0508 4.38559 20.0508 4.7998V7.7998C20.0508 8.21402 19.715 8.5498 19.3008 8.5498H18.4512V19.2998C18.4512 20.8139 17.2152 22.0496 15.7012 22.0498H8.20117C6.68696 22.0498 5.45117 20.814 5.45117 19.2998V8.5498H4.80078C4.38657 8.5498 4.05078 8.21402 4.05078 7.7998V4.7998C4.05078 4.38559 4.38657 4.0498 4.80078 4.0498H7.03711L7.83008 2.46484C7.95712 2.21076 8.2169 2.0498 8.50098 2.0498H15.6006ZM10.2012 10.9502C9.78696 10.9502 9.45117 11.286 9.45117 11.7002V16.2998C9.45117 16.714 9.78696 17.0498 10.2012 17.0498C10.6152 17.0496 10.9512 16.7139 10.9512 16.2998V11.7002C10.9512 11.2861 10.6152 10.9504 10.2012 10.9502ZM13.8008 10.9502C13.3866 10.9502 13.0508 11.286 13.0508 11.7002V16.2998C13.0508 16.714 13.3866 17.0498 13.8008 17.0498C14.215 17.0498 14.5508 16.714 14.5508 16.2998V11.7002C14.5508 11.286 14.215 10.9502 13.8008 10.9502Z" fill="currentColor"/>
</svg>
