<svg width="24" height="24" viewBox="0 0 24 24" fill="none" xmlns="http://www.w3.org/2000/svg">
<path fill-rule="evenodd" clip-rule="evenodd" d="M13.2 2.0498C14.6891 2.0498 15.95 3.26139 15.95 4.7002V6.04883L19.2 6.0498C20.7142 6.0498 21.95 7.28559 21.95 8.7998V18.2998C21.95 19.814 20.7142 21.0498 19.2 21.0498H4.69995C3.18574 21.0498 1.94995 19.814 1.94995 18.2998V8.7998C1.94995 7.28559 3.18574 6.0498 4.69995 6.0498H7.94995V4.7002C7.94995 3.26139 9.21076 2.0498 10.7 2.0498H13.2ZM4.69995 7.5498C4.01416 7.5498 3.44995 8.11402 3.44995 8.7998V18.2998C3.44995 18.9856 4.01416 19.5498 4.69995 19.5498H6.05054V7.5498H4.69995ZM7.55054 7.5498V19.5498H16.45V7.5498H7.55054ZM17.95 19.5498H19.2C19.8857 19.5498 20.45 18.9856 20.45 18.2998V8.7998C20.45 8.11402 19.8857 7.5498 19.2 7.5498H17.95V19.5498ZM10.7 3.5498C9.98914 3.5498 9.44995 4.139 9.44995 4.7002V6.0498L14.45 6.04883V4.7002C14.45 4.139 13.9108 3.5498 13.2 3.5498H10.7Z" fill="currentColor"/>
</svg>
