<svg width="24" height="24" viewBox="0 0 24 24" fill="none" xmlns="http://www.w3.org/2000/svg">
<path d="M6.05054 6.0498V21.0498H4.69995C3.18574 21.0498 1.94995 19.814 1.94995 18.2998V8.7998C1.94995 7.28559 3.18574 6.0498 4.69995 6.0498H6.05054Z" fill="currentColor"/>
<path fill-rule="evenodd" clip-rule="evenodd" d="M13.2 2.0498C14.6891 2.0498 15.95 3.26139 15.95 4.7002V6.04883H16.45V21.0498H7.55054V6.04883H7.94995V4.7002C7.94995 3.26139 9.21076 2.0498 10.7 2.0498H13.2ZM10.7 3.5498C9.98914 3.5498 9.44995 4.139 9.44995 4.7002V6.0498L14.45 6.04883V4.7002C14.45 4.139 13.9108 3.5498 13.2 3.5498H10.7Z" fill="currentColor"/>
<path d="M19.2 6.0498C20.7142 6.0498 21.95 7.28559 21.95 8.7998V18.2998C21.95 19.814 20.7142 21.0498 19.2 21.0498H17.95V6.0498H19.2Z" fill="currentColor"/>
</svg>
