<svg width="24" height="24" viewBox="0 0 24 24" fill="none" xmlns="http://www.w3.org/2000/svg">
<path d="M18.2395 12.8299C18.6595 12.8299 18.9894 13.16 18.9895 13.5799V13.8104C19.1795 13.8604 19.37 13.9301 19.55 14.0301C20.25 14.3601 20.7901 14.96 21.05 15.7C21.16 16.01 21.22 16.3403 21.22 16.6902V19.45H21.2502L21.3264 19.4539C21.7014 19.493 22.0002 19.8158 22.0002 20.2C22.0002 20.6199 21.6601 20.9499 21.2502 20.95H19.3196C19.2396 21.5499 18.76 21.9997 18.1301 21.9998C17.5394 21.9998 17.0898 21.6043 16.97 21.0604L16.9504 20.95H15.2297C14.8099 20.9499 14.4797 20.6199 14.4797 20.2C14.4797 19.7801 14.8099 19.4501 15.2297 19.45H15.26V16.6902C15.26 15.3004 16.2098 14.1505 17.4895 13.8104V13.5799C17.4896 13.1601 17.8198 12.8301 18.2395 12.8299Z" fill="currentColor"/>
<path fill-rule="evenodd" clip-rule="evenodd" d="M16.3 1.95001C16.71 1.95001 17.05 2.29001 17.05 2.70001V3.95001H18.3L18.5813 3.96466C19.9689 4.10533 21.05 5.27499 21.05 6.70001V13.9002C20.73 13.5602 20.3502 13.2897 19.9202 13.0897C19.8502 12.8399 19.7199 12.6203 19.55 12.4305V9.95001H4.55005V18.2C4.55005 18.89 5.11005 19.45 5.80005 19.45H13.6497L13.5774 19.6258C13.514 19.8059 13.4797 19.9973 13.4797 20.2C13.4797 20.47 13.5404 20.72 13.6604 20.95H5.80005C4.28005 20.95 3.05005 19.72 3.05005 18.2V6.70001C3.05005 5.18001 4.28005 3.95001 5.80005 3.95001H6.95044V2.70001C6.95044 2.29001 7.29044 1.95001 7.70044 1.95001L7.77563 1.95392C8.15101 1.99259 8.45044 2.3155 8.45044 2.70001V3.95001H15.55V2.70001C15.55 2.29001 15.89 1.95001 16.3 1.95001ZM5.80005 5.45001C5.11005 5.45001 4.55005 6.01001 4.55005 6.70001V8.45001H19.55V6.70001C19.55 6.01001 18.99 5.45001 18.3 5.45001H17.05V6.29962C17.05 6.70962 16.71 7.04962 16.3 7.04962C15.89 7.04962 15.55 6.70962 15.55 6.29962V5.45001H8.45044V6.29962C8.45044 6.70949 8.11026 7.04941 7.70044 7.04962C7.29044 7.04962 6.95044 6.70962 6.95044 6.29962V5.45001H5.80005Z" fill="currentColor"/>
<path d="M8.26978 10.9998C8.67971 10.9998 9.01967 11.3399 9.01978 11.7498V13.2498C9.01978 13.6598 8.67978 13.9998 8.26978 13.9998H6.76978C6.34989 13.9997 6.01978 13.6597 6.01978 13.2498V11.7498C6.01987 11.34 6.34995 10.9999 6.76978 10.9998H8.26978Z" fill="currentColor"/>
</svg>
