<svg width="24" height="24" viewBox="0 0 24 24" fill="none" xmlns="http://www.w3.org/2000/svg">
<path fill-rule="evenodd" clip-rule="evenodd" d="M16.3 2.95001C16.7143 2.95001 17.05 3.2858 17.05 3.70001V4.95001H18.3C19.8143 4.95001 21.05 6.1858 21.05 7.70001V18.2C21.05 19.8388 19.7892 20.95 18.3 20.95H5.80005C4.28584 20.95 3.05005 19.7142 3.05005 18.2V7.70001C3.05005 6.1858 4.28584 4.95001 5.80005 4.95001H6.95044V3.70001C6.95044 3.2858 7.28623 2.95001 7.70044 2.95001L7.77661 2.95392C8.15487 2.99226 8.45044 3.31164 8.45044 3.70001V4.95001H15.55V3.70001C15.55 3.2858 15.8858 2.95001 16.3 2.95001ZM4.55005 18.2C4.55005 18.8858 5.11426 19.45 5.80005 19.45H18.3C19.0109 19.45 19.55 18.9612 19.55 18.2V10.95H4.55005V18.2ZM5.80005 6.45001C5.11426 6.45001 4.55005 7.01423 4.55005 7.70001V9.45001H19.55V7.70001C19.55 7.01423 18.9858 6.45001 18.3 6.45001H17.05V7.29962C17.05 7.71383 16.7143 8.04962 16.3 8.04962C15.8858 8.04962 15.55 7.71383 15.55 7.29962V6.45001H8.45044V7.29962C8.45044 7.71371 8.11448 8.04942 7.70044 8.04962C7.28623 8.04962 6.95044 7.71383 6.95044 7.29962V6.45001H5.80005Z" fill="currentColor"/>
</svg>
