<svg width="24" height="24" viewBox="0 0 24 24" fill="none" xmlns="http://www.w3.org/2000/svg">
<path fill-rule="evenodd" clip-rule="evenodd" d="M11.999 9.4502C13.9765 9.4502 15.5488 10.8504 15.5488 12.9004C15.5487 14.9319 13.8956 16.4502 11.999 16.4502C10.05 16.4502 8.54893 14.7787 8.54883 12.9004C8.54883 11.0047 9.96659 9.45022 11.999 9.4502ZM11.999 10.9502C10.8315 10.9502 10.0488 11.7961 10.0488 12.9004C10.0489 14.0219 10.9482 14.9502 11.999 14.9502C13.1023 14.9502 14.0487 14.0687 14.0488 12.9004C14.0488 11.7504 13.2215 10.9502 11.999 10.9502Z" fill="currentColor"/>
<path fill-rule="evenodd" clip-rule="evenodd" d="M15.0996 3.9502L15.208 3.95801C15.4588 3.99471 15.6772 4.15696 15.7832 4.39258L16.4844 5.9502H19.1992C20.838 5.9502 21.9492 7.21101 21.9492 8.7002V17.2998C21.9492 18.814 20.7134 20.0498 19.1992 20.0498H4.69922C3.18501 20.0498 1.94922 18.814 1.94922 17.2998V8.7002C1.94922 7.18598 3.18501 5.9502 4.69922 5.9502H7.51465L8.21484 4.39258C8.33596 4.12344 8.60428 3.9502 8.89941 3.9502H15.0996ZM9.38379 5.4502L8.68359 7.00781C8.56248 7.27695 8.29416 7.4502 7.99902 7.4502H4.69922C4.01343 7.4502 3.44922 8.01441 3.44922 8.7002V17.2998C3.44922 17.9856 4.01343 18.5498 4.69922 18.5498H19.1992C19.885 18.5498 20.4492 17.9856 20.4492 17.2998V8.7002C20.4492 7.98938 19.9604 7.4502 19.1992 7.4502H15.999C15.704 7.45012 15.4365 7.27689 15.3154 7.00781L14.6143 5.4502H9.38379Z" fill="currentColor"/>
</svg>
