<svg width="24" height="24" viewBox="0 0 24 24" fill="none" xmlns="http://www.w3.org/2000/svg">
<path fill-rule="evenodd" clip-rule="evenodd" d="M15.0996 3.9502L15.208 3.95801C15.4588 3.99471 15.6772 4.15696 15.7832 4.39258L16.4844 5.9502H19.1992C20.838 5.9502 21.9492 7.21101 21.9492 8.7002V17.2998C21.9492 18.814 20.7134 20.0498 19.1992 20.0498H4.69922C3.18501 20.0498 1.94922 18.814 1.94922 17.2998V8.7002C1.94922 7.18598 3.18501 5.9502 4.69922 5.9502H7.51465L8.21484 4.39258C8.33596 4.12344 8.60428 3.9502 8.89941 3.9502H15.0996ZM11.999 9.4502C9.96659 9.45022 8.54883 11.0047 8.54883 12.9004C8.54893 14.7787 10.05 16.4502 11.999 16.4502C13.8956 16.4502 15.5487 14.9319 15.5488 12.9004C15.5488 10.8504 13.9765 9.4502 11.999 9.4502Z" fill="currentColor"/>
</svg>
