<svg width="24" height="24" viewBox="0 0 24 24" fill="none" xmlns="http://www.w3.org/2000/svg">
<path fill-rule="evenodd" clip-rule="evenodd" d="M12 2C17.5228 2 22 6.47715 22 12C22 17.5228 17.5228 22 12 22C6.47715 22 2 17.5228 2 12C2 6.47715 6.47715 2 12 2ZM16.2832 10.209C15.9955 9.91123 15.5206 9.90295 15.2227 10.1904L12.0381 13.2666L9.08887 10.21C8.80131 9.91183 8.32645 9.90287 8.02832 10.1904C7.73023 10.478 7.72222 10.9529 8.00977 11.251L12 15.3887L16.2646 11.2695C16.5624 10.9818 16.5709 10.5069 16.2832 10.209Z" fill="currentColor"/>
</svg>
