<svg width="24" height="24" viewBox="0 0 24 24" fill="none" xmlns="http://www.w3.org/2000/svg">
<path d="M15.2227 10.1904C15.5206 9.90295 15.9955 9.91123 16.2832 10.209C16.5709 10.5069 16.5624 10.9818 16.2646 11.2695L12 15.3887L8.00977 11.251C7.72222 10.9529 7.73023 10.478 8.02832 10.1904C8.32645 9.90287 8.80131 9.91183 9.08887 10.21L12.0381 13.2666L15.2227 10.1904Z" fill="currentColor"/>
<path fill-rule="evenodd" clip-rule="evenodd" d="M12 2C17.5228 2 22 6.47715 22 12C22 17.5228 17.5228 22 12 22C6.47715 22 2 17.5228 2 12C2 6.47715 6.47715 2 12 2ZM12 3.5C7.30558 3.5 3.5 7.30558 3.5 12C3.5 16.6944 7.30558 20.5 12 20.5C16.6944 20.5 20.5 16.6944 20.5 12C20.5 7.30558 16.6944 3.5 12 3.5Z" fill="currentColor"/>
</svg>
