<svg width="24" height="24" viewBox="0 0 24 24" fill="none" xmlns="http://www.w3.org/2000/svg">
<path d="M8.5 19C9.2998 19.0003 10 19.7002 10 20.5C9.99989 21.2998 9.29974 21.9997 8.5 22C7.70006 22 7.00011 21.2999 7 20.5C7 19.7 7.7 19 8.5 19Z" fill="currentColor"/>
<path d="M17.5 19C18.2998 19.0003 19 19.7002 19 20.5C18.9999 21.2998 18.2997 21.9997 17.5 22C16.7001 22 16.0001 21.2999 16 20.5C16 19.7 16.7 19 17.5 19Z" fill="currentColor"/>
<path fill-rule="evenodd" clip-rule="evenodd" d="M4.59961 2.0498C5.50004 2.0498 6.15815 2.74199 6.32715 3.41797C6.33135 3.43476 6.33487 3.45171 6.33789 3.46875L6.79492 6.0498H21.3994L21.4814 6.05469C21.6704 6.07543 21.846 6.16722 21.9707 6.31348C22.1131 6.48064 22.1744 6.70215 22.1396 6.91895L20.8398 15.0186C20.8364 15.0397 20.8324 15.0612 20.8271 15.082C20.7142 15.5335 20.4659 16.121 19.9785 16.4795C19.4965 16.9289 18.8972 17.0498 18.3994 17.0498H9.2998C8.67437 17.0498 8.12056 16.7483 7.7832 16.5234C7.74228 16.4961 7.70374 16.4645 7.66895 16.4297C7.30159 16.0622 7.01359 15.6478 6.87207 15.082C6.86784 15.0651 6.86437 15.0475 6.86133 15.0303L4.86719 3.7666C4.85328 3.72731 4.81949 3.66868 4.76172 3.61914C4.7007 3.56684 4.64364 3.5498 4.59961 3.5498H2.59961C2.1854 3.5498 1.84961 3.21402 1.84961 2.7998C1.84961 2.38559 2.1854 2.0498 2.59961 2.0498H4.59961ZM7.06055 7.5498L8.33301 14.7402C8.38816 14.9456 8.48732 15.1157 8.67773 15.3164C8.91685 15.4663 9.13912 15.5498 9.2998 15.5498H18.3994C18.6838 15.5498 18.86 15.4789 18.9697 15.3691C19.0045 15.3344 19.043 15.3027 19.084 15.2754C19.1527 15.2292 19.2816 15.0568 19.3643 14.7461L20.5195 7.5498H7.06055Z" fill="currentColor"/>
</svg>
