<svg width="24" height="24" viewBox="0 0 24 24" fill="none" xmlns="http://www.w3.org/2000/svg">
<path d="M3.75 3C4.16421 3 4.5 3.33579 4.5 3.75V19.5H20.25C20.6642 19.5 21 19.8358 21 20.25C21 20.6642 20.6642 21 20.25 21H3.75C3.33579 21 3 20.6642 3 20.25V3.75C3 3.33579 3.33579 3 3.75 3Z" fill="currentColor"/>
<path d="M7.57715 5.5127C7.99136 5.5127 8.32715 5.84848 8.32715 6.2627V7.97266H8.55762L8.66211 7.98242C8.89921 8.03076 9.07804 8.24083 9.07812 8.49219V14.4521C9.07812 14.7394 8.84482 14.9726 8.55762 14.9727H8.32715V16.5957C8.32715 17.0099 7.99136 17.3457 7.57715 17.3457C7.16293 17.3457 6.82715 17.0099 6.82715 16.5957V14.9727H6.59766C6.31045 14.9726 6.07812 14.7394 6.07812 14.4521V8.49219C6.07822 8.20507 6.31051 7.97267 6.59766 7.97266H6.82715V6.2627C6.82715 5.84848 7.16293 5.5127 7.57715 5.5127Z" fill="currentColor"/>
<path d="M17.5771 4.8457C17.9913 4.8457 18.327 5.18159 18.3271 5.5957V7.30566H18.4277L18.5586 7.31934C18.8549 7.3799 19.0781 7.64186 19.0781 7.95605V14.3223C19.0781 14.6813 18.7868 14.9727 18.4277 14.9727H18.3271V16.5957C18.3271 17.0099 17.9914 17.3457 17.5771 17.3457C17.163 17.3456 16.8271 17.0098 16.8271 16.5957V14.9727H16.7275C16.3687 14.9724 16.0781 14.6811 16.0781 14.3223V7.95605C16.0781 7.59717 16.3687 7.30588 16.7275 7.30566H16.8271V5.5957C16.8273 5.18167 17.1631 4.84583 17.5771 4.8457Z" fill="currentColor"/>
<path d="M12.5781 3.04492C12.992 3.04519 13.328 3.38098 13.3281 3.79492V4.75781H13.4277L13.5586 4.77051C13.8546 4.8312 14.0771 5.09325 14.0771 5.40723V13.1074C14.0771 13.4663 13.7866 13.7576 13.4277 13.7578H13.3281V14.7949C13.3281 15.209 12.9921 15.5447 12.5781 15.5449C12.1639 15.5449 11.8281 15.2091 11.8281 14.7949V13.7578H11.7275C11.3685 13.7578 11.0772 13.4664 11.0771 13.1074V5.40723C11.0773 5.0483 11.3686 4.75781 11.7275 4.75781H11.8281V3.79492C11.8283 3.38082 12.164 3.04492 12.5781 3.04492Z" fill="currentColor"/>
</svg>
