<svg width="24" height="24" viewBox="0 0 24 24" fill="none" xmlns="http://www.w3.org/2000/svg">
<path d="M13.3008 10.4502C13.715 10.4502 14.0508 10.786 14.0508 11.2002C14.0508 11.6144 13.715 11.9502 13.3008 11.9502H7.80078C7.38657 11.9502 7.05078 11.6144 7.05078 11.2002C7.05078 10.786 7.38657 10.4502 7.80078 10.4502H13.3008Z" fill="currentColor"/>
<path d="M15.3008 6.9502C15.715 6.9502 16.0508 7.28598 16.0508 7.7002C16.0508 8.11441 15.715 8.4502 15.3008 8.4502H7.80078C7.38657 8.4502 7.05078 8.11441 7.05078 7.7002C7.05078 7.28598 7.38657 6.9502 7.80078 6.9502H15.3008Z" fill="currentColor"/>
<path fill-rule="evenodd" clip-rule="evenodd" d="M18.3008 2.9502L18.5811 2.96484C19.9645 3.10611 21.0508 4.28058 21.0508 5.7002V15.2002C21.0508 16.839 19.79 17.9502 18.3008 17.9502H7.29785L4.31348 20.7471C4.09547 20.9514 3.77716 21.0073 3.50293 20.8887C3.22862 20.7698 3.05078 20.4991 3.05078 20.2002V5.7002C3.05078 4.18598 4.28657 2.9502 5.80078 2.9502H18.3008ZM5.80078 4.4502C5.11499 4.4502 4.55078 5.01441 4.55078 5.7002V18.4688L6.48828 16.6533C6.62728 16.5231 6.81048 16.4502 7.00098 16.4502H18.3008C19.0116 16.4502 19.5508 15.9614 19.5508 15.2002V5.7002C19.5508 5.01441 18.9866 4.4502 18.3008 4.4502H5.80078Z" fill="currentColor"/>
</svg>
