<svg width="24" height="24" viewBox="0 0 24 24" fill="none" xmlns="http://www.w3.org/2000/svg">
<path fill-rule="evenodd" clip-rule="evenodd" d="M19.2505 4C20.7693 4 22.0005 5.23122 22.0005 6.75V16.25C22.0005 17.7688 20.7693 19 19.2505 19H11.7583L7.66553 21.8643C7.43642 22.0246 7.13621 22.0442 6.88818 21.915C6.6404 21.7858 6.48486 21.5295 6.48486 21.25V19H4.75049C3.2317 19 2.00049 17.7688 2.00049 16.25V6.75C2.00049 5.23122 3.23171 4 4.75049 4H19.2505ZM16.1431 11.1152C15.7589 10.9605 15.3213 11.147 15.1665 11.5312C14.9216 12.139 14.4934 12.6555 13.9409 13.0078C13.3923 13.3577 12.6749 13.5391 12.0425 13.5391C11.453 13.539 10.7031 13.3561 10.1577 13.0088C9.60688 12.658 9.17879 12.1441 8.93311 11.5391C8.77731 11.1554 8.34027 10.9703 7.95654 11.126C7.57276 11.2818 7.38763 11.7197 7.54346 12.1035C7.90632 12.9971 8.53859 13.7554 9.35205 14.2734C10.1709 14.7949 11.2089 15.039 12.0425 15.0391C12.9223 15.0391 13.9275 14.7954 14.7476 14.2725C15.5635 13.752 16.1965 12.9895 16.5581 12.0918C16.7128 11.7077 16.5271 11.2701 16.1431 11.1152Z" fill="currentColor"/>
</svg>
