<svg width="24" height="24" viewBox="0 0 24 24" fill="none" xmlns="http://www.w3.org/2000/svg">
<path fill-rule="evenodd" clip-rule="evenodd" d="M18.3008 2.9502L18.5811 2.96484C19.9645 3.10611 21.0508 4.28058 21.0508 5.7002V15.2002C21.0508 16.839 19.79 17.9502 18.3008 17.9502H7.29785L4.31348 20.7471C4.09547 20.9514 3.77716 21.0073 3.50293 20.8887C3.22862 20.7698 3.05078 20.4991 3.05078 20.2002V5.7002C3.05078 4.18598 4.28657 2.9502 5.80078 2.9502H18.3008ZM7.80078 10.4502C7.38657 10.4502 7.05078 10.786 7.05078 11.2002C7.05078 11.6144 7.38657 11.9502 7.80078 11.9502H13.3008C13.715 11.9502 14.0508 11.6144 14.0508 11.2002C14.0508 10.786 13.715 10.4502 13.3008 10.4502H7.80078ZM7.80078 6.9502C7.38657 6.9502 7.05078 7.28598 7.05078 7.7002C7.05078 8.11441 7.38657 8.4502 7.80078 8.4502H15.3008C15.715 8.4502 16.0508 8.11441 16.0508 7.7002C16.0508 7.28598 15.715 6.9502 15.3008 6.9502H7.80078Z" fill="currentColor"/>
</svg>
