<svg width="24" height="24" viewBox="0 0 24 24" fill="none" xmlns="http://www.w3.org/2000/svg">
<path d="M15.1665 11.5312C15.3213 11.147 15.7589 10.9605 16.1431 11.1152C16.5271 11.2701 16.7128 11.7077 16.5581 12.0918C16.1965 12.9895 15.5635 13.752 14.7476 14.2725C13.9275 14.7954 12.9223 15.0391 12.0425 15.0391C11.2089 15.039 10.1709 14.7949 9.35205 14.2734C8.53859 13.7554 7.90632 12.9971 7.54346 12.1035C7.38763 11.7197 7.57276 11.2818 7.95654 11.126C8.34027 10.9703 8.77731 11.1554 8.93311 11.5391C9.17879 12.1441 9.60688 12.658 10.1577 13.0088C10.7031 13.3561 11.453 13.539 12.0425 13.5391C12.6749 13.5391 13.3923 13.3577 13.9409 13.0078C14.4934 12.6555 14.9216 12.139 15.1665 11.5312Z" fill="currentColor"/>
<path fill-rule="evenodd" clip-rule="evenodd" d="M19.2505 4C20.7693 4 22.0005 5.23122 22.0005 6.75V16.25C22.0005 17.7688 20.7693 19 19.2505 19H11.7583L7.66553 21.8643C7.43642 22.0246 7.13621 22.0442 6.88818 21.915C6.6404 21.7858 6.48486 21.5295 6.48486 21.25V19H4.75049C3.2317 19 2.00049 17.7688 2.00049 16.25V6.75C2.00049 5.23122 3.23171 4 4.75049 4H19.2505ZM4.75049 5.5C4.06013 5.5 3.50049 6.05964 3.50049 6.75V16.25C3.50049 16.9404 4.06013 17.5 4.75049 17.5H7.23486L7.31201 17.5039C7.69006 17.5425 7.98486 17.8618 7.98486 18.25V19.8096L11.0913 17.6357C11.2174 17.5475 11.3681 17.5 11.522 17.5H19.2505C19.9408 17.5 20.5005 16.9404 20.5005 16.25V6.75C20.5005 6.05964 19.9408 5.5 19.2505 5.5H4.75049Z" fill="currentColor"/>
</svg>
