<svg width="24" height="24" viewBox="0 0 24 24" fill="none" xmlns="http://www.w3.org/2000/svg">
<path d="M14.8193 9.20996C15.1119 8.917 15.5867 8.91651 15.8799 9.20898C16.1731 9.50154 16.1734 9.97631 15.8809 10.2695L11.4111 14.75C11.2704 14.891 11.0791 14.9698 10.8799 14.9697C10.6805 14.9696 10.4893 14.8903 10.3486 14.749L8.27832 12.6689C7.98625 12.3753 7.98769 11.9005 8.28125 11.6084C8.57486 11.3163 9.04965 11.3178 9.3418 11.6113L10.8809 13.1572L14.8193 9.20996Z" fill="currentColor"/>
<path fill-rule="evenodd" clip-rule="evenodd" d="M12 2C17.5242 2 22 6.47579 22 12C22 17.5242 17.5242 22 12 22C6.47579 22 2 17.5242 2 12C2 6.47579 6.47579 2 12 2ZM12 3.5C7.30421 3.5 3.5 7.30421 3.5 12C3.5 16.6958 7.30421 20.5 12 20.5C16.6958 20.5 20.5 16.6958 20.5 12C20.5 7.30421 16.6958 3.5 12 3.5Z" fill="currentColor"/>
</svg>
