<svg width="24" height="24" viewBox="0 0 24 24" fill="none" xmlns="http://www.w3.org/2000/svg">
<path fill-rule="evenodd" clip-rule="evenodd" d="M18.25 3C19.7688 3 21 4.23122 21 5.75V18.25C21 19.7688 19.7688 21 18.25 21H5.75C4.23122 21 3 19.7688 3 18.25V5.75C3 4.23122 4.23122 3 5.75 3H18.25ZM16.3252 8.7002C16.0324 8.40747 15.5575 8.40754 15.2646 8.7002L10.3066 13.6582L8.78125 11.8271C8.51604 11.5092 8.04273 11.4663 7.72461 11.7314C7.40662 11.9967 7.3638 12.47 7.62891 12.7881L9.68066 15.249C9.81556 15.4109 10.0122 15.509 10.2227 15.5186C10.4331 15.528 10.6382 15.4488 10.7871 15.2998L16.3252 9.76074C16.6179 9.46783 16.618 8.99302 16.3252 8.7002Z" fill="currentColor"/>
</svg>
