<svg width="24" height="24" viewBox="0 0 24 24" fill="none" xmlns="http://www.w3.org/2000/svg">
<path d="M15.2646 8.7002C15.5575 8.40757 16.0323 8.4076 16.3252 8.7002C16.6179 8.99303 16.6179 9.46787 16.3252 9.76074L10.7871 15.2988C10.6382 15.4478 10.433 15.528 10.2227 15.5186C10.0122 15.509 9.81455 15.4109 9.67969 15.249L7.62891 12.7871L8.20508 12.3076L8.78125 11.8271L10.3057 13.6572L15.2646 8.7002Z" fill="currentColor"/>
<path d="M7.72461 11.7314C8.04272 11.4664 8.51605 11.5092 8.78125 11.8271L7.62891 12.7871C7.36427 12.469 7.40686 11.9965 7.72461 11.7314Z" fill="currentColor"/>
<path fill-rule="evenodd" clip-rule="evenodd" d="M18.25 3C19.7688 3 21 4.23122 21 5.75V18.25C21 19.7688 19.7688 21 18.25 21H5.75C4.23122 21 3 19.7688 3 18.25V5.75C3 4.23122 4.23122 3 5.75 3H18.25ZM5.75 4.5C5.05964 4.5 4.5 5.05964 4.5 5.75V18.25C4.5 18.9404 5.05964 19.5 5.75 19.5H18.25C18.9404 19.5 19.5 18.9404 19.5 18.25V5.75C19.5 5.05964 18.9404 4.5 18.25 4.5H5.75Z" fill="currentColor"/>
</svg>
