<svg width="24" height="24" viewBox="0 0 24 24" fill="none" xmlns="http://www.w3.org/2000/svg">
<path fill-rule="evenodd" clip-rule="evenodd" d="M12 2C17.5242 2 22 6.47579 22 12C22 17.5242 17.5242 22 12 22C6.47579 22 2 17.5242 2 12C2 6.47579 6.47579 2 12 2ZM15.8799 9.20898C15.5867 8.91651 15.1119 8.917 14.8193 9.20996L10.8809 13.1572L9.3418 11.6113C9.04965 11.3178 8.57486 11.3163 8.28125 11.6084C7.98769 11.9005 7.98625 12.3753 8.27832 12.6689L10.3486 14.749C10.4893 14.8903 10.6805 14.9696 10.8799 14.9697C11.0791 14.9698 11.2704 14.891 11.4111 14.75L15.8809 10.2695C16.1734 9.97631 16.1731 9.50154 15.8799 9.20898Z" fill="currentColor"/>
</svg>
