<svg width="24" height="24" viewBox="0 0 24 24" fill="none" xmlns="http://www.w3.org/2000/svg">
<path d="M19.6994 6.29203C19.9571 5.96787 20.4289 5.91432 20.7531 6.17191C21.0774 6.42958 21.1318 6.90133 20.8742 7.22562L12.8117 17.375C12.682 17.5381 12.4902 17.6402 12.2824 17.6563C12.0745 17.6723 11.8692 17.6004 11.716 17.459L10.675 16.4981C10.371 16.2171 10.3523 15.7427 10.633 15.4385C10.9141 15.1342 11.3893 15.1155 11.6936 15.3965L12.1398 15.8086L19.6994 6.29203Z" fill="currentColor"/>
<path d="M14.9728 6.29203C15.2305 5.96795 15.7023 5.91435 16.0266 6.17191C16.3507 6.42958 16.4052 6.90137 16.1477 7.22562L8.08515 17.375C7.9547 17.5391 7.76103 17.6411 7.55195 17.6563C7.34285 17.6714 7.13735 17.5977 6.98457 17.4541L3.23652 13.9327C2.93472 13.649 2.91966 13.1739 3.20332 12.8721C3.48699 12.5703 3.96204 12.5562 4.26386 12.8399L7.41718 15.8037L14.9728 6.29203Z" fill="currentColor"/>
</svg>
