<svg width="24" height="24" viewBox="0 0 24 24" fill="none" xmlns="http://www.w3.org/2000/svg">
<path d="M12.9995 7.65039L13.188 7.6543C14.122 7.69961 14.9448 8.084 15.6304 8.76953L18.73 11.8691C18.9787 12.1178 19.3501 12.6009 19.3501 13.2002C19.35 13.7012 19.1689 14.1909 18.73 14.6299C18.353 15.0069 17.8674 15.2246 17.3501 15.2246C16.8327 15.2246 16.3463 15.0069 15.9692 14.6299L15.0503 13.7109V20C15.0503 21.1142 14.1137 22.0498 12.9995 22.0498C12.5105 22.0497 12.0559 21.8698 11.6997 21.5732C11.3435 21.8696 10.8888 22.0498 10.3999 22.0498C9.28584 22.0497 8.35021 21.1141 8.3501 20V13.7109L7.43018 14.6299C7.05324 15.0068 6.56753 15.2245 6.05029 15.2246C5.53291 15.2246 5.04647 15.0069 4.66943 14.6299C4.27944 14.2397 4.14995 13.7156 4.1499 13.2002C4.1499 12.9396 4.1824 12.6873 4.27881 12.4463C4.37762 12.1993 4.5223 12.0163 4.66943 11.8691L7.77002 8.76953C8.50116 8.03851 9.3881 7.65039 10.3999 7.65039H12.9995Z" fill="currentColor"/>
<path d="M11.8999 1.9502C13.4141 1.9502 14.6499 3.18598 14.6499 4.7002C14.6499 6.21441 13.4141 7.4502 11.8999 7.4502C10.3857 7.4502 9.1499 6.21441 9.1499 4.7002C9.1499 3.18598 10.3857 1.9502 11.8999 1.9502Z" fill="currentColor"/>
</svg>
