<svg width="24" height="24" viewBox="0 0 24 24" fill="none" xmlns="http://www.w3.org/2000/svg">
<path fill-rule="evenodd" clip-rule="evenodd" d="M12.9995 7.65039L13.188 7.6543C14.122 7.69961 14.9448 8.084 15.6304 8.76953L18.73 11.8691C18.9787 12.1178 19.3501 12.6009 19.3501 13.2002C19.35 13.7012 19.1689 14.1909 18.73 14.6299C18.353 15.0069 17.8674 15.2246 17.3501 15.2246C16.8327 15.2246 16.3463 15.0069 15.9692 14.6299L15.0503 13.7109V20C15.0503 21.1142 14.1137 22.0498 12.9995 22.0498C12.5105 22.0497 12.0559 21.8698 11.6997 21.5732C11.3435 21.8696 10.8888 22.0498 10.3999 22.0498C9.28584 22.0497 8.35021 21.1141 8.3501 20V13.7109L7.43018 14.6299C7.05324 15.0068 6.56753 15.2245 6.05029 15.2246C5.53291 15.2246 5.04647 15.0069 4.66943 14.6299C4.27944 14.2397 4.14995 13.7156 4.1499 13.2002C4.1499 12.9396 4.1824 12.6873 4.27881 12.4463C4.37762 12.1993 4.5223 12.0163 4.66943 11.8691L7.77002 8.76953C8.50116 8.03851 9.3881 7.65039 10.3999 7.65039H12.9995ZM10.3999 9.15039C9.81192 9.15039 9.29932 9.36143 8.83057 9.83008L5.72998 12.9307C5.67986 12.9808 5.67293 12.9998 5.67139 13.0039C5.66749 13.0138 5.6499 13.0625 5.6499 13.2002C5.64995 13.4821 5.71937 13.5586 5.72998 13.5693C5.85295 13.6923 5.96767 13.7246 6.05029 13.7246C6.13288 13.7245 6.24686 13.6921 6.36963 13.5693L8.56982 11.3691C8.78432 11.1549 9.1071 11.091 9.38721 11.207C9.66731 11.3232 9.8501 11.5971 9.8501 11.9004V20C9.85022 20.2856 10.1143 20.5497 10.3999 20.5498C10.682 20.5498 10.9431 20.2923 10.9497 20.0107V15.7002C10.9497 15.2861 11.2856 14.9503 11.6997 14.9502C12.1139 14.9502 12.4497 15.286 12.4497 15.7002V20.0107C12.4561 20.2923 12.7174 20.5495 12.9995 20.5498C13.2853 20.5498 13.5503 20.2858 13.5503 20V11.9004C13.5503 11.597 13.7329 11.3231 14.0132 11.207C14.2934 11.0911 14.6161 11.1547 14.8306 11.3691L17.0298 13.5693C17.1528 13.6923 17.2675 13.7246 17.3501 13.7246C17.4327 13.7246 17.5466 13.6922 17.6694 13.5693C17.7592 13.4796 17.7996 13.4098 17.8198 13.3613C17.8393 13.3146 17.8498 13.2642 17.8501 13.2021C17.849 13.1966 17.8433 13.1695 17.8169 13.1211C17.7824 13.0579 17.7286 12.9899 17.6694 12.9307L14.5698 9.83008C14.101 9.36126 13.5876 9.15039 12.9995 9.15039H10.3999Z" fill="currentColor"/>
<path fill-rule="evenodd" clip-rule="evenodd" d="M11.8999 1.9502C13.4141 1.9502 14.6499 3.18598 14.6499 4.7002C14.6499 6.21441 13.4141 7.4502 11.8999 7.4502C10.3857 7.4502 9.1499 6.21441 9.1499 4.7002C9.1499 3.18598 10.3857 1.9502 11.8999 1.9502ZM11.8999 3.4502C11.2141 3.4502 10.6499 4.01441 10.6499 4.7002C10.6499 5.38598 11.2141 5.9502 11.8999 5.9502C12.5857 5.9502 13.1499 5.38598 13.1499 4.7002C13.1499 4.01441 12.5857 3.4502 11.8999 3.4502Z" fill="currentColor"/>
</svg>
