<svg width="24" height="24" viewBox="0 0 24 24" fill="none" xmlns="http://www.w3.org/2000/svg">
<path d="M12 4C16.4183 4 20 7.58172 20 12C20 16.4183 16.4183 20 12 20C7.58172 20 4 16.4183 4 12C4 7.58172 7.58172 4 12 4ZM12 5.71429C8.5285 5.71429 5.71429 8.5285 5.71429 12C5.71429 15.4715 8.5285 18.2857 12 18.2857C15.4715 18.2857 18.2857 15.4715 18.2857 12C18.2857 8.5285 15.4715 5.71429 12 5.71429Z" fill="currentColor"/>
<path d="M12 9C13.6569 9 15 10.3431 15 12C15 13.6569 13.6569 15 12 15C10.3431 15 9 13.6569 9 12C9 10.3431 10.3431 9 12 9ZM12 10.7143C11.2899 10.7143 10.7143 11.2899 10.7143 12C10.7143 12.7101 11.2899 13.2857 12 13.2857C12.7101 13.2857 13.2857 12.7101 13.2857 12C13.2857 11.2899 12.7101 10.7143 12 10.7143Z" fill="currentColor"/>
</svg>
