<svg width="24" height="24" viewBox="0 0 24 24" fill="none" xmlns="http://www.w3.org/2000/svg">
<path fill-rule="evenodd" clip-rule="evenodd" d="M12 2C17.5228 2 22 6.47715 22 12C22 17.5228 17.5228 22 12 22C6.47715 22 2 17.5228 2 12C2 6.47715 6.47715 2 12 2ZM6.47852 18.4629C7.96385 19.7331 9.89241 20.5 12 20.5C16.6944 20.5 20.5 16.6944 20.5 12C20.5 9.89241 19.7331 7.96385 18.4629 6.47852L6.47852 18.4629ZM12 3.5C7.30558 3.5 3.5 7.30558 3.5 12C3.5 14.0466 4.22285 15.9246 5.42773 17.3916L17.3916 5.42773C15.9246 4.22285 14.0466 3.5 12 3.5Z" fill="currentColor"/>
</svg>
