<svg width="24" height="24" viewBox="0 0 24 24" fill="none" xmlns="http://www.w3.org/2000/svg">
<path d="M12.001 7.25C12.4151 7.25013 12.751 7.58587 12.751 8V11.6895L14.5312 13.4697C14.8239 13.7626 14.824 14.2374 14.5312 14.5303C14.2384 14.8231 13.7636 14.823 13.4707 14.5303L11.4707 12.5303C11.3301 12.3897 11.251 12.1988 11.251 12V8C11.251 7.58579 11.5868 7.25 12.001 7.25Z" fill="currentColor"/>
<path fill-rule="evenodd" clip-rule="evenodd" d="M12.0508 2.0498C17.5736 2.0498 22.0508 6.52696 22.0508 12.0498C22.0508 17.5727 17.5736 22.0498 12.0508 22.0498C6.52793 22.0498 2.05078 17.5727 2.05078 12.0498C2.05078 6.52696 6.52793 2.04981 12.0508 2.0498ZM12.0508 3.5498C7.35636 3.54981 3.55078 7.35538 3.55078 12.0498C3.55078 16.7442 7.35636 20.5498 12.0508 20.5498C16.7452 20.5498 20.5508 16.7442 20.5508 12.0498C20.5508 7.35538 16.7452 3.5498 12.0508 3.5498Z" fill="currentColor"/>
</svg>
