<svg width="24" height="24" viewBox="0 0 24 24" fill="none" xmlns="http://www.w3.org/2000/svg">
<path fill-rule="evenodd" clip-rule="evenodd" d="M12.0508 2.0498C17.5736 2.0498 22.0508 6.52696 22.0508 12.0498C22.0508 17.5727 17.5736 22.0498 12.0508 22.0498C6.52793 22.0498 2.05078 17.5727 2.05078 12.0498C2.05078 6.52696 6.52793 2.04981 12.0508 2.0498ZM12.001 7.25C11.5868 7.25 11.251 7.58579 11.251 8V12C11.251 12.1988 11.3301 12.3897 11.4707 12.5303L13.4707 14.5303C13.7636 14.823 14.2384 14.8231 14.5312 14.5303C14.824 14.2374 14.8239 13.7626 14.5312 13.4697L12.751 11.6895V8C12.751 7.58587 12.4151 7.25013 12.001 7.25Z" fill="currentColor"/>
</svg>
