<svg width="24" height="24" viewBox="0 0 24 24" fill="none" xmlns="http://www.w3.org/2000/svg">
<path d="M12.514 1.96265C17.7873 2.22817 21.9505 6.55834 21.9505 11.9001C21.9504 17.4142 17.5143 21.8502 12.0003 21.8503C9.30178 21.8503 6.81057 20.771 5.06964 19.03C4.7769 18.7371 4.7768 18.2623 5.06964 17.9695C5.36249 17.6767 5.8373 17.6768 6.13019 17.9695C7.58926 19.4286 9.69883 20.3503 12.0003 20.3503C16.6859 20.3502 20.4504 16.5857 20.4505 11.9001C20.4505 7.21446 16.686 3.4501 12.0003 3.44995C8.38361 3.44995 5.28105 5.73118 4.07648 8.90503L6.45734 8.09058C6.84925 7.9565 7.27541 8.16546 7.40948 8.55737C7.54356 8.94929 7.3346 9.37545 6.94269 9.50952L3.14288 10.8093C2.95468 10.8737 2.74825 10.8607 2.56964 10.7732C2.39123 10.6856 2.25507 10.5306 2.19073 10.3425L0.89093 6.54272C0.756854 6.15081 0.965812 5.72465 1.35773 5.59058C1.74956 5.4567 2.17583 5.66556 2.30987 6.05737L2.90851 7.80835C4.46822 4.36367 7.962 1.94995 12.0003 1.94995L12.514 1.96265Z" fill="currentColor"/>
<path d="M12.0003 7.24976C12.4143 7.24991 12.7502 7.58575 12.7503 7.99976V11.6892L14.5306 13.4695C14.8234 13.7623 14.8232 14.2371 14.5306 14.53C14.2377 14.8229 13.7629 14.8229 13.47 14.53L11.47 12.53C11.3294 12.3894 11.2503 12.1987 11.2503 11.9998V7.99976C11.2504 7.58565 11.5862 7.24976 12.0003 7.24976Z" fill="currentColor"/>
</svg>
