<svg width="24" height="24" viewBox="0 0 24 24" fill="none" xmlns="http://www.w3.org/2000/svg">
<path d="M12.5134 1.96265C17.7869 2.22789 21.9499 6.55815 21.9499 11.9001C21.9498 17.4143 17.5138 21.8503 11.9997 21.8503C9.3014 21.8502 6.8108 20.7708 5.07 19.03C4.77729 18.7372 4.77729 18.2623 5.07 17.9695C5.36287 17.6769 5.83772 17.6768 6.13054 17.9695C7.5895 19.4284 9.69845 20.3502 11.9997 20.3503C16.6854 20.3503 20.4498 16.5858 20.4499 11.9001C20.4499 7.3607 16.9172 3.68578 12.4362 3.46069L11.9997 3.44995C9.10525 3.45014 6.54054 4.91136 5.01433 7.12183L7.03386 8.13843C7.62739 8.4372 7.56784 9.30342 6.93914 9.51831L3.14812 10.8132C2.75662 10.9468 2.33026 10.7377 2.19597 10.3464L0.866873 6.47437C0.649354 5.83883 1.31351 5.2596 1.91375 5.56128L3.66375 6.44214C5.44561 3.7426 8.5202 1.95014 11.9997 1.94995L12.5134 1.96265Z" fill="currentColor"/>
<path d="M11.9997 7.24976C12.4138 7.24976 12.7496 7.58565 12.7497 7.99976V11.6892L14.53 13.4695C14.8229 13.7624 14.8229 14.2371 14.53 14.53C14.2371 14.8228 13.7623 14.8229 13.4694 14.53L11.4694 12.53C11.329 12.3894 11.2497 12.1985 11.2497 11.9998V7.99976C11.2498 7.58584 11.5858 7.25005 11.9997 7.24976Z" fill="currentColor"/>
</svg>
