<svg width="24" height="24" viewBox="0 0 24 24" fill="none" xmlns="http://www.w3.org/2000/svg">
<path d="M12.501 12C13.9008 12.0001 15.0009 13.1002 15.001 14.5C15.001 14.7999 14.8008 14.9999 14.501 15H8.50098C8.20098 15 8.00098 14.8 8.00098 14.5C8.00107 13.1001 9.10104 12 10.501 12H12.501Z" fill="currentColor"/>
<path d="M11.501 8.2998C12.3008 8.29995 13.0008 9.00004 13.001 9.7998C13.001 10.5997 12.3009 11.2997 11.501 11.2998C10.701 11.2998 10.001 10.5998 10.001 9.7998C10.0012 8.99996 10.7011 8.2998 11.501 8.2998Z" fill="currentColor"/>
<path fill-rule="evenodd" clip-rule="evenodd" d="M16.3008 1.9502C17.815 1.9502 19.0508 3.18598 19.0508 4.7002V6H20.8008L20.8945 6.00488C21.3614 6.05103 21.8007 6.43761 21.8008 7C21.8008 7.5 21.4008 8 20.8008 8H19.0508V9.40039H21.8008L21.9873 9.41406C22.4179 9.47963 22.8006 9.77501 22.8008 10.2998C22.8008 10.8998 22.3008 11.2998 21.8008 11.2998H19.0508V12.7002H19.9014L19.9941 12.7051C20.4612 12.7511 20.9014 13.1376 20.9014 13.7002C20.9014 14.2001 20.5011 14.6999 19.9014 14.7002H19.0508V16H20.8008L20.9111 16.0059C21.4493 16.0627 21.8007 16.5314 21.8008 17C21.8008 17.5625 21.3614 17.9493 20.8945 17.9131L20.8008 17.9004H19.0508V19.2002C19.0508 20.7144 17.815 21.9502 16.3008 21.9502H6.80078C5.28657 21.9502 4.05078 20.7144 4.05078 19.2002V4.7002C4.05078 3.18598 5.28657 1.9502 6.80078 1.9502H16.3008ZM6.80078 3.4502C6.11499 3.4502 5.55078 4.01441 5.55078 4.7002V19.2002C5.55078 19.886 6.11499 20.4502 6.80078 20.4502H16.3008C16.9866 20.4502 17.5508 19.886 17.5508 19.2002V4.7002C17.5508 4.01441 16.9866 3.4502 16.3008 3.4502H6.80078Z" fill="currentColor"/>
</svg>
