<svg width="24" height="24" viewBox="0 0 24 24" fill="none" xmlns="http://www.w3.org/2000/svg">
<path fill-rule="evenodd" clip-rule="evenodd" d="M19.5 6.75C19.9142 6.75 20.25 7.08579 20.25 7.5V21C20.25 21.4142 19.9142 21.75 19.5 21.75H9C8.58579 21.75 8.25 21.4142 8.25 21V7.5C8.25 7.08579 8.58579 6.75 9 6.75H19.5ZM9.75 20.25H18.75V8.25H9.75V20.25Z" fill="currentColor"/>
<path d="M14.8584 2.25C15.2726 2.25 15.6084 2.58579 15.6084 3C15.6084 3.41421 15.2726 3.75 14.8584 3.75H5.25V16.415C5.25 16.8293 4.91421 17.165 4.5 17.165C4.08579 17.165 3.75 16.8293 3.75 16.415V3C3.75 2.58579 4.08579 2.25 4.5 2.25H14.8584Z" fill="currentColor"/>
</svg>
