<svg width="24" height="24" viewBox="0 0 24 24" fill="none" xmlns="http://www.w3.org/2000/svg">
<path d="M14.2637 16.0039L14.3408 16.0078C14.7189 16.0463 15.0137 16.3656 15.0137 16.7539C15.0135 17.168 14.6778 17.5039 14.2637 17.5039H12.9492C12.5352 17.5038 12.1994 17.1679 12.1992 16.7539C12.1992 16.3398 12.5351 16.004 12.9492 16.0039H14.2637Z" fill="currentColor"/>
<path d="M18.2988 16.0039C18.713 16.004 19.0488 16.3397 19.0488 16.7539C19.0486 17.1679 18.7129 17.5038 18.2988 17.5039H16.9844C16.5703 17.5039 16.2346 17.168 16.2344 16.7539C16.2344 16.3397 16.5702 16.0039 16.9844 16.0039H18.2988Z" fill="currentColor"/>
<path fill-rule="evenodd" clip-rule="evenodd" d="M19.5703 5L19.8164 5.01172C21.0309 5.1326 22 6.1396 22 7.39258V17.6084C21.9998 18.9451 20.8968 20 19.5703 20H4.43066C3.10542 20 2.00015 18.9457 2 17.6084V7.39258C2 6.05552 3.10496 5 4.43066 5H19.5703ZM3.5 17.6084C3.50015 18.0846 3.90081 18.5 4.43066 18.5H19.5703C20.1002 18.5 20.4998 18.0852 20.5 17.6084V10.5098H3.5V17.6084ZM4.43066 6.5C3.90109 6.5 3.5 6.91588 3.5 7.39258V9.00977H20.5V7.39258C20.5 6.91531 20.1 6.5 19.5703 6.5H4.43066Z" fill="currentColor"/>
</svg>
