<svg width="24" height="24" viewBox="0 0 24 24" fill="none" xmlns="http://www.w3.org/2000/svg">
<path fill-rule="evenodd" clip-rule="evenodd" d="M17.0321 5.25098C19.7028 5.36709 21.8493 7.46851 21.8495 10.0996C21.8495 11.3772 21.3839 12.5885 20.411 13.4492L13.8261 19.9346C13.6575 20.1004 13.4252 20.1737 13.2001 20.1436C13.0491 20.1638 12.8922 20.138 12.7518 20.0645L4.57215 15.7744C3.44627 15.264 2.62847 14.1734 2.28114 13.0156L2.27918 13.0059C1.58031 10.5597 2.84522 7.81968 5.47254 7.08496C6.7632 6.62589 8.03641 6.84942 8.96766 7.2959C9.2581 7.38293 9.49382 7.52818 9.68543 7.66504C9.78999 7.73972 9.8911 7.81907 9.98133 7.89062L10.0136 7.91602C10.095 7.9807 10.1704 8.03996 10.2499 8.09961C10.4493 8.24916 10.5611 8.48837 10.5487 8.7373L10.4735 10.248L12.035 11.0293C12.3494 11.1865 12.5128 11.5408 12.4276 11.8818L11.9139 13.9355L12.9003 15.25C12.9651 15.3364 13.0103 15.4364 13.0331 15.542L13.1249 15.9678L13.2138 15.4473L12.4569 14.1855C12.3389 13.9887 12.317 13.7488 12.3983 13.5342L13.3056 11.1445L12.2313 10.2861C11.9611 10.0699 11.874 9.69642 12.0204 9.38281L12.6932 7.94141C12.8567 7.37924 13.2503 6.88618 13.7069 6.53223C14.5665 5.69657 15.8465 5.25002 16.9999 5.25L17.0321 5.25098ZM8.36414 8.6709C7.70783 8.34283 6.82343 8.18943 5.95594 8.50488C5.93667 8.51188 5.91712 8.51804 5.89735 8.52344C4.14686 9.00084 3.22446 10.8459 3.71961 12.5889C3.97062 13.421 4.54422 14.1214 5.20496 14.415C5.21947 14.4215 5.23387 14.4282 5.24793 14.4355L12.0282 17.9912L11.6014 16.0186L10.4999 14.5498C10.3645 14.3692 10.3172 14.137 10.372 13.918L10.8261 12.1016L9.36414 11.3711C9.09807 11.2379 8.9362 10.9593 8.95106 10.6621L9.03114 9.05176C8.94849 8.98633 8.87989 8.93258 8.81434 8.88574C8.67474 8.78602 8.58814 8.74503 8.51844 8.72754C8.46535 8.71427 8.41309 8.69537 8.36414 8.6709ZM16.9843 6.75C16.1593 6.75437 15.2673 7.09311 14.7304 7.62988C14.7053 7.65495 14.6786 7.67892 14.6503 7.7002C14.346 7.92841 14.1749 8.19377 14.1278 8.38184C14.1162 8.42835 14.1002 8.47413 14.08 8.51758L13.6288 9.48242L14.6688 10.3145C14.9228 10.5178 15.0166 10.8618 14.9013 11.166L13.9306 13.7256L14.6434 14.9141C14.7356 15.0676 14.7692 15.2492 14.7391 15.4258L14.4306 17.2334L19.3739 12.3652C19.3843 12.3551 19.3952 12.3455 19.4061 12.3359C20.0214 11.7976 20.3495 11.0144 20.3495 10.0996C20.3493 8.33621 18.9049 6.84184 16.9843 6.75Z" fill="currentColor"/>
</svg>
