<svg width="24" height="24" viewBox="0 0 24 24" fill="none" xmlns="http://www.w3.org/2000/svg">
<path d="M17.0321 5.25098C19.7028 5.36709 21.8493 7.46851 21.8495 10.0996C21.8495 11.3772 21.3839 12.5885 20.411 13.4492L13.8261 19.9346C13.6575 20.1004 13.4252 20.1737 13.2001 20.1436C13.0491 20.1638 12.8922 20.138 12.7518 20.0645L4.57215 15.7744C3.44627 15.264 2.62847 14.1734 2.28114 13.0156L2.27918 13.0059C1.58031 10.5597 2.84522 7.81968 5.47254 7.08496C6.7632 6.62589 8.03641 6.84942 8.96766 7.2959C9.2581 7.38293 9.49382 7.52818 9.68543 7.66504C9.78999 7.73972 9.8911 7.81907 9.98133 7.89062L10.0136 7.91602C10.095 7.9807 10.1704 8.03996 10.2499 8.09961C10.4493 8.24916 10.5611 8.48837 10.5487 8.7373L10.4735 10.248L12.035 11.0293C12.3494 11.1865 12.5128 11.5408 12.4276 11.8818L11.9139 13.9355L12.9003 15.25C12.9651 15.3364 13.0103 15.4364 13.0331 15.542L13.1249 15.9678L13.2138 15.4473L12.4569 14.1855C12.3389 13.9887 12.317 13.7488 12.3983 13.5342L13.3056 11.1445L12.2313 10.2861C11.9611 10.0699 11.874 9.69642 12.0204 9.38281L12.6932 7.94141C12.8567 7.37924 13.2503 6.88618 13.7069 6.53223C14.5665 5.69657 15.8465 5.25002 16.9999 5.25L17.0321 5.25098Z" fill="currentColor"/>
</svg>
