<svg width="24" height="24" viewBox="0 0 24 24" fill="none" xmlns="http://www.w3.org/2000/svg">
<path fill-rule="evenodd" clip-rule="evenodd" d="M17.0081 2L17.2883 2.01465C18.6752 2.1553 19.7581 3.32601 19.7581 4.75V19.25C19.7581 20.7686 18.5266 21.9997 17.0081 22H6.99243C5.47365 22 4.24243 20.7688 4.24243 19.25V4.75C4.24243 3.23122 5.47365 2 6.99243 2H17.0081ZM7.87427 13.9688C7.46014 13.9688 7.1244 14.3046 7.12427 14.7188C7.12427 15.133 7.46005 15.4688 7.87427 15.4688H11.7981C12.2123 15.4688 12.5481 15.133 12.5481 14.7188C12.548 14.3305 12.2533 14.0111 11.8752 13.9727L11.7981 13.9688H7.87427ZM7.87427 10.4863C7.46014 10.4863 7.1244 10.8222 7.12427 11.2363C7.12427 11.6505 7.46005 11.9863 7.87427 11.9863H15.8743C16.2885 11.9863 16.6243 11.6505 16.6243 11.2363C16.6241 10.8222 16.2884 10.4863 15.8743 10.4863H7.87427ZM7.87427 7.00391C7.46014 7.00391 7.1244 7.3398 7.12427 7.75391C7.12427 8.16812 7.46005 8.50391 7.87427 8.50391H15.8743C16.2885 8.50391 16.6243 8.16812 16.6243 7.75391C16.6241 7.36584 16.3293 7.04641 15.9514 7.00781L15.8743 7.00391H7.87427Z" fill="currentColor"/>
</svg>
