<svg width="24" height="24" viewBox="0 0 24 24" fill="none" xmlns="http://www.w3.org/2000/svg">
<path fill-rule="evenodd" clip-rule="evenodd" d="M14.8 2.9502C15.0097 2.9502 15.2098 3.03821 15.3518 3.19238L18.8518 6.99219C18.9792 7.1306 19.05 7.31186 19.05 7.5V18.2002C19.05 19.7144 17.8143 20.9502 16.3 20.9502H7.80005C6.28584 20.9502 5.05005 19.7144 5.05005 18.2002V5.7002C5.05005 4.18598 6.28584 2.9502 7.80005 2.9502H14.8ZM8.80005 12.9502C8.38584 12.9502 8.05005 13.286 8.05005 13.7002C8.05005 14.1144 8.38584 14.4502 8.80005 14.4502H12.3C12.7143 14.4502 13.05 14.1144 13.05 13.7002C13.05 13.286 12.7143 12.9502 12.3 12.9502H8.80005ZM8.80005 9.9502C8.38584 9.9502 8.05005 10.286 8.05005 10.7002C8.05005 11.1144 8.38584 11.4502 8.80005 11.4502H14.3C14.7143 11.4502 15.05 11.1144 15.05 10.7002C15.05 10.286 14.7143 9.9502 14.3 9.9502H8.80005ZM15.55 6.75H16.5901L15.55 5.62109V6.75Z" fill="currentColor"/>
</svg>
