<svg width="24" height="24" viewBox="0 0 24 24" fill="none" xmlns="http://www.w3.org/2000/svg">
<path d="M20.2764 11.9536C20.6542 11.9922 20.949 12.3117 20.9492 12.6997V18.3003C20.9491 19.8144 19.7134 21.0503 18.1992 21.0503H5.69922C4.18507 21.0503 2.94933 19.8144 2.94922 18.3003V12.6997C2.94942 12.2857 3.28513 11.9497 3.69922 11.9497L3.77637 11.9536C4.15423 11.9922 4.44903 12.3117 4.44922 12.6997V18.3003C4.44933 18.986 5.0135 19.5503 5.69922 19.5503H18.1992C18.8849 19.5503 19.4491 18.986 19.4492 18.3003V12.6997C19.4494 12.2857 19.7851 11.9497 20.1992 11.9497L20.2764 11.9536Z" fill="currentColor"/>
<path d="M11.999 2.8501C12.4132 2.8501 12.749 3.18588 12.749 3.6001V13.0894L16.4688 9.36963C16.7616 9.0768 17.2364 9.07692 17.5293 9.36963C17.8222 9.66252 17.8222 10.1373 17.5293 10.4302L12.5293 15.4302C12.2364 15.7231 11.7616 15.7231 11.4688 15.4302L6.46875 10.4302C6.17605 10.1373 6.17593 9.66246 6.46875 9.36963C6.76158 9.0768 7.23639 9.07692 7.5293 9.36963L11.249 13.0894V3.6001C11.249 3.18595 11.5849 2.8502 11.999 2.8501Z" fill="currentColor"/>
</svg>
