<svg width="24" height="24" viewBox="0 0 24 24" fill="none" xmlns="http://www.w3.org/2000/svg">
<path d="M20.3271 12.0035C20.705 12.0421 20.9998 12.3616 21 12.7496V18.3502C20.9999 19.8643 19.7641 21.1002 18.25 21.1002H5.75C4.23586 21.1002 3.00012 19.8643 3 18.3502V12.7496C3.0002 12.3356 3.33591 11.9996 3.75 11.9996L3.82715 12.0035C4.20502 12.0421 4.49981 12.3616 4.5 12.7496V18.3502C4.50012 19.0359 5.06428 19.6002 5.75 19.6002H18.25C18.9357 19.6002 19.4999 19.0359 19.5 18.3502V12.7496C19.5002 12.3356 19.8359 11.9996 20.25 11.9996L20.3271 12.0035Z" fill="currentColor"/>
<path d="M12 2.89999C12.4142 2.89999 12.75 3.23578 12.75 3.64999V9.20078H16.9951L17.1074 9.20956C17.3642 9.24846 17.5859 9.41883 17.6875 9.66367C17.8036 9.9438 17.7397 10.2665 17.5254 10.481L12.5283 15.485C12.3877 15.6256 12.197 15.7046 11.998 15.7047C11.799 15.7046 11.6074 15.6258 11.4668 15.485L6.47461 10.481C6.26045 10.2664 6.19632 9.94372 6.3125 9.66367C6.42868 9.38372 6.70179 9.20085 7.00488 9.20078H11.25V3.64999C11.25 3.23578 11.5858 2.89999 12 2.89999Z" fill="currentColor"/>
</svg>
