<svg width="24" height="24" viewBox="0 0 24 24" fill="none" xmlns="http://www.w3.org/2000/svg">
<path fill-rule="evenodd" clip-rule="evenodd" d="M19.2598 4C19.9891 4 20.6884 4.28994 21.2041 4.80566C21.7198 5.32139 22.0098 6.02065 22.0098 6.75V17.2402C22.0097 17.9695 21.7198 18.6689 21.2041 19.1846C20.6884 19.7002 19.9891 19.9902 19.2598 19.9902H4.75977C4.03048 19.9902 3.33114 19.7002 2.81543 19.1846C2.29976 18.6689 2.00983 17.9695 2.00977 17.2402V6.75C2.00977 6.02065 2.2997 5.32139 2.81543 4.80566C3.33115 4.28994 4.03042 4 4.75977 4H19.2598ZM12.5195 14.3604C12.2282 14.6513 11.7573 14.653 11.4639 14.3643L3.52539 6.5498C3.51477 6.61544 3.50977 6.68266 3.50977 6.75V17.2402C3.50983 17.5717 3.64161 17.8897 3.87598 18.124C4.11039 18.3584 4.4283 18.4902 4.75977 18.4902H19.2598C19.5912 18.4902 19.9091 18.3584 20.1436 18.124C20.3779 17.8897 20.5097 17.5717 20.5098 17.2402V6.75C20.5098 6.69451 20.5063 6.63937 20.499 6.58496L20.4668 6.42383L12.5195 14.3604ZM4.75977 5.5C4.70832 5.5 4.65697 5.50353 4.60645 5.50977L11.9854 12.7734L19.2686 5.5H4.75977Z" fill="currentColor"/>
</svg>
