<svg width="24" height="24" viewBox="0 0 24 24" fill="none" xmlns="http://www.w3.org/2000/svg">
<path fill-rule="evenodd" clip-rule="evenodd" d="M14.9832 2.96045C16.4451 2.96059 17.8081 3.69327 18.5574 4.94189L21.3962 9.90967L21.4031 9.92236C22.125 11.2459 22.1433 12.8435 21.3894 14.1021L21.3884 14.105L18.4714 19.0327C17.8133 20.3224 16.4224 21.0394 14.9832 21.0396H8.91675C7.54324 21.0394 6.18608 20.2964 5.44312 19.0581L5.44116 19.0542L2.50952 14.1011C2.50507 14.0935 2.50102 14.0853 2.49683 14.0776C1.77488 12.7541 1.75653 11.1565 2.5105 9.89795L5.42847 4.96729C6.08658 3.67761 7.47755 2.96059 8.91675 2.96045H14.9832ZM11.95 14.73C11.5034 14.7301 11.1414 15.092 11.1414 15.5386C11.1415 15.985 11.5035 16.3471 11.95 16.3472C12.3965 16.3472 12.7584 15.9851 12.7585 15.5386C12.7585 15.0919 12.3966 14.73 11.95 14.73ZM11.8494 7.71143C11.4352 7.71143 11.0995 8.04732 11.0994 8.46143V13.0112C11.0996 13.4253 11.4353 13.7612 11.8494 13.7612C12.2632 13.761 12.5992 13.4251 12.5994 13.0112V8.46143C12.5992 8.04749 12.2633 7.71169 11.8494 7.71143Z" fill="currentColor"/>
</svg>
