<svg width="24" height="24" viewBox="0 0 24 24" fill="none" xmlns="http://www.w3.org/2000/svg">
<path d="M12 14.9003C12.1989 14.9003 12.3896 14.9794 12.5303 15.1201C12.6708 15.2607 12.75 15.4515 12.75 15.6503C12.7499 15.8491 12.6708 16.04 12.5303 16.1806C12.3896 16.3212 12.1988 16.4003 12 16.4003C11.8012 16.4003 11.6104 16.3212 11.4697 16.1806C11.3292 16.04 11.2501 15.8491 11.25 15.6503C11.25 15.4515 11.3292 15.2607 11.4697 15.1201C11.6104 14.9794 11.8011 14.9003 12 14.9003Z" fill="currentColor"/>
<path d="M12 7.59956C12.1988 7.59956 12.3896 7.67875 12.5303 7.81929C12.6708 7.95985 12.7499 8.15078 12.75 8.34956V12.9999C12.735 13.1892 12.6495 13.3665 12.5107 13.496C12.372 13.6254 12.1897 13.6982 12 13.7001C11.8019 13.6976 11.6127 13.6175 11.4727 13.4775C11.3326 13.3374 11.2526 13.1482 11.25 12.9501V8.34956C11.2501 8.15078 11.3292 7.95985 11.4697 7.81929C11.6104 7.67875 11.8012 7.59956 12 7.59956Z" fill="currentColor"/>
<path fill-rule="evenodd" clip-rule="evenodd" d="M8.17285 2.76069C10.0001 2.00382 12.0114 1.80648 13.9512 2.19233C15.8909 2.57822 17.6728 3.53021 19.0713 4.92866C20.4697 6.32711 21.4217 8.10909 21.8076 10.0488C22.1935 11.9886 21.9961 13.9998 21.2393 15.8271C20.4824 17.6543 19.2001 19.2156 17.5557 20.3144C15.9112 21.4132 13.9778 22 12 22C10.6868 22 9.38611 21.7418 8.17285 21.2392C6.95964 20.7367 5.85727 19.9998 4.92871 19.0712C3.05335 17.1959 2 14.6521 2 11.9999C2 10.0221 2.58673 8.08878 3.68555 6.44429C4.78434 4.79987 6.34567 3.51756 8.17285 2.76069ZM13.6582 3.66304C12.0094 3.33509 10.3002 3.50408 8.74707 4.14741C7.19411 4.79073 5.86655 5.87968 4.93262 7.27729C3.99863 8.67511 3.5 10.3188 3.5 11.9999C3.5 14.2543 4.3952 16.4166 5.98926 18.0107C6.77849 18.7999 7.71591 19.4253 8.74707 19.8525C9.77834 20.2797 10.8838 20.5 12 20.5C13.6811 20.5 15.3248 20.0013 16.7227 19.0673C18.1203 18.1334 19.2092 16.8058 19.8525 15.2529C20.4959 13.6997 20.6649 11.9906 20.3369 10.3417C20.0089 8.69291 19.1995 7.17795 18.0107 5.98921C16.822 4.80046 15.307 3.99101 13.6582 3.66304Z" fill="currentColor"/>
</svg>
