<svg width="24" height="24" viewBox="0 0 24 24" fill="none" xmlns="http://www.w3.org/2000/svg">
<path fill-rule="evenodd" clip-rule="evenodd" d="M8.17285 2.76069C10.0001 2.00382 12.0114 1.80648 13.9512 2.19233C15.8909 2.57822 17.6728 3.53021 19.0713 4.92866C20.4697 6.32711 21.4217 8.10909 21.8076 10.0488C22.1935 11.9886 21.9961 13.9998 21.2393 15.8271C20.4824 17.6543 19.2001 19.2156 17.5557 20.3144C15.9112 21.4132 13.9778 22 12 22C10.6868 22 9.38611 21.7418 8.17285 21.2392C6.95964 20.7367 5.85727 19.9998 4.92871 19.0712C3.05335 17.1959 2 14.6521 2 11.9999C2 10.0221 2.58673 8.08878 3.68555 6.44429C4.78434 4.79987 6.34567 3.51756 8.17285 2.76069ZM12 14.9003C11.8011 14.9003 11.6104 14.9794 11.4697 15.1201C11.3292 15.2607 11.25 15.4515 11.25 15.6503C11.2501 15.8491 11.3292 16.04 11.4697 16.1806C11.6104 16.3212 11.8012 16.4003 12 16.4003C12.1988 16.4003 12.3896 16.3212 12.5303 16.1806C12.6708 16.04 12.7499 15.8491 12.75 15.6503C12.75 15.4515 12.6708 15.2607 12.5303 15.1201C12.3896 14.9794 12.1989 14.9003 12 14.9003ZM12 7.59956C11.8012 7.59956 11.6104 7.67875 11.4697 7.81929C11.3292 7.95985 11.2501 8.15078 11.25 8.34956V12.9501C11.2526 13.1482 11.3326 13.3374 11.4727 13.4775C11.6127 13.6175 11.8019 13.6976 12 13.7001C12.1897 13.6982 12.372 13.6254 12.5107 13.496C12.6495 13.3665 12.735 13.1892 12.75 12.9999V8.34956C12.7499 8.15078 12.6708 7.95985 12.5303 7.81929C12.3896 7.67875 12.1988 7.59956 12 7.59956Z" fill="currentColor"/>
</svg>
