<svg width="24" height="24" viewBox="0 0 24 24" fill="none" xmlns="http://www.w3.org/2000/svg">
<path fill-rule="evenodd" clip-rule="evenodd" d="M11.9999 8.47949C13.9328 8.47949 15.4998 10.0466 15.4999 11.9795C15.4999 13.9125 13.9329 15.4795 11.9999 15.4795C10.0669 15.4795 8.49993 13.9125 8.49993 11.9795C8.50011 10.0466 10.067 8.47949 11.9999 8.47949ZM11.9999 9.97949C10.8955 9.97949 10.0001 10.8751 9.99993 11.9795C9.99993 13.0841 10.8954 13.9795 11.9999 13.9795C13.1045 13.9795 13.9999 13.0841 13.9999 11.9795C13.9998 10.8751 13.1044 9.97949 11.9999 9.97949Z" fill="currentColor"/>
<path fill-rule="evenodd" clip-rule="evenodd" d="M12.0009 6.03027C13.9933 6.01506 15.955 6.52176 17.6904 7.50098C19.4279 8.48149 20.8783 9.90088 21.8954 11.6172C22.0345 11.8519 22.0344 12.1436 21.8964 12.3789C20.8841 14.1042 19.4385 15.5353 17.7021 16.5283C15.9662 17.521 14.0006 18.0411 12.0009 18.0391L11.9999 17.29L11.999 18.0391C9.99894 18.0431 8.033 17.5232 6.29681 16.5303C4.55985 15.5369 3.11325 14.1058 2.10247 12.3789C1.96499 12.144 1.96605 11.8525 2.10443 11.6182C3.11925 9.89953 4.56838 8.47802 6.30657 7.49707C8.043 6.51716 10.0072 6.01174 12.0009 6.03027ZM11.9921 7.5293C10.2596 7.51223 8.55283 7.95217 7.04388 8.80371C5.66484 9.58198 4.49537 10.6799 3.63177 12.002C4.4931 13.3324 5.66142 14.4395 7.04095 15.2285C8.55011 16.0916 10.2595 16.5439 11.998 16.54H12.0009C13.7393 16.5421 15.4479 16.0886 16.957 15.2256C18.3361 14.4369 19.5046 13.331 20.3671 12.002C19.5017 10.6818 18.3316 9.58556 16.9531 8.80762C15.4442 7.95623 13.7382 7.51595 12.0058 7.53027L11.9921 7.5293Z" fill="currentColor"/>
</svg>
