<svg width="24" height="24" viewBox="0 0 24 24" fill="none" xmlns="http://www.w3.org/2000/svg">
<path fill-rule="evenodd" clip-rule="evenodd" d="M4.43923 4.40955C4.73208 4.1167 5.20687 4.11678 5.49977 4.40955L8.11696 7.02674C8.1971 7.08032 8.2676 7.1498 8.32301 7.23279L14.3435 13.2533C14.3435 13.2533 14.6145 13.5262 14.6668 13.5756L19.6297 18.5394C19.9225 18.8323 19.9225 19.3071 19.6297 19.6C19.3368 19.8927 18.862 19.8928 18.5691 19.6L16.2009 17.2318C14.8661 17.7653 13.4407 18.0398 12.0007 18.0394C10.0002 18.0438 8.03328 17.5237 6.29665 16.5306C4.55965 15.5373 3.11309 14.1052 2.10231 12.3783C1.96719 12.1471 1.96593 11.861 2.09841 11.6283C3.11309 9.8461 4.60775 8.39456 6.40212 7.43299L4.43923 5.4701C4.1465 5.17723 4.1465 4.70241 4.43923 4.40955ZM9.06423 10.0951C8.69726 10.6574 8.49877 11.3174 8.49977 11.9965C8.49254 12.6988 8.69649 13.3873 9.08571 13.9721C9.4761 14.5584 10.0351 15.0137 10.6882 15.2777C11.3413 15.5416 12.0588 15.6019 12.7468 15.4515C13.1688 15.3593 13.5677 15.1905 13.9246 14.9554L9.06423 10.0951Z" fill="currentColor"/>
<path d="M11.9949 6.02967C13.9893 6.01345 15.9532 6.52117 17.6902 7.50135C19.4277 8.48187 20.8781 9.90122 21.8953 11.6176C22.0315 11.8476 22.0347 12.1333 21.9041 12.3666C21.1358 13.739 20.0677 14.9204 18.78 15.8236C18.7599 15.8377 18.7395 15.8508 18.7185 15.8627L18.2078 16.1576L8.89333 6.56678C9.09047 6.48237 9.75745 6.27886 10.0525 6.20154C10.096 6.1864 10.142 6.17541 10.1892 6.16834C10.787 6.07892 11.3904 6.03226 11.9949 6.02967Z" fill="currentColor"/>
</svg>
