<svg width="24" height="24" viewBox="0 0 24 24" fill="none" xmlns="http://www.w3.org/2000/svg">
<path fill-rule="evenodd" clip-rule="evenodd" d="M12.001 6.03027C13.9934 6.01506 15.9551 6.52176 17.6904 7.50098C19.4279 8.48149 20.8784 9.90088 21.8955 11.6172C22.0346 11.8519 22.0345 12.1436 21.8965 12.3789C20.8842 14.1042 19.4386 15.5353 17.7021 16.5283C15.9661 17.5211 13.9999 18.0422 12 18.04C9.99964 18.0443 8.03334 17.5233 6.29687 16.5303C4.55991 15.5369 3.11331 14.1058 2.10253 12.3789C1.96505 12.144 1.96611 11.8525 2.10449 11.6182C3.11932 9.89953 4.56844 8.47802 6.30663 7.49707C8.04306 6.51716 10.0073 6.01174 12.001 6.03027ZM12 8.47949C10.0671 8.47949 8.50017 10.0466 8.49999 11.9795C8.49999 13.9125 10.067 15.4795 12 15.4795C13.933 15.4795 15.5 13.9125 15.5 11.9795C15.4998 10.0466 13.9329 8.47949 12 8.47949Z" fill="currentColor"/>
</svg>
