<svg width="24" height="24" viewBox="0 0 24 24" fill="none" xmlns="http://www.w3.org/2000/svg">
<path fill-rule="evenodd" clip-rule="evenodd" d="M4.43923 4.40955C4.73208 4.1167 5.20687 4.11678 5.49977 4.40955L8.11696 7.02674C8.1971 7.08032 8.2676 7.1498 8.32301 7.23279L14.3435 13.2533C14.4044 13.2847 14.4621 13.325 14.5144 13.3744C14.5778 13.4342 14.6289 13.5023 14.6668 13.5756L19.6297 18.5394C19.9225 18.8323 19.9225 19.3071 19.6297 19.6C19.3368 19.8927 18.862 19.8928 18.5691 19.6L16.2009 17.2318C14.8661 17.7653 13.4407 18.0398 12.0007 18.0394C10.0002 18.0438 8.03328 17.5237 6.29665 16.5306C4.55965 15.5373 3.11309 14.1052 2.10231 12.3783C1.96719 12.1471 1.96593 11.861 2.09841 11.6283C3.11309 9.8461 4.60775 8.39456 6.40212 7.43299L4.43923 5.4701C4.1465 5.17723 4.1465 4.70241 4.43923 4.40955ZM7.51833 8.5492C5.92223 9.30662 4.57321 10.502 3.6277 11.9955C4.48945 13.3288 5.65901 14.4387 7.04079 15.2289C8.54995 16.092 10.2593 16.5433 11.9978 16.5394H11.9998C13.0307 16.5398 14.0533 16.3777 15.03 16.0609L13.9246 14.9554C13.5677 15.1905 13.1688 15.3593 12.7468 15.4515C12.0588 15.6019 11.3413 15.5416 10.6882 15.2777C10.0351 15.0137 9.4761 14.5584 9.08571 13.9721C8.69649 13.3873 8.49254 12.6988 8.49977 11.9965C8.49877 11.3174 8.69726 10.6574 9.06423 10.0951L7.51833 8.5492ZM10.1668 11.1976C10.0567 11.4476 9.99892 11.7198 9.99977 11.9974V12.0092C9.99506 12.4115 10.1117 12.806 10.3347 13.141C10.5578 13.476 10.8766 13.7362 11.2498 13.8871C11.623 14.0379 12.0333 14.0726 12.4265 13.9867C12.564 13.9567 12.6971 13.9123 12.824 13.8549L10.1668 11.1976Z" fill="currentColor"/>
<path d="M11.9949 6.02967C13.9893 6.01345 15.9532 6.52117 17.6902 7.50135C19.4277 8.48187 20.8781 9.90122 21.8953 11.6176C22.0315 11.8476 22.0347 12.1333 21.9041 12.3666C21.1358 13.739 20.0677 14.9204 18.78 15.8236C18.441 16.0613 17.9739 15.9791 17.7361 15.64C17.4985 15.3011 17.58 14.834 17.9187 14.5961C18.9024 13.9061 19.7371 13.0263 20.3728 12.0101C19.507 10.6866 18.335 9.58748 16.9539 8.80799C15.5394 8.00975 13.9512 7.57237 12.3308 7.5326L12.0056 7.52967H12.0027C11.4699 7.53188 10.9379 7.5729 10.4109 7.65174C10.0013 7.71302 9.61972 7.43046 9.55837 7.02088C9.49708 6.61122 9.77957 6.22963 10.1892 6.16834C10.787 6.07892 11.3904 6.03226 11.9949 6.02967Z" fill="currentColor"/>
<path d="M11.9998 8.45935C12.4635 8.458 12.923 8.54922 13.3513 8.72693C13.7798 8.90473 14.1693 9.1661 14.4959 9.49549C14.8223 9.82481 15.0796 10.2161 15.2537 10.6459C15.4278 11.0757 15.5148 11.5357 15.5095 11.9994C15.5033 12.3926 15.4291 12.7821 15.2898 13.1498L13.9998 11.8099C13.9584 11.3489 13.758 10.9164 13.4334 10.5863C13.1088 10.2563 12.6798 10.0485 12.2195 9.99939L10.9197 8.64978C11.2662 8.52536 11.6316 8.46067 11.9998 8.45935Z" fill="currentColor"/>
</svg>
