<svg width="24" height="24" viewBox="0 0 24 24" fill="none" xmlns="http://www.w3.org/2000/svg">
<path fill-rule="evenodd" clip-rule="evenodd" d="M12.0002 2.0498C17.4954 2.04991 21.9504 6.50483 21.9504 12C21.9503 17.4951 17.4953 21.9501 12.0002 21.9502C6.50508 21.9502 2.05015 17.4951 2.05005 12C2.05005 6.50477 6.50501 2.0498 12.0002 2.0498ZM11.8997 13.5498C10.4082 13.5499 9.03997 14.4194 8.41724 15.7891C8.24589 16.166 8.4125 16.6107 8.78931 16.7822C9.16636 16.9536 9.61103 16.7872 9.78247 16.4102C10.1597 15.5802 10.9915 15.0499 11.8997 15.0498C12.8079 15.0498 13.6395 15.5802 14.0168 16.4102C14.1882 16.7872 14.633 16.9535 15.01 16.7822C15.3871 16.6108 15.5545 16.1661 15.3831 15.7891C14.7603 14.4192 13.3913 13.5498 11.8997 13.5498ZM8.80005 8.89941C8.24789 8.89941 7.80025 9.3473 7.80005 9.89941C7.80005 10.4517 8.24776 10.8994 8.80005 10.8994C9.35233 10.8994 9.80005 10.4517 9.80005 9.89941C9.79985 9.3473 9.35221 8.89941 8.80005 8.89941ZM14.8 8.89941C14.2479 8.89941 13.8002 9.3473 13.8 9.89941C13.8 10.4517 14.2478 10.8994 14.8 10.8994C15.3523 10.8994 15.8 10.4517 15.8 9.89941C15.7999 9.3473 15.3522 8.89941 14.8 8.89941Z" fill="currentColor"/>
</svg>
