<svg width="24" height="24" viewBox="0 0 24 24" fill="none" xmlns="http://www.w3.org/2000/svg">
<path d="M11.8997 13.5498C13.3913 13.5498 14.7603 14.4192 15.3831 15.7891C15.5545 16.1661 15.3871 16.6108 15.01 16.7822C14.633 16.9535 14.1882 16.7872 14.0168 16.4102C13.6395 15.5802 12.8079 15.0498 11.8997 15.0498C10.9915 15.0499 10.1597 15.5802 9.78247 16.4102C9.61103 16.7872 9.16636 16.9536 8.78931 16.7822C8.4125 16.6107 8.24589 16.166 8.41724 15.7891C9.03997 14.4194 10.4082 13.5499 11.8997 13.5498Z" fill="currentColor"/>
<path d="M8.80005 8.89941C9.35221 8.89941 9.79985 9.3473 9.80005 9.89941C9.80005 10.4517 9.35233 10.8994 8.80005 10.8994C8.24776 10.8994 7.80005 10.4517 7.80005 9.89941C7.80025 9.3473 8.24789 8.89941 8.80005 8.89941Z" fill="currentColor"/>
<path d="M14.8 8.89941C15.3522 8.89941 15.7999 9.3473 15.8 9.89941C15.8 10.4517 15.3523 10.8994 14.8 10.8994C14.2478 10.8994 13.8 10.4517 13.8 9.89941C13.8002 9.3473 14.2479 8.89941 14.8 8.89941Z" fill="currentColor"/>
<path fill-rule="evenodd" clip-rule="evenodd" d="M12.0002 2.0498C17.4954 2.04991 21.9504 6.50483 21.9504 12C21.9503 17.4951 17.4953 21.9501 12.0002 21.9502C6.50508 21.9502 2.05015 17.4951 2.05005 12C2.05005 6.50477 6.50501 2.0498 12.0002 2.0498ZM12.0002 3.5498C7.33344 3.5498 3.55005 7.33319 3.55005 12C3.55015 16.6667 7.3335 20.4502 12.0002 20.4502C16.6669 20.4501 20.4503 16.6666 20.4504 12C20.4504 7.33326 16.667 3.54991 12.0002 3.5498Z" fill="currentColor"/>
</svg>
