<svg width="24" height="24" viewBox="0 0 24 24" fill="none" xmlns="http://www.w3.org/2000/svg">
<path d="M7.89941 16.5498C9.15371 16.5499 10.217 17.398 10.5449 18.5498H20.2988L20.376 18.5537C20.7541 18.5922 21.0488 18.9115 21.0488 19.2998C21.0488 19.714 20.713 20.0498 20.2988 20.0498H10.5449C10.217 21.2016 9.15371 22.0497 7.89941 22.0498C6.72326 22.0498 5.71478 21.3042 5.32324 20.2617L5.25391 20.0498H3.69922C3.28501 20.0498 2.94922 19.714 2.94922 19.2998C2.94922 18.8856 3.28501 18.5498 3.69922 18.5498H5.25391C5.58191 17.398 6.64505 16.5498 7.89941 16.5498Z" fill="currentColor"/>
<path d="M15.7988 9.25C17.0532 9.25 18.1164 10.0981 18.4443 11.25H20.2988L20.376 11.2539C20.7541 11.2924 21.0488 11.6118 21.0488 12C21.0487 12.4141 20.713 12.75 20.2988 12.75H18.4443C18.1163 13.9018 17.0531 14.75 15.7988 14.75C14.6229 14.7499 13.6152 14.0042 13.2236 12.9619L13.1533 12.75H3.79883C3.38479 12.7499 3.04893 12.414 3.04883 12C3.04883 11.5859 3.38473 11.2501 3.79883 11.25H13.1533C13.4813 10.0982 14.5445 9.25011 15.7988 9.25Z" fill="currentColor"/>
<path d="M11.0996 2.0498C12.3538 2.05002 13.4172 2.89805 13.7451 4.0498H20.2988L20.376 4.05371C20.7541 4.0922 21.0488 4.41154 21.0488 4.7998C21.0488 5.21402 20.713 5.5498 20.2988 5.5498H13.7451C13.4172 6.70156 12.3538 7.54958 11.0996 7.5498C9.92348 7.5498 8.915 6.8042 8.52344 5.76172L8.45312 5.5498H3.79883C3.38473 5.54967 3.04883 5.21394 3.04883 4.7998C3.04883 4.38567 3.38473 4.04994 3.79883 4.0498H8.45312C8.78109 2.8979 9.8452 2.0498 11.0996 2.0498Z" fill="currentColor"/>
</svg>
