<svg width="24" height="24" viewBox="0 0 24 24" fill="none" xmlns="http://www.w3.org/2000/svg">
<path d="M13.0969 3.96104C13.3754 3.84418 13.6968 3.9057 13.9123 4.11729L20.7756 10.8556C20.9193 10.9967 21.0003 11.1903 21.0002 11.3917C21 11.593 20.9184 11.7859 20.7746 11.9269L13.9123 18.6524C13.6968 18.8637 13.3752 18.9254 13.0969 18.8087C12.8186 18.6918 12.6371 18.4191 12.6369 18.1173V14.5441C10.7211 14.346 9.01127 14.9655 7.6174 15.9347C6.06451 17.0145 4.9511 18.4986 4.44943 19.6476C4.30989 19.9669 3.96887 20.1483 3.62619 20.0851C3.28335 20.0217 3.02901 19.7302 3.0129 19.3819C2.76361 13.9863 6.13185 8.30197 12.6369 7.89561V4.65245C12.6369 4.35036 12.8183 4.07792 13.0969 3.96104Z" fill="currentColor"/>
</svg>
