<svg width="24" height="24" viewBox="0 0 24 24" fill="none" xmlns="http://www.w3.org/2000/svg">
<path fill-rule="evenodd" clip-rule="evenodd" d="M13.2004 2.04999C14.6895 2.05019 15.9504 3.26169 15.9504 4.70038V6.04901L19.3 6.04999C20.8143 6.04999 22.05 7.28577 22.05 8.79999V18.3C22.05 19.8142 20.8143 21.05 19.3 21.05H4.80005C3.28584 21.05 2.05005 19.8142 2.05005 18.3V8.79999C2.05005 7.28577 3.28584 6.04999 4.80005 6.04999H7.95044V4.70038C7.95044 3.26158 9.21125 2.04999 10.7004 2.04999H13.2004ZM3.55005 11.3498V18.3C3.55005 18.9858 4.11426 19.55 4.80005 19.55H19.3C19.9858 19.55 20.55 18.9858 20.55 18.3V11.3498H3.55005ZM4.80005 7.54999C4.11426 7.54999 3.55005 8.1142 3.55005 8.79999V9.84979H20.55V8.79999C20.55 8.1142 19.9858 7.54999 19.3 7.54999H4.80005ZM10.7004 3.54999C9.98963 3.54999 9.45044 4.13918 9.45044 4.70038V6.04999L14.4504 6.04901V4.70038C14.4504 4.13928 13.9111 3.55019 13.2004 3.54999H10.7004Z" fill="currentColor"/>
</svg>
