<svg width="24" height="24" viewBox="0 0 24 24" fill="none" xmlns="http://www.w3.org/2000/svg">
<path fill-rule="evenodd" clip-rule="evenodd" d="M12 2C17.5214 2 22 6.47524 22 12C22 17.5248 17.5214 22 12 22C6.47856 22 2 17.5248 2 12C2 6.47524 6.47856 2 12 2ZM17.7383 14.0166C17.1436 15.7091 15.8211 17.0585 14.1475 17.6904L14.7559 20.0303C17.3102 19.1547 19.3137 17.0957 20.1133 14.5088L17.7383 14.0166ZM4.10156 15.1201C5.00922 17.4143 6.88816 19.2189 9.23242 20.0264L9.81055 17.6748C8.28289 17.0849 7.05289 15.8953 6.40918 14.3945L4.10156 15.1201ZM12 7.43164C9.47388 7.43178 7.42874 9.47894 7.42871 12C7.42871 14.5211 9.47386 16.5682 12 16.5684C14.5261 16.5684 16.5713 14.5213 16.5713 12C16.5713 9.47868 14.5261 7.43164 12 7.43164ZM9.20801 3.98242C6.64182 4.87518 4.63651 6.96375 3.85938 9.58008L6.24219 10.041C6.81945 8.34393 8.12576 6.98456 9.78711 6.33496L9.20801 3.98242ZM14.1729 6.31934C15.7264 6.91397 16.974 8.12756 17.6133 9.65918L19.9316 8.96387C19.0387 6.6343 17.1476 4.7982 14.7812 3.97852L14.1729 6.31934Z" fill="currentColor"/>
</svg>
