<svg width="24" height="24" viewBox="0 0 24 24" fill="none" xmlns="http://www.w3.org/2000/svg">
<path fill-rule="evenodd" clip-rule="evenodd" d="M11.5486 1.90716C11.8191 1.69767 12.1972 1.69756 12.4676 1.90716L22.4598 9.65911C22.787 9.91303 22.8465 10.3846 22.5926 10.7118C22.3387 11.039 21.8671 11.0985 21.5399 10.8447L20.9432 10.3808V20.3076C20.9432 21.225 20.1995 21.9667 19.284 21.9667H14.8016C14.7755 21.9695 14.7482 21.9706 14.7215 21.9706H9.26739L9.18829 21.9667H4.72149C3.80735 21.9667 3.06231 21.2255 3.06231 20.3076V10.3779L2.4588 10.8447C2.13133 11.0981 1.66064 11.0383 1.40704 10.7109C1.15342 10.3834 1.21337 9.91275 1.54083 9.65911L11.5486 1.90716ZM9.17657 14.6074C9.08897 14.6074 9.01739 14.6789 9.01739 14.7665V20.4667H14.9715V14.7665C14.9715 14.7005 14.9319 14.6442 14.8748 14.6201L14.8133 14.6074H9.17657ZM10.8777 7.59759C10.3757 7.59759 9.96856 8.00469 9.96856 8.50677C9.96861 9.00881 10.3757 9.41595 10.8777 9.41595H13.1307C13.6326 9.41579 14.0398 9.00871 14.0399 8.50677C14.0399 8.03612 13.6818 7.64909 13.2234 7.60247L13.1307 7.59759H10.8777Z" fill="currentColor"/>
</svg>
