<svg width="24" height="24" viewBox="0 0 24 24" fill="none" xmlns="http://www.w3.org/2000/svg">
<path d="M13.1307 7.59759L13.2234 7.60247C13.6818 7.64909 14.0399 8.03612 14.0399 8.50677C14.0398 9.00871 13.6326 9.41579 13.1307 9.41595H10.8777C10.3757 9.41595 9.96861 9.00881 9.96856 8.50677C9.96856 8.00469 10.3757 7.59759 10.8777 7.59759H13.1307Z" fill="currentColor"/>
<path fill-rule="evenodd" clip-rule="evenodd" d="M11.5486 1.90716C11.8191 1.69767 12.1972 1.69756 12.4676 1.90716L22.4598 9.65911C22.787 9.91303 22.8465 10.3846 22.5926 10.7118C22.3387 11.039 21.8671 11.0985 21.5399 10.8447L20.9432 10.3808V20.3076C20.9432 21.225 20.1995 21.9667 19.284 21.9667H14.8016C14.7755 21.9695 14.7482 21.9706 14.7215 21.9706H9.26739L9.18829 21.9667H4.72149C3.80735 21.9667 3.06231 21.2255 3.06231 20.3076V10.3779L2.4588 10.8447C2.13133 11.0981 1.66064 11.0383 1.40704 10.7109C1.15342 10.3834 1.21337 9.91275 1.54083 9.65911L11.5486 1.90716ZM4.53985 9.23333C4.55448 9.29179 4.56231 9.35296 4.56231 9.41595V20.3076C4.56231 20.3951 4.63382 20.4667 4.72149 20.4667H8.51739V15.7665C8.51739 14.8505 9.26054 14.1074 10.1766 14.1074H13.8133C14.7305 14.1076 15.4715 14.8511 15.4715 15.7665V20.4667H19.284C19.3721 20.4667 19.4432 20.3956 19.4432 20.3076V9.41595C19.4432 9.35343 19.4512 9.29237 19.4656 9.23431L12.0076 3.44915L4.53985 9.23333ZM10.1766 15.6074C10.089 15.6074 10.0174 15.6789 10.0174 15.7665V20.4667H13.9715V15.7665C13.9715 15.7005 13.9319 15.6442 13.8748 15.6201L13.8133 15.6074H10.1766Z" fill="currentColor"/>
</svg>
