<svg width="24" height="24" viewBox="0 0 24 24" fill="none" xmlns="http://www.w3.org/2000/svg">
<path fill-rule="evenodd" clip-rule="evenodd" d="M11.9392 2.35005C12.2322 2.34585 12.5006 2.51316 12.6267 2.77779L15.1745 8.12447L20.8229 9.06001C21.0974 9.10564 21.3241 9.29983 21.4118 9.56392C21.4994 9.82804 21.4337 10.1191 21.2409 10.3198L17.1794 14.5454L18.2204 20.4702C18.2703 20.7545 18.1525 21.0426 17.9177 21.2104C17.6826 21.3782 17.3716 21.396 17.1188 21.2563L12.0505 18.4565L6.98212 21.2563C6.72931 21.396 6.41836 21.3782 6.18329 21.2104C5.94843 21.0426 5.83063 20.7545 5.88056 20.4702L6.91962 14.5561L2.67157 10.3315C2.47149 10.1326 2.39948 9.83833 2.48603 9.56978C2.57259 9.30143 2.80237 9.1038 3.08075 9.05904L8.91376 8.12447L11.2634 2.79732C11.3817 2.52907 11.646 2.35433 11.9392 2.35005ZM11.9997 16.852C12.1412 16.8425 12.2847 16.8731 12.4128 16.9438L16.4714 19.185L15.6364 14.4301C15.595 14.1945 15.6689 13.9532 15.8347 13.7807L19.1726 10.3071L14.5427 9.53951C14.3008 9.49935 14.0934 9.34385 13.988 9.12251L11.9997 4.94869V16.852Z" fill="currentColor"/>
</svg>
