<svg width="24" height="24" viewBox="0 0 24 24" fill="none" xmlns="http://www.w3.org/2000/svg">
<path d="M15.9004 7C16.5004 7 17.001 7.50059 17.001 8.10059C17.0008 8.70042 16.5003 9.2002 15.9004 9.2002C15.3007 9.19998 14.801 8.70029 14.8008 8.10059C14.8008 7.50072 15.3006 7.00022 15.9004 7Z" fill="currentColor"/>
<path fill-rule="evenodd" clip-rule="evenodd" d="M18.3008 2.9502C19.815 2.9502 21.0508 4.18598 21.0508 5.7002V18.2002C21.0508 19.7144 19.815 20.9502 18.3008 20.9502H5.80078C4.28657 20.9502 3.05078 19.7144 3.05078 18.2002V5.7002C3.05078 4.18598 4.28657 2.9502 5.80078 2.9502H18.3008ZM4.55078 15.1113V18.2002C4.55078 18.886 5.11499 19.4502 5.80078 19.4502H18.3008C18.9866 19.4502 19.5508 18.886 19.5508 18.2002V17.7109L15.9004 14.0605L13.4307 16.5303C13.2892 16.6717 13.0975 16.7509 12.8975 16.75C12.6973 16.749 12.5054 16.6683 12.3652 16.5254L7.7959 11.8662L4.55078 15.1113ZM5.80078 4.4502C5.11499 4.4502 4.55078 5.01441 4.55078 5.7002V12.9893L7.27051 10.2695C7.41203 10.1281 7.60461 10.0488 7.80469 10.0498C8.00476 10.0508 8.19584 10.1325 8.33594 10.2754L12.9062 14.9346L15.3701 12.4697C15.6629 12.1769 16.1377 12.1771 16.4307 12.4697L19.5508 15.5898V5.7002C19.5508 5.01441 18.9866 4.4502 18.3008 4.4502H5.80078Z" fill="currentColor"/>
</svg>
