<svg width="24" height="24" viewBox="0 0 24 24" fill="none" xmlns="http://www.w3.org/2000/svg">
<path d="M14.1951 14.744C14.3366 14.3548 14.7669 14.1534 15.1561 14.2947C15.5453 14.4363 15.7468 14.8674 15.6053 15.2567C15.0952 16.6591 13.7088 17.65 12.1004 17.6502C10.4919 17.6502 9.1057 16.6591 8.59552 15.2567C8.45397 14.8674 8.65449 14.4363 9.04376 14.2947C9.43298 14.1533 9.86317 14.3548 10.0047 14.744C10.2947 15.5412 11.1092 16.1502 12.1004 16.1502C13.0914 16.15 13.9051 15.5411 14.1951 14.744Z" fill="currentColor"/>
<path d="M9.29962 10.9002C9.74145 10.9002 10.1004 11.2582 10.1004 11.7C10.1004 12.1418 9.74145 12.4998 9.29962 12.4998C8.85797 12.4996 8.49982 12.1417 8.49982 11.7C8.49982 11.2583 8.85797 10.9004 9.29962 10.9002Z" fill="currentColor"/>
<path d="M14.7996 10.9002C15.2414 10.9002 15.6004 11.2582 15.6004 11.7C15.6004 12.1418 15.2414 12.4998 14.7996 12.4998C14.358 12.4996 13.9998 12.1417 13.9998 11.7C13.9998 11.2583 14.358 10.9004 14.7996 10.9002Z" fill="currentColor"/>
<path fill-rule="evenodd" clip-rule="evenodd" d="M15.1004 1.95001C15.5144 1.95022 15.8504 2.28593 15.8504 2.70001C15.8504 3.1141 15.5144 3.4498 15.1004 3.45001C13.8975 3.45001 12.9501 4.43104 12.95 5.49982C12.95 5.53472 12.9478 5.56969 12.9432 5.60333C16.5902 6.01561 19.4867 8.79022 20.1004 12.325C21.2522 12.6185 22.0496 13.733 22.0496 14.9002C22.0495 16.4397 20.7883 17.5495 19.4002 17.5496H19.3172C17.9379 20.2192 15.1772 22.0496 11.9998 22.0496C8.8112 22.0495 6.00441 20.2228 4.66193 17.5486C4.64189 17.5496 4.62137 17.5496 4.6004 17.5496C3.0608 17.5496 1.95013 16.2884 1.95001 14.9002C1.95001 13.7499 2.72463 12.6503 3.84943 12.3377C4.58959 8.63655 7.69584 5.81922 11.4529 5.56818C11.4509 5.54573 11.45 5.52279 11.45 5.49982C11.4501 3.56875 13.1034 1.95001 15.1004 1.95001ZM11.9998 7.04962C8.59133 7.04972 5.69699 9.65594 5.24396 13.0975C5.19486 13.4707 4.87621 13.7498 4.49982 13.7498C3.96547 13.7499 3.45001 14.2612 3.45001 14.9002C3.45013 15.505 3.92897 16.0377 4.57794 16.0496C4.58547 16.0473 4.59706 16.0442 4.6131 16.0389L4.62384 16.035C4.70456 16.0079 4.87728 15.95 5.1004 15.95C5.40514 15.9502 5.67971 16.1346 5.79474 16.4168C6.78113 18.838 9.20871 20.5495 11.9998 20.5496C14.6609 20.5496 16.9818 18.9707 18.0818 16.6639C18.1043 16.5839 18.137 16.5144 18.1727 16.4549C18.1886 16.4284 18.2042 16.4043 18.2195 16.3836C18.2804 16.2528 18.3791 16.1406 18.5057 16.0623C18.7267 15.9257 19.0027 15.913 19.2352 16.0291C19.2578 16.0404 19.2714 16.0455 19.2772 16.0477C19.2806 16.0479 19.2865 16.0483 19.2947 16.0486C19.3181 16.0495 19.3467 16.0496 19.4002 16.0496C20.0118 16.0495 20.5495 15.5603 20.5496 14.9002C20.5496 14.2611 20.0342 13.7498 19.4998 13.7498C19.1135 13.7497 18.7956 13.4573 18.7547 13.0818C18.7055 12.9988 18.6712 12.9051 18.657 12.8035C18.208 9.57023 15.4214 7.04962 11.9998 7.04962Z" fill="currentColor"/>
</svg>
