<svg width="24" height="24" viewBox="0 0 24 24" fill="none" xmlns="http://www.w3.org/2000/svg">
<path fill-rule="evenodd" clip-rule="evenodd" d="M15.1004 1.95001C15.5144 1.95022 15.8504 2.28593 15.8504 2.70001C15.8504 3.1141 15.5144 3.4498 15.1004 3.45001C13.8975 3.45001 12.9501 4.43104 12.95 5.49982C12.95 5.53472 12.9478 5.56969 12.9432 5.60333C16.5902 6.01561 19.4867 8.79022 20.1004 12.325C21.2522 12.6185 22.0496 13.733 22.0496 14.9002C22.0495 16.4397 20.7883 17.5495 19.4002 17.5496H19.3172C17.9379 20.2192 15.1772 22.0496 11.9998 22.0496C8.8112 22.0495 6.00441 20.2228 4.66193 17.5486C4.64189 17.5496 4.62137 17.5496 4.6004 17.5496C3.0608 17.5496 1.95013 16.2884 1.95001 14.9002C1.95001 13.7499 2.72463 12.6503 3.84943 12.3377C4.58959 8.63655 7.69584 5.81922 11.4529 5.56818C11.4509 5.54573 11.45 5.52279 11.45 5.49982C11.4501 3.56875 13.1034 1.95001 15.1004 1.95001ZM15.1561 14.2947C14.7669 14.1534 14.3366 14.3548 14.1951 14.744C13.9051 15.5411 13.0914 16.15 12.1004 16.1502C11.1092 16.1502 10.2947 15.5412 10.0047 14.744C9.86317 14.3548 9.43298 14.1533 9.04376 14.2947C8.65449 14.4363 8.45397 14.8674 8.59552 15.2567C9.1057 16.6591 10.4919 17.6502 12.1004 17.6502C13.7088 17.65 15.0952 16.6591 15.6053 15.2567C15.7468 14.8674 15.5453 14.4363 15.1561 14.2947ZM9.29962 10.9002C8.85797 10.9004 8.49982 11.2583 8.49982 11.7C8.49982 12.1417 8.85797 12.4996 9.29962 12.4998C9.74145 12.4998 10.1004 12.1418 10.1004 11.7C10.1004 11.2582 9.74145 10.9002 9.29962 10.9002ZM14.7996 10.9002C14.358 10.9004 13.9998 11.2583 13.9998 11.7C13.9998 12.1417 14.358 12.4996 14.7996 12.4998C15.2414 12.4998 15.6004 12.1418 15.6004 11.7C15.6004 11.2582 15.2414 10.9002 14.7996 10.9002Z" fill="currentColor"/>
</svg>
