<svg width="24" height="24" viewBox="0 0 24 24" fill="none" xmlns="http://www.w3.org/2000/svg">
<path fill-rule="evenodd" clip-rule="evenodd" d="M12.001 2.0498C17.4961 2.04991 21.9512 6.50483 21.9512 12C21.9511 17.4951 17.4961 21.9501 12.001 21.9502C6.50581 21.9502 2.05089 17.4951 2.05078 12C2.05078 6.50477 6.50574 2.0498 12.001 2.0498ZM12.001 9.9502C11.5868 9.9502 11.251 10.286 11.251 10.7002V15.2002C11.2512 15.6142 11.5869 15.9502 12.001 15.9502C12.4149 15.9501 12.7508 15.6141 12.751 15.2002V10.7002C12.751 10.2861 12.4151 9.95033 12.001 9.9502ZM12.001 6.89941C11.5591 6.89941 11.2012 7.25837 11.2012 7.7002C11.2014 8.14184 11.5593 8.5 12.001 8.5C12.4425 8.49984 12.8006 8.14174 12.8008 7.7002C12.8008 7.25847 12.4427 6.89957 12.001 6.89941Z" fill="currentColor"/>
</svg>
