<svg width="24" height="24" viewBox="0 0 24 24" fill="none" xmlns="http://www.w3.org/2000/svg">
<path d="M13 17.2148C13.5523 17.2148 14 17.6625 14 18.2148V20.2148C14 20.767 13.5523 21.2148 13 21.2148H11C10.4477 21.2148 10 20.767 10 20.2148V18.2148C10 17.6625 10.4477 17.2148 11 17.2148H13Z" fill="currentColor"/>
<path d="M7 11.2148C7.55228 11.2148 8 11.6625 8 12.2148V14.2148C7.99997 14.767 7.55226 15.2148 7 15.2148H5C4.44774 15.2148 4.00003 14.767 4 14.2148V12.2148C4 11.6625 4.44772 11.2148 5 11.2148H7Z" fill="currentColor"/>
<path d="M13 11.2148C13.5523 11.2148 14 11.6625 14 12.2148V14.2148C14 14.767 13.5523 15.2148 13 15.2148H11C10.4477 15.2148 10 14.767 10 14.2148V12.2148C10 11.6625 10.4477 11.2148 11 11.2148H13Z" fill="currentColor"/>
<path d="M19 11.2148L19.1025 11.2197C19.6067 11.271 20 11.6971 20 12.2148V14.2148C20 14.767 19.5523 15.2148 19 15.2148H17C16.4477 15.2148 16 14.767 16 14.2148V12.2148C16 11.6625 16.4477 11.2148 17 11.2148H19Z" fill="currentColor"/>
<path d="M18.2656 2.99994C19.7925 3.00015 20.9496 4.01804 20.9961 5.39349H19.5107C19.4356 4.77442 18.9907 4.34428 18.3877 4.29291L18.2656 4.28705C17.42 4.28705 16.9024 5.01106 16.9023 6.1933C16.9023 7.3798 17.4196 8.11224 18.2695 8.11224C18.9342 8.11217 19.4302 7.68231 19.5186 7.03021H21C20.9495 8.41853 19.8221 9.39916 18.2656 9.39935C16.448 9.39935 15.3281 8.17892 15.3281 6.1972C15.3283 4.21573 16.4439 2.99994 18.2656 2.99994Z" fill="currentColor"/>
<path fill-rule="evenodd" clip-rule="evenodd" d="M6.92578 3.164L8.96582 9.23529H7.2832L6.9043 7.90131H4.92285L4.53125 9.23529H3L5.03613 3.164H6.92578ZM5.88184 4.53119L5.21777 6.79095H6.61426L5.96191 4.53119H5.88184Z" fill="currentColor"/>
<path fill-rule="evenodd" clip-rule="evenodd" d="M12.5615 3.164L12.7832 3.17084C13.8601 3.23721 14.4883 3.79517 14.4883 4.67865C14.4883 5.33081 14.0002 5.88229 13.3564 5.97064V6.05072C14.1517 6.09279 14.7666 6.71112 14.7666 7.48529C14.7665 8.54966 13.9455 9.23529 12.6455 9.23529H9.73047V3.164H12.5615ZM11.2744 6.57611V8.14545H12.208C12.8475 8.14545 13.1972 7.86379 13.1973 7.35052C13.1973 6.85413 12.8395 6.57621 12.2002 6.57611H11.2744ZM11.2744 4.25385V5.63763H12.0908C12.6543 5.63752 12.9823 5.37714 12.9824 4.94818C12.9824 4.51483 12.6753 4.25386 12.1494 4.25385H11.2744Z" fill="currentColor"/>
</svg>
