<svg width="24" height="24" viewBox="0 0 24 24" fill="none" xmlns="http://www.w3.org/2000/svg">
<path d="M13 16.9996C13.5522 16.9996 13.9998 17.4475 14 17.9996V19.9996C14 20.5519 13.5523 20.9996 13 20.9996H11C10.4477 20.9996 10 20.5519 10 19.9996V17.9996C10.0002 17.4475 10.4478 16.9996 11 16.9996H13Z" fill="currentColor"/>
<path d="M7 10.9996C7.55216 10.9996 7.99979 11.4475 8 11.9996V13.9996C8 14.5519 7.55228 14.9996 7 14.9996H5C4.44772 14.9996 4 14.5519 4 13.9996V11.9996C4.00021 11.4475 4.44784 10.9996 5 10.9996H7Z" fill="currentColor"/>
<path d="M13 10.9996C13.5522 10.9996 13.9998 11.4475 14 11.9996V13.9996C14 14.5519 13.5523 14.9996 13 14.9996H11C10.4477 14.9996 10 14.5519 10 13.9996V11.9996C10.0002 11.4475 10.4478 10.9996 11 10.9996H13Z" fill="currentColor"/>
<path d="M19 10.9996L19.1025 11.0055C19.6065 11.0568 19.9998 11.4821 20 11.9996V13.9996C20 14.5519 19.5523 14.9996 19 14.9996H17C16.4477 14.9996 16 14.5519 16 13.9996V11.9996C16.0002 11.4475 16.4478 10.9996 17 10.9996H19Z" fill="currentColor"/>
<path d="M17.876 2.85898C18.3236 2.85898 18.7194 2.9347 19.0625 3.08652C19.4075 3.23832 19.6769 3.44736 19.8701 3.71347C20.0653 3.97764 20.1621 4.28064 20.1602 4.62167C20.1641 4.96087 20.0472 5.23971 19.8105 5.45663C19.576 5.67324 19.2785 5.80095 18.918 5.84042V5.88828C19.4066 5.94153 19.7741 6.09125 20.0205 6.33749C20.267 6.58197 20.3886 6.88972 20.3848 7.26035C20.3867 7.61532 20.2804 7.93056 20.0654 8.20468C19.8525 8.4787 19.5553 8.69346 19.1748 8.84921C18.7962 9.00496 18.3592 9.08261 17.8643 9.08261C17.3872 9.08258 16.9634 9.00106 16.5928 8.83749C16.224 8.67184 15.9337 8.44379 15.7227 8.1539C15.5117 7.86404 15.4053 7.53051 15.4033 7.1539H17.0596L17.0674 7.23886C17.0814 7.32167 17.1143 7.39787 17.166 7.46738C17.2369 7.55801 17.334 7.629 17.4561 7.68027C17.5782 7.7315 17.7184 7.75738 17.876 7.75742C18.0278 7.75742 18.162 7.73055 18.2783 7.67734C18.3947 7.62212 18.4857 7.54643 18.5508 7.4498C18.6158 7.35322 18.6475 7.2429 18.6455 7.11874C18.6475 6.99659 18.61 6.88815 18.5332 6.79355C18.4583 6.69898 18.3527 6.6251 18.2168 6.57187C18.1146 6.53189 18.0005 6.50664 17.875 6.49667L17.7461 6.49179H17.1309V5.35605H17.7461C17.9096 5.35605 18.0536 5.32911 18.1777 5.27597C18.3038 5.22279 18.4017 5.14877 18.4707 5.05429C18.5417 4.95963 18.5762 4.85039 18.5742 4.72812C18.5761 4.60995 18.5474 4.50526 18.4883 4.41464C18.4291 4.32411 18.3466 4.25295 18.2402 4.20175C18.1357 4.15049 18.014 4.1246 17.876 4.1246C17.7262 4.12465 17.5919 4.15148 17.4736 4.20468C17.3576 4.25784 17.2662 4.33196 17.1992 4.42636C17.1322 4.52102 17.0977 4.63026 17.0957 4.75253H15.5215C15.5235 4.38184 15.6251 4.05406 15.8262 3.77011C16.0293 3.48619 16.3072 3.26287 16.6602 3.10117C17.0131 2.9395 17.4186 2.85902 17.876 2.85898Z" fill="currentColor"/>
<path d="M7.20312 8.9996H5.55859V4.45663H5.52246L4.19727 5.2496V3.85312L5.68848 2.94199H7.20312V8.9996Z" fill="currentColor"/>
<path d="M11.665 2.86288C12.0754 2.87989 12.4364 2.95602 12.7471 3.09238C13.1039 3.24619 13.379 3.46376 13.5723 3.74374C13.7673 4.02361 13.8652 4.35175 13.8652 4.72812C13.8652 4.96078 13.8163 5.19274 13.7197 5.42343C13.6231 5.65219 13.4497 5.90611 13.1992 6.18417C12.9489 6.4621 12.593 6.79305 12.1318 7.17734L11.5635 7.65097V7.68613H13.9297V8.9996H9.28027V7.81699L11.54 5.94687C11.6898 5.82273 11.8184 5.70662 11.9248 5.59824C12.0331 5.48796 12.1157 5.37457 12.1729 5.25839C12.232 5.1421 12.2617 5.0126 12.2617 4.8707C12.2617 4.71498 12.2281 4.58169 12.1611 4.47128C12.0961 4.36085 12.005 4.27556 11.8887 4.2164C11.7724 4.15537 11.6381 4.1246 11.4863 4.1246C11.3346 4.12463 11.2003 4.1553 11.084 4.2164C10.9697 4.27751 10.8814 4.3677 10.8184 4.48593C10.7553 4.6042 10.7237 4.74808 10.7236 4.91757H9.16113C9.16117 4.49171 9.25699 4.12457 9.44824 3.81699C9.63952 3.50945 9.90982 3.27264 10.2588 3.10703C10.6078 2.94141 11.0171 2.85901 11.4863 2.85898L11.665 2.86288Z" fill="currentColor"/>
</svg>
