<svg width="24" height="24" viewBox="0 0 24 24" fill="none" xmlns="http://www.w3.org/2000/svg">
<path d="M13.6996 19.5496L13.7767 19.5535C14.1548 19.5919 14.4494 19.9115 14.4496 20.2996C14.4496 20.7138 14.1138 21.0496 13.6996 21.0496H10.1C9.68576 21.0496 9.34998 20.7138 9.34998 20.2996C9.35017 19.8856 9.68588 19.5496 10.1 19.5496H13.6996Z" fill="currentColor"/>
<path fill-rule="evenodd" clip-rule="evenodd" d="M11.8998 1.95001C15.8139 1.95001 18.9495 5.08569 18.9496 8.99982C18.9496 10.9107 18.1631 12.5856 17.0551 13.8045C17.0472 13.8132 17.0389 13.8216 17.0306 13.8299C16.1089 14.7516 15.5023 15.9051 15.2826 17.2264L15.2435 17.4998C15.2479 17.5326 15.2504 17.5664 15.2504 17.6004C15.2502 18.0143 14.9143 18.3502 14.5004 18.3504H9.39978C8.98579 18.3503 8.64999 18.0144 8.64978 17.6004C8.64978 16.9108 8.58196 16.4519 8.35388 15.9461C8.11717 15.4212 7.68862 14.8032 6.88025 13.8475C5.59032 12.6063 4.84998 10.8507 4.84998 8.99982C4.85008 5.08576 7.98572 1.95012 11.8998 1.95001ZM11.8998 3.45001C8.81415 3.45012 6.35008 5.91419 6.34998 8.99982C6.34998 10.4255 6.91014 11.7617 7.86365 12.7098C7.88675 12.728 7.90875 12.7481 7.93005 12.7693L8.03064 12.8699C8.07858 12.9179 8.11851 12.971 8.15076 13.0272C8.90774 13.9329 9.41165 14.6429 9.72107 15.3289C9.95658 15.8511 10.07 16.3382 10.1185 16.8504H13.8265C14.1146 15.2785 14.853 13.8916 15.9564 12.783C16.8422 11.8032 17.4496 10.4826 17.4496 8.99982C17.4495 5.91412 14.9855 3.45001 11.8998 3.45001Z" fill="currentColor"/>
</svg>
