<svg width="24" height="24" viewBox="0 0 24 24" fill="none" xmlns="http://www.w3.org/2000/svg">
<path d="M16.6914 3.45801C19.6742 3.6101 21.9511 6.08991 21.9512 9C21.9512 10.504 21.2677 12.0007 20.2158 12.9453L12.4307 20.7305C12.1378 21.0232 11.6629 21.0233 11.3701 20.7305L3.57031 12.9307C2.50143 11.8618 2.05078 10.4551 2.05078 9C2.05088 5.88595 4.48653 3.4503 7.60059 3.4502L7.88086 3.45801C9.27741 3.53498 10.6145 4.17358 11.4746 4.91797C11.6527 5.05522 11.8225 5.22721 11.9775 5.41113C12.1511 5.22339 12.3343 5.06625 12.5088 4.93262C13.5728 3.89085 14.9626 3.45028 16.4004 3.4502L16.6914 3.45801Z" fill="currentColor"/>
</svg>
