<svg width="24" height="24" viewBox="0 0 24 24" fill="none" xmlns="http://www.w3.org/2000/svg">
<path fill-rule="evenodd" clip-rule="evenodd" d="M16.6914 3.45801C19.6742 3.6101 21.9511 6.08991 21.9512 9C21.9512 10.504 21.2677 12.0007 20.2158 12.9453L12.4307 20.7305C12.1378 21.0232 11.6629 21.0233 11.3701 20.7305L3.57031 12.9307C2.50143 11.8618 2.05078 10.4551 2.05078 9C2.05088 5.88595 4.48653 3.4503 7.60059 3.4502L7.88086 3.45801C9.27741 3.53498 10.6145 4.17358 11.4746 4.91797C11.6527 5.05522 11.8225 5.22721 11.9775 5.41113C12.1511 5.22339 12.3343 5.06625 12.5088 4.93262C13.5728 3.89085 14.9626 3.45028 16.4004 3.4502L16.6914 3.45801ZM16.4004 4.9502C15.2557 4.95028 14.2623 5.29937 13.5312 6.03027C13.5062 6.05535 13.4795 6.07931 13.4512 6.10059C13.1137 6.35365 12.8446 6.63926 12.7119 7.03711C12.616 7.32489 12.3563 7.52635 12.0537 7.54785C11.7513 7.56926 11.4657 7.40691 11.3301 7.13574C11.1509 6.77734 10.8143 6.29834 10.5508 6.10059C10.5357 6.08929 10.521 6.07686 10.5068 6.06445C9.86566 5.50348 8.83271 5.01486 7.80566 4.95605L7.60059 4.9502C5.31496 4.9503 3.55088 6.71437 3.55078 9C3.55078 10.1449 3.89974 11.139 4.63086 11.8701L11.9004 19.1396L19.1709 11.8701C19.1812 11.8599 19.1913 11.8495 19.2021 11.8398C19.9405 11.1835 20.4512 10.0878 20.4512 9C20.4511 6.87262 18.7854 5.06673 16.6123 4.95605L16.4004 4.9502Z" fill="currentColor"/>
</svg>
