<svg width="24" height="24" viewBox="0 0 24 24" fill="none" xmlns="http://www.w3.org/2000/svg">
<path fill-rule="evenodd" clip-rule="evenodd" d="M12 3.25C15.1066 3.25 17.625 5.7684 17.625 8.875C17.625 11.7703 15.4374 14.1529 12.625 14.4639V20.125C12.625 20.4702 12.3452 20.75 12 20.75C11.6548 20.75 11.375 20.4702 11.375 20.125V14.4639C8.56263 14.1529 6.375 11.7703 6.375 8.875C6.375 5.7684 8.8934 3.25 12 3.25ZM11.7861 5.75586C10.8118 5.81318 10.145 6.26155 9.7041 6.83008C9.67256 6.87074 9.64254 6.91231 9.61328 6.9541C9.5582 7.03279 9.50721 7.11315 9.45996 7.19434C9.2242 7.59946 9.08187 8.02501 8.9873 8.36426C8.94941 8.50021 8.91891 8.62223 8.89355 8.72363C8.88313 8.7654 8.87678 8.80723 8.875 8.84863C8.86428 9.09759 9.00475 9.33077 9.22949 9.43848C9.26696 9.45643 9.30676 9.47098 9.34863 9.48145C9.3904 9.49187 9.43223 9.49822 9.47363 9.5C9.72259 9.51072 9.95577 9.37025 10.0635 9.14551C10.0814 9.10804 10.096 9.06824 10.1064 9.02637C10.1332 8.91948 10.1613 8.80712 10.1934 8.69238C10.2738 8.40505 10.3774 8.10227 10.5352 7.83008C10.5667 7.77564 10.6006 7.72252 10.6367 7.6709C10.6694 7.62427 10.7042 7.57897 10.7412 7.53516C10.9639 7.27174 11.2728 7.06686 11.748 7.01367C11.8273 7.0048 11.9111 7 12 7C12.0432 7 12.0853 6.99563 12.126 6.9873C12.3701 6.93735 12.5623 6.74508 12.6123 6.50098C12.6206 6.46029 12.625 6.41815 12.625 6.375C12.625 6.33185 12.6206 6.28971 12.6123 6.24902C12.5623 6.00492 12.3701 5.81265 12.126 5.7627C12.0853 5.75437 12.0432 5.75 12 5.75C11.9271 5.75 11.8558 5.75176 11.7861 5.75586Z" fill="currentColor"/>
</svg>
