<svg width="24" height="24" viewBox="0 0 24 24" fill="none" xmlns="http://www.w3.org/2000/svg">
<path d="M11.9998 9.06201C13.6565 9.06201 14.9995 10.3995 14.9998 12.0493C14.9998 13.6993 13.6566 15.0376 11.9998 15.0376C10.343 15.0375 8.99976 13.6992 8.99976 12.0493C8.99999 10.3996 10.3432 9.06214 11.9998 9.06201Z" fill="currentColor"/>
<path fill-rule="evenodd" clip-rule="evenodd" d="M11.9998 1.94189C12.414 1.94189 12.7498 2.27647 12.7498 2.68896V2.96924C17.1377 3.33543 20.6172 6.88566 20.9275 11.3062C20.9513 11.3039 20.9754 11.3032 20.9998 11.3032H21.2996C21.7136 11.3032 22.0493 11.637 22.0496 12.0493C22.0496 12.4618 21.7138 12.7964 21.2996 12.7964H20.9998C20.97 12.7964 20.9407 12.7949 20.9119 12.7915C20.5136 17.12 17.0722 20.5704 12.7498 20.9312V21.311C12.7498 21.7235 12.414 22.0581 11.9998 22.0581C11.5857 22.058 11.2498 21.7234 11.2498 21.311V20.9312C6.92748 20.5703 3.48692 17.1198 3.08862 12.7915C3.05956 12.7949 3.02974 12.7964 2.99976 12.7964H2.69995C2.28574 12.7964 1.94995 12.4618 1.94995 12.0493C1.95018 11.637 2.28588 11.3032 2.69995 11.3032H2.99976C3.02425 11.3032 3.0491 11.3039 3.073 11.3062C3.38328 6.8858 6.86202 3.3356 11.2498 2.96924V2.68896C11.2498 2.27655 11.5857 1.94203 11.9998 1.94189ZM11.9998 4.43115C7.89407 4.43131 4.5508 7.78902 4.55054 11.9497C4.55054 16.1106 7.89391 19.4691 11.9998 19.4692C16.1057 19.4692 19.45 16.1107 19.45 11.9497C19.4497 7.78892 16.1056 4.43115 11.9998 4.43115Z" fill="currentColor"/>
</svg>
