<svg width="24" height="24" viewBox="0 0 24 24" fill="none" xmlns="http://www.w3.org/2000/svg">
<path d="M12 5.75C12.3452 5.75 12.625 6.02982 12.625 6.375C12.625 6.72018 12.3452 7 12 7C11.2896 7 10.8983 7.29724 10.6367 7.6709C10.3478 8.08371 10.2135 8.59828 10.1064 9.02637C10.0227 9.36116 9.68343 9.56501 9.34863 9.48145C9.01384 9.39775 8.80999 9.05843 8.89355 8.72363C8.99484 8.31848 9.17315 7.58286 9.61328 6.9541C10.0809 6.28616 10.8355 5.75 12 5.75Z" fill="currentColor"/>
<path fill-rule="evenodd" clip-rule="evenodd" d="M12 3.25C15.1066 3.25 17.625 5.7684 17.625 8.875C17.625 11.7703 15.4374 14.1529 12.625 14.4639V20.125C12.625 20.4702 12.3452 20.75 12 20.75C11.6548 20.75 11.375 20.4702 11.375 20.125V14.4639C8.56263 14.1529 6.375 11.7703 6.375 8.875C6.375 5.7684 8.8934 3.25 12 3.25ZM12 4.5C9.58375 4.5 7.625 6.45875 7.625 8.875C7.625 11.2912 9.58375 13.25 12 13.25C14.4162 13.25 16.375 11.2912 16.375 8.875C16.375 6.45875 14.4162 4.5 12 4.5Z" fill="currentColor"/>
</svg>
