<svg width="24" height="24" viewBox="0 0 24 24" fill="none" xmlns="http://www.w3.org/2000/svg">
<path d="M13.8193 12.5229C14.1121 12.2303 14.587 12.2305 14.8799 12.5229C15.1728 12.8158 15.1728 13.2916 14.8799 13.5845L11.7803 16.6841C11.4945 16.9698 11.0337 16.9774 10.7383 16.7017L9.23828 15.3022C8.93547 15.0196 8.91952 14.5445 9.20215 14.2417C9.48481 13.9392 9.95903 13.9231 10.2617 14.2056L11.2324 15.1108L13.8193 12.5229Z" fill="currentColor"/>
<path fill-rule="evenodd" clip-rule="evenodd" d="M13.1504 2.00342L13.4307 2.01807C14.8139 2.15956 15.9004 3.33397 15.9004 4.75342V8.00342H17.25C18.7642 8.00342 20 9.2392 20 10.7534V18.2534C20 19.7676 18.7642 21.0034 17.25 21.0034H6.75C5.23579 21.0034 4 19.7676 4 18.2534V10.7534C4 9.2392 5.23579 8.00342 6.75 8.00342H7.90039V4.75342C7.90039 3.2392 9.13618 2.00342 10.6504 2.00342H13.1504ZM6.75 9.50342C6.06421 9.50342 5.5 10.0676 5.5 10.7534V18.2534C5.5 18.9392 6.06421 19.5034 6.75 19.5034H17.25C17.9358 19.5034 18.5 18.9392 18.5 18.2534V10.7534C18.5 10.0676 17.9358 9.50342 17.25 9.50342H6.75ZM10.6504 3.50342C9.9646 3.50342 9.40039 4.06763 9.40039 4.75342V8.00342H14.4004V4.75342C14.4004 4.11064 13.9042 3.57495 13.2773 3.51025L13.1504 3.50342H10.6504Z" fill="currentColor"/>
</svg>
