<svg width="24" height="24" viewBox="0 0 24 24" fill="none" xmlns="http://www.w3.org/2000/svg">
<path d="M11.7 3.03418C12.1142 3.03418 12.45 3.36997 12.45 3.78418C12.45 4.19839 12.1142 4.53418 11.7 4.53418H4.44995V19.4658H11.7L11.7771 19.4697C12.1551 19.5084 12.45 19.8277 12.45 20.2158C12.4499 20.63 12.1141 20.9658 11.7 20.9658H3.69995C3.28577 20.9658 2.95001 20.63 2.94995 20.2158V3.78418C2.94995 3.36997 3.28574 3.03418 3.69995 3.03418H11.7Z" fill="currentColor"/>
<path d="M14.8552 8.37695C14.8552 7.71494 15.6507 7.37704 16.1267 7.83691L19.824 11.4131C20.1258 11.705 20.1295 12.1883 19.8318 12.4844L16.1345 16.1621C15.6614 16.6324 14.8552 16.297 14.8552 15.6299V12.7002H9.80054C9.38632 12.7002 9.05054 12.3644 9.05054 11.9502C9.05054 11.536 9.38632 11.2002 9.80054 11.2002H14.8552V8.37695Z" fill="currentColor"/>
</svg>
