<svg width="24" height="24" viewBox="0 0 24 24" fill="none" xmlns="http://www.w3.org/2000/svg">
<path d="M11.7 3.03418C12.1142 3.03418 12.45 3.36997 12.45 3.78418C12.45 4.19839 12.1142 4.53418 11.7 4.53418H4.44995V19.4658H11.7L11.7771 19.4697C12.1551 19.5084 12.45 19.8277 12.45 20.2158C12.4499 20.63 12.1141 20.9658 11.7 20.9658H3.69995C3.28577 20.9658 2.95001 20.63 2.94995 20.2158V3.78418C2.94995 3.36997 3.28574 3.03418 3.69995 3.03418H11.7Z" fill="currentColor"/>
<path d="M15.0613 7.84277C15.3495 7.54543 15.8244 7.53814 16.1218 7.82617L19.822 11.4111C19.9665 11.5512 20.0492 11.7441 20.0505 11.9453C20.0518 12.1464 19.9714 12.3395 19.8289 12.4814L16.1296 16.166C15.8362 16.4582 15.3614 16.4573 15.0691 16.1641C14.7768 15.8706 14.7776 15.3958 15.071 15.1035L17.4841 12.7002H9.80054C9.38636 12.7002 9.0506 12.3644 9.05054 11.9502C9.05054 11.536 9.38632 11.2002 9.80054 11.2002H17.448L15.0779 8.90332C14.7807 8.61505 14.7731 8.14015 15.0613 7.84277Z" fill="currentColor"/>
</svg>
