<svg width="24" height="24" viewBox="0 0 24 24" fill="none" xmlns="http://www.w3.org/2000/svg">
<path fill-rule="evenodd" clip-rule="evenodd" d="M12 1.8999C14.1217 1.8999 16.1569 2.74238 17.6572 4.24268C19.1573 5.74274 19.9997 7.77755 20 9.89893C20.0011 11.4256 19.5568 12.9191 18.7236 14.1958C18.6966 14.2957 18.6492 14.3893 18.584 14.4702L12.9658 21.4438C12.8658 21.5884 12.7332 21.7087 12.5791 21.7944C12.4081 21.8895 12.2152 21.939 12.0195 21.939C11.8241 21.9389 11.6318 21.8894 11.4609 21.7944C11.3075 21.709 11.1751 21.5896 11.0752 21.4458L5.56836 14.6733C5.52059 14.6146 5.48222 14.5483 5.4541 14.478L5.40625 14.3599C4.49892 13.0513 4.0081 11.4976 4 9.90381V9.8999C4 7.77817 4.84248 5.74297 6.34277 4.24268C7.84306 2.74238 9.87827 1.8999 12 1.8999ZM12 6.18018C10.067 6.18018 8.5 7.74718 8.5 9.68018C8.50015 11.613 10.0671 13.1802 12 13.1802C13.9329 13.1802 15.4999 11.613 15.5 9.68018C15.5 7.74718 13.933 6.18018 12 6.18018Z" fill="currentColor"/>
</svg>
