<svg width="24" height="24" viewBox="0 0 24 24" fill="none" xmlns="http://www.w3.org/2000/svg">
<path d="M19.1992 17.6499L19.2764 17.6538C19.6543 17.6924 19.9492 18.0117 19.9492 18.3999C19.9492 18.8141 19.6134 19.1499 19.1992 19.1499H4.69922C4.28501 19.1499 3.94922 18.8141 3.94922 18.3999C3.94922 17.9857 4.28501 17.6499 4.69922 17.6499H19.1992Z" fill="currentColor"/>
<path d="M19.1992 11.4497C19.6134 11.4497 19.9491 11.7856 19.9492 12.1997C19.9492 12.6139 19.6134 12.9497 19.1992 12.9497H4.69922C4.28501 12.9497 3.94922 12.6139 3.94922 12.1997C3.94932 11.7856 4.28507 11.4497 4.69922 11.4497H19.1992Z" fill="currentColor"/>
<path d="M19.1992 5.1499C19.6134 5.14992 19.9492 5.4857 19.9492 5.8999C19.9492 6.31411 19.6134 6.64989 19.1992 6.6499H4.79883C4.38478 6.6497 4.04883 6.31399 4.04883 5.8999C4.04883 5.48581 4.38478 5.1501 4.79883 5.1499H19.1992Z" fill="currentColor"/>
</svg>
