<svg width="24" height="24" viewBox="0 0 24 24" fill="none" xmlns="http://www.w3.org/2000/svg">
<path d="M18.3271 10.1643C18.7051 10.2029 19 10.5222 19 10.9104C18.9999 12.7647 18.2642 14.5434 16.9541 15.8557C15.8214 16.9903 14.3388 17.696 12.7598 17.8684V21.2405C12.7595 21.6545 12.4238 21.9905 12.0098 21.9905C11.5958 21.9903 11.26 21.6544 11.2598 21.2405V17.8704C10.5974 17.7999 9.9472 17.6353 9.3291 17.3801C8.47859 17.029 7.70586 16.5136 7.05469 15.8635C6.40349 15.2134 5.88666 14.4411 5.53418 13.5911C5.1818 12.7412 5.00005 11.8304 5 10.9104C5 10.4962 5.33579 10.1604 5.75 10.1604L5.82715 10.1643C6.2051 10.2029 6.5 10.5222 6.5 10.9104C6.50005 11.6333 6.64302 12.3491 6.91992 13.0168C7.19687 13.6846 7.60264 14.2912 8.11426 14.802C8.62591 15.3128 9.23306 15.7185 9.90137 15.9944C10.5696 16.2702 11.2859 16.4116 12.0088 16.4104C13.466 16.4081 14.863 15.8273 15.8926 14.7961C16.922 13.765 17.4999 12.3674 17.5 10.9104C17.5 10.4962 17.8358 10.1604 18.25 10.1604L18.3271 10.1643Z" fill="currentColor"/>
<path fill-rule="evenodd" clip-rule="evenodd" d="M12.0098 2.01001C12.8054 2.01001 13.5683 2.32638 14.1309 2.88892C14.6935 3.45153 15.0098 4.21436 15.0098 5.01001V11.01C15.0098 11.8057 14.6935 12.5685 14.1309 13.1311C13.5683 13.6936 12.8054 14.01 12.0098 14.01C11.2142 14.0099 10.4512 13.6937 9.88867 13.1311C9.32614 12.5685 9.00977 11.8056 9.00977 11.01V5.01001C9.00977 4.21442 9.32614 3.45151 9.88867 2.88892C10.4512 2.32636 11.2142 2.01007 12.0098 2.01001ZM12.0098 3.51978C11.813 3.51849 11.6179 3.55609 11.4355 3.63013C11.2531 3.70429 11.0865 3.81403 10.9463 3.95239C10.8061 4.09072 10.6947 4.25535 10.6182 4.43677C10.5416 4.61826 10.5013 4.81303 10.5 5.01001V11.01C10.5 11.4078 10.6582 11.7893 10.9395 12.0706C11.2208 12.3519 11.6022 12.51 12 12.51C12.3978 12.51 12.7792 12.3519 13.0605 12.0706C13.3419 11.7893 13.5 11.4078 13.5 11.01V5.01001C13.4974 4.61565 13.3394 4.23809 13.0605 3.95923C12.7817 3.68044 12.4041 3.5224 12.0098 3.51978Z" fill="currentColor"/>
</svg>
