<svg width="24" height="24" viewBox="0 0 24 24" fill="none" xmlns="http://www.w3.org/2000/svg">
<path fill-rule="evenodd" clip-rule="evenodd" d="M15.4329 1.84998L15.5901 1.85388C17.2072 1.93694 18.55 3.28892 18.55 4.92517V18.8754C18.5498 20.5642 17.1191 21.9493 15.4329 21.9496H8.66724C6.98097 21.9493 5.55027 20.5642 5.55005 18.8754V4.92517C5.55005 3.23617 6.98084 1.85023 8.66724 1.84998H15.4329ZM12.3 17.4252C11.7478 17.4252 11.3 17.8729 11.3 18.4252C11.3001 18.9774 11.7478 19.4252 12.3 19.4252C12.8522 19.4251 13.3 18.9774 13.3 18.4252C13.3 17.8729 12.8523 17.4252 12.3 17.4252Z" fill="currentColor"/>
</svg>
