<svg width="24" height="24" viewBox="0 0 24 24" fill="none" xmlns="http://www.w3.org/2000/svg">
<path d="M11.8638 2.13965C12.0609 1.99887 12.3143 1.96246 12.5435 2.04102L19.5435 4.44043C19.8464 4.54446 20.0503 4.83004 20.0503 5.15039V9.9502C20.0502 10.1923 19.9329 10.4198 19.7358 10.5605C19.5387 10.7013 19.2853 10.7377 19.0562 10.6592L13.0503 8.59961V17.25C13.0503 17.2935 13.0457 17.3365 13.0386 17.3779C12.8673 19.9419 10.7041 21.9999 8.1001 22C5.36333 22 3.15001 19.6413 3.1499 16.9502C3.1499 14.236 5.38588 12 8.1001 12L8.35596 12.0068C9.62357 12.0708 10.7305 12.6069 11.5503 13.4248V2.75C11.5503 2.50781 11.6667 2.28043 11.8638 2.13965Z" fill="currentColor"/>
</svg>
