<svg width="24" height="24" viewBox="0 0 24 24" fill="none" xmlns="http://www.w3.org/2000/svg">
<path d="M12.3 14.9468L12.3772 14.9507C12.7567 14.9894 13.0527 15.3101 13.053 15.6997C13.053 16.1156 12.7159 16.4535 12.3 16.4536H7.80005C7.38411 16.4536 7.04712 16.1156 7.04712 15.6997C7.04736 15.284 7.38426 14.9468 7.80005 14.9468H12.3Z" fill="currentColor"/>
<path d="M14.3 11.5474C14.7159 11.5475 15.053 11.8844 15.053 12.3003C15.0529 12.7161 14.7159 13.0531 14.3 13.0532H7.80005C7.38414 13.0532 7.04718 12.7162 7.04712 12.3003C7.04712 11.8844 7.38411 11.5474 7.80005 11.5474H14.3Z" fill="currentColor"/>
<path d="M16.3 8.14697L16.3772 8.15088C16.7567 8.18961 17.0529 8.51017 17.053 8.8999C17.053 9.31577 16.7159 9.65271 16.3 9.65283H7.80005C7.38411 9.65283 7.04712 9.31584 7.04712 8.8999C7.04722 8.48405 7.38417 8.14697 7.80005 8.14697H16.3Z" fill="currentColor"/>
<path fill-rule="evenodd" clip-rule="evenodd" d="M18.3997 3.14697L18.6809 3.16162C20.0657 3.30325 21.1525 4.47892 21.1526 5.8999V18.3999C21.1526 19.9158 19.9156 21.1528 18.3997 21.1528H5.89966C4.38381 21.1527 3.14673 19.9158 3.14673 18.3999V5.8999C3.14683 4.38412 4.38387 3.14708 5.89966 3.14697H18.3997ZM5.89966 4.65283C5.21575 4.65294 4.65269 5.216 4.65259 5.8999V18.3999C4.65259 19.0839 5.21569 19.6469 5.89966 19.647H18.3997C19.0837 19.647 19.6467 19.084 19.6467 18.3999V5.8999C19.6466 5.21593 19.0837 4.65283 18.3997 4.65283H5.89966Z" fill="currentColor"/>
</svg>
