<svg width="24" height="24" viewBox="0 0 24 24" fill="none" xmlns="http://www.w3.org/2000/svg">
<path d="M14.2998 12.0496L14.377 12.0535C14.7548 12.0921 15.0496 12.4115 15.0498 12.7996C15.0498 13.2138 14.714 13.5496 14.2998 13.5496H8.7998C5.90582 13.5496 3.5498 15.9223 3.5498 18.7V19.6003C3.55002 20.1573 3.98519 20.5496 4.5 20.5496H14.5L14.5762 20.5535C14.9544 20.5917 15.2498 20.9113 15.25 21.2996C15.25 21.7137 14.9141 22.0495 14.5 22.0496H4.5C3.21506 22.0496 2.05003 21.0429 2.0498 19.6003V18.7C2.0498 15.0776 5.09379 12.0496 8.7998 12.0496H14.2998Z" fill="currentColor"/>
<path d="M17.75 13.5496C18.1641 13.5496 18.4998 13.8855 18.5 14.2996V17.0496H21.25L21.3271 17.0535C21.705 17.0921 21.9998 17.4115 22 17.7996C22 18.2138 21.6642 18.5496 21.25 18.5496H18.5V21.2996C18.5 21.7138 18.1642 22.0496 17.75 22.0496C17.3358 22.0496 17 21.7138 17 21.2996V18.5496H14.25C13.8358 18.5496 13.5 18.2138 13.5 17.7996C13.5002 17.3855 13.8359 17.0496 14.25 17.0496H17V14.2996C17.0002 13.8855 17.3359 13.5496 17.75 13.5496Z" fill="currentColor"/>
<path fill-rule="evenodd" clip-rule="evenodd" d="M12 1.94995C14.5127 1.95012 16.5497 3.98705 16.5498 6.49976C16.5498 9.01255 14.5128 11.0494 12 11.0496C9.4871 11.0496 7.4502 9.01265 7.4502 6.49976C7.4503 3.98695 9.48717 1.94995 12 1.94995ZM12 3.44995C10.3156 3.44995 8.9503 4.81537 8.9502 6.49976C8.9502 8.18423 10.3155 9.54956 12 9.54956C13.6843 9.5494 15.0498 8.18412 15.0498 6.49976C15.0497 4.81548 13.6843 3.45012 12 3.44995Z" fill="currentColor"/>
</svg>
