<svg width="24" height="24" viewBox="0 0 24 24" fill="none" xmlns="http://www.w3.org/2000/svg">
<path fill-rule="evenodd" clip-rule="evenodd" d="M12.4673 2.11279C17.7775 2.38147 22.0103 6.76235 22.0103 12.1001C22.0103 17.0501 18.37 21.1804 13.6001 21.9604C13.1701 22.0604 12.7197 22.1099 12.2397 22.1099L11.9995 22.1001H11.9497C6.4098 22.1 1.8999 17.61 1.8999 12.1001C1.8999 6.59016 6.4098 2.1002 11.9497 2.1001L12.4673 2.11279ZM11.98 14.5405C9.17998 14.5405 6.9101 15.8403 5.8501 18.0503C6.03005 18.2402 6.23025 18.4106 6.43018 18.5806C7.92007 19.8403 9.83997 20.6 11.9497 20.6001H12.1001C12.2 20.6001 12.3002 20.6003 12.3901 20.5903C12.62 20.5803 12.8499 20.56 13.0698 20.52C14.7598 20.31 16.2803 19.6003 17.5103 18.5503C17.7102 18.3903 17.9004 18.21 18.0903 18.02C17.0203 15.83 14.7599 14.5406 11.98 14.5405ZM11.98 6.06006C9.94998 6.06006 8.31006 7.70045 8.31006 9.71045C8.31025 11.7303 9.9501 13.3599 11.98 13.3599C13.9998 13.3598 15.6497 11.7303 15.6499 9.71045C15.6499 7.70048 13.9999 6.0601 11.98 6.06006Z" fill="currentColor"/>
</svg>
