<svg width="24" height="24" viewBox="0 0 24 24" fill="none" xmlns="http://www.w3.org/2000/svg">
<path fill-rule="evenodd" clip-rule="evenodd" d="M14.3 11.95C17.9977 11.95 21.05 14.8698 21.05 18.6003V19.4998C21.05 19.5247 21.0486 19.5502 21.0461 19.575C20.9117 20.918 19.9244 21.9499 18.5002 21.95H5.50024C4.21518 21.95 3.05005 20.9425 3.05005 19.4998V18.6003C3.05005 14.978 6.09403 11.95 9.80005 11.95H14.3ZM13.7004 16.0496C13.3014 16.0496 12.9748 16.3615 12.9514 16.7546C12.9507 16.7663 12.9506 16.778 12.9504 16.7898C12.9504 16.7929 12.9504 16.7964 12.9504 16.7996C12.9504 17.2138 13.2862 17.5496 13.7004 17.5496H16.0999C16.5141 17.5496 16.8499 17.2138 16.8499 16.7996C16.8497 16.4114 16.555 16.092 16.177 16.0535L16.0999 16.0496H13.7004Z" fill="currentColor"/>
<path d="M12.0002 1.94995C14.513 1.95004 16.5499 3.987 16.55 6.49976C16.55 9.0126 14.5131 11.0495 12.0002 11.0496C9.48735 11.0496 7.45044 9.01265 7.45044 6.49976C7.45054 3.98695 9.48741 1.94995 12.0002 1.94995Z" fill="currentColor"/>
</svg>
