<svg width="24" height="24" viewBox="0 0 24 24" fill="none" xmlns="http://www.w3.org/2000/svg">
<path d="M14.2999 11.9958C17.9937 11.9958 21.0499 14.8974 21.0499 18.614V19.5095C21.0498 19.5372 21.0481 19.565 21.045 19.5925C20.9106 20.7946 19.9507 21.9498 18.5001 21.95H5.50006C4.21903 21.95 3.05012 20.9504 3.04987 19.5095V18.614C3.04987 17.0423 3.62887 15.5858 4.58307 14.4431L4.77936 14.2195H2.75006C2.33601 14.2195 2.00032 13.8835 2.00006 13.4695C2.00006 13.0553 2.33585 12.7195 2.75006 12.7195H6.64264C7.05677 12.7196 7.39264 13.0553 7.39264 13.4695V17.3601C7.39258 17.7742 7.05674 18.11 6.64264 18.1101C6.22846 18.1101 5.8927 17.7743 5.89264 17.3601V15.2234C5.05506 16.1387 4.54987 17.3351 4.54987 18.614V19.5095C4.55011 20.0574 4.98139 20.45 5.50006 20.45H18.5001C19.0376 20.4498 19.4703 20.032 19.5499 19.4626V18.614C19.5499 15.855 17.3501 13.6384 14.5704 13.5027L14.2999 13.4958H9.79987C9.48491 13.4958 9.17647 13.5237 8.87701 13.5769L8.13873 13.7078L7.87604 12.2312L8.61432 12.1003C8.99967 12.0318 9.39613 11.9958 9.79987 11.9958H14.2999Z" fill="currentColor"/>
<path d="M12.0001 1.94995C14.5128 1.95012 16.5498 3.98705 16.5499 6.49976C16.5499 9.01255 14.5128 11.0494 12.0001 11.0496C9.48716 11.0496 7.45026 9.01265 7.45026 6.49976C7.45036 3.98695 9.48723 1.94995 12.0001 1.94995Z" fill="currentColor"/>
</svg>
