<svg width="24" height="24" viewBox="0 0 24 24" fill="none" xmlns="http://www.w3.org/2000/svg">
<path d="M14.3 12.0496L14.6448 12.0584C18.1855 12.2332 21.05 15.086 21.05 18.7V19.6004C21.05 19.6278 21.0482 19.6552 21.0452 19.6824C20.9114 20.8862 19.9542 22.0495 18.5002 22.0496H5.50024C4.2153 22.0496 3.05027 21.043 3.05005 19.6004V18.7C3.05005 15.0776 6.09403 12.0496 9.80005 12.0496H14.3Z" fill="currentColor"/>
<path d="M12.0002 1.95001C14.513 1.95011 16.5499 3.98707 16.55 6.49982C16.55 9.01265 14.5131 11.0495 12.0002 11.0496C9.48735 11.0496 7.45044 9.01271 7.45044 6.49982C7.45055 3.98701 9.48741 1.95001 12.0002 1.95001Z" fill="currentColor"/>
</svg>
