<svg width="24" height="24" viewBox="0 0 24 24" fill="none" xmlns="http://www.w3.org/2000/svg">
<path d="M16.0999 16.0496L16.177 16.0535C16.555 16.092 16.8497 16.4115 16.8499 16.7996C16.8499 17.2138 16.5141 17.5496 16.0999 17.5496H13.7004C13.2862 17.5496 12.9504 17.2138 12.9504 16.7996C12.9506 16.3856 13.2863 16.0496 13.7004 16.0496H16.0999Z" fill="currentColor"/>
<path fill-rule="evenodd" clip-rule="evenodd" d="M14.3 11.95C17.9977 11.95 21.05 14.8698 21.05 18.6004V19.4998C21.05 19.5247 21.0486 19.5502 21.0461 19.575C20.9117 20.918 19.9244 21.9499 18.5002 21.95H5.50024C4.21518 21.95 3.05005 20.9426 3.05005 19.4998V18.6004C3.05005 14.978 6.09403 11.95 9.80005 11.95H14.3ZM9.80005 13.45C6.90606 13.45 4.55005 15.8228 4.55005 18.6004V19.4998C4.55005 20.057 4.98531 20.45 5.50024 20.45H18.5002C19.0658 20.4499 19.4738 20.0942 19.55 19.4588V18.6004C19.55 15.731 17.2024 13.45 14.3 13.45H9.80005Z" fill="currentColor"/>
<path fill-rule="evenodd" clip-rule="evenodd" d="M12.0002 1.95001C14.513 1.9501 16.5499 3.98707 16.55 6.49982C16.55 9.01266 14.5131 11.0495 12.0002 11.0496C9.48735 11.0496 7.45044 9.01271 7.45044 6.49982C7.45054 3.98701 9.48741 1.95001 12.0002 1.95001ZM12.0002 3.45001C10.3158 3.45001 8.95054 4.81544 8.95044 6.49982C8.95044 8.18428 10.3158 9.54962 12.0002 9.54962C13.6846 9.54953 15.05 8.18423 15.05 6.49982C15.0499 4.81549 13.6846 3.4501 12.0002 3.45001Z" fill="currentColor"/>
</svg>
