<svg width="24" height="24" viewBox="0 0 24 24" fill="none" xmlns="http://www.w3.org/2000/svg">
<path fill-rule="evenodd" clip-rule="evenodd" d="M14.3 12.0496L14.6448 12.0584C18.1855 12.2332 21.05 15.086 21.05 18.7V19.6004C21.05 19.6278 21.0482 19.6552 21.0452 19.6824C20.9114 20.8862 19.9542 22.0495 18.5002 22.0496H5.50024C4.2153 22.0496 3.05027 21.043 3.05005 19.6004V18.7C3.05005 15.0776 6.09403 12.0496 9.80005 12.0496H14.3ZM9.80005 13.5496C6.90606 13.5496 4.55005 15.9224 4.55005 18.7V19.6004C4.55027 20.1574 4.98544 20.5496 5.50024 20.5496H18.5002C19.0348 20.5495 19.4701 20.1308 19.55 19.5535V18.7C19.55 15.8306 17.2024 13.5496 14.3 13.5496H9.80005Z" fill="currentColor"/>
<path fill-rule="evenodd" clip-rule="evenodd" d="M12.0002 1.95001C14.513 1.95011 16.5499 3.98707 16.55 6.49982C16.55 9.01265 14.5131 11.0495 12.0002 11.0496C9.48735 11.0496 7.45044 9.01271 7.45044 6.49982C7.45055 3.98701 9.48741 1.95001 12.0002 1.95001ZM12.0002 3.45001C10.3158 3.45001 8.95055 4.81543 8.95044 6.49982C8.95044 8.18429 10.3158 9.54962 12.0002 9.54962C13.6846 9.54952 15.05 8.18422 15.05 6.49982C15.0499 4.8155 13.6846 3.45011 12.0002 3.45001Z" fill="currentColor"/>
</svg>
