<svg width="24" height="24" viewBox="0 0 24 24" fill="none" xmlns="http://www.w3.org/2000/svg">
<path fill-rule="evenodd" clip-rule="evenodd" d="M13.2002 3C12.4619 3.68487 12 4.66354 12 5.75V8.25C12 10.3211 13.6789 12 15.75 12H18.25C19.3365 12 20.3151 11.5381 21 10.7998V18C21 19.6569 19.6569 21 18 21H6C4.34315 21 3 19.6569 3 18V6C3 4.34315 4.34315 3 6 3H13.2002ZM8.29785 11.9531C7.88375 11.9615 7.55516 12.3037 7.56348 12.7178C7.57184 13.1319 7.914 13.4605 8.32812 13.4521L9.50781 13.4287L6.22266 16.7139C5.93006 17.0067 5.93011 17.4816 6.22266 17.7744C6.51555 18.0673 6.99129 18.0673 7.28418 17.7744L10.7549 14.3037L10.7578 15.8994C10.7588 16.3135 11.0956 16.6483 11.5098 16.6475C11.9237 16.6465 12.2585 16.3105 12.2578 15.8965L12.251 12.6367C12.2505 12.4355 12.1692 12.2432 12.0254 12.1025C11.8815 11.9618 11.6875 11.8847 11.4863 11.8887L8.29785 11.9531Z" fill="currentColor"/>
<path d="M18.25 3C19.7688 3 21 4.23122 21 5.75V8.25C21 9.76878 19.7688 11 18.25 11H15.75C14.2312 11 13 9.76878 13 8.25V5.75C13 4.23122 14.2312 3 15.75 3H18.25Z" fill="currentColor"/>
</svg>
