<svg width="24" height="24" viewBox="0 0 24 24" fill="none" xmlns="http://www.w3.org/2000/svg">
<path d="M13.2002 3C12.7598 3.40854 12.4182 3.92188 12.2139 4.5H5.75C5.05964 4.5 4.5 5.05964 4.5 5.75V18.25C4.5 18.9404 5.05964 19.5 5.75 19.5H18.25C18.9404 19.5 19.5 18.9404 19.5 18.25V11.7861C20.0781 11.5818 20.5915 11.2402 21 10.7998V18.25C21 19.7688 19.7688 21 18.25 21H5.75C4.23122 21 3 19.7688 3 18.25V5.75C3 4.23122 4.23122 3 5.75 3H13.2002Z" fill="currentColor"/>
<path d="M11.4863 11.8887C11.6875 11.8847 11.8815 11.9618 12.0254 12.1025C12.1692 12.2432 12.2505 12.4355 12.251 12.6367L12.2578 15.8965C12.2585 16.3105 11.9237 16.6465 11.5098 16.6475C11.0956 16.6483 10.7588 16.3135 10.7578 15.8994L10.7549 14.3037L7.28418 17.7744C6.99129 18.0673 6.51555 18.0673 6.22266 17.7744C5.93011 17.4816 5.93007 17.0067 6.22266 16.7139L9.50781 13.4287L8.32812 13.4521C7.914 13.4605 7.57184 13.1319 7.56348 12.7178C7.55515 12.3037 7.88375 11.9615 8.29785 11.9531L11.4863 11.8887Z" fill="currentColor"/>
<path fill-rule="evenodd" clip-rule="evenodd" d="M18.25 3C19.7688 3 21 4.23122 21 5.75V8.25C21 9.76878 19.7688 11 18.25 11H15.75C14.2312 11 13 9.76878 13 8.25V5.75C13 4.23122 14.2312 3 15.75 3H18.25ZM15.75 4.5C15.0596 4.5 14.5 5.05964 14.5 5.75V8.25C14.5 8.94036 15.0596 9.5 15.75 9.5H18.25C18.9404 9.5 19.5 8.94036 19.5 8.25V5.75C19.5 5.05964 18.9404 4.5 18.25 4.5H15.75Z" fill="currentColor"/>
</svg>
