<svg width="24" height="24" viewBox="0 0 24 24" fill="none" xmlns="http://www.w3.org/2000/svg">
<path fill-rule="evenodd" clip-rule="evenodd" d="M12 2C17.5228 2 22 6.47715 22 12C22 17.5228 17.5228 22 12 22C6.47715 22 2 17.5228 2 12C2 6.47715 6.47715 2 12 2ZM8.47949 10.4795C7.66091 10.5233 6.86686 10.7671 6.16699 11.1982C6.04224 11.2733 5.96697 11.3984 5.94824 11.542C5.92958 11.6857 5.98013 11.8297 6.08008 11.9297L8.72949 14.5791L6.33594 16.9727C6.1547 17.1539 6.15473 17.4545 6.33594 17.6357C6.51719 17.817 6.81777 17.817 6.99902 17.6357L9.39258 15.2422L11.999 17.8477C12.0989 17.9475 12.2422 17.9981 12.3857 17.9795C12.5294 17.9608 12.6545 17.8793 12.7295 17.7607C13.1482 17.0795 13.3924 16.3104 13.4424 15.5166C13.4861 14.8292 13.3859 14.1413 13.1484 13.5039L13.3428 13.3105C13.5237 13.1294 13.5236 12.8297 13.3428 12.6484L11.3545 10.6602C11.1733 10.4794 10.8735 10.4792 10.6924 10.6602L10.7051 10.667L10.5488 10.8232C9.89258 10.5607 9.19199 10.442 8.47949 10.4795ZM10.4736 7.89844C10.2924 7.71719 9.99277 7.71719 9.81152 7.89844C9.6303 8.07969 9.63028 8.37931 9.81152 8.56055L15.4365 14.1855C15.6178 14.3666 15.9174 14.3667 16.0986 14.1855C16.2798 14.0043 16.2797 13.7047 16.0986 13.5234L10.4736 7.89844ZM13.9053 6.0166C13.7741 6.0166 13.6549 6.07914 13.5674 6.17285C13.2424 6.54154 12.9983 6.97275 12.8545 7.44141C12.7358 7.83503 12.6864 8.24779 12.7051 8.66016L12.5547 8.81055C12.3798 8.9918 12.3735 9.27973 12.5547 9.46094L14.4873 11.4443C14.4901 11.4478 14.5137 11.4766 14.5312 11.4941C14.5435 11.5064 14.5501 11.5124 14.5625 11.5186L14.5811 11.5381C14.7622 11.6753 15.0247 11.6627 15.1934 11.4941L15.3301 11.3477C15.7551 11.3851 16.1803 11.3476 16.5928 11.2227C17.0801 11.0789 17.5304 10.8226 17.9053 10.4727C17.9988 10.3852 18.0546 10.2667 18.0547 10.1357C18.0547 10.0107 18.0045 9.88574 17.917 9.79199L14.2549 6.14844L14.249 6.1543C14.1787 6.08395 14.0904 6.04208 13.998 6.02539L13.9053 6.0166Z" fill="currentColor"/>
</svg>
