<svg width="24" height="24" viewBox="0 0 24 24" fill="none" xmlns="http://www.w3.org/2000/svg">
<path fill-rule="evenodd" clip-rule="evenodd" d="M12 2C17.5228 2 22 6.47715 22 12C22 17.5228 17.5228 22 12 22C6.47715 22 2 17.5228 2 12C2 6.47715 6.47715 2 12 2ZM13.9092 6.01367C13.7803 6.01741 13.6581 6.07466 13.5723 6.1709C13.2452 6.53782 13.0004 6.97072 12.8555 7.44043C12.7339 7.83462 12.6851 8.24772 12.71 8.6582L10.5488 10.8193C9.89523 10.5561 9.19083 10.4363 8.48438 10.4707C7.66505 10.5106 6.86855 10.7563 6.16895 11.1846C6.0466 11.2596 5.96518 11.3868 5.94824 11.5293C5.93143 11.6718 5.98063 11.8145 6.08203 11.916L8.73535 14.5713L6.33789 16.9736C6.15524 17.1569 6.15571 17.4539 6.33887 17.6367C6.52219 17.8196 6.81905 17.8191 7.00195 17.6357L9.39746 15.2344L12.0088 17.8486C12.11 17.95 12.2523 17.9998 12.3945 17.9834C12.5369 17.9668 12.6639 17.8856 12.7393 17.7637C13.1583 17.0852 13.4051 16.3143 13.457 15.5186C13.5017 14.8323 13.4007 14.1453 13.1621 13.5029L15.3232 11.3525C15.7472 11.3901 16.1754 11.3476 16.585 11.2266C17.0734 11.0822 17.5228 10.8291 17.9004 10.4873C17.9956 10.4011 18.0515 10.2798 18.0547 10.1514C18.0578 10.023 18.0079 9.89933 17.917 9.80859L14.2539 6.15039C14.1854 6.08204 14.0978 6.03703 14.0039 6.02051L13.9092 6.01367Z" fill="currentColor"/>
</svg>
