<svg width="24" height="24" viewBox="0 0 24 24" fill="none" xmlns="http://www.w3.org/2000/svg">
<path d="M16.7109 3.04999C17.0502 3.05001 17.3002 3.13972 17.4609 3.33612C17.6215 3.53244 17.6934 3.72883 17.6934 3.9787C17.6933 4.21079 17.6216 4.42516 17.4609 4.6037C17.3002 4.78224 17.0501 4.87125 16.7109 4.87128H15.3535C14.7643 4.87128 14.2639 4.87155 13.8711 4.8537C13.6658 4.84477 13.5052 4.83528 13.3848 4.82635L13.1396 4.79999V4.90741C13.4966 5.06811 13.8357 5.31803 14.1748 5.67499C14.5141 6.03213 14.7641 6.47884 14.9248 7.03241H16.7109L16.834 7.03632C17.1112 7.05611 17.3203 7.14578 17.4609 7.31757C17.6217 7.51399 17.6934 7.71112 17.6934 7.96112C17.6933 8.1931 17.6216 8.40766 17.4609 8.58612C17.3002 8.76456 17.05 8.85367 16.7109 8.8537H15.0498C14.9605 9.63934 14.7641 10.3002 14.4248 10.8537C14.0856 11.4072 13.6752 11.8716 13.2109 12.2287C12.7288 12.5858 12.2104 12.8536 11.6211 13.05C11.0498 13.2463 10.4783 13.3538 9.9248 13.4074L15.6211 18.9611C15.8888 19.2289 16.0321 19.5319 16.0322 19.8889C16.0322 20.2103 15.9249 20.479 15.7285 20.7111C15.5321 20.9252 15.2465 21.0499 14.8896 21.05C14.7111 21.05 14.5321 21.0147 14.3535 20.9611C14.1751 20.9076 13.9968 20.7823 13.8184 20.5861L7.12109 13.9426C6.9427 13.7642 6.80017 13.6034 6.71094 13.425C6.62165 13.2464 6.58594 13.0677 6.58594 12.8713C6.58597 12.5499 6.69325 12.2818 6.88965 12.0676C7.086 11.8535 7.35365 11.7463 7.6748 11.7463H7.99609C8.51385 11.7463 9.03205 11.693 9.5498 11.6037C10.0677 11.5144 10.5326 11.3534 10.9434 11.1213C11.3539 10.8892 11.7105 10.6033 11.9961 10.2463C12.2461 9.93378 12.4148 9.55314 12.5127 9.09198L12.5498 8.88885H7.38965C7.05049 8.88885 6.80037 8.79997 6.63965 8.6037C6.47902 8.40738 6.40731 8.21092 6.40723 7.96112C6.40723 7.72902 6.47899 7.51467 6.63965 7.33612C6.80036 7.15755 7.05036 7.06757 7.38965 7.06757H12.3711C11.9692 5.72856 10.8145 5.01751 8.90625 4.93378L8.51465 4.92499H7.38965V4.87128C7.05059 4.87128 6.80037 4.78228 6.63965 4.58612C6.49679 4.40755 6.40723 4.19257 6.40723 3.94257C6.40728 3.71053 6.479 3.49607 6.63965 3.31757C6.80037 3.13919 7.05055 3.04999 7.38965 3.04999H16.7109Z" fill="currentColor"/>
</svg>
