<svg width="24" height="24" viewBox="0 0 24 24" fill="none" xmlns="http://www.w3.org/2000/svg">
<path fill-rule="evenodd" clip-rule="evenodd" d="M10.5 3.5C6.63401 3.5 3.5 6.63401 3.5 10.5C3.5 14.366 6.63401 17.5 10.5 17.5C12.1636 17.5 13.6924 16.9308 14.9014 15.9897L19.4697 20.558C19.7626 20.8509 20.2374 20.8509 20.5303 20.558C20.8232 20.2651 20.8232 19.7903 20.5303 19.4974L15.9893 14.956C16.9358 13.7446 17.5 12.184 17.5 10.5C17.5 6.63401 14.366 3.5 10.5 3.5ZM5 10.5C5 7.46243 7.46243 5 10.5 5C13.5376 5 16 7.46243 16 10.5C16 13.5376 13.5376 16 10.5 16C7.46243 16 5 13.5376 5 10.5Z" fill="currentColor"/>
</svg>
