<svg width="24" height="24" viewBox="0 0 24 24" fill="none" xmlns="http://www.w3.org/2000/svg">
<path d="M8.99902 8.95021C9.41324 8.95021 9.74902 9.286 9.74902 9.70021C9.74881 10.1142 9.41311 10.4502 8.99902 10.4502H6.69922C6.01343 10.4502 5.44922 11.0144 5.44922 11.7002V19.2002C5.44943 19.8858 6.01356 20.4502 6.69922 20.4502H17.1992C17.8849 20.4502 18.449 19.8858 18.4492 19.2002V11.7002C18.4492 11.0572 17.9533 10.5205 17.3262 10.4561L17.1992 10.4502H14.999C14.585 10.4501 14.2492 10.1142 14.249 9.70021C14.249 9.28606 14.5849 8.95032 14.999 8.95021H17.1992C18.7134 8.95021 19.9492 10.186 19.9492 11.7002V19.2002C19.949 20.7142 18.7133 21.9502 17.1992 21.9502H6.69922C5.18513 21.9502 3.94943 20.7142 3.94922 19.2002V11.7002C3.94922 10.186 5.18501 8.95021 6.69922 8.95021H8.99902Z" fill="currentColor"/>
<path d="M12.0039 2.04982C12.2046 2.05119 12.3972 2.13257 12.5371 2.27638L16.1367 5.97658C16.4256 6.27344 16.4189 6.74827 16.1221 7.03712C15.8252 7.32598 15.3504 7.31935 15.0615 7.02248L12.749 4.6465V13.8994C12.749 14.3136 12.4132 14.6494 11.999 14.6494C11.5849 14.6493 11.249 14.3136 11.249 13.8994V4.61037L8.92969 6.9297C8.63679 7.2226 8.16203 7.2226 7.86914 6.9297C7.57635 6.6368 7.57628 6.16201 7.86914 5.86916L11.4688 2.26955C11.6106 2.12774 11.8034 2.04857 12.0039 2.04982Z" fill="currentColor"/>
</svg>
