<svg width="24" height="24" viewBox="0 0 24 24" fill="none" xmlns="http://www.w3.org/2000/svg">
<path d="M18.486 2.91464C19.898 3.05788 20.9995 4.25003 20.9996 5.6998C20.9996 7.2462 19.7462 8.4996 18.1998 8.4996C17.4758 8.49956 16.816 8.22506 16.319 7.77402L16.1168 7.57089L8.46643 11.3648C8.48854 11.5066 8.49963 11.6524 8.49963 11.8004C8.4996 12.0186 8.47463 12.2313 8.42737 12.4352L16.1285 16.316C16.6407 15.7533 17.379 15.4 18.1998 15.4L18.486 15.4146C19.898 15.5579 20.9995 16.75 20.9996 18.1998C20.9996 19.7462 19.7462 20.9996 18.1998 20.9996C16.6535 20.9995 15.4 19.7461 15.4 18.1998C15.4 18.0135 15.418 17.831 15.4528 17.6549L7.70764 13.7516C7.1989 14.2748 6.48725 14.6002 5.69983 14.6002C4.15365 14.6001 2.90023 13.3465 2.90002 11.8004C2.90002 10.2541 4.15352 8.99971 5.69983 8.9996L5.85999 9.00449C6.65573 9.0493 7.36277 9.42676 7.84436 9.9996L15.4498 6.22714C15.4173 6.05645 15.4 5.87996 15.4 5.6998C15.4001 4.15355 16.6536 2.9001 18.1998 2.89999L18.486 2.91464Z" fill="currentColor"/>
</svg>
