<svg width="24" height="24" viewBox="0 0 24 24" fill="none" xmlns="http://www.w3.org/2000/svg">
<path fill-rule="evenodd" clip-rule="evenodd" d="M3.25458 3.2242C3.54741 2.93163 4.0223 2.93163 4.31513 3.2242L20.8151 19.7242C21.108 20.0171 21.108 20.4928 20.8151 20.7857C20.5223 21.0783 20.0474 21.0783 19.7546 20.7857L17.9606 18.9908L18.2204 20.4703C18.2703 20.7546 18.1525 21.0427 17.9177 21.2105C17.6826 21.3783 17.3716 21.3961 17.1188 21.2564L12.0505 18.4566L6.98212 21.2564C6.72931 21.3961 6.41836 21.3783 6.18329 21.2105C5.94843 21.0427 5.83063 20.7546 5.88056 20.4703L6.91962 14.5562L2.67157 10.3316C2.47149 10.1327 2.39948 9.83846 2.48603 9.5699C2.57259 9.30155 2.80237 9.10392 3.08075 9.05916L7.3454 8.37557L3.25458 4.28572C2.96169 3.99283 2.96169 3.51709 3.25458 3.2242ZM4.77411 10.3072L8.25458 13.7681C8.42851 13.9411 8.50697 14.1887 8.46454 14.4303L7.62958 19.1851L11.6882 16.9439C11.9138 16.8194 12.1872 16.8194 12.4128 16.9439L16.4714 19.1851L16.113 17.1441L8.654 9.68514L4.77411 10.3072Z" fill="currentColor"/>
<path d="M11.9392 2.35018C12.2322 2.34597 12.5006 2.51328 12.6267 2.77791L15.1745 8.12459L20.8229 9.06014C21.0974 9.10576 21.3241 9.29995 21.4118 9.56404C21.4994 9.82816 21.4337 10.1192 21.2409 10.3199L17.1794 14.5455L17.2126 14.731L16.0436 13.5631L19.1726 10.3072L14.5427 9.53963C14.3008 9.49948 14.0934 9.34397 13.988 9.12264L11.9763 4.899L10.569 8.08846L9.43134 6.95076L11.2634 2.79744C11.3817 2.52919 11.646 2.35445 11.9392 2.35018Z" fill="currentColor"/>
</svg>
