<svg width="24" height="24" viewBox="0 0 24 24" fill="none" xmlns="http://www.w3.org/2000/svg">
<path d="M11.9384 2.35018C12.2315 2.34597 12.4998 2.51328 12.6259 2.77791L15.1738 8.12459L20.8222 9.06014C21.0967 9.10576 21.3234 9.29995 21.4111 9.56404C21.4987 9.82816 21.433 10.1192 21.2402 10.3199L17.1787 14.5455L18.2197 20.4703C18.2696 20.7546 18.1518 21.0427 17.9169 21.2105C17.6819 21.3783 17.3709 21.3961 17.1181 21.2564L12.0497 18.4566L6.98139 21.2564C6.72858 21.3961 6.41762 21.3783 6.18256 21.2105C5.9477 21.0427 5.82989 20.7546 5.87983 20.4703L6.91889 14.5562L2.67084 10.3316C2.47076 10.1327 2.39875 9.83846 2.48529 9.5699C2.57186 9.30155 2.80164 9.10392 3.08002 9.05916L8.91303 8.12459L11.2626 2.79744C11.381 2.52919 11.6453 2.35445 11.9384 2.35018Z" fill="currentColor"/>
</svg>
