<svg width="24" height="24" viewBox="0 0 24 24" fill="none" xmlns="http://www.w3.org/2000/svg">
<path fill-rule="evenodd" clip-rule="evenodd" d="M12 2C17.5228 2.00003 22 6.47717 22 12C22 17.5228 17.5228 22 12 22C6.47715 22 2 17.5228 2 12C2 6.47715 6.47715 2 12 2ZM10.7861 9.32422C10.7861 8.40263 9.64547 7.97185 9.03613 8.66309L7.625 10.2637C7.44247 10.4709 7.46273 10.7872 7.66992 10.9697C7.87713 11.152 8.19352 11.1319 8.37598 10.9248L9.78613 9.32422V16C9.78617 16.2761 10.01 16.5 10.2861 16.5C10.5621 16.4998 10.7861 16.276 10.7861 16V9.32422ZM13.1426 7.5C12.8666 7.50016 12.6426 7.72395 12.6426 8V14.8701C12.6426 15.7377 13.6719 16.1939 14.3145 15.6113L16.3359 13.7754C16.5402 13.5898 16.5556 13.2737 16.3701 13.0693C16.1846 12.8651 15.8685 12.8498 15.6641 13.0352L13.6426 14.8701V8C13.6426 7.72386 13.4187 7.5 13.1426 7.5Z" fill="currentColor"/>
</svg>
