<svg width="24" height="24" viewBox="0 0 24 24" fill="none" xmlns="http://www.w3.org/2000/svg">
<path fill-rule="evenodd" clip-rule="evenodd" d="M11.9999 2C17.5228 2 21.9999 6.47715 21.9999 12C21.9999 17.5228 17.5228 22 11.9999 22C6.47709 22 1.99994 17.5228 1.99994 12C1.99994 6.47715 6.47709 2 11.9999 2ZM11.9999 3.5C7.30552 3.5 3.49994 7.30558 3.49994 12C3.49994 16.6944 7.30552 20.5 11.9999 20.5C16.6944 20.5 20.4999 16.6944 20.4999 12C20.4999 7.30558 16.6944 3.5 11.9999 3.5Z" fill="currentColor"/>
<path fill-rule="evenodd" clip-rule="evenodd" d="M10.6512 9.02678C10.6512 8.00273 9.3837 7.52407 8.70663 8.29214L7.13862 10.0707C6.93579 10.3009 6.95831 10.6524 7.18853 10.8552C7.41878 11.0578 7.77034 11.0354 7.97308 10.8053L9.54001 9.02678V16.4447C9.54004 16.7515 9.78877 17.0003 10.0956 17.0003C10.4022 17 10.6511 16.7514 10.6512 16.4447V9.02678ZM13.2696 6.99976C12.9629 6.99993 12.714 7.24861 12.714 7.55534V15.1892C12.714 16.1533 13.8578 16.6602 14.5717 16.0128L16.818 13.9728C17.0449 13.7665 17.062 13.4154 16.8559 13.1882C16.6497 12.9613 16.2985 12.9444 16.0714 13.1503L13.8252 15.1892V7.55534C13.8252 7.2485 13.5764 6.99976 13.2696 6.99976Z" fill="currentColor"/>
</svg>
