<svg width="24" height="24" viewBox="0 0 24 24" fill="none" xmlns="http://www.w3.org/2000/svg">
<path d="M3.53425 13.3545C3.72294 12.9906 4.16859 12.846 4.53523 13.0293L7.13581 14.3291C7.50599 14.5144 7.65588 14.9646 7.47077 15.335C7.2856 15.7053 6.83533 15.8558 6.46492 15.6709L5.25495 15.0654C6.38948 17.7215 9.03804 19.5496 12.0997 19.5498C15.6341 19.5498 18.6392 17.0086 19.3673 13.6416C19.4548 13.2367 19.854 12.9789 20.2589 13.0664C20.6635 13.154 20.9204 13.5533 20.8331 13.958C19.9611 17.9909 16.3652 21.0498 12.0997 21.0498C8.4931 21.0496 5.35083 18.9302 3.94636 15.8174L3.46589 16.7451C3.27523 17.1127 2.82279 17.2559 2.45515 17.0654C2.08754 16.8748 1.94344 16.4223 2.13386 16.0547L3.53425 13.3545Z" fill="currentColor"/>
<path d="M12.4366 3.05566C15.8982 3.18272 18.8097 5.2633 20.1719 8.21484L20.6241 7.27441C20.8037 6.90131 21.2519 6.74438 21.6251 6.92383C21.9982 7.10349 22.1552 7.55163 21.9757 7.9248L20.6759 10.625C20.5879 10.8076 20.4296 10.9466 20.2374 11.0107C20.045 11.0749 19.8344 11.0592 19.6544 10.9658L16.9551 9.56543C16.5875 9.37481 16.4434 8.92236 16.6339 8.55469C16.8245 8.18697 17.2779 8.04371 17.6456 8.23438L18.8067 8.83594C17.6713 6.38171 15.2535 4.66002 12.38 4.55469L12.0997 4.5498C8.56628 4.54999 5.65237 6.99306 4.82917 10.377C4.73128 10.7794 4.32536 11.0265 3.92292 10.9287C3.52045 10.8308 3.27327 10.4249 3.37117 10.0225C4.34799 6.00673 7.83353 3.04999 12.0997 3.0498L12.4366 3.05566Z" fill="currentColor"/>
</svg>
