<svg width="24" height="24" viewBox="0 0 24 24" fill="none" xmlns="http://www.w3.org/2000/svg">
<path d="M14.5997 2.19L14.7705 2.19489C16.5256 2.28775 17.9502 3.80364 17.9502 5.6402V13.94C17.9502 14.6023 17.6972 15.3604 17.2998 15.8902L17.2969 15.8941L13.8301 20.4507C13.521 20.9772 12.9276 21.0965 12.4727 20.9341C12.0086 20.7684 11.6495 20.3167 11.6495 19.7398V16.3404C11.6495 15.885 11.3299 15.5366 10.8897 15.4947L10.7998 15.4898H3.59965C3.15584 15.4897 2.77478 15.2753 2.51957 15.0201C2.26437 14.7648 2.04985 14.3838 2.04985 13.94V11.5279C2.04942 11.4191 2.04843 11.1246 2.25883 10.8384L5.3018 4.16266C5.70705 3.00039 6.7683 2.19 8.00004 2.19H14.5997Z" fill="currentColor"/>
<path d="M21.2002 2.19C21.6143 2.19023 21.9502 2.52593 21.9502 2.94V14.5396C21.9502 14.9537 21.6143 15.2894 21.2002 15.2896C20.786 15.2896 20.4502 14.9538 20.4502 14.5396V2.94C20.4502 2.52579 20.786 2.19 21.2002 2.19Z" fill="currentColor"/>
</svg>
