<svg width="24" height="24" viewBox="0 0 24 24" fill="none" xmlns="http://www.w3.org/2000/svg">
<path d="M2.80078 7.94983C3.21485 7.94983 3.55055 8.28581 3.55078 8.69983V20.3004C3.5507 20.7146 3.21494 21.0504 2.80078 21.0504C2.38662 21.0504 2.05087 20.7146 2.05078 20.3004V8.69983C2.05101 8.28581 2.38671 7.94983 2.80078 7.94983Z" fill="currentColor"/>
<path fill-rule="evenodd" clip-rule="evenodd" d="M10.1709 2.78967C10.4801 2.26314 11.0734 2.14381 11.5283 2.30627C11.9923 2.47207 12.3506 2.92383 12.3506 3.50061V6.90002C12.3506 7.38581 12.7154 7.75061 13.2012 7.75061H20.4004L20.5645 7.76038C20.9382 7.80498 21.2582 7.99705 21.4814 8.22034C21.7365 8.47559 21.9512 8.85671 21.9512 9.30042V11.7125C21.9516 11.8214 21.9526 12.1158 21.7422 12.402L18.6982 19.0778C18.293 20.2399 17.2326 21.0503 16.001 21.0504H9.40039C7.56811 21.0502 6.05078 19.4958 6.05078 17.6002V9.30042C6.05078 8.63814 6.30381 7.88004 6.70117 7.35022L6.7041 7.34631L10.1709 2.78967ZM7.89941 8.25159C7.69748 8.52193 7.55078 8.96345 7.55078 9.30042V17.6002C7.55078 18.7043 8.433 19.5502 9.40039 19.5504H16.001C16.555 19.5503 17.0837 19.1792 17.2891 18.5631C17.2974 18.538 17.3074 18.513 17.3184 18.4889L20.418 11.6891C20.4278 11.6675 20.4394 11.6461 20.4512 11.6256V9.31995C20.4462 9.31043 20.4361 9.29617 20.4209 9.28088L20.3809 9.25061H13.2012C11.887 9.25061 10.8506 8.21424 10.8506 6.90002V4.37268L7.89941 8.25159Z" fill="currentColor"/>
</svg>
