<svg width="24" height="24" viewBox="0 0 24 24" fill="none" xmlns="http://www.w3.org/2000/svg">
<path d="M2.80078 7.94983C3.21485 7.94983 3.55055 8.28581 3.55078 8.69983V20.3004C3.5507 20.7146 3.21494 21.0504 2.80078 21.0504C2.38662 21.0504 2.05087 20.7146 2.05078 20.3004V8.69983C2.05101 8.28581 2.38671 7.94983 2.80078 7.94983Z" fill="currentColor"/>
<path d="M10.1709 2.78967C10.4801 2.26314 11.0734 2.14381 11.5283 2.30627C11.9923 2.47207 12.3506 2.92383 12.3506 3.50061V6.90002C12.3506 7.38581 12.7154 7.75061 13.2012 7.75061H20.4004L20.5645 7.76038C20.9382 7.80498 21.2582 7.99705 21.4814 8.22034C21.7365 8.47559 21.9512 8.85671 21.9512 9.30042V11.7125C21.9516 11.8214 21.9526 12.1158 21.7422 12.402L18.6982 19.0778C18.293 20.2399 17.2326 21.0503 16.001 21.0504H9.40039C7.56811 21.0502 6.05078 19.4958 6.05078 17.6002V9.30042C6.05078 8.63814 6.30381 7.88004 6.70117 7.35022L6.7041 7.34631L10.1709 2.78967Z" fill="currentColor"/>
</svg>
