<svg width="24" height="24" viewBox="0 0 24 24" fill="none" xmlns="http://www.w3.org/2000/svg">
<path d="M15.8301 4C17 4.00002 18.0799 4.49033 18.9199 5.32031C19.8299 5.15031 20.67 4.82007 21.5 4.33008C21.17 5.24004 20.4999 6.05982 19.6699 6.5498C20.4999 6.4598 21.25 6.21965 22 5.88965L21.7783 6.19336C21.2502 6.89216 20.6462 7.52075 19.9199 8.01953V8.50977C19.9199 13.8498 15.83 20 8.25 20C6.00004 20 3.82998 19.3402 2 18.2002L2.24902 18.2461C2.49936 18.2799 2.75248 18.2803 3 18.2803C4.92 18.2803 6.67008 17.6196 8.08008 16.5596C6.25008 16.5596 4.75 15.4095 4.25 13.7695C4.5 13.8495 4.75 13.8496 5 13.8496C5.42 13.8496 5.75008 13.7597 6.08008 13.6797C4.25015 13.3497 2.83019 11.7101 2.83008 9.74023V9.66016C3.33006 9.91012 4.00021 10.0702 4.66016 10.1602C3.58017 9.42016 2.83009 8.19002 2.83008 6.79004C2.83008 6.05012 3.00002 5.31021 3.41992 4.74023C5.41992 7.20018 8.42036 8.75992 11.8203 8.91992C11.7403 8.67992 11.7402 8.34953 11.7402 8.01953C11.7405 5.79975 13.5802 4 15.8301 4Z" fill="currentColor"/>
</svg>
