<svg width="24" height="24" viewBox="0 0 24 24" fill="none" xmlns="http://www.w3.org/2000/svg">
<path d="M11.9753 9.60985C12.1753 9.60861 12.3678 9.68749 12.5095 9.8286L14.9695 12.2788C15.2629 12.5711 15.2637 13.0459 14.9714 13.3393C14.6791 13.6326 14.2043 13.6335 13.9109 13.3413L12.7605 12.1948V16.7397C12.7605 17.1539 12.4246 17.4896 12.0105 17.4897C11.5963 17.4897 11.2605 17.1539 11.2605 16.7397V12.1665L10.116 13.3345C9.82615 13.6303 9.35131 13.6359 9.05541 13.3462C8.75957 13.0564 8.75498 12.5815 9.04466 12.2856L11.4441 9.83543C11.5839 9.69265 11.7755 9.61118 11.9753 9.60985Z" fill="currentColor"/>
<path fill-rule="evenodd" clip-rule="evenodd" d="M18.74 3.02L18.8454 3.02782C19.0877 3.06213 19.3009 3.21297 19.4118 3.43602L20.904 6.43993C20.9404 6.50875 20.9657 6.58415 20.9792 6.66356C20.9871 6.70927 20.9907 6.75565 20.99 6.80125V20.23C20.99 20.6442 20.6542 20.98 20.24 20.98H3.78001C3.36591 20.9798 3.03001 20.6441 3.03001 20.23V6.80809C3.02808 6.73075 3.03831 6.65234 3.06126 6.57567C3.07467 6.53072 3.09282 6.48676 3.114 6.44579L4.60814 3.43602C4.73483 3.18109 4.99534 3.02007 5.28001 3.02H18.74ZM4.53001 7.53954V19.48H19.49V7.53954H4.53001ZM4.98998 6.03954H19.03L18.2751 4.52H5.74486L4.98998 6.03954Z" fill="currentColor"/>
</svg>
