<svg width="24" height="24" viewBox="0 0 24 24" fill="none" xmlns="http://www.w3.org/2000/svg">
<path fill-rule="evenodd" clip-rule="evenodd" d="M18.74 3.02002C19.0247 3.02002 19.2851 3.18114 19.4118 3.43604L20.904 6.43994C20.9404 6.50876 20.9657 6.58416 20.9792 6.66357C20.9871 6.70928 20.9907 6.75566 20.99 6.80127V20.23C20.99 20.6442 20.6542 20.98 20.24 20.98H3.78001C3.36591 20.9798 3.03001 20.6441 3.03001 20.23V6.80811C3.02808 6.73076 3.03831 6.65236 3.06126 6.57568C3.07467 6.53073 3.09282 6.48678 3.114 6.4458L4.60814 3.43604C4.73483 3.18111 4.99534 3.02008 5.28001 3.02002H18.74ZM11.9753 9.60986C11.7755 9.61119 11.5839 9.69267 11.4441 9.83545L9.04466 12.2847C8.94048 12.391 8.87462 12.521 8.84642 12.6567C8.82561 12.7569 8.82505 12.8603 8.84544 12.9604C8.87436 13.102 8.94444 13.2375 9.05541 13.3462C9.35131 13.6359 9.82615 13.6303 10.116 13.3345L11.2605 12.1665V16.7397C11.2605 16.7656 11.2618 16.7917 11.2644 16.8169C11.3029 17.195 11.6222 17.4897 12.0105 17.4897C12.4246 17.4896 12.7605 17.1539 12.7605 16.7397V12.1948L13.9109 13.3413C14.2043 13.6335 14.6791 13.6327 14.9714 13.3394C15.0755 13.2348 15.1429 13.1072 15.1726 12.9731C15.195 12.872 15.1963 12.7671 15.1765 12.6655C15.1488 12.5238 15.0795 12.3884 14.9695 12.2788L12.5095 9.82861C12.3678 9.68749 12.1753 9.60863 11.9753 9.60986ZM5.74486 4.52002L4.98998 6.03955H19.03L18.2751 4.52002H5.74486Z" fill="currentColor"/>
</svg>
