<svg width="24" height="24" viewBox="0 0 24 24" fill="none" xmlns="http://www.w3.org/2000/svg">
<path fill-rule="evenodd" clip-rule="evenodd" d="M12.3149 1.40002C13.3197 1.42047 14.2921 1.75971 15.0923 2.3678C15.8925 2.97594 16.4793 3.8221 16.7681 4.78479C16.887 5.1815 16.6618 5.5994 16.2651 5.71838C15.8685 5.83719 15.4505 5.61211 15.3315 5.21545C15.134 4.55686 14.7325 3.97821 14.1851 3.56213C13.7076 3.19927 13.1406 2.97596 12.5474 2.91565L12.2915 2.90002H11.73C10.868 2.90002 10.0416 3.24268 9.43213 3.85217C8.82264 4.46167 8.47998 5.28807 8.47998 6.15002V7.97034H17.27L17.5513 7.98401C18.9379 8.12486 20.02 9.2965 20.02 10.7203V19.2203C20.0198 20.739 18.7887 21.9703 17.27 21.9703H6.77002C5.25136 21.9703 4.02022 20.739 4.02002 19.2203V10.7203C4.02002 9.20155 5.25124 7.97034 6.77002 7.97034H6.97998V6.15002C6.97998 4.89025 7.48078 3.68242 8.37158 2.79163C9.26238 1.90083 10.4702 1.40002 11.73 1.40002H12.3149ZM12.0298 12.9596C11.2016 12.9597 10.53 13.6314 10.5298 14.4596C10.5298 15.0148 10.8315 15.5 11.2798 15.7594V18.2399C11.2798 18.654 11.6157 18.9897 12.0298 18.9899C12.444 18.9899 12.7798 18.6541 12.7798 18.2399V15.7594C13.2281 15.5 13.5298 15.0148 13.5298 14.4596C13.5296 13.6313 12.8581 12.9596 12.0298 12.9596Z" fill="currentColor"/>
</svg>
