<svg width="24" height="24" viewBox="0 0 24 24" fill="none" xmlns="http://www.w3.org/2000/svg">
<path d="M12.0298 12.9596C12.8581 12.9596 13.5296 13.6314 13.5298 14.4596C13.5298 15.0148 13.2281 15.5 12.7798 15.7594V18.2399C12.7798 18.6541 12.444 18.9899 12.0298 18.9899C11.6157 18.9897 11.2798 18.654 11.2798 18.2399V15.7594C10.8315 15.5 10.5298 15.0147 10.5298 14.4596C10.53 13.6314 11.2016 12.9597 12.0298 12.9596Z" fill="currentColor"/>
<path fill-rule="evenodd" clip-rule="evenodd" d="M12.3149 1.40002L12.6899 1.42249C13.5603 1.50926 14.3921 1.83565 15.0923 2.3678C15.8925 2.97594 16.4793 3.8221 16.7681 4.78479C16.887 5.1815 16.6618 5.5994 16.2651 5.71838C15.8685 5.83719 15.4505 5.61211 15.3315 5.21545C15.134 4.55686 14.7325 3.97821 14.1851 3.56213C13.6395 3.14749 12.9765 2.91549 12.2915 2.90002H11.73C10.868 2.90002 10.0416 3.24268 9.43213 3.85217C8.82264 4.46167 8.47998 5.28807 8.47998 6.15002V7.97034H17.27L17.5513 7.98401C18.9379 8.12486 20.02 9.2965 20.02 10.7203V19.2203C20.0198 20.739 18.7887 21.9703 17.27 21.9703H6.77002C5.25136 21.9703 4.02022 20.739 4.02002 19.2203V10.7203C4.02002 9.20155 5.25124 7.97034 6.77002 7.97034H6.97998V6.15002C6.97998 4.89025 7.48078 3.68242 8.37158 2.79163C9.26238 1.90083 10.4702 1.40002 11.73 1.40002H12.3149ZM6.77002 9.47034C6.07966 9.47034 5.52002 10.03 5.52002 10.7203V19.2203C5.52022 19.9105 6.07979 20.4703 6.77002 20.4703H17.27C17.9603 20.4703 18.5198 19.9105 18.52 19.2203V10.7203C18.52 10.03 17.9604 9.47034 17.27 9.47034H6.77002Z" fill="currentColor"/>
</svg>
