<svg width="24" height="24" viewBox="0 0 24 24" fill="none" xmlns="http://www.w3.org/2000/svg">
<path d="M20.2764 11.9536C20.6543 11.9922 20.9491 12.3116 20.9492 12.6997V18.3003C20.9491 19.8143 19.7133 21.0503 18.1992 21.0503H5.69922C4.1851 21.0503 2.94937 19.8143 2.94922 18.3003V12.6997C2.94938 12.2856 3.28511 11.9497 3.69922 11.9497L3.77637 11.9536C4.15425 11.9922 4.44906 12.3116 4.44922 12.6997V18.3003C4.44937 18.9859 5.01352 19.5503 5.69922 19.5503H18.1992C18.8849 19.5503 19.4491 18.9859 19.4492 18.3003V12.6997C19.4494 12.2856 19.7851 11.9497 20.1992 11.9497L20.2764 11.9536Z" fill="currentColor"/>
<path d="M11.4688 3.06978C11.7616 2.77692 12.2364 2.77698 12.5293 3.06978L17.5293 8.06978C17.8222 8.36268 17.8222 8.83744 17.5293 9.13033C17.2364 9.42313 16.7616 9.42319 16.4688 9.13033L12.749 5.4106V14.8999C12.749 15.3141 12.4132 15.6499 11.999 15.6499C11.5849 15.6498 11.249 15.314 11.249 14.8999V5.4106L7.5293 9.13033C7.2364 9.42313 6.76161 9.42319 6.46875 9.13033C6.17598 8.83746 6.17598 8.36265 6.46875 8.06978L11.4688 3.06978Z" fill="currentColor"/>
</svg>
