<svg width="24" height="24" viewBox="0 0 24 24" fill="none" xmlns="http://www.w3.org/2000/svg">
<path d="M20.3271 12.0036C20.705 12.0422 20.9999 12.3616 21 12.7497V18.3503C20.9998 19.8644 19.7641 21.1003 18.25 21.1003H5.75C4.23588 21.1003 3.00016 19.8644 3 18.3503V12.7497C3.00015 12.3356 3.33588 11.9997 3.75 11.9997L3.82715 12.0036C4.20504 12.0422 4.49986 12.3616 4.5 12.7497V18.3503C4.50016 19.0359 5.06431 19.6003 5.75 19.6003H18.25C18.9357 19.6003 19.4998 19.0359 19.5 18.3503V12.7497C19.5002 12.3356 19.8359 11.9997 20.25 11.9997L20.3271 12.0036Z" fill="currentColor"/>
<path d="M12.1494 2.91473C12.2937 2.94364 12.4277 3.01506 12.5332 3.12079L17.5254 8.12372C17.7396 8.33835 17.8037 8.66105 17.6875 8.9411C17.5713 9.22108 17.2982 9.40391 16.9951 9.40399H12.75V14.9548C12.75 15.369 12.4142 15.7048 12 15.7048C11.5858 15.7048 11.25 15.369 11.25 14.9548V9.40399H7.00488C6.70178 9.40392 6.42868 9.22105 6.3125 8.9411C6.19636 8.66097 6.26031 8.33829 6.47461 8.12372L11.4717 3.11981C11.6123 2.97915 11.8031 2.90013 12.002 2.90009L12.1494 2.91473Z" fill="currentColor"/>
</svg>
