<svg width="24" height="24" viewBox="0 0 24 24" fill="none" xmlns="http://www.w3.org/2000/svg">
<path d="M15.5498 19.5203L15.627 19.5242C16.005 19.5627 16.2998 19.882 16.2998 20.2703C16.2997 20.6844 15.9639 21.0203 15.5498 21.0203H8.0498C7.63578 21.0201 7.29994 20.6843 7.2998 20.2703C7.2998 19.8561 7.6357 19.5204 8.0498 19.5203H15.5498Z" fill="currentColor"/>
<path d="M10.6133 7.93237C10.7033 7.9313 10.7922 7.95459 10.8701 7.99976L14.4297 10.0603C14.5262 10.0953 14.61 10.1589 14.6689 10.2429C14.7279 10.327 14.7598 10.4273 14.7598 10.53C14.7598 10.6327 14.7279 10.733 14.6689 10.8171C14.61 10.9012 14.5262 10.9647 14.4297 10.9998L10.8701 12.9998C10.7944 13.0435 10.7085 13.0669 10.6211 13.0671C10.5336 13.0673 10.447 13.0443 10.3711 13.0007C10.2953 12.9573 10.2325 12.8945 10.1885 12.8191C10.1444 12.7435 10.1206 12.6576 10.1201 12.5701V8.45972C10.1152 8.36988 10.135 8.28063 10.1768 8.20093C10.2186 8.12121 10.2807 8.05372 10.3574 8.00659C10.4343 7.95945 10.5231 7.93349 10.6133 7.93237Z" fill="currentColor"/>
<path fill-rule="evenodd" clip-rule="evenodd" d="M19.25 2.98999C19.9727 2.98999 20.6703 3.26915 21.1875 3.77222C21.7053 4.27595 22 4.96377 22 5.6853V15.2947C22 16.0162 21.7053 16.704 21.1875 17.2078C20.6703 17.7108 19.9727 17.99 19.25 17.99H4.75C4.02727 17.99 3.32972 17.7108 2.8125 17.2078C2.29472 16.704 2 16.0162 2 15.2947V5.6853C2 4.96377 2.29472 4.27595 2.8125 3.77222C3.32972 3.26915 4.02727 2.98999 4.75 2.98999H19.25ZM4.75 4.48999C4.41187 4.48999 4.09132 4.62087 3.8584 4.84741C3.62629 5.07325 3.5 5.37521 3.5 5.6853V15.2947C3.5 15.6048 3.62629 15.9067 3.8584 16.1326C4.09132 16.3591 4.41187 16.49 4.75 16.49H19.25C19.5881 16.49 19.9087 16.3591 20.1416 16.1326C20.3737 15.9067 20.5 15.6048 20.5 15.2947V5.6853C20.5 5.37521 20.3737 5.07325 20.1416 4.84741C19.9087 4.62087 19.5881 4.48999 19.25 4.48999H4.75Z" fill="currentColor"/>
</svg>
