<svg width="24" height="24" viewBox="0 0 24 24" fill="none" xmlns="http://www.w3.org/2000/svg">
<path fill-rule="evenodd" clip-rule="evenodd" d="M13.6052 4.26905C14.7512 3.45051 16.4841 4.21199 16.4841 5.67628V18.0249C16.4841 19.5139 14.7818 20.426 13.5671 19.4028L9.45581 16.1724C9.38764 16.1388 9.33979 16.1163 9.29663 16.1001L9.25171 16.0864H5.47729C5.06631 16.0864 4.67976 15.8982 4.44897 15.6675C4.21823 15.4367 4.03008 15.0502 4.03003 14.6392V9.06202C4.03009 8.65102 4.21824 8.26443 4.44897 8.0337C4.67976 7.80302 5.06632 7.61475 5.47729 7.61475H9.2605C9.26564 7.6142 9.27402 7.6129 9.28491 7.61085C9.30773 7.60653 9.33454 7.59983 9.36011 7.59131C9.37244 7.5872 9.38275 7.58369 9.39038 7.58057L9.39526 7.57667L13.5779 4.28956C13.5868 4.28252 13.596 4.27567 13.6052 4.26905ZM14.824 5.46827C14.7076 5.41224 14.5846 5.41855 14.4871 5.48292L10.3445 8.7378C10.1724 8.88934 9.95992 8.97242 9.83472 9.01417C9.67334 9.06796 9.46595 9.11473 9.26147 9.11475H5.53003V14.5864H9.26147L9.40308 14.5942C9.72834 14.6289 10.0115 14.7715 10.1609 14.8472L10.1941 14.8648C10.2394 14.8874 10.2822 14.9145 10.322 14.9458L14.5046 18.2319C14.513 18.2385 14.521 18.2455 14.5291 18.2524C14.5941 18.3082 14.6505 18.3256 14.6912 18.3306C14.7346 18.3358 14.7804 18.329 14.824 18.3081C14.9079 18.2677 14.9841 18.1768 14.9841 18.0249V5.67628C14.9841 5.61556 14.9482 5.5281 14.824 5.46827Z" fill="currentColor"/>
<path d="M17.8933 9.52784C18.1862 9.23506 18.661 9.23498 18.9539 9.52784C19.308 9.88205 19.5854 10.277 19.7322 10.7173C19.8442 11.0534 19.9704 11.5377 19.9705 12.0493C19.9705 12.4846 19.8731 12.8524 19.7917 13.1607C19.7766 13.218 19.7621 13.2733 19.7488 13.3267C19.7441 13.3453 19.7382 13.3641 19.7322 13.3823C19.6411 13.6557 19.4756 13.8881 19.3591 14.0435C19.3023 14.1192 19.2556 14.1794 19.2146 14.2319C19.1503 14.3143 19.1 14.379 19.0476 14.4575C18.8179 14.8021 18.3522 14.8952 18.0076 14.6655C17.6629 14.4358 17.5698 13.9701 17.7996 13.6255C17.8814 13.5028 17.9923 13.3594 18.0769 13.2505C18.1093 13.2087 18.1384 13.1718 18.1599 13.1431C18.2503 13.0225 18.2886 12.9564 18.3035 12.9233C18.3211 12.8535 18.3373 12.7898 18.3523 12.7319C18.4288 12.4363 18.4705 12.2764 18.4705 12.0493C18.4704 11.7647 18.3963 11.453 18.3093 11.1919C18.2569 11.0347 18.1365 10.8316 17.8933 10.5884C17.6004 10.2955 17.6004 9.82073 17.8933 9.52784Z" fill="currentColor"/>
</svg>
