<svg width="24" height="24" viewBox="0 0 24 24" fill="none" xmlns="http://www.w3.org/2000/svg">
<path d="M11.6643 4.28957C12.8131 3.46924 14.5498 4.23236 14.55 5.69972V18.1001C14.55 19.5929 12.8428 20.5071 11.6252 19.481L7.49731 16.2378C7.4287 16.204 7.38067 16.1809 7.33716 16.1646L7.29028 16.1499H3.50024C3.08833 16.1499 2.70115 15.9612 2.46997 15.73C2.23881 15.4988 2.05005 15.1116 2.05005 14.6997V9.10011C2.05005 8.6882 2.23878 8.30103 2.46997 8.06984C2.70116 7.83868 3.08836 7.64992 3.50024 7.64992H7.30005C7.30533 7.64935 7.31355 7.64807 7.32446 7.64601C7.34756 7.64164 7.37479 7.6351 7.40063 7.62648C7.41315 7.6223 7.42316 7.61792 7.43091 7.61476L7.43677 7.60988L11.637 4.31007C11.6459 4.30309 11.6551 4.29614 11.6643 4.28957Z" fill="currentColor"/>
<path d="M20.7629 9.37648C21.0522 9.08021 21.5271 9.07386 21.8235 9.36281C22.1199 9.65215 22.1255 10.127 21.8362 10.4234L20.3293 11.9683L21.8303 13.4693C22.1231 13.7621 22.123 14.2369 21.8303 14.5298C21.5374 14.8227 21.0627 14.8227 20.7698 14.5298L19.2815 13.0415L17.7366 14.6235C17.4472 14.92 16.9724 14.9256 16.676 14.6362C16.3798 14.3469 16.374 13.872 16.6633 13.5757L18.22 11.981L16.6692 10.4302C16.3766 10.1374 16.3766 9.66248 16.6692 9.36964C16.9621 9.07675 17.4378 9.07675 17.7307 9.36964L19.2678 10.9077L20.7629 9.37648Z" fill="currentColor"/>
</svg>
