<svg width="24" height="24" viewBox="0 0 24 24" fill="none" xmlns="http://www.w3.org/2000/svg">
<path d="M11.5642 4.28957C12.713 3.46923 14.4497 4.23236 14.45 5.69972V18.1001C14.4499 19.5929 12.7427 20.5071 11.5251 19.481L7.39722 16.2378C7.3286 16.204 7.28057 16.1809 7.23706 16.1646L7.19019 16.1499H3.40015C2.98823 16.1499 2.60105 15.9612 2.36987 15.73C2.13871 15.4988 1.94995 15.1116 1.94995 14.6997V9.10012C1.94995 8.68821 2.13868 8.30103 2.36987 8.06984C2.60106 7.83869 2.98826 7.64992 3.40015 7.64992H7.19995C7.20524 7.64935 7.21345 7.64807 7.22437 7.64601C7.24747 7.64164 7.27469 7.6351 7.30054 7.62648C7.31305 7.62231 7.32307 7.61793 7.33081 7.61476L7.33667 7.60988L11.5369 4.31008C11.5458 4.30309 11.555 4.29614 11.5642 4.28957Z" fill="currentColor"/>
<path d="M19.2693 8.27004C19.5622 7.97714 20.0379 7.97714 20.3308 8.27004C20.7665 8.70581 21.2584 9.30382 21.5115 10.063L21.5271 10.1109C21.7162 10.6774 21.95 11.377 21.95 12.1001C21.9499 12.7729 21.8391 13.477 21.4939 14.188C21.2361 14.9229 20.7567 15.5043 20.3308 15.9302C20.0379 16.2231 19.5622 16.2231 19.2693 15.9302C18.9768 15.6373 18.9767 15.1624 19.2693 14.8696C19.6335 14.5055 19.9418 14.1032 20.0886 13.6626C20.0998 13.6291 20.1138 13.5966 20.1296 13.565C20.3661 13.092 20.4499 12.6123 20.45 12.1001C20.45 11.6439 20.297 11.1626 20.0886 10.5376C19.9418 10.097 19.6335 9.69478 19.2693 9.33058C18.9766 9.0378 18.9768 8.56292 19.2693 8.27004Z" fill="currentColor"/>
<path d="M16.2693 9.27004C16.5622 8.97714 17.0379 8.97714 17.3308 9.27004L17.3708 9.31008C17.6298 9.56784 18.0349 9.97147 18.2039 10.5327C18.4284 11.0037 18.5505 11.4953 18.5505 12.0005C18.5505 12.5299 18.4164 13.0441 18.1707 13.5357C17.9438 13.9893 17.7003 14.3604 17.3308 14.73C17.0379 15.0229 16.5622 15.0229 16.2693 14.73C15.9768 14.4371 15.9766 13.9622 16.2693 13.6695C16.4994 13.4393 16.6559 13.2107 16.8289 12.8648C16.9829 12.5566 17.0505 12.2708 17.0505 12.0005C17.0505 11.7301 16.983 11.4436 16.8289 11.1353C16.8045 11.0864 16.7855 11.0349 16.7722 10.982C16.7315 10.819 16.602 10.6633 16.2693 10.3306C15.9766 10.0378 15.9768 9.56292 16.2693 9.27004Z" fill="currentColor"/>
</svg>
