<svg width="24" height="24" viewBox="0 0 24 24" fill="none" xmlns="http://www.w3.org/2000/svg">
<path d="M16.0332 15.6211C16.8534 15.8608 17.5498 16.1693 18.085 16.5225C17.6088 17.1545 17.0518 17.6386 16.4355 18.167C15.8522 18.5525 15.2203 18.8805 14.5488 19.1201C14.8249 18.7475 15.0678 18.3257 15.2754 17.8809C15.585 17.2173 15.8408 16.4545 16.0332 15.6211Z" fill="currentColor"/>
<path d="M7.98145 15.5957C8.17452 16.4392 8.4333 17.2105 8.74609 17.8809C8.95056 18.319 9.18905 18.7351 9.45996 19.1035C8.84261 18.8841 8.26402 18.5904 7.73145 18.2354C7.72602 18.2317 7.72037 18.2271 7.71484 18.2236C7.08587 17.8305 6.53282 17.2774 6.13965 16.6484C6.12966 16.6325 6.11872 16.6166 6.10742 16.6016C6.06602 16.5464 6.02431 16.4906 5.98438 16.4346C6.51985 16.1054 7.19848 15.8191 7.98145 15.5957Z" fill="currentColor"/>
<path d="M11.3398 15.0908V19.0801C10.8813 18.8061 10.3957 18.2439 9.96191 17.3145C9.69252 16.7372 9.46361 16.0563 9.29004 15.2988C9.93254 15.188 10.6212 15.1162 11.3398 15.0908Z" fill="currentColor"/>
<path d="M12.6816 15.0977C13.4044 15.1292 14.0902 15.2052 14.7266 15.3184C14.5535 16.0681 14.3267 16.742 14.0596 17.3145C13.6257 18.2441 13.1402 18.8061 12.6816 19.0801V15.0977Z" fill="currentColor"/>
<path d="M18.8281 8.46387C19.3563 9.51108 19.6581 10.6853 19.6582 11.9053C19.6582 13.1601 19.3542 14.3658 18.8174 15.3975C18.1272 14.9433 17.2619 14.5719 16.2764 14.2959C16.382 13.5345 16.4375 12.7314 16.4375 11.9053C16.4375 11.1015 16.3853 10.3201 16.2852 9.57715C17.2698 9.28962 18.1345 8.90831 18.8281 8.46387Z" fill="currentColor"/>
<path d="M5.31738 8.5752C5.98673 8.99565 6.80854 9.34341 7.73242 9.60449C7.63463 10.3393 7.58302 11.1113 7.58301 11.9053C7.58301 12.7219 7.63791 13.5159 7.74121 14.2695C6.81044 14.5245 5.97875 14.8661 5.29883 15.2812C4.81079 14.2725 4.54202 13.1484 4.54199 11.9053C4.54205 10.7283 4.82328 9.59403 5.31738 8.5752Z" fill="currentColor"/>
<path d="M14.9727 9.88965C15.053 10.5287 15.0957 11.2047 15.0957 11.9053C15.0957 12.634 15.0495 13.3364 14.9629 13.998C14.2412 13.8697 13.4751 13.7871 12.6816 13.7549V10.1484C13.4795 10.1163 14.2486 10.0262 14.9727 9.88965Z" fill="currentColor"/>
<path d="M9.04688 9.9043C9.77603 10.0353 10.5472 10.1184 11.3398 10.1484V13.749C10.5514 13.7749 9.78316 13.8528 9.05566 13.9785C8.97064 13.3225 8.92481 12.6269 8.9248 11.9053C8.92482 11.2101 8.96772 10.539 9.04688 9.9043Z" fill="currentColor"/>
<path d="M11.3398 4.73047V8.80566C10.6142 8.77602 9.92039 8.69959 9.27441 8.58301C9.44981 7.7972 9.68419 7.09224 9.96191 6.49707C10.3959 5.56721 10.8812 5.00438 11.3398 4.73047Z" fill="currentColor"/>
<path d="M12.6816 4.73047C13.1402 5.00446 13.6257 5.56742 14.0596 6.49707C14.3356 7.08854 14.5681 7.78846 14.7432 8.56836C14.0998 8.69078 13.4083 8.77287 12.6816 8.80469V4.73047Z" fill="currentColor"/>
<path d="M9.34473 4.87012C9.12098 5.19648 8.92106 5.55478 8.74609 5.92969C8.42585 6.61597 8.16325 7.40833 7.96875 8.27539C7.19923 8.04771 6.53434 7.75843 6.0127 7.42773C6.47152 6.8357 6.92389 6.34012 7.49316 5.91309C8.06779 5.48212 8.68728 5.13018 9.34473 4.87012Z" fill="currentColor"/>
<path d="M14.6123 4.7793C15.3604 5.04577 16.0613 5.42955 16.7061 5.91309C17.2688 6.33514 17.7567 6.80464 18.1309 7.31738C17.5827 7.67309 16.8748 7.99471 16.0469 8.24805C15.853 7.39181 15.5922 6.60867 15.2754 5.92969C15.084 5.51956 14.862 5.12967 14.6123 4.7793Z" fill="currentColor"/>
<path fill-rule="evenodd" clip-rule="evenodd" d="M12.1006 1.9502C14.3749 1.95035 16.431 2.7105 18.1504 4C19.0001 4.6373 19.7694 5.39937 20.3301 6.29297C21.4023 7.90503 22.0508 9.84551 22.0508 11.9004C22.0507 14.158 21.3 16.3218 19.9932 17.96C19.3454 18.821 18.5956 19.4642 17.9111 20.0508L17.8887 20.0693C17.8659 20.0889 17.8414 20.1074 17.8164 20.124C16.2226 21.1865 14.28 21.95 12.1006 21.9502C9.95008 21.9502 8.00916 21.305 6.39355 20.2305C5.5102 19.6764 4.73874 18.9072 4.18164 18.0254C2.90083 16.3075 2.14946 14.2592 2.14941 11.9004C2.14941 9.84161 2.80011 7.89805 3.87598 6.28418C3.88363 6.27271 3.89212 6.26103 3.90039 6.25C4.51761 5.42707 5.16802 4.66207 6.05078 4C7.77021 2.71062 9.82623 1.9502 12.1006 1.9502ZM12.1006 3.00586C10.0662 3.00586 8.22647 3.68546 6.68848 4.83887C5.89893 5.43105 5.31768 6.11551 4.76562 6.85156C4.75819 6.86147 4.75004 6.87153 4.74316 6.88184C3.78093 8.32526 3.20027 10.0639 3.2002 11.9053C3.20023 14.0149 3.87118 15.8473 5.0166 17.3838C5.51486 18.1725 6.20505 18.8608 6.99512 19.3564C8.44025 20.3177 10.1769 20.8945 12.1006 20.8945C14.0499 20.8944 15.7874 20.2111 17.2129 19.2607C17.2352 19.2459 17.257 19.2293 17.2773 19.2119L17.2969 19.1953C17.9091 18.6706 18.5797 18.0955 19.1592 17.3252C20.3281 15.8599 21 13.9247 21 11.9053C20.9999 10.0673 20.42 8.33149 19.4609 6.88965C18.9595 6.09045 18.2717 5.40885 17.5117 4.83887C15.9738 3.68549 14.1348 3.00601 12.1006 3.00586Z" fill="currentColor"/>
</svg>
