<svg width="24" height="24" viewBox="0 0 24 24" fill="none" xmlns="http://www.w3.org/2000/svg">
<path fill-rule="evenodd" clip-rule="evenodd" d="M12.1001 1.9502C14.3746 1.95024 16.4304 2.71041 18.1499 4C18.9997 4.63735 19.7689 5.39926 20.3296 6.29297C21.4019 7.90507 22.0503 9.84541 22.0503 11.9004C22.0502 14.1581 21.2996 16.3218 19.9927 17.96C19.3448 18.8211 18.5952 19.4641 17.9106 20.0508L17.8882 20.0693C17.8653 20.0889 17.841 20.1073 17.8159 20.124C16.222 21.1866 14.2797 21.9501 12.1001 21.9502C9.94944 21.9502 8.00874 21.3051 6.39307 20.2305C5.50964 19.6763 4.73827 18.9073 4.18115 18.0254C2.90035 16.3075 2.14994 14.2592 2.1499 11.9004C2.1499 9.84161 2.79962 7.89805 3.87549 6.28418C3.88319 6.27263 3.89158 6.2611 3.8999 6.25C4.51718 5.42698 5.16745 4.66213 6.05029 4C7.76979 2.71048 9.8256 1.9502 12.1001 1.9502ZM16.4976 16.0547C16.2824 16.9866 15.9961 17.8392 15.6499 18.5811C15.4178 19.0783 15.146 19.5492 14.8374 19.9658C15.5882 19.6979 16.2945 19.3314 16.9468 18.9004C17.636 18.3095 18.259 17.7684 18.7915 17.0615C18.1932 16.6667 17.4146 16.3226 16.4976 16.0547ZM7.49561 16.0254C6.6201 16.2752 5.86193 16.5958 5.26318 16.9639C5.30783 17.0265 5.35362 17.0887 5.3999 17.1504C5.4126 17.1673 5.42481 17.1852 5.43604 17.2031C5.87566 17.9064 6.49445 18.5243 7.19775 18.9639C7.20395 18.9677 7.21023 18.9725 7.21631 18.9766C7.81183 19.3735 8.45859 19.702 9.14893 19.9473C8.84605 19.5353 8.5787 19.0709 8.3501 18.5811C8.00029 17.8314 7.7115 16.9687 7.49561 16.0254ZM11.2505 15.4619C10.4469 15.4903 9.67692 15.5704 8.9585 15.6943C9.15255 16.5412 9.40828 17.3019 9.70947 17.9473C10.1946 18.9869 10.7377 19.6157 11.2505 19.9219V15.4619ZM12.7505 19.9219C13.2632 19.6156 13.8055 18.9867 14.2905 17.9473C14.5892 17.3073 14.8432 16.5541 15.0366 15.7158C14.3251 15.5893 13.5585 15.504 12.7505 15.4688V19.9219ZM19.6216 8.05273C18.8461 8.54965 17.8797 8.97541 16.7788 9.29688C16.8908 10.1277 16.9497 11.0016 16.9497 11.9004C16.9497 12.824 16.8871 13.721 16.769 14.5723C17.871 14.8809 18.8381 15.2969 19.6099 15.8047C20.2102 14.6511 20.5503 13.3035 20.5503 11.9004C20.5503 10.5363 20.2121 9.22364 19.6216 8.05273ZM4.51709 8.17676C3.96457 9.31599 3.6499 10.5843 3.6499 11.9004C3.64993 13.2902 3.95095 14.546 4.49658 15.6738C5.25681 15.2096 6.18632 14.8281 7.22705 14.543C7.11156 13.7004 7.0503 12.8134 7.05029 11.9004C7.05029 11.0124 7.10788 10.1489 7.21729 9.32715C6.18432 9.03525 5.26546 8.64685 4.51709 8.17676ZM15.312 9.64648C14.5024 9.79924 13.6426 9.89956 12.7505 9.93555V13.9678C13.6376 14.0038 14.4935 14.0958 15.3003 14.2393C15.3971 13.4996 15.4497 12.7151 15.4497 11.9004C15.4497 11.117 15.4018 10.361 15.312 9.64648ZM8.68604 9.66309C8.59752 10.3728 8.55029 11.123 8.55029 11.9004C8.5503 12.7072 8.60172 13.4844 8.69678 14.2178C9.51024 14.0772 10.3688 13.9898 11.2505 13.9609V9.93555C10.3641 9.90202 9.50148 9.80957 8.68604 9.66309ZM11.2505 3.87891C10.7376 4.18513 10.1946 4.81386 9.70947 5.85352C9.39897 6.51893 9.13701 7.307 8.94092 8.18555C9.66325 8.31591 10.4391 8.40144 11.2505 8.43457V3.87891ZM12.7505 8.43359C13.5629 8.39802 14.3358 8.30583 15.0552 8.16895C14.8595 7.29695 14.5991 6.51481 14.2905 5.85352C13.8055 4.81416 13.2632 4.18523 12.7505 3.87891V8.43359ZM9.02002 4.03418C8.28479 4.32495 7.5923 4.71825 6.94971 5.2002C6.313 5.67775 5.80756 6.2324 5.29443 6.89453C5.87764 7.26425 6.62062 7.58725 7.48096 7.8418C7.69844 6.87224 7.99199 5.98613 8.3501 5.21875C8.5458 4.79941 8.76973 4.39919 9.02002 4.03418ZM14.9087 3.93262C15.1879 4.32442 15.4359 4.7601 15.6499 5.21875C16.0042 5.97803 16.2954 6.85395 16.5122 7.81152C17.4381 7.52827 18.2293 7.16827 18.8423 6.77051C18.4239 6.19717 17.8787 5.67211 17.2495 5.2002C16.5286 4.65955 15.7451 4.23054 14.9087 3.93262Z" fill="currentColor"/>
</svg>
