<svg width="24" height="24" viewBox="0 0 24 24" fill="none" xmlns="http://www.w3.org/2000/svg">
<path d="M14.8997 4.97949C15.4518 4.97949 15.8995 5.42479 15.8997 5.97461C15.8997 6.5246 15.4519 6.9707 14.8997 6.9707C14.3475 6.97057 13.8997 6.52452 13.8997 5.97461C13.8999 5.42487 14.3476 4.97962 14.8997 4.97949Z" fill="currentColor"/>
<path d="M17.8997 4.97949C18.4518 4.97949 18.8995 5.42479 18.8997 5.97461C18.8997 6.5246 18.4519 6.9707 17.8997 6.9707C17.3475 6.97057 16.8997 6.52452 16.8997 5.97461C16.8999 5.42487 17.3476 4.97962 17.8997 4.97949Z" fill="currentColor"/>
<path fill-rule="evenodd" clip-rule="evenodd" d="M19.0999 3.03418C20.734 3.03418 21.9502 4.38592 21.9504 5.875V17.9941C22.0714 19.5804 20.6566 20.8662 19.0999 20.8662H4.89966C3.26554 20.866 2.05005 19.5136 2.05005 18.0244V5.875C2.05031 4.24027 3.4121 3.03439 4.89966 3.03418H19.0999ZM3.55005 9.01562V18.0244C3.55005 18.7259 4.13416 19.366 4.89966 19.3662H19.0999C19.9308 19.3662 20.507 18.6801 20.4534 18.0928C20.4513 18.0702 20.4504 18.0471 20.4504 18.0244V9.01562H3.55005ZM4.89966 4.53418C4.18781 4.53439 3.55031 5.12043 3.55005 5.875V7.51562H20.4504V5.875C20.4502 5.17358 19.8654 4.53418 19.0999 4.53418H4.89966Z" fill="currentColor"/>
</svg>
