<svg width="24" height="24" viewBox="0 0 24 24" fill="none" xmlns="http://www.w3.org/2000/svg">
<path fill-rule="evenodd" clip-rule="evenodd" d="M12.0002 2.15002C17.5144 2.15013 21.9504 6.58607 21.9504 12.1002C21.9503 17.6143 17.5143 22.0503 12.0002 22.0504C10.2752 22.0504 8.66775 21.6191 7.2854 20.9811C7.26789 20.973 7.25047 20.9641 7.23364 20.9547C7.22625 20.9538 7.21539 20.9523 7.20044 20.9518C7.13399 20.9494 7.03071 20.9578 6.88306 20.9869C6.58147 21.0465 6.22312 21.1645 5.80884 21.3004L5.7981 21.3033C5.4155 21.4289 4.97095 21.5748 4.57935 21.6432C4.37948 21.6781 4.14934 21.7017 3.92114 21.6754C3.69002 21.6488 3.40361 21.5639 3.17017 21.3307C2.89935 21.0599 2.87869 20.714 2.88208 20.5446C2.88604 20.3482 2.92797 20.1482 2.97388 19.9772C3.06677 19.6312 3.22492 19.2281 3.36548 18.8737L3.40649 18.7711C3.53926 18.4368 3.65481 18.144 3.72876 17.9059C3.7461 17.85 3.75948 17.8036 3.7688 17.7662C2.64912 16.1583 2.05009 14.171 2.05005 12.1002C2.05005 6.58601 6.48603 2.15002 12.0002 2.15002ZM9.02466 7.65881C9.01802 7.65188 8.77594 7.40292 8.49731 7.65002C7.38265 8.52329 7.29287 9.77235 7.86938 10.9918C8.21529 11.7234 8.70158 12.4173 9.44067 13.2184C10.1798 14.0195 11.0463 14.7374 11.9094 15.2555C14.2267 16.6327 17.0753 15.5193 15.6594 14.15C14.966 13.5139 14.5184 12.9608 14.5159 12.9576C14.5159 12.9576 14.1869 12.5713 13.8362 12.9401C13.7805 13.0004 13.7252 13.0611 13.6711 13.1207C13.3686 13.4546 13.0969 13.7549 12.9084 13.7633C12.5697 13.8041 9.12568 11.2044 9.96704 10.4293C10.0112 10.3918 10.0595 10.3529 10.1096 10.3121C10.4983 9.99585 10.9994 9.58739 10.5833 9.19006C10.2438 8.85603 9.02466 7.65881 9.02466 7.65881Z" fill="currentColor"/>
</svg>
