<svg width="24" height="24" viewBox="0 0 24 24" fill="none" xmlns="http://www.w3.org/2000/svg">
<path d="M8.49731 7.64999C8.7759 7.40292 9.01796 7.65178 9.02466 7.65878C9.02466 7.65878 10.245 8.85624 10.5842 9.19003C11.0534 9.63851 10.3536 10.101 9.96704 10.4293C9.12568 11.2043 12.5697 13.8041 12.9084 13.7633C13.1306 13.7533 13.4686 13.3381 13.8362 12.94C14.1869 12.5712 14.5159 12.9576 14.5159 12.9576C14.5182 12.9605 14.9658 13.5136 15.6594 14.15C17.0753 15.5192 14.2267 16.6327 11.9094 15.2555C11.0463 14.7373 10.1798 14.0195 9.44067 13.2184C8.70158 12.4173 8.2153 11.7234 7.86938 10.9918C7.29287 9.77233 7.38265 8.52326 8.49731 7.64999Z" fill="currentColor"/>
<path fill-rule="evenodd" clip-rule="evenodd" d="M12.0002 2.14999C17.5144 2.1501 21.9504 6.58604 21.9504 12.1002C21.9503 17.6142 17.5143 22.0503 12.0002 22.0504C10.2752 22.0504 8.66775 21.6191 7.2854 20.981C7.26789 20.973 7.25047 20.9641 7.23364 20.9547C7.22625 20.9537 7.21539 20.9523 7.20044 20.9518C7.13399 20.9494 7.03071 20.9578 6.88306 20.9869C6.58147 21.0464 6.22312 21.1644 5.80884 21.3004L5.7981 21.3033C5.4155 21.4289 4.97095 21.5748 4.57935 21.6432C4.37948 21.678 4.14934 21.7016 3.92114 21.6754C3.69002 21.6488 3.40361 21.5639 3.17017 21.3307C2.89935 21.0598 2.87869 20.714 2.88208 20.5445C2.88604 20.3482 2.92797 20.1482 2.97388 19.9771C3.06677 19.6311 3.22492 19.2281 3.36548 18.8736C3.37921 18.839 3.39308 18.8049 3.40649 18.7711C3.53926 18.4368 3.65481 18.1439 3.72876 17.9059C3.7461 17.85 3.75948 17.8036 3.7688 17.7662C2.64912 16.1583 2.05009 14.1709 2.05005 12.1002C2.05005 6.58598 6.48603 2.14999 12.0002 2.14999ZM12.0002 3.64999C7.31446 3.64999 3.55005 7.4144 3.55005 12.1002C3.55009 13.9517 4.10584 15.6926 5.10376 17.0543C5.32133 17.3483 5.29577 17.6867 5.28149 17.8199C5.26228 17.999 5.21256 18.1853 5.16138 18.3502C5.06902 18.6476 4.93016 18.9981 4.80298 19.318C4.78844 19.3545 4.77415 19.3907 4.76001 19.4264C4.65626 19.688 4.56392 19.9254 4.49536 20.1295C4.73083 20.0735 5.0118 19.9826 5.34106 19.8746L5.38794 19.86C5.76323 19.7367 6.19765 19.5941 6.59204 19.5162C6.80035 19.4751 7.02857 19.4446 7.25415 19.4527C7.46256 19.4603 7.71226 19.5021 7.94751 19.6344C9.15726 20.1878 10.5387 20.5504 12.0002 20.5504C16.6859 20.5503 20.4503 16.7858 20.4504 12.1002C20.4504 7.41447 16.6859 3.6501 12.0002 3.64999Z" fill="currentColor"/>
</svg>
