<svg width="24" height="24" viewBox="0 0 24 24" fill="none" xmlns="http://www.w3.org/2000/svg">
<path d="M13.9395 9C14.2323 8.70711 14.7071 8.70712 15 9C15.2929 9.29289 15.2929 9.76765 15 10.0605L13.0605 12L15 13.9395C15.2929 14.2323 15.2929 14.7071 15 15C14.7071 15.2929 14.2323 15.2929 13.9395 15L12 13.0605L10.0605 15C9.76765 15.2929 9.29289 15.2929 9 15C8.70712 14.7071 8.70711 14.2323 9 13.9395L10.9395 12L9 10.0605C8.70711 9.76765 8.70711 9.29289 9 9C9.29289 8.70712 9.76766 8.70711 10.0605 9L12 10.9395L13.9395 9Z" fill="currentColor"/>
<path fill-rule="evenodd" clip-rule="evenodd" d="M12 2C17.5228 2 22 6.47715 22 12C22 17.5228 17.5228 22 12 22C6.47715 22 2 17.5228 2 12C2 6.47715 6.47715 2 12 2ZM12 3.5C7.30558 3.5 3.5 7.30558 3.5 12C3.5 16.6944 7.30558 20.5 12 20.5C16.6944 20.5 20.5 16.6944 20.5 12C20.5 7.30558 16.6944 3.5 12 3.5Z" fill="currentColor"/>
</svg>
