<svg width="24" height="24" viewBox="0 0 24 24" fill="none" xmlns="http://www.w3.org/2000/svg">
<path fill-rule="evenodd" clip-rule="evenodd" d="M12 2C17.5228 2 22 6.47715 22 12C22 17.5228 17.5228 22 12 22C6.47715 22 2 17.5228 2 12C2 6.47715 6.47715 2 12 2ZM15 9C14.7071 8.70712 14.2323 8.70711 13.9395 9L12 10.9395L10.0605 9C9.76766 8.70711 9.29289 8.70712 9 9C8.70711 9.29289 8.70711 9.76765 9 10.0605L10.9395 12L9 13.9395C8.70711 14.2323 8.70712 14.7071 9 15C9.29289 15.2929 9.76765 15.2929 10.0605 15L12 13.0605L13.9395 15C14.2323 15.2929 14.7071 15.2929 15 15C15.2929 14.7071 15.2929 14.2323 15 13.9395L13.0605 12L15 10.0605C15.2929 9.76765 15.2929 9.29289 15 9Z" fill="currentColor"/>
</svg>
