<svg width="24" height="24" viewBox="0 0 24 24" fill="none" xmlns="http://www.w3.org/2000/svg">
<path d="M11.3997 7.94959C11.8137 7.94959 12.1494 8.28556 12.1497 8.69959V10.7504H14.0999L14.177 10.7543C14.555 10.7928 14.8499 11.1122 14.8499 11.5004C14.8497 11.9144 14.514 12.2504 14.0999 12.2504H12.1497V14.1996C12.1497 14.6138 11.8139 14.9496 11.3997 14.9496C10.9856 14.9494 10.6497 14.6137 10.6497 14.1996V12.2504H8.70044C8.28634 12.2504 7.95062 11.9144 7.95044 11.5004C7.95044 11.0862 8.28623 10.7504 8.70044 10.7504H10.6497V8.69959C10.6499 8.2857 10.9858 7.94982 11.3997 7.94959Z" fill="currentColor"/>
<path fill-rule="evenodd" clip-rule="evenodd" d="M3.22876 9.43201C4.27591 4.99791 8.7194 2.25217 13.1536 3.2992C17.5878 4.34627 20.3334 8.78978 19.2864 13.224C18.9807 14.5184 18.386 15.6691 17.5862 16.6234L20.8225 19.7611C21.1199 20.0494 21.1264 20.5243 20.8381 20.8217C20.5498 21.119 20.075 21.1266 19.7776 20.8383L16.5217 17.681C14.5985 19.2722 11.9782 19.9747 9.36157 19.3568C4.92749 18.3097 2.18173 13.8662 3.22876 9.43201ZM12.8088 4.75916C9.18091 3.9025 5.5455 6.14886 4.68872 9.77674C3.83207 13.4047 6.07845 17.0401 9.7063 17.8969C13.3343 18.7535 16.9697 16.5072 17.8264 12.8793C18.6831 9.25128 16.4368 5.61586 12.8088 4.75916Z" fill="currentColor"/>
</svg>
