<svg width="24" height="24" viewBox="0 0 24 24" fill="none" xmlns="http://www.w3.org/2000/svg">
<path d="M14.0999 10.7502L14.177 10.7542C14.555 10.7927 14.8499 11.112 14.8499 11.5002C14.8497 11.9143 14.514 12.2502 14.0999 12.2502H8.70044C8.28634 12.2502 7.95062 11.9143 7.95044 11.5002C7.95044 11.086 8.28623 10.7502 8.70044 10.7502H14.0999Z" fill="currentColor"/>
<path fill-rule="evenodd" clip-rule="evenodd" d="M3.22876 9.43189C4.27591 4.99778 8.7194 2.25205 13.1536 3.29908C17.5878 4.34615 20.3334 8.78966 19.2864 13.2239C18.9807 14.5183 18.386 15.669 17.5862 16.6233L20.8225 19.762C21.1195 20.0504 21.1264 20.5253 20.8381 20.8225C20.5497 21.1195 20.0748 21.1264 19.7776 20.8381L16.5217 17.6809C14.5985 19.2721 11.9782 19.9746 9.36157 19.3567C4.92749 18.3095 2.18173 13.866 3.22876 9.43189ZM12.8088 4.75904C9.18091 3.90238 5.5455 6.14874 4.68872 9.77662C3.83207 13.4045 6.07845 17.0399 9.7063 17.8967C13.3343 18.7534 16.9697 16.5071 17.8264 12.8792C18.6831 9.25116 16.4368 5.61574 12.8088 4.75904Z" fill="currentColor"/>
</svg>
