<svg width="24" height="24" viewBox="0 0 24 24" fill="none" xmlns="http://www.w3.org/2000/svg">
<path fill-rule="evenodd" clip-rule="evenodd" d="M3.22876 9.43201C4.27591 4.99791 8.7194 2.25217 13.1536 3.2992C17.5878 4.34627 20.3334 8.78978 19.2864 13.224C18.9807 14.5184 18.386 15.6691 17.5862 16.6234L20.8225 19.7611C21.1199 20.0494 21.1264 20.5243 20.8381 20.8217C20.5498 21.119 20.075 21.1266 19.7776 20.8383L16.5217 17.681C14.5985 19.2722 11.9782 19.9747 9.36157 19.3568C4.92749 18.3097 2.18173 13.8662 3.22876 9.43201ZM11.3997 7.94959C11.0374 7.94979 10.7352 8.20755 10.6653 8.5492C10.6563 8.59339 10.6515 8.63928 10.6506 8.68592C10.6506 8.69047 10.6497 8.69502 10.6497 8.69959V10.7504H8.70044C8.33799 10.7504 8.03501 11.0072 7.96509 11.349C7.95512 11.3978 7.95044 11.4487 7.95044 11.5004C7.95062 11.9144 8.28634 12.2504 8.70044 12.2504H10.6497V14.1996C10.6497 14.6137 10.9856 14.9494 11.3997 14.9496C11.7621 14.9496 12.0651 14.6927 12.135 14.351C12.145 14.3022 12.1497 14.2513 12.1497 14.1996V12.2504H14.0999C14.4623 12.2504 14.7653 11.9925 14.8352 11.6508C14.8451 11.6022 14.8498 11.5518 14.8499 11.5004C14.8499 11.1122 14.555 10.7928 14.177 10.7543L14.0999 10.7504H12.1497V8.69959C12.1495 8.28554 11.8138 7.94959 11.3997 7.94959Z" fill="currentColor"/>
</svg>
