<svg width="24" height="24" viewBox="0 0 24 24" fill="none" xmlns="http://www.w3.org/2000/svg">
<path fill-rule="evenodd" clip-rule="evenodd" d="M3.22876 9.43189C4.27591 4.99778 8.7194 2.25205 13.1536 3.29908C17.5878 4.34615 20.3334 8.78966 19.2864 13.2239C18.9807 14.5183 18.386 15.669 17.5862 16.6233L20.8225 19.762C21.1195 20.0504 21.1264 20.5253 20.8381 20.8225C20.5497 21.1195 20.0748 21.1264 19.7776 20.8381L16.5217 17.6809C14.5985 19.2721 11.9782 19.9746 9.36157 19.3567C4.92749 18.3095 2.18173 13.866 3.22876 9.43189ZM8.70044 10.7502C8.33799 10.7502 8.03501 11.0071 7.96509 11.3489C7.95574 11.3946 7.95105 11.4421 7.95044 11.4905C7.9504 11.4936 7.95044 11.4971 7.95044 11.5002C7.95062 11.9143 8.28634 12.2502 8.70044 12.2502H14.0999C14.434 12.2502 14.7177 12.0316 14.8147 11.7297C14.8379 11.6575 14.8498 11.5802 14.8499 11.5002C14.8499 11.112 14.555 10.7927 14.177 10.7542L14.0999 10.7502H8.70044Z" fill="currentColor"/>
</svg>
