<svg width="34" height="34" viewBox="0 0 34 34" fill="none" xmlns="http://www.w3.org/2000/svg">
<path fill-rule="evenodd" clip-rule="evenodd" d="M2.34676 21.4704L16.5493 5.40638C16.7735 5.15279 17.1365 5.15279 17.361 5.40638L31.653 21.5719C32.0152 21.9817 31.7577 22.6821 31.2452 22.6802L2.75092 22.5783C2.24037 22.5767 1.98593 21.8785 2.34676 21.4704" fill="#00B8F5"/>
<mask id="mask0_light" style="mask-type:luminance" maskUnits="userSpaceOnUse" x="2" y="11" width="30" height="18">
<path fill-rule="evenodd" clip-rule="evenodd" d="M2.125 28.7838V11.302L31.875 11.302V28.7838H2.125Z" fill="white"/>
</mask>
<g mask="url(#mask0_light)">
<path fill-rule="evenodd" clip-rule="evenodd" d="M2.28295 27.6456L16.5752 11.4801C16.7847 11.2427 17.1247 11.2427 17.3341 11.4801L31.7167 27.7477C32.0553 28.1308 31.8142 28.7854 31.3356 28.7838L2.66072 28.6814C2.18378 28.68 1.94546 28.0274 2.28295 27.6456" fill="#012A72"/>
</g>
<path fill-rule="evenodd" clip-rule="evenodd" d="M14.8557 18.8093C14.7007 18.8093 14.5876 18.7676 14.5143 18.6836C14.4404 18.5996 14.4038 18.5038 14.4038 18.3965C14.4038 18.29 14.4404 18.1962 14.5143 18.116C14.5876 18.0359 14.7007 17.9955 14.8557 17.9955H19.1451C19.2998 17.9955 19.414 18.0384 19.4876 18.1223C19.5603 18.2063 19.597 18.3013 19.597 18.4086C19.597 18.5159 19.5603 18.6092 19.4876 18.6894C19.414 18.7692 19.2998 18.8093 19.1451 18.8093H18.519C18.249 18.8093 18.0209 18.8055 17.8348 18.7983C17.6501 18.7898 17.5376 18.7821 17.499 18.775V18.8205C17.6615 18.8894 17.8198 19.0042 17.9745 19.1644C18.129 19.3247 18.2451 19.527 18.3223 19.7713H19.1451C19.2998 19.7713 19.414 19.8132 19.4876 19.8972C19.5603 19.9812 19.597 20.077 19.597 20.1832C19.597 20.2902 19.5603 20.3836 19.4876 20.4637C19.414 20.5438 19.2998 20.5842 19.1451 20.5842H18.3801C18.3415 20.9355 18.2451 21.2357 18.0906 21.4836C17.9359 21.7314 17.7479 21.9359 17.5282 22.097C17.3073 22.2572 17.064 22.3794 16.7979 22.4631C16.5309 22.5471 16.2707 22.6003 16.0151 22.6234L18.6348 25.1085C18.7584 25.2307 18.8206 25.3684 18.8206 25.5216C18.8206 25.6659 18.7742 25.7881 18.6817 25.8877C18.5884 25.9865 18.4612 26.037 18.299 26.037C18.214 26.037 18.1309 26.023 18.0498 25.9967C17.9687 25.9698 17.8856 25.9149 17.8009 25.8301L14.7168 22.8528C14.6318 22.7765 14.5699 22.698 14.531 22.6179C14.4924 22.5377 14.4735 22.4557 14.4735 22.3711C14.4735 22.2265 14.5199 22.1063 14.6121 22.0102C14.7057 21.915 14.8254 21.8678 14.9715 21.8678H15.1226C15.3621 21.8678 15.6001 21.8461 15.8357 21.8041C16.0715 21.7624 16.284 21.6897 16.4734 21.587C16.6623 21.4836 16.8226 21.3524 16.9548 21.1918C17.0857 21.0315 17.1707 20.8293 17.2095 20.5842H14.8557C14.7007 20.5842 14.5876 20.543 14.5143 20.4582C14.4404 20.3742 14.4038 20.2793 14.4038 20.1722C14.4038 20.0649 14.4404 19.9716 14.5143 19.8915C14.5876 19.8113 14.7007 19.7713 14.8557 19.7713H17.1509C16.9498 19.1301 16.3593 18.8093 15.3773 18.8093H14.8557Z" fill="white"/>
</svg>
