<!-- Figma 1649:7514 — SVG export; same paths as AllocationBreakdownFigmaBar16497514.tsx (for ?url / img). -->
<svg width="100%" height="100%" preserveAspectRatio="none" viewBox="0 0 331 40" fill="none" xmlns="http://www.w3.org/2000/svg">
<path fill-rule="evenodd" clip-rule="evenodd" d="M321 0.117188C325.743 1.19737 331 9.68643 331 20C331 30.3134 325.743 38.8014 321 39.8818V40H277V0H321V0.117188Z" fill="url(#paint0_linear_1649_7514)"/>
<path d="M278 0C282.971 0 287 8.9543 287 20C287 31.0457 282.971 40 278 40H169V0H278Z" fill="url(#paint1_linear_1649_7514)"/>
<g>
<path fill-rule="evenodd" clip-rule="evenodd" d="M170 0C174.971 0 179 8.9543 179 20C179 31.0457 174.971 40 170 40H13V0H170Z" fill="url(#paint2_linear_1649_7514)"/>
<ellipse cx="13" cy="20" rx="13" ry="20" fill="#ECFFB7"/>
</g>
<defs>
<linearGradient id="paint0_linear_1649_7514" x1="279.136" y1="20" x2="331" y2="20" gradientUnits="userSpaceOnUse">
<stop stop-color="#FFF371"/>
<stop offset="1" stop-color="#FFEB12"/>
</linearGradient>
<linearGradient id="paint1_linear_1649_7514" x1="287" y1="20" x2="195.5" y2="20" gradientUnits="userSpaceOnUse">
<stop stop-color="#E85168"/>
<stop offset="1" stop-color="#F197A4"/>
</linearGradient>
<linearGradient id="paint2_linear_1649_7514" x1="11" y1="20" x2="179" y2="20" gradientUnits="userSpaceOnUse">
<stop stop-color="#CDF197"/>
<stop offset="1" stop-color="#ACE851"/>
</linearGradient>
</defs>
</svg>
